<svg width="16" height="16" viewBox="0 0 16 16" fill="none" xmlns="http://www.w3.org/2000/svg">
<path d="M6.09589 0.549805C3.81689 0.549805 1.96289 2.4038 1.96289 4.6828V9.1283C1.96289 9.6373 2.37689 10.0518 2.88589 10.0518H3.46889V13.9123C3.46868 14.136 3.51728 14.357 3.61131 14.56C3.70533 14.763 3.84251 14.943 4.01328 15.0875C4.18405 15.232 4.38429 15.3375 4.60003 15.3966C4.81577 15.4557 5.04182 15.4671 5.26239 15.4298C5.99439 15.3108 6.54589 14.6333 6.54589 13.8543V0.999805C6.54589 0.880457 6.49848 0.765998 6.41409 0.681607C6.3297 0.597215 6.21524 0.549805 6.09589 0.549805ZM5.64589 13.8533C5.64589 14.1963 5.41889 14.4913 5.11739 14.5403C5.02559 14.5563 4.9314 14.5521 4.84141 14.5279C4.75142 14.5037 4.66781 14.4601 4.59645 14.4002C4.52509 14.3403 4.4677 14.2654 4.4283 14.181C4.38891 14.0965 4.36846 14.0045 4.36839 13.9113V9.6008C4.36839 9.48146 4.32098 9.367 4.23659 9.28261C4.1522 9.19821 4.03774 9.1508 3.91839 9.1508L2.86239 9.1278V4.6823C2.86325 3.90311 3.14519 3.15039 3.65643 2.56236C4.16767 1.97433 4.87389 1.59049 5.64539 1.4813V13.8533H5.64589ZM13.0684 0.551305H9.04539C8.78848 0.551569 8.54216 0.653745 8.3605 0.835411C8.17883 1.01708 8.07666 1.26339 8.07639 1.5203L8.07839 6.2028C8.16539 7.1508 8.67239 7.7693 9.51939 7.9803V13.9118C9.51939 14.7598 10.2089 15.4498 11.0569 15.4498C11.9049 15.4498 12.5944 14.7598 12.5944 13.9118V7.9798C13.4414 7.7688 13.9484 7.1453 14.0374 6.1613V1.5203C14.0371 1.26339 13.935 1.01708 13.7533 0.835411C13.5716 0.653745 13.3253 0.551569 13.0684 0.551305ZM12.1044 7.1513C11.9925 7.16129 11.8883 7.21281 11.8124 7.29572C11.7366 7.37862 11.6944 7.48692 11.6944 7.5993V13.9118C11.6944 14.2633 11.4084 14.5493 11.0569 14.5493C10.7054 14.5493 10.4194 14.2633 10.4194 13.9118V7.5993C10.4195 7.48689 10.3774 7.37853 10.3015 7.2956C10.2256 7.21266 10.1214 7.16118 10.0094 7.1513C9.34489 7.0923 9.03539 6.7838 8.97639 6.1618V1.5203C8.97639 1.4823 9.00739 1.4513 9.04539 1.4513H9.76339V5.1383C9.76339 5.25765 9.8108 5.37211 9.89519 5.4565C9.97958 5.54089 10.094 5.5883 10.2134 5.5883C10.3327 5.5883 10.4472 5.54089 10.5316 5.4565C10.616 5.37211 10.6634 5.25765 10.6634 5.1383V1.4513H11.4504V5.1383C11.4504 5.25765 11.4978 5.37211 11.5822 5.4565C11.6666 5.54089 11.781 5.5883 11.9004 5.5883C12.0197 5.5883 12.1342 5.54089 12.2186 5.4565C12.303 5.37211 12.3504 5.25765 12.3504 5.1383V1.4513H13.0689C13.0872 1.45143 13.1047 1.45873 13.1177 1.47163C13.1307 1.48453 13.1381 1.502 13.1384 1.5203L13.1404 6.1198C13.0784 6.7833 12.7689 7.0923 12.1044 7.1513Z" fill="#4257EE"/>
</svg>
