<svg width="17" height="16" viewBox="0 0 17 16" fill="none" xmlns="http://www.w3.org/2000/svg">
<path d="M11.6837 3.0233H10.8627V1.4498H11.1452C11.3937 1.4498 11.5952 1.2483 11.5952 0.999805C11.5952 0.751305 11.3937 0.549805 11.1452 0.549805H5.85369C5.60519 0.549805 5.40369 0.751305 5.40369 0.999805C5.40369 1.2483 5.60519 1.4498 5.85369 1.4498H6.13619V3.0233H5.31569C4.27569 3.0233 3.42969 3.8693 3.42969 4.9093V12.2408C3.42969 13.2808 4.27569 14.1268 5.31569 14.1268H5.71619V14.9998C5.71619 15.2483 5.91769 15.4498 6.16619 15.4498C6.41469 15.4498 6.61619 15.2483 6.61619 14.9998V14.1273H10.3827V14.9998C10.3827 15.2483 10.5842 15.4498 10.8327 15.4498C11.0812 15.4498 11.2827 15.2483 11.2827 14.9998V14.1273H11.6832C12.7232 14.1273 13.5692 13.2813 13.5692 12.2413V4.9093C13.5702 3.8693 12.7237 3.0233 11.6837 3.0233ZM7.03669 1.4498H9.96269V3.0233H7.03669V1.4498ZM12.6697 12.2408C12.6697 12.7843 12.2277 13.2268 11.6837 13.2268H5.31569C4.77169 13.2268 4.32969 12.7843 4.32969 12.2408V4.9093C4.32969 4.3658 4.77169 3.9233 5.31569 3.9233H11.6837C12.2277 3.9233 12.6697 4.3658 12.6697 4.9093V12.2408Z" fill="#393A53"/>
<path d="M11.1197 5.47656H5.87969C5.63119 5.47656 5.42969 5.67806 5.42969 5.92656C5.42969 6.17506 5.63119 6.37656 5.87969 6.37656H9.72169V6.90506C9.72169 7.15356 9.92319 7.35506 10.1717 7.35506C10.4202 7.35506 10.6217 7.15356 10.6217 6.90506V6.37656H11.1197C11.3682 6.37656 11.5697 6.17506 11.5697 5.92656C11.5697 5.67806 11.3682 5.47656 11.1197 5.47656Z" fill="#393A53"/>
</svg>
