<svg width="33" height="32" viewBox="0 0 33 32" fill="none" xmlns="http://www.w3.org/2000/svg">
<rect x="0.5" width="32" height="32" rx="4" fill="#D7E0FE"/>
<path d="M23.6898 10.4974H19.795L20.383 6.99045C20.4633 6.52545 20.8803 6.1752 21.355 6.1752H24.6663C25.039 6.1752 25.3413 5.87295 25.3413 5.5002C25.3413 5.12745 25.039 4.8252 24.6663 4.8252H21.355C20.2128 4.8252 19.2453 5.6397 19.0533 6.7647L18.427 10.4974H9.17276C8.55701 10.4974 8.02451 10.8492 7.78301 11.4154C7.54151 11.9817 7.65551 12.6094 8.08151 13.0542L15.7563 21.0657V25.8252H14.1618C13.789 25.8252 13.4868 26.1274 13.4868 26.5002C13.4868 26.8729 13.789 27.1752 14.1618 27.1752H18.8388C19.2115 27.1752 19.5138 26.8729 19.5138 26.5002C19.5138 26.1274 19.2115 25.8252 18.8388 25.8252H17.1063V21.0657L24.7818 13.0542C25.207 12.6094 25.3218 11.9817 25.0795 11.4154C24.8373 10.8492 24.3055 10.4974 23.6898 10.4974ZM9.05651 12.1197C9.00776 12.0687 8.99651 12.0102 9.02501 11.9449C9.05276 11.8797 9.10301 11.8467 9.17351 11.8467H18.2005L17.8008 14.2302H11.0778L9.05651 12.1197ZM16.4313 19.8184L12.3708 15.5802H20.491L16.4313 19.8184ZM23.806 12.1197L21.7848 14.2302H19.1695L19.5693 11.8467H23.6898C23.761 11.8467 23.8105 11.8797 23.8383 11.9449C23.866 12.0102 23.8555 12.0687 23.806 12.1197Z" fill="#052BA6"/>
</svg>
