<svg width="17" height="148" viewBox="0 0 17 148" fill="none" xmlns="http://www.w3.org/2000/svg">
<line x1="7.5" y1="3" x2="7.49999" y2="147" stroke="#B0B2C9"/>
<circle cx="7.5" cy="4" r="4" fill="#4257EE"/>
<rect x="0.75" y="66.25" width="15.5" height="15.5" rx="7.75" fill="#F8CC50"/>
<rect x="0.75" y="66.25" width="15.5" height="15.5" rx="7.75" stroke="#CDA840" stroke-width="0.5"/>
<path d="M11.8513 70.0001C11.5141 69.9948 11.1085 70.2025 10.7702 70.5406C10.2166 71.039 9.67269 71.5976 9.14859 72.1622L4.82432 71.2974L4.5 71.946L7.7432 73.5676L5.90539 75.7298C5.48399 75.5912 4.82432 75.4335 4.82432 75.946C4.82432 76.0473 4.84973 76.1517 4.93243 76.2703L6.22971 77.5676C6.34841 77.6504 6.45273 77.6757 6.55403 77.6757C7.06656 77.6757 6.90883 77.016 6.77024 76.5946L8.93237 74.7568L10.554 78L11.2026 77.6757L10.3378 73.3514C10.9024 72.8273 11.4611 72.2834 11.9594 71.7298C12.2975 71.3916 12.5053 70.9859 12.4999 70.6487C12.497 70.4671 12.4397 70.2941 12.3235 70.1766C12.2058 70.0603 12.0329 70.003 11.8513 70.0001Z" fill="#4257EE"/>
<circle cx="7.5" cy="144" r="4" fill="#F66A13"/>
</svg>
