<svg width="31" height="30" viewBox="0 0 31 30" fill="none" xmlns="http://www.w3.org/2000/svg">
    <path d="M28.6056 17.3858H26.9196V15.1888C26.9196 10.3188 23.8496 6.16283 19.5476 4.52383V4.47183C19.5476 2.23983 17.7316 0.423828 15.4986 0.423828C13.2656 0.423828 11.4496 2.23983 11.4496 4.47183V4.52383C7.14761 6.16283 4.07761 10.3188 4.07761 15.1888V17.3858H2.39361C1.40461 17.3858 0.599609 18.1908 0.599609 19.1788V23.7268C0.600668 24.4946 0.906121 25.2306 1.449 25.7734C1.99187 26.3163 2.72787 26.6218 3.49561 26.6228H4.13861C4.27843 27.4471 4.70502 28.1955 5.34305 28.7359C5.98109 29.2762 6.78953 29.5737 7.62561 29.5758H23.3736C24.2097 29.5737 25.0181 29.2762 25.6562 28.7359C26.2942 28.1955 26.7208 27.4471 26.8606 26.6228H27.5036C28.2714 26.6218 29.0073 26.3163 29.5502 25.7734C30.0931 25.2306 30.3986 24.4946 30.3996 23.7268V19.1788C30.3996 18.1898 29.5956 17.3858 28.6056 17.3858ZM15.4996 2.22383C16.0107 2.22479 16.5062 2.39969 16.9046 2.71976C17.303 3.03983 17.5805 3.48599 17.6916 3.98483C16.9816 3.84583 16.2496 3.76883 15.4996 3.76883C14.7496 3.76883 14.0176 3.84583 13.3076 3.98483C13.4187 3.48599 13.6963 3.03983 14.0947 2.71976C14.4931 2.39969 14.9886 2.22479 15.4996 2.22383ZM2.39961 23.7268L2.39261 19.1848H4.07861V24.8228H3.49561C3.20501 24.8226 2.9264 24.707 2.72091 24.5015C2.51543 24.296 2.39987 24.0174 2.39961 23.7268ZM20.0476 27.7758H10.9516V23.6918C10.9516 21.1838 12.9916 19.1438 15.4996 19.1438C18.0076 19.1438 20.0476 21.1838 20.0476 23.6918V27.7758ZM25.1196 26.0298C25.1196 26.9928 24.3366 27.7758 23.3736 27.7758H21.8486V23.6918C21.8486 20.1918 18.9996 17.3438 15.4996 17.3438C11.9996 17.3438 9.15061 20.1918 9.15061 23.6918V27.7758H7.62561C7.1627 27.7753 6.71891 27.5912 6.39159 27.2639C6.06426 26.9365 5.88014 26.4927 5.87961 26.0298V15.1888C5.87961 9.88383 10.1946 5.56783 15.4996 5.56783C20.8046 5.56783 25.1196 9.88383 25.1196 15.1888V26.0298ZM28.5996 23.7268C28.5996 24.3308 28.1086 24.8228 27.5036 24.8228H26.9206V19.1828L28.5996 19.1788V23.7268Z" fill="#000000"/>
</svg>
