<svg width="16" height="16" viewBox="0 0 16 16" fill="none" xmlns="http://www.w3.org/2000/svg">
<path d="M13.1873 3.95055H10.6608V2.72855C10.6608 2.08755 10.1388 1.56555 9.4978 1.56555H6.5018C5.8608 1.56555 5.3388 2.08755 5.3388 2.72855V3.95055H2.8123C1.5648 3.95055 0.549805 4.96555 0.549805 6.21305V12.1716C0.549805 13.4191 1.5648 14.4341 2.8123 14.4341H13.1873C14.4348 14.4341 15.4498 13.4191 15.4498 12.1716V6.21355C15.4498 4.96605 14.4348 3.95055 13.1873 3.95055ZM11.3208 4.85105V13.5341H4.6788V4.85105H11.3208ZM6.2393 2.72855C6.2393 2.58355 6.3568 2.46605 6.5018 2.46605H9.4978C9.64281 2.46605 9.7603 2.58355 9.7603 2.72855V3.95055H6.2388V2.72855H6.2393ZM1.4498 12.1721V6.21355C1.4498 5.46205 2.0608 4.85105 2.8123 4.85105H3.7788V13.5341H2.8123C2.0608 13.5341 1.4498 12.9236 1.4498 12.1721ZM14.5498 12.1721C14.5498 12.9236 13.9388 13.5346 13.1873 13.5346H12.2208V4.85105H13.1873C13.9388 4.85105 14.5498 5.46205 14.5498 6.21355V12.1721Z" fill="#393A53"/>
<path d="M6.94805 9.64304H9.05255C9.30105 9.64304 9.50255 9.44154 9.50255 9.19304C9.50255 8.94454 9.30105 8.74304 9.05255 8.74304H6.94805C6.69955 8.74304 6.49805 8.94454 6.49805 9.19304C6.49805 9.44154 6.69905 9.64304 6.94805 9.64304Z" fill="#393A53"/>
</svg>
