<svg width="14" height="16" viewBox="0 0 14 16" fill="none" xmlns="http://www.w3.org/2000/svg">
<path d="M13.4539 9.87537C13.3729 9.55151 13.2837 9.03247 13.1884 8.33289C13.0859 7.5802 13.025 6.82227 13.0042 6.0625V6H13.0028C12.9929 5.59338 12.9946 5.18616 13.0081 4.77893L13.0084 4.77881L13.0081 4.77856C13.0338 4.00464 13.101 3.23059 13.2112 2.45972L13.5626 0H2.11606L0.706388 6.56372C0.366178 8.14819 0.287443 9.73071 0.472379 11.2672C0.665495 12.8715 1.14181 14.3813 1.88827 15.755L2.02133 16H4.93039L5.05331 14.3284C5.20517 12.2651 5.95273 10.3085 7.2153 8.66968L7.55978 8.22253L7.57944 8.19507C7.58298 8.18982 7.58615 8.18433 7.58957 8.17908C7.58298 8.23035 7.57699 8.28162 7.57004 8.33289C7.47482 9.03259 7.38547 9.55164 7.30453 9.87537C6.89865 11.4987 7.12277 13.1984 7.93539 14.661L8.67917 16H12.0792L12.8231 14.661C13.6357 13.1984 13.8597 11.4987 13.4539 9.87537ZM12.0035 14.2057L11.5276 15.0625H9.2308L8.75485 14.2057C8.14047 13.0999 7.91879 11.8361 8.11349 10.5985C8.31161 10.9368 8.58591 11.2313 8.92306 11.4562C9.36545 11.751 9.87228 11.8983 10.3792 11.8983C10.8861 11.8983 11.393 11.751 11.8353 11.4561C12.1725 11.2313 12.4469 10.9368 12.6449 10.5985C12.8396 11.8362 12.6179 13.0999 12.0035 14.2057ZM12.0667 6.07117V7.46106L11.0732 6.55115L12.0597 5.64771C12.0608 5.78894 12.063 5.93005 12.0667 6.07117ZM12.0667 9.27197C12.0667 9.83752 11.7859 10.3624 11.3153 10.6761C10.7467 11.0552 10.0118 11.0552 9.44321 10.6761C8.97262 10.3624 8.69174 9.83752 8.69174 9.27197V8.7323L10.3792 7.18677L12.0667 8.73242V9.27197ZM8.6987 5.64771L9.68515 6.55115L8.69174 7.46106V6.07129C8.69553 5.93018 8.69772 5.78894 8.6987 5.64771ZM8.27682 0.9375H12.4817L12.3324 1.98218H8.42599L8.27682 0.9375ZM12.0879 4.35059L10.3792 5.91553L8.6705 4.35059C8.64621 3.87317 8.60629 3.396 8.55112 2.91968H12.2074C12.1522 3.396 12.1123 3.87317 12.0879 4.35059ZM6.47262 8.09753C5.09775 9.88208 4.28366 12.0129 4.11838 14.2596L4.05929 15.0625H2.58285C2.07052 14.0613 1.71054 12.9839 1.50741 11.8489C1.60055 11.8669 1.69467 11.8804 1.78976 11.8882C1.86081 11.8939 1.93173 11.8969 2.00278 11.8969C2.51925 11.8969 3.03024 11.7435 3.46139 11.4562C4.19333 10.9681 4.63034 10.1517 4.63034 9.27197V6.61426L6.25339 5.12769C6.41977 5.37317 6.58847 5.58582 6.72275 5.75513C7.15878 6.30481 7.19162 7.07007 6.80624 7.66455L6.47262 8.09753ZM6.51217 0.9375C6.32797 1.23547 6.11496 1.59924 5.9172 1.98218H2.64926L2.87362 0.9375H6.51217ZM1.36923 10.8348C1.33224 10.4435 1.31381 10.0491 1.3132 9.65234L3.69284 7.4729V9.27197C3.69284 9.83752 3.41195 10.3624 2.94137 10.6761C2.62607 10.8862 2.24447 10.9849 1.86667 10.9539C1.69504 10.9397 1.52804 10.8994 1.36923 10.8348ZM5.78964 4.28125L4.00094 5.91943L2.14633 4.3241L2.44797 2.91968H5.5892C5.53122 3.35522 5.59799 3.81067 5.78964 4.28125ZM1.92209 5.36792L3.30465 6.55713L1.37851 8.32129C1.43002 7.80273 1.51108 7.28198 1.62301 6.76074L1.92209 5.36792ZM7.45724 5.17249C6.84006 4.39441 6.21811 3.48975 6.65536 2.60022C6.88864 2.12573 7.16513 1.66003 7.38339 1.31311L7.54721 2.45972C7.65732 3.23059 7.72458 4.00464 7.75021 4.77856L7.75009 4.77881L7.75033 4.77893C7.75998 5.07251 7.76364 5.36609 7.7612 5.65942C7.67953 5.48889 7.57846 5.32532 7.45724 5.17249Z" fill="#F8CC50"/>
</svg>
