<svg width="33" height="32" viewBox="0 0 33 32" fill="none" xmlns="http://www.w3.org/2000/svg">
<rect x="0.5" width="32" height="32" rx="4" fill="#D7E0FE"/>
<path d="M26.9992 13.657H22.659V10.7612H22.7835C23.1562 10.7612 23.4585 10.459 23.4585 10.0862C23.4585 9.71348 23.1562 9.41123 22.7835 9.41123H21.129V8.14298C21.129 7.40423 20.5282 6.80273 19.7887 6.80273H13.2097C12.471 6.80273 11.8695 7.40348 11.8695 8.14298V9.41123H10.2157C9.84297 9.41123 9.54072 9.71348 9.54072 10.0862C9.54072 10.459 9.84297 10.7612 10.2157 10.7612H10.3402V13.657H5.99922C5.62647 13.657 5.32422 13.9592 5.32422 14.332C5.32422 14.7047 5.62647 15.007 5.99922 15.007H6.12372V23.98C6.12372 24.6512 6.66972 25.1972 7.34097 25.1972H11.0145H21.984H25.6575C26.3287 25.1972 26.8747 24.6505 26.8747 23.98V15.007H26.9992C27.372 15.007 27.6742 14.7047 27.6742 14.332C27.6742 13.9592 27.372 13.657 26.9992 13.657ZM13.2097 8.15273L19.779 8.14298V9.41123H13.2157L13.2097 8.15273ZM7.47297 15.007H10.3395V23.8465H7.47297V15.007ZM11.6895 14.332V10.7612H21.309V14.332V23.8465H19.0387V20.3267C19.0387 19.5505 18.4072 18.9182 17.6317 18.9182H15.3667C14.5905 18.9182 13.9597 19.5505 13.9597 20.3267V23.8465H11.6895V14.332ZM17.6887 23.8465H15.309V20.3267C15.309 20.2945 15.3352 20.269 15.3667 20.269H17.6317C17.6632 20.269 17.6895 20.2945 17.6895 20.3267L17.6887 23.8465ZM25.5255 23.8465H22.659V15.007H25.5255V23.8465Z" fill="#052BA6"/>
<path d="M13.9035 14.225H19.0965C19.4693 14.225 19.7715 13.9227 19.7715 13.55C19.7715 13.1772 19.4693 12.875 19.0965 12.875H13.9035C13.5308 12.875 13.2285 13.1772 13.2285 13.55C13.2285 13.9227 13.5308 14.225 13.9035 14.225ZM19.0965 16.8057C19.4693 16.8057 19.7715 16.5035 19.7715 16.1307C19.7715 15.758 19.4693 15.4557 19.0965 15.4557H13.9035C13.5308 15.4557 13.2285 15.758 13.2285 16.1307C13.2285 16.5035 13.5308 16.8057 13.9035 16.8057H19.0965Z" fill="#052BA6"/>
</svg>
