<svg width="16" height="16" viewBox="0 0 16 16" fill="none" xmlns="http://www.w3.org/2000/svg">
<path d="M8 1.3335V0.583496V1.3335ZM4 5.3335H3.25H4ZM2 11.3335L1.58397 10.7095C1.30898 10.8928 1.18641 11.2345 1.28218 11.5508C1.37795 11.8672 1.6695 12.0835 2 12.0835L2 11.3335ZM14 11.3335V12.0835C14.3305 12.0835 14.622 11.8672 14.7178 11.5508C14.8136 11.2345 14.691 10.8928 14.416 10.7095L14 11.3335ZM9.80208 14.3765C10.0099 14.0182 9.88796 13.5593 9.52966 13.3514C9.17137 13.1436 8.71242 13.2655 8.50458 13.6238L9.80208 14.3765ZM7.49542 13.6238C7.28758 13.2655 6.82863 13.1436 6.47034 13.3514C6.11204 13.5593 5.99008 14.0182 6.19792 14.3765L7.49542 13.6238ZM12.75 5.3335C12.75 4.07372 12.2496 2.86554 11.3588 1.97474L10.2981 3.0354C10.9076 3.64489 11.25 4.47154 11.25 5.3335H12.75ZM11.3588 1.97474C10.468 1.08394 9.25978 0.583496 8 0.583496V2.0835C8.86195 2.0835 9.6886 2.42591 10.2981 3.0354L11.3588 1.97474ZM8 0.583496C6.74022 0.583496 5.53204 1.08394 4.64124 1.97474L5.7019 3.0354C6.3114 2.42591 7.13805 2.0835 8 2.0835V0.583496ZM4.64124 1.97474C3.75045 2.86554 3.25 4.07372 3.25 5.3335L4.75 5.3335C4.75 4.47154 5.09241 3.64489 5.7019 3.0354L4.64124 1.97474ZM3.25 5.3335C3.25 7.55632 2.7747 8.9303 2.34158 9.72436C2.12398 10.1233 1.91292 10.3835 1.76804 10.5364C1.6954 10.6131 1.63888 10.6634 1.6058 10.6909C1.58925 10.7047 1.57855 10.7128 1.5746 10.7158C1.57263 10.7173 1.57235 10.7174 1.57387 10.7163C1.57463 10.7158 1.57585 10.715 1.57753 10.7138C1.57837 10.7132 1.57932 10.7126 1.5804 10.7119C1.58093 10.7115 1.5815 10.7111 1.5821 10.7107C1.58239 10.7105 1.58286 10.7102 1.58301 10.7101C1.58349 10.7098 1.58397 10.7095 2 11.3335C2.41603 11.9575 2.41653 11.9572 2.41703 11.9569C2.41721 11.9567 2.41773 11.9564 2.41809 11.9562C2.4188 11.9557 2.41955 11.9552 2.42033 11.9546C2.42189 11.9536 2.42357 11.9524 2.42537 11.9512C2.42897 11.9487 2.43306 11.9459 2.4376 11.9427C2.44669 11.9363 2.45764 11.9284 2.47032 11.919C2.49567 11.9001 2.52794 11.875 2.56608 11.8433C2.64237 11.7797 2.7421 11.6893 2.85696 11.5681C3.08708 11.3252 3.37602 10.9604 3.65842 10.4426C4.2253 9.40336 4.75 7.77733 4.75 5.3335H3.25ZM2 12.0835H14V10.5835H2V12.0835ZM14 11.3335C14.416 10.7095 14.4165 10.7098 14.417 10.7101C14.4171 10.7102 14.4176 10.7105 14.4179 10.7107C14.4185 10.7111 14.4191 10.7115 14.4196 10.7119C14.4207 10.7126 14.4216 10.7132 14.4225 10.7138C14.4242 10.715 14.4254 10.7158 14.4261 10.7163C14.4277 10.7174 14.4274 10.7173 14.4254 10.7158C14.4215 10.7128 14.4107 10.7047 14.3942 10.6909C14.3611 10.6634 14.3046 10.6131 14.232 10.5364C14.0871 10.3835 13.876 10.1233 13.6584 9.72436C13.2253 8.9303 12.75 7.55632 12.75 5.3335H11.25C11.25 7.77733 11.7747 9.40336 12.3416 10.4426C12.624 10.9604 12.9129 11.3252 13.143 11.5681C13.2579 11.6893 13.3576 11.7797 13.4339 11.8433C13.4721 11.875 13.5043 11.9001 13.5297 11.919C13.5424 11.9284 13.5533 11.9363 13.5624 11.9427C13.5669 11.9459 13.571 11.9487 13.5746 11.9512C13.5764 11.9524 13.5781 11.9536 13.5797 11.9546C13.5804 11.9552 13.5812 11.9557 13.5819 11.9562C13.5823 11.9564 13.5828 11.9567 13.583 11.9569C13.5835 11.9572 13.584 11.9575 14 11.3335ZM8.50458 13.6238C8.4533 13.7122 8.3797 13.7856 8.29115 13.8366L9.03982 15.1364C9.35609 14.9543 9.61895 14.6922 9.80208 14.3765L8.50458 13.6238ZM8.29115 13.8366C8.2026 13.8876 8.10219 13.9145 8 13.9145V15.4145C8.36498 15.4145 8.72355 15.3186 9.03982 15.1364L8.29115 13.8366ZM8 13.9145C7.89781 13.9145 7.79741 13.8876 7.70885 13.8366L6.96018 15.1364C7.27645 15.3186 7.63502 15.4145 8 15.4145V13.9145ZM7.70885 13.8366C7.6203 13.7856 7.5467 13.7122 7.49542 13.6238L6.19792 14.3765C6.38105 14.6922 6.64391 14.9543 6.96018 15.1364L7.70885 13.8366Z" fill="#FCFCFD"/>
</svg>
