<svg width="33" height="32" viewBox="0 0 33 32" fill="none" xmlns="http://www.w3.org/2000/svg">
<path d="M26.922 4.0678H24.402V3.4498C24.402 2.9528 23.999 2.5498 23.502 2.5498C23.005 2.5498 22.602 2.9528 22.602 3.4498V4.0678H10.402V3.4498C10.402 2.9528 9.999 2.5498 9.502 2.5498C9.005 2.5498 8.602 2.9528 8.602 3.4498V4.0678H6.078C3.608 4.0678 1.599 6.0768 1.599 8.5468V24.9718C1.599 27.4418 3.608 29.4508 6.078 29.4508H26.922C29.392 29.4508 31.401 27.4418 31.401 24.9718V8.5458C31.4 6.0768 29.392 4.0678 26.922 4.0678ZM29.6 24.9718C29.6 26.4488 28.399 27.6508 26.922 27.6508H6.078C4.601 27.6508 3.4 26.4488 3.4 24.9718V8.5458C3.4 7.0688 4.601 5.8668 6.078 5.8668H8.6V6.5748C8.6 7.0718 9.003 7.4748 9.5 7.4748C9.997 7.4748 10.4 7.0718 10.4 6.5748V5.8678H22.6V6.5758C22.6 7.0728 23.003 7.4758 23.5 7.4758C23.997 7.4758 24.4 7.0728 24.4 6.5758V5.8678H26.92C28.397 5.8678 29.598 7.0698 29.598 8.5468V24.9718H29.6Z" fill="#4257EE"/>
<path d="M9.291 13.25C8.651 13.25 8.133 13.768 8.133 14.408C8.133 15.048 8.651 15.566 9.291 15.566C9.931 15.566 10.449 15.048 10.449 14.408C10.449 13.769 9.93 13.25 9.291 13.25ZM16.5 13.25C15.86 13.25 15.342 13.768 15.342 14.408C15.342 15.048 15.861 15.566 16.5 15.566C17.139 15.566 17.658 15.048 17.658 14.408C17.658 13.769 17.14 13.25 16.5 13.25ZM23.709 13.25C23.069 13.25 22.551 13.768 22.551 14.408C22.551 15.048 23.069 15.566 23.709 15.566C24.349 15.566 24.867 15.048 24.867 14.408C24.867 13.769 24.349 13.25 23.709 13.25ZM9.291 19.559C8.651 19.559 8.133 20.077 8.133 20.717C8.133 21.357 8.651 21.875 9.291 21.875C9.931 21.875 10.449 21.356 10.449 20.717C10.449 20.077 9.93 19.559 9.291 19.559Z" fill="#4257EE"/>
<path d="M16.5 21.8746C17.1395 21.8746 17.658 21.3561 17.658 20.7166C17.658 20.077 17.1395 19.5586 16.5 19.5586C15.8604 19.5586 15.342 20.077 15.342 20.7166C15.342 21.3561 15.8604 21.8746 16.5 21.8746Z" fill="#4257EE"/>
<path d="M23.709 19.5586C23.069 19.5586 22.551 20.0766 22.551 20.7166C22.551 21.3566 23.069 21.8746 23.709 21.8746C24.349 21.8746 24.867 21.3556 24.867 20.7166C24.867 20.0766 24.349 19.5586 23.709 19.5586Z" fill="#4257EE"/>
</svg>
