<svg width="26" height="32" viewBox="0 0 26 32" fill="none" xmlns="http://www.w3.org/2000/svg">
<path d="M25.3997 15.363C25.1831 14.9277 24.636 14.7505 24.2008 14.9669C24.1849 14.9748 23.496 15.3082 22.152 15.6924V1.28909C22.152 0.802942 21.7949 0.384766 21.3087 0.384766H21.2812C20.795 0.384766 20.36 0.802942 20.36 1.28909V2.58291C19.208 2.98726 16.9864 3.46739 13.0646 3.46739C8.85607 3.46739 6.79201 2.86662 5.70401 2.41145V1.28909C5.70401 0.802942 5.34452 0.384766 4.85838 0.384766H4.83099C4.34478 0.384766 3.91201 0.802942 3.91201 1.28909V15.8379C2.56801 15.4874 1.77582 15.1776 1.74535 15.1647C1.29915 14.9725 0.791561 15.178 0.598921 15.6241C0.406217 16.0705 0.616521 16.5885 1.06292 16.7813C1.15367 16.8205 2.34497 17.3231 4.56385 17.7917L11.7465 23.1964L2.69486 30.0091C2.30651 30.3014 2.22887 30.8533 2.52116 31.2417C2.69422 31.4717 2.95822 31.5928 3.22548 31.5928C3.40961 31.5928 3.59559 31.5351 3.75412 31.4157L13.2116 24.2982L22.6692 31.4157C22.8278 31.535 23.0135 31.5928 23.1978 31.5928C23.465 31.5928 23.729 31.4716 23.902 31.2417C24.1942 30.8534 24.1164 30.3015 23.7279 30.0091L14.6757 23.1965L22.0556 17.6426C22.1049 17.6054 22.1491 17.5641 22.1882 17.5194C24.0054 17.0342 24.9616 16.564 25.0035 16.5432C25.4388 16.3268 25.6161 15.7983 25.3997 15.363ZM13.0518 11.183C15.9692 11.183 18.888 10.284 20.36 9.70969V16.0503C20.36 16.079 20.3819 16.1073 20.3846 16.1353C18.5664 16.5196 16.1208 16.8504 13.0523 16.8504C10.0176 16.8504 7.54228 16.5594 5.69953 16.2193C5.71022 16.1646 5.70407 16.1082 5.70407 16.0503V10.0261C7.11201 10.4395 9.95719 11.183 13.0518 11.183ZM8.25748 18.3662C9.66209 18.5147 11.2657 18.6109 13.0623 18.6109C15.0572 18.6109 16.8047 18.4739 18.2814 18.2793L13.2117 22.0946L8.25748 18.3662Z" fill="#F8CC50"/>
</svg>
