<svg width="16" height="16" viewBox="0 0 16 16" fill="none" xmlns="http://www.w3.org/2000/svg">
<path d="M13.3998 15.335H3.44482C3.047 15.335 2.66547 15.177 2.38416 14.8957C2.10286 14.6144 1.94482 14.2328 1.94482 13.835V7.5H13.9998C14.2465 7.5 14.483 7.59798 14.6574 7.77239C14.8318 7.9468 14.9298 8.18335 14.9298 8.43V13.81C14.9332 14.0116 14.8959 14.2119 14.8202 14.3988C14.7444 14.5856 14.6318 14.7553 14.489 14.8977C14.3461 15.0401 14.1761 15.1522 13.9889 15.2273C13.8018 15.3024 13.6014 15.3391 13.3998 15.335ZM2.92482 8.5V13.81C2.92482 13.9426 2.9775 14.0698 3.07127 14.1636C3.16504 14.2573 3.29222 14.31 3.42482 14.31H13.3998C13.5324 14.31 13.6596 14.2573 13.7534 14.1636C13.8471 14.0698 13.8998 13.9426 13.8998 13.81V8.5H2.92482Z" fill="#F8CC50"/>
<path d="M1.885 7.88511L1.12 4.88511C1.07418 4.71535 1.0626 4.53817 1.08595 4.3639C1.1093 4.18962 1.1671 4.02174 1.25599 3.87002C1.34487 3.71831 1.46307 3.58581 1.60368 3.48024C1.74429 3.37467 1.90451 3.29814 2.075 3.25511L12.105 0.705112C12.2737 0.66237 12.4493 0.653299 12.6215 0.678417C12.7938 0.703536 12.9594 0.762353 13.1089 0.851506C13.2584 0.940659 13.3889 1.0584 13.4929 1.198C13.5969 1.33761 13.6724 1.49633 13.715 1.66511L14.25 3.78011C14.3107 4.01879 14.2743 4.27181 14.1486 4.48365C14.023 4.69549 13.8185 4.84886 13.58 4.91011L1.885 7.88511ZM12.435 1.66511H12.355L2.32 4.22511C2.23645 4.24633 2.16476 4.29987 2.12069 4.37394C2.07662 4.44802 2.06378 4.53657 2.085 4.62011L2.585 6.66511L13.27 3.96011L12.77 1.91011C12.7522 1.84006 12.7116 1.77794 12.6545 1.73357C12.5975 1.6892 12.5273 1.66511 12.455 1.66511H12.435Z" fill="#F8CC50"/>
<path d="M7.75141 2.55788L6.78223 2.8042L7.57538 5.92498L8.54457 5.67866L7.75141 2.55788Z" fill="#F8CC50"/>
<path d="M10.6357 1.65627L9.6665 1.90259L10.4597 5.02337L11.4289 4.77705L10.6357 1.65627Z" fill="#F8CC50"/>
<path d="M4.8164 3.24555L3.84717 3.4917L4.63978 6.61262L5.60901 6.36647L4.8164 3.24555Z" fill="#F8CC50"/>
</svg>
