<svg width="16" height="16" viewBox="0 0 16 16" fill="none" xmlns="http://www.w3.org/2000/svg">
<g clip-path="url(#clip0_216_51106)">
<path d="M2.54277 10.7669L0.0812896 6.45934C-0.0875682 6.16427 0.0151989 5.7884 0.310269 5.61978C0.60534 5.45031 0.980901 5.55339 1.14982 5.84876L3.61131 10.1564C3.78016 10.4514 3.6774 10.8273 3.38233 10.9959C3.28614 11.0509 3.18098 11.077 3.07766 11.077C2.86369 11.077 2.65637 10.9658 2.54277 10.7669ZM15.6897 5.61978C15.3941 5.45031 15.0185 5.55339 14.8502 5.84876L12.3887 10.1564C12.2199 10.4514 12.3226 10.8273 12.6177 10.9959C12.7139 11.0509 12.819 11.077 12.9224 11.077C13.1363 11.077 13.3436 10.9658 13.4572 10.7669L15.9187 6.45934C16.0876 6.16427 15.9848 5.7884 15.6897 5.61978ZM8.92294 1.76916L8.86178 1.72325C8.58954 1.5195 8.53428 1.13373 8.73858 0.861795C8.94233 0.590786 9.3281 0.534849 9.59973 0.738906L9.66065 0.784566C10.6696 -0.107722 12.1813 -0.271534 13.3665 0.495526C14.6727 1.34246 15.1097 3.01516 14.4622 4.38572L14.5227 4.43113C14.7949 4.63488 14.8502 5.02066 14.6459 5.29259C14.5251 5.45363 14.3406 5.53868 14.1531 5.53868C14.0245 5.53868 13.8953 5.49874 13.7847 5.41548L13.7338 5.37727C13.2502 5.806 12.6497 6.06408 12.024 6.13257L9.11598 10.2039C8.99636 10.3718 8.80707 10.4616 8.61477 10.4616C8.4976 10.4616 8.37859 10.4283 8.27403 10.3583L7.77601 10.0262C7.76211 10.0592 7.757 10.0943 7.73682 10.1253C7.38347 10.6698 6.7897 10.9664 6.18454 10.9664C5.84018 10.9664 5.49286 10.8705 5.18333 10.6701C4.89848 10.4853 4.81676 10.1041 5.00186 9.81889C5.18696 9.53342 5.56732 9.45232 5.8528 9.63711C6.13642 9.82191 6.51986 9.74049 6.70435 9.45533C6.72736 9.41989 6.7609 9.39749 6.78939 9.3685L6.42786 9.12752C6.15863 8.94814 6.07451 8.59086 6.23494 8.31025L8.69643 4.00265C8.71132 3.97656 8.73532 3.96056 8.75329 3.93754C8.54757 3.23233 8.59415 2.46515 8.92294 1.76916ZM10.636 5.95898C10.4241 5.88144 10.2159 5.78717 10.0186 5.65941C9.80157 5.51868 9.61677 5.34914 9.44804 5.16779L7.58839 8.42194L8.46098 9.00365L10.636 5.95898ZM10.6807 1.5496L13.4476 3.62475C13.6869 2.85443 13.4062 1.98805 12.697 1.52824C12.3875 1.32782 12.0396 1.232 11.6958 1.232C11.3348 1.232 10.9849 1.34917 10.6807 1.5496ZM9.93757 2.53013C9.69819 3.30045 9.97892 4.16689 10.688 4.62676C11.3239 5.03881 12.12 5.007 12.7145 4.61285L9.93757 2.53013ZM3.07704 6.76942C3.75678 6.76942 4.30778 6.21842 4.30778 5.53868V2.26318L6.1539 1.52461V3.07719C5.47416 3.07719 4.92315 3.6282 4.92315 4.30794C4.92315 4.98767 5.47416 5.53868 6.1539 5.53868C6.83363 5.53868 7.38464 4.98767 7.38464 4.30794V0.615708C7.38464 0.411405 7.2831 0.220579 7.11418 0.10612C6.94471 -0.00895487 6.72834 -0.0317851 6.5409 0.0442132L3.46405 1.27496C3.23027 1.36868 3.07704 1.59495 3.07704 1.84645V4.30794C2.3973 4.30794 1.8463 4.85894 1.8463 5.53868C1.8463 6.21842 2.3973 6.76942 3.07704 6.76942ZM14.1537 11.6924H9.23075C8.89064 11.6924 8.61538 11.968 8.61538 12.3078C8.61538 12.6476 8.89064 12.9231 9.23075 12.9231H13.5384V13.5385C13.5384 13.8778 13.2625 14.1539 12.923 14.1539H3.07704C2.73748 14.1539 2.46167 13.8778 2.46167 13.5385V12.9231H6.76927C7.10938 12.9231 7.38464 12.6476 7.38464 12.3078C7.38464 11.968 7.10938 11.6924 6.76927 11.6924H1.8463C1.50618 11.6924 1.23093 11.968 1.23093 12.3078V13.5385C1.23093 14.5565 2.05903 15.3846 3.07704 15.3846H12.923C13.941 15.3846 14.7691 14.5565 14.7691 13.5385V12.3078C14.7691 11.968 14.4938 11.6924 14.1537 11.6924Z" fill="#4257EE"/>
</g>
<defs>
<clipPath id="clip0_216_51106">
<rect width="16" height="16" fill="white"/>
</clipPath>
</defs>
</svg>
