<svg width="12" height="16" viewBox="0 0 12 16" fill="none" xmlns="http://www.w3.org/2000/svg">
<path d="M11.4133 3.99818H9.79883V3.7697C9.79883 2.67486 9.235 1.66277 8.31608 1.0838C8.31621 1.07775 8.3179 1.07206 8.3179 1.06587C8.3179 0.478183 7.83984 0 7.25214 0C6.66443 0 6.18627 0.478183 6.18627 1.06587C6.18627 1.65356 6.66445 2.13174 7.25214 2.13174C7.46638 2.13174 7.66525 2.0668 7.83251 1.95764C8.43571 2.36011 8.80638 3.03623 8.80638 3.76968V3.99816H0.496224C0.222186 3.99818 0 4.22036 0 4.49442V6.56256C0 6.8366 0.222186 7.05879 0.496224 7.05879H1.04939L2.53419 15.5888C2.5755 15.8265 2.78181 16 3.02303 16H8.88644C9.12764 16 9.33397 15.8265 9.37529 15.5888L10.8601 7.05879H11.4132C11.6873 7.05879 11.9095 6.8366 11.9095 6.56256V4.49442C11.9095 4.22036 11.6873 3.99818 11.4133 3.99818ZM0.992449 4.99065H10.917V6.06634H0.992449V4.99065ZM8.46909 15.0076H3.44041L2.56614 9.98493H9.34338L8.46909 15.0076ZM9.51614 8.99246H2.39338L2.05676 7.05879H9.85276L9.51614 8.99246Z" fill="#F8CC50"/>
</svg>
