<svg width="192" height="192" viewBox="0 0 192 192" fill="none" xmlns="http://www.w3.org/2000/svg">
<rect width="192" height="192" rx="96" fill="#4257EE"/>
<path d="M149.335 91.0934V96.0001C149.328 107.501 145.604 118.692 138.718 127.903C131.832 137.115 122.152 143.853 111.123 147.114C100.094 150.375 88.3067 149.984 77.5185 145.998C66.7303 142.012 57.5195 134.646 51.2598 124.998C45.0001 115.35 42.0269 103.936 42.7836 92.4604C43.5403 80.9844 47.9864 70.0605 55.4588 61.3178C62.9312 52.5751 73.0295 46.4821 84.2476 43.9475C95.4658 41.4129 107.203 42.5726 117.708 47.2534M149.335 53.3334L96.0013 106.72L80.0013 90.7201" stroke="#FCFCFD" stroke-width="6" stroke-linecap="round" stroke-linejoin="round"/>
</svg>
