<svg width="48" height="48" viewBox="0 0 48 48" fill="none" xmlns="http://www.w3.org/2000/svg">
<rect width="48" height="48" rx="8" fill="#F66A13"/>
<path d="M10.6666 22.6667V14.6667C10.6666 14.3131 10.8071 13.9739 11.0571 13.7239C11.3072 13.4738 11.6463 13.3334 11.9999 13.3334H32.7866L32.3999 12.9467C32.1815 12.6916 32.0673 12.3635 32.0803 12.028C32.0933 11.6924 32.2324 11.3741 32.4698 11.1366C32.7073 10.8992 33.0256 10.76 33.3612 10.7471C33.6967 10.7341 34.0248 10.8483 34.2799 11.0667L36.9466 13.7334C37.1949 13.9832 37.3343 14.3211 37.3343 14.6734C37.3343 15.0256 37.1949 15.3636 36.9466 15.6134L34.2799 18.28C34.0248 18.4985 33.6967 18.6126 33.3612 18.5997C33.0256 18.5867 32.7073 18.4476 32.4698 18.2101C32.2324 17.9727 32.0933 17.6543 32.0803 17.3188C32.0673 16.9832 32.1815 16.6551 32.3999 16.4L32.7866 16H13.3333V22.6667C13.3333 23.0203 13.1928 23.3595 12.9427 23.6095C12.6927 23.8596 12.3535 24 11.9999 24C11.6463 24 11.3072 23.8596 11.0571 23.6095C10.8071 23.3595 10.6666 23.0203 10.6666 22.6667ZM35.9999 24C35.6463 24 35.3072 24.1405 35.0571 24.3906C34.8071 24.6406 34.6666 24.9797 34.6666 25.3334V32H15.2133L15.5999 31.6134C15.8184 31.3583 15.9325 31.0302 15.9195 30.6946C15.9066 30.3591 15.7675 30.0407 15.53 29.8033C15.2925 29.5658 14.9742 29.4267 14.6387 29.4138C14.3031 29.4008 13.975 29.5149 13.7199 29.7334L11.0533 32.4C10.8049 32.6499 10.6655 32.9878 10.6655 33.34C10.6655 33.6923 10.8049 34.0302 11.0533 34.28L13.7199 36.9467C13.975 37.1651 14.3031 37.2793 14.6387 37.2663C14.9742 37.2534 15.2925 37.1142 15.53 36.8768C15.7675 36.6393 15.9066 36.321 15.9195 35.9854C15.9325 35.6499 15.8184 35.3218 15.5999 35.0667L15.2133 34.6667H35.9999C36.3535 34.6667 36.6927 34.5262 36.9427 34.2762C37.1928 34.0261 37.3333 33.687 37.3333 33.3334V25.3334C37.3333 24.9797 37.1928 24.6406 36.9427 24.3906C36.6927 24.1405 36.3535 24 35.9999 24Z" fill="#FCFCFD"/>
</svg>
