<svg width="16" height="16" viewBox="0 0 16 16" fill="none" xmlns="http://www.w3.org/2000/svg">
<g clip-path="url(#clip0_216_51101)">
<path d="M3.7798 9.02757C3.6178 9.02757 3.4398 8.97007 3.2448 8.80807C2.8008 8.43907 3.0383 8.04507 3.1953 7.78407C3.2958 7.61707 3.3998 7.44457 3.3998 7.25207C3.3998 6.99657 3.3448 6.88107 3.2743 6.73557C3.1928 6.56507 3.0998 6.37207 3.0998 6.00307C3.0998 5.63407 3.1928 5.44057 3.2743 5.27007C3.3443 5.12407 3.3998 5.00907 3.3998 4.75357C3.3998 4.49807 3.3448 4.38257 3.2743 4.23657C3.1928 4.06607 3.0998 3.87307 3.0998 3.50357C3.0998 3.13357 3.1928 2.94057 3.2743 2.76957C3.3443 2.62357 3.3998 2.50807 3.3998 2.25157C3.3998 2.05857 3.2958 1.88557 3.1948 1.71857C3.0383 1.45807 2.8008 1.06357 3.2438 0.693072C3.7083 0.304072 4.0768 0.514072 4.3713 0.683572C4.5653 0.794572 4.7483 0.900072 4.9973 0.900072C5.3238 0.900072 5.4768 0.838572 5.6538 0.768072C5.8508 0.689072 6.0733 0.600072 6.4963 0.600072C6.9193 0.600072 7.1418 0.689072 7.3388 0.767572C7.5158 0.838572 7.6688 0.899572 7.9958 0.899572C8.3228 0.899572 8.4758 0.838072 8.6528 0.767572C8.8498 0.689072 9.0728 0.600072 9.4953 0.600072C9.9188 0.600072 10.1418 0.689072 10.3393 0.767572C10.5168 0.838572 10.6703 0.900072 10.9978 0.900072C11.2478 0.900072 11.4313 0.795072 11.6253 0.683572C11.9198 0.514572 12.2868 0.303072 12.7553 0.692572C13.1993 1.06157 12.9618 1.45557 12.8048 1.71657C12.7038 1.88307 12.5998 2.05557 12.5998 2.24807C12.5998 2.50357 12.6548 2.61907 12.7253 2.76457C12.8068 2.93507 12.8998 3.12807 12.8998 3.49707C12.8998 3.86607 12.8068 4.05957 12.7253 4.23007C12.6553 4.37607 12.5998 4.49107 12.5998 4.74657C12.5998 5.00207 12.6548 5.11757 12.7253 5.26357C12.8068 5.43407 12.8998 5.62757 12.8998 5.99657C12.8998 6.34807 12.7813 6.55907 12.6853 6.72807C12.5898 6.89807 12.5363 6.99207 12.5963 7.22307C12.6553 7.45007 12.7568 7.62207 12.8463 7.77407C13.0053 8.04507 13.2238 8.41607 12.7558 8.80707C12.2903 9.19557 11.9228 8.98607 11.6283 8.81657C11.4338 8.70557 11.2508 8.60007 11.0018 8.60007C10.6753 8.60007 10.5223 8.66157 10.3453 8.73207C10.1483 8.81057 9.9258 8.89957 9.5028 8.89957C9.0798 8.89957 8.8573 8.81057 8.6603 8.73207C8.4833 8.66107 8.3303 8.60007 8.0033 8.60007C7.6763 8.60007 7.5233 8.66157 7.3463 8.73207C7.1498 8.81107 6.9268 8.90007 6.5043 8.90007C6.0808 8.90007 5.8578 8.81107 5.6603 8.73257C5.4828 8.66157 5.3293 8.60057 5.0018 8.60057C4.7518 8.60057 4.5683 8.70557 4.3743 8.81707C4.2023 8.91507 4.0063 9.02757 3.7798 9.02757ZM3.7803 0.974072C3.7113 0.974072 3.6483 1.00607 3.5638 1.07707C3.4628 1.16157 3.4493 1.17257 3.6233 1.46057C3.7463 1.66557 3.8998 1.91957 3.8998 2.25157C3.8998 2.62157 3.8068 2.81457 3.7253 2.98557C3.6553 3.13207 3.5998 3.24757 3.5998 3.50357C3.5998 3.75907 3.6548 3.87407 3.7253 4.02007C3.8068 4.19057 3.8998 4.38407 3.8998 4.75357C3.8998 5.12257 3.8068 5.31607 3.7253 5.48657C3.6553 5.63257 3.5998 5.74757 3.5998 6.00307C3.5998 6.25857 3.6548 6.37357 3.7253 6.51957C3.8068 6.68957 3.8998 6.88307 3.8998 7.25207C3.8998 7.58307 3.7463 7.83757 3.6233 8.04207C3.4503 8.32907 3.4633 8.33957 3.5638 8.42307C3.7558 8.58307 3.8388 8.54657 4.1253 8.38257C4.3448 8.25707 4.6183 8.10007 5.0018 8.10007C5.4258 8.10007 5.6488 8.18907 5.8458 8.26757C6.0228 8.33857 6.1768 8.39957 6.5038 8.39957C6.8303 8.39957 6.9833 8.33807 7.1603 8.26757C7.3573 8.18907 7.5798 8.10007 8.0033 8.10007C8.4268 8.10007 8.6493 8.18907 8.8463 8.26757C9.0233 8.33857 9.1763 8.39957 9.5028 8.39957C9.8293 8.39957 9.9823 8.33807 10.1593 8.26757C10.3563 8.18907 10.5788 8.10007 11.0018 8.10007C11.3843 8.10007 11.6578 8.25657 11.8768 8.38257C12.1618 8.54657 12.2443 8.58257 12.4353 8.42307C12.5773 8.30407 12.5773 8.30407 12.4148 8.02757C12.3143 7.85607 12.1888 7.64307 12.1123 7.34857C12.0013 6.92207 12.1393 6.67807 12.2493 6.48207C12.3298 6.33957 12.3993 6.21657 12.3993 5.99657C12.3993 5.74107 12.3443 5.62607 12.2738 5.48007C12.1923 5.30957 12.0993 5.11607 12.0993 4.74707C12.0993 4.37807 12.1923 4.18457 12.2738 4.01407C12.3443 3.86757 12.3998 3.75257 12.3998 3.49707C12.3998 3.24157 12.3448 3.12657 12.2743 2.98057C12.1928 2.81057 12.0998 2.61707 12.0998 2.24807C12.0998 1.91707 12.2533 1.66257 12.3763 1.45807C12.5493 1.17107 12.5363 1.16057 12.4358 1.07707C12.2438 0.916572 12.1608 0.953072 11.8743 1.11757C11.6548 1.24307 11.3813 1.40007 10.9978 1.40007C10.5738 1.40007 10.3508 1.31107 10.1538 1.23257C9.9763 1.16157 9.8228 1.10007 9.4953 1.10007C9.1688 1.10007 9.0158 1.16157 8.8388 1.23207C8.6418 1.31107 8.4193 1.40007 7.9958 1.40007C7.5723 1.40007 7.3498 1.31107 7.1533 1.23207C6.9758 1.16157 6.8228 1.10007 6.4963 1.10007C6.1698 1.10007 6.0168 1.16157 5.8398 1.23207C5.6428 1.31107 5.4203 1.40007 4.9973 1.40007C4.6148 1.40007 4.3413 1.24357 4.1223 1.11757C3.9633 1.02607 3.8668 0.974072 3.7803 0.974072Z" fill="#4257EE"/>
<path d="M11.25 7.5H4.75C4.612 7.5 4.5 7.388 4.5 7.25V2.25C4.5 2.112 4.612 2 4.75 2H11.25C11.388 2 11.5 2.112 11.5 2.25V7.25C11.5 7.388 11.388 7.5 11.25 7.5ZM5 7H11V2.5H5V7Z" fill="#4257EE"/>
<path d="M15.25 15.5H13.25C13.112 15.5 13 15.388 13 15.25C13 14.561 13.5605 14 14.25 14C14.9395 14 15.5 14.561 15.5 15.25C15.5 15.388 15.388 15.5 15.25 15.5ZM13.543 15H14.957C14.854 14.709 14.576 14.5 14.25 14.5C13.924 14.5 13.646 14.709 13.543 15Z" fill="#4257EE"/>
<path d="M14.75 14.5H13.75C13.612 14.5 13.5 14.388 13.5 14.25V9.75C13.5 9.3365 13.8365 9 14.25 9C14.6635 9 15 9.3365 15 9.75V14.25C15 14.388 14.888 14.5 14.75 14.5ZM14 14H14.5V9.75C14.5 9.612 14.3875 9.5 14.25 9.5C14.1125 9.5 14 9.612 14 9.75V14Z" fill="#4257EE"/>
<path d="M14.25 9C13.8365 9 13.5 8.6635 13.5 8.25C13.5 7.8365 13.8365 7.5 14.25 7.5C14.6635 7.5 15 7.8365 15 8.25C15 8.6635 14.6635 9 14.25 9ZM14.25 8C14.1125 8 14 8.112 14 8.25C14 8.388 14.1125 8.5 14.25 8.5C14.3875 8.5 14.5 8.388 14.5 8.25C14.5 8.112 14.3875 8 14.25 8Z" fill="#4257EE"/>
<path d="M14.25 9.5C14.112 9.5 14 9.388 14 9.25V8.75C14 8.612 14.112 8.5 14.25 8.5C14.388 8.5 14.5 8.612 14.5 8.75V9.25C14.5 9.388 14.388 9.5 14.25 9.5Z" fill="#4257EE"/>
<path d="M2.75 15.5H0.75C0.612 15.5 0.5 15.388 0.5 15.25C0.5 14.561 1.0605 14 1.75 14C2.4395 14 3 14.561 3 15.25C3 15.388 2.888 15.5 2.75 15.5ZM1.043 15H2.457C2.354 14.709 2.076 14.5 1.75 14.5C1.424 14.5 1.146 14.709 1.043 15Z" fill="#4257EE"/>
<path d="M2.25 14.5H1.25C1.112 14.5 1 14.388 1 14.25V9.75C1 9.3365 1.3365 9 1.75 9C2.1635 9 2.5 9.3365 2.5 9.75V14.25C2.5 14.388 2.388 14.5 2.25 14.5ZM1.5 14H2V9.75C2 9.612 1.8875 9.5 1.75 9.5C1.6125 9.5 1.5 9.612 1.5 9.75V14Z" fill="#4257EE"/>
<path d="M1.75 9C1.3365 9 1 8.6635 1 8.25C1 7.8365 1.3365 7.5 1.75 7.5C2.1635 7.5 2.5 7.8365 2.5 8.25C2.5 8.6635 2.1635 9 1.75 9ZM1.75 8C1.6125 8 1.5 8.112 1.5 8.25C1.5 8.388 1.6125 8.5 1.75 8.5C1.8875 8.5 2 8.388 2 8.25C2 8.112 1.8875 8 1.75 8Z" fill="#4257EE"/>
<path d="M1.75 9.5C1.612 9.5 1.5 9.388 1.5 9.25V8.75C1.5 8.612 1.612 8.5 1.75 8.5C1.888 8.5 2 8.612 2 8.75V9.25C2 9.388 1.888 9.5 1.75 9.5Z" fill="#4257EE"/>
<path d="M7.99939 11.6701C5.17389 11.6701 3.09439 10.4896 2.10489 9.78413C1.99239 9.70413 1.96639 9.54763 2.04639 9.43563C2.12689 9.32263 2.28339 9.29763 2.39489 9.37713C3.33589 10.0476 5.31339 11.1701 7.99989 11.1701C8.00939 11.1701 8.01839 11.1701 8.02789 11.1701C10.7019 11.1621 12.6699 10.0431 13.6049 9.37663C13.7174 9.29713 13.8734 9.32213 13.9534 9.43513C14.0334 9.54763 14.0069 9.70363 13.8949 9.78363C12.9114 10.4846 10.8414 11.6616 8.02939 11.6696C8.01939 11.6701 8.00989 11.6701 7.99939 11.6701Z" fill="#4257EE"/>
</g>
<defs>
<clipPath id="clip0_216_51101">
<rect width="16" height="16" fill="white"/>
</clipPath>
</defs>
</svg>
