<svg width="16" height="16" viewBox="0 0 16 16" fill="none" xmlns="http://www.w3.org/2000/svg">
<g clip-path="url(#clip0_216_51131)">
<path d="M11.907 7.37304L10.669 6.63254C10.136 6.31354 9.68604 5.86354 9.36704 5.33054L8.62654 4.09204C8.36004 3.64754 7.64004 3.64704 7.37304 4.09254L6.63254 5.33054C6.31354 5.86304 5.86354 6.31354 5.33054 6.63254L4.09304 7.37304C3.87054 7.50654 3.73804 7.74054 3.73804 8.00004C3.73804 8.25954 3.87104 8.49354 4.09304 8.62704L5.33104 9.36754C5.86404 9.68654 6.31404 10.1365 6.63304 10.6695L7.37354 11.908C7.50704 12.13 7.74104 12.263 8.00004 12.263C8.25904 12.263 8.49354 12.13 8.62704 11.9075L9.36754 10.6695C9.68654 10.137 10.1365 9.68654 10.6695 9.36754L11.907 8.62704C12.1295 8.49354 12.262 8.25954 12.262 8.00004C12.262 7.74054 12.1295 7.50654 11.907 7.37304ZM10.2075 8.59504C9.54754 8.99004 8.98954 9.54704 8.59504 10.2075L8.00004 11.202L7.40504 10.2075C7.01004 9.54754 6.45254 8.99004 5.79254 8.59504L4.79804 8.00004L5.79254 7.40504C6.45254 7.01004 7.01054 6.45304 7.40504 5.79254L8.00004 4.79804L8.59504 5.79254C8.99004 6.45254 9.54754 7.01004 10.2075 7.40504L11.202 8.00004L10.2075 8.59504ZM8.00004 2.84404C8.24854 2.84404 8.45004 2.64254 8.45004 2.39404V1.28154C8.45004 1.03304 8.24854 0.831543 8.00004 0.831543C7.75154 0.831543 7.55004 1.03304 7.55004 1.28154V2.39404C7.55004 2.64204 7.75154 2.84404 8.00004 2.84404ZM8.00004 13.1565C7.75154 13.1565 7.55004 13.358 7.55004 13.6065V14.719C7.55004 14.9675 7.75154 15.169 8.00004 15.169C8.24854 15.169 8.45004 14.9675 8.45004 14.719V13.6065C8.45004 13.358 8.24854 13.1565 8.00004 13.1565ZM4.84804 5.48454C4.93604 5.57254 5.05104 5.61654 5.16604 5.61654C5.28104 5.61654 5.39604 5.57254 5.48404 5.48454C5.66004 5.30854 5.66004 5.02354 5.48404 4.84804L4.75304 4.11654C4.57704 3.94054 4.29254 3.94054 4.11704 4.11654C3.94154 4.29254 3.94104 4.57754 4.11704 4.75304L4.84804 5.48454ZM3.45004 3.90004C3.56504 3.90004 3.68004 3.85004 3.76504 3.76504C3.85004 3.67954 3.90004 3.56504 3.90004 3.44954C3.90004 3.33004 3.85004 3.21454 3.76504 3.12954C3.64004 3.00454 3.44004 2.96454 3.27504 3.02954C3.22004 3.05454 3.17004 3.08954 3.13004 3.12954C3.04504 3.21504 3.00004 3.33004 3.00004 3.44954C3.00004 3.56454 3.04504 3.67954 3.13004 3.76504C3.21504 3.85004 3.33004 3.90004 3.45004 3.90004ZM12.725 12.135C12.615 12.09 12.49 12.09 12.38 12.135C12.325 12.16 12.275 12.19 12.235 12.235C12.15 12.315 12.1 12.435 12.1 12.55C12.1 12.67 12.15 12.785 12.235 12.8705C12.32 12.9555 12.435 13.0005 12.55 13.0005C12.61 13.0005 12.67 12.99 12.725 12.9655C12.78 12.9455 12.83 12.9105 12.87 12.871C12.955 12.7845 13 12.67 13 12.55C13 12.4355 12.955 12.315 12.87 12.235C12.83 12.195 12.78 12.1595 12.725 12.135ZM11.152 10.5155C10.976 10.3395 10.6915 10.3395 10.516 10.5155C10.3405 10.6915 10.34 10.9765 10.516 11.152L11.247 11.883C11.335 11.971 11.45 12.015 11.565 12.015C11.68 12.015 11.795 11.971 11.883 11.883C12.059 11.707 12.059 11.422 11.883 11.2465L11.152 10.5155ZM4.84804 10.5155L4.11704 11.2465C3.94104 11.4225 3.94104 11.7075 4.11704 11.883C4.20504 11.971 4.32004 12.015 4.43504 12.015C4.55004 12.015 4.66504 11.971 4.75304 11.883L5.48404 11.152C5.66004 10.976 5.66004 10.691 5.48404 10.5155C5.30804 10.34 5.02354 10.34 4.84804 10.5155ZM3.13004 12.235C3.04504 12.315 3.00004 12.435 3.00004 12.55C3.00004 12.67 3.04504 12.785 3.13004 12.8705C3.21504 12.955 3.33004 13 3.45004 13C3.56504 13 3.68004 12.955 3.76504 12.87C3.85004 12.7845 3.90004 12.67 3.90004 12.55C3.90004 12.4355 3.85004 12.315 3.76504 12.235C3.60004 12.065 3.30004 12.065 3.13004 12.235ZM12.465 3.00504C12.435 3.01004 12.405 3.02004 12.38 3.03004C12.325 3.05504 12.275 3.09004 12.235 3.13004C12.15 3.21504 12.1 3.33004 12.1 3.45004C12.1 3.56504 12.15 3.68004 12.235 3.76554C12.32 3.85054 12.435 3.90054 12.55 3.90054C12.67 3.90054 12.785 3.85054 12.87 3.76554C12.955 3.67954 13 3.56504 13 3.44954C13 3.33004 12.955 3.21454 12.87 3.12954C12.765 3.02504 12.61 2.98004 12.465 3.00504ZM10.834 5.61604C10.949 5.61604 11.064 5.57204 11.152 5.48404L11.883 4.75304C12.059 4.57704 12.059 4.29204 11.883 4.11654C11.707 3.94104 11.4225 3.94054 11.247 4.11654L10.516 4.84754C10.34 5.02354 10.34 5.30854 10.516 5.48404C10.604 5.57254 10.719 5.61604 10.834 5.61604ZM14.719 7.55004H13.6065C13.358 7.55004 13.1565 7.75154 13.1565 8.00004C13.1565 8.24854 13.358 8.45004 13.6065 8.45004H14.719C14.9675 8.45004 15.169 8.24854 15.169 8.00004C15.169 7.75154 14.9675 7.55004 14.719 7.55004ZM2.39354 7.55004H1.28154C1.03304 7.55004 0.831543 7.75154 0.831543 8.00004C0.831543 8.24854 1.03304 8.45004 1.28154 8.45004H2.39404C2.64254 8.45004 2.84404 8.24854 2.84404 8.00004C2.84404 7.75154 2.64204 7.55004 2.39354 7.55004Z" fill="#F8CC50"/>
</g>
<defs>
<clipPath id="clip0_216_51131">
<rect width="16" height="16" fill="white"/>
</clipPath>
</defs>
</svg>
