<svg width="32" height="28" viewBox="0 0 32 28" fill="none" xmlns="http://www.w3.org/2000/svg">
<path d="M22.8182 26.5V23.7222C22.8182 22.2488 22.2435 20.8357 21.2206 19.7939C20.1977 18.752 18.8103 18.1667 17.3636 18.1667H6.45455C5.00791 18.1667 3.62053 18.752 2.5976 19.7939C1.57467 20.8357 1 22.2488 1 23.7222V26.5M31 26.5V23.7222C30.9991 22.4913 30.5968 21.2955 29.8564 20.3227C29.116 19.3498 28.0793 18.655 26.9091 18.3472M21.4545 1.68056C22.6278 1.98653 23.6678 2.68153 24.4104 3.65599C25.1531 4.63044 25.5561 5.82893 25.5561 7.0625C25.5561 8.29607 25.1531 9.49456 24.4104 10.469C23.6678 11.4435 22.6278 12.1385 21.4545 12.4444M17.3636 7.05556C17.3636 10.1238 14.9216 12.6111 11.9091 12.6111C8.89663 12.6111 6.45455 10.1238 6.45455 7.05556C6.45455 3.98731 8.89663 1.5 11.9091 1.5C14.9216 1.5 17.3636 3.98731 17.3636 7.05556Z" stroke="#4257EE" stroke-width="2" stroke-linecap="round" stroke-linejoin="round"/>
</svg>
