<svg width="16" height="16" viewBox="0 0 16 16" fill="none" xmlns="http://www.w3.org/2000/svg">
<g clip-path="url(#clip0_216_51136)">
<path d="M7.33401 3.87202C7.53821 3.87202 7.70155 3.70868 7.70155 3.50449C7.70155 3.30031 7.53821 3.13696 7.33401 3.13696C7.12981 3.13696 6.96648 3.30031 6.96648 3.50449C6.96648 3.70868 7.12981 3.87202 7.33401 3.87202ZM8.79735 3.87202C9.00148 3.87202 9.16488 3.70868 9.16488 3.50449C9.16488 3.30031 9.00148 3.13696 8.79735 3.13696C8.59315 3.13696 8.42981 3.30031 8.42981 3.50449C8.42981 3.70868 8.59315 3.87202 8.79735 3.87202ZM6.23142 7.86745C6.04085 7.86745 5.89111 8.01718 5.89111 8.20772C5.89111 9.80718 7.06175 10.3789 8.06228 10.3789C9.06275 10.3789 10.2334 9.80718 10.2334 8.20772C10.2334 8.01718 10.0837 7.86745 9.89308 7.86745H6.23142ZM8.06228 9.69825C7.74235 9.69825 6.76908 9.60978 6.59895 8.54805H9.52555C9.35541 9.60978 8.38215 9.69825 8.06228 9.69825Z" fill="#4257EE"/>
<path d="M14.3545 4.27973C13.5132 3.44665 12.4678 4.10004 11.455 4.72894C11.2427 4.85962 11.0304 4.99029 10.8098 5.12097C10.965 4.75344 11.0548 4.34507 11.0548 3.92036C11.0548 3.69985 11.0304 3.47932 10.9813 3.26697C11.553 2.98111 11.9288 2.38489 11.9288 1.72333C11.9288 0.767736 11.1528 0 10.2054 0C9.54386 0 8.95578 0.383868 8.66177 0.947417C8.22889 0.857576 7.77969 0.857576 7.35496 0.947417C7.06912 0.3757 6.47287 0 5.81134 0C4.85575 0 4.08802 0.775904 4.08802 1.72333C4.08802 2.38489 4.47188 2.97294 5.03543 3.26697C4.98643 3.47932 4.96193 3.69985 4.96193 3.92036C4.96193 4.41857 5.0926 4.87595 5.30496 5.29248C4.97827 5.12097 4.65973 4.92495 4.34937 4.72894C3.33661 4.09188 2.29118 3.43848 1.44993 4.27973C1.24575 4.50841 0.984393 4.82694 1.00073 5.25165C1.02523 5.99488 1.82564 6.74631 3.941 8.55129C3.97367 8.58393 4.0145 8.60033 4.05534 8.61665C4.03084 8.80449 4.0145 8.99233 4.0145 9.18833C4.0145 10.2991 4.39837 11.2792 5.07627 11.9816V15.5916C5.07627 15.8203 5.25596 16 5.48464 16H10.3851C10.6138 16 10.7935 15.8203 10.7935 15.5916V11.9816C11.4713 11.2792 11.8552 10.3073 11.8552 9.18833C11.8552 8.98417 11.8389 8.78001 11.8144 8.58393C11.8308 8.57577 11.8552 8.56761 11.8716 8.55129C13.9869 6.73815 14.7874 5.98672 14.8118 5.25165C14.8282 4.81878 14.575 4.50841 14.3463 4.27973H14.3545ZM4.91292 1.72333C4.91292 1.22512 5.32129 0.816744 5.81951 0.816744C6.24421 0.816744 6.61991 1.11894 6.70975 1.53547C6.73423 1.64982 6.80776 1.74783 6.91392 1.805C7.02008 1.86217 7.14264 1.87034 7.2488 1.8295C7.73888 1.64982 8.28609 1.64982 8.78426 1.8295C8.89866 1.87034 9.02114 1.86217 9.11914 1.805C9.2253 1.74783 9.29882 1.64982 9.3233 1.53547C9.41314 1.11894 9.78891 0.816744 10.2135 0.816744C10.7118 0.816744 11.1202 1.22512 11.1202 1.72333C11.1202 2.14803 10.818 2.52373 10.4014 2.61358C10.2871 2.63807 10.1891 2.71159 10.1319 2.81776C10.0747 2.92393 10.0666 3.04645 10.1074 3.15262C10.1972 3.39765 10.2463 3.659 10.2463 3.92036C10.2463 5.0393 9.4213 5.95405 8.35137 6.1174V5.34149C8.9885 5.20264 9.4377 4.7371 9.4377 4.16539C9.4377 3.47932 8.78426 2.94027 7.94305 2.94027C7.10176 2.94027 6.44839 3.48749 6.44839 4.16539C6.44839 4.72077 6.91392 5.19448 7.53464 5.34149V6.10106C6.53823 5.88054 5.795 4.99029 5.795 3.92853C5.795 3.66717 5.84401 3.40582 5.93385 3.16079C5.97469 3.04645 5.96652 2.92393 5.90935 2.82592C5.85218 2.71975 5.75417 2.64624 5.63982 2.62174C5.22328 2.5319 4.92109 2.1562 4.92109 1.73149L4.91292 1.72333ZM7.94305 4.56559C7.55096 4.56559 7.26512 4.35324 7.26512 4.15722C7.26512 3.9612 7.5592 3.74885 7.94305 3.74885C8.32689 3.74885 8.62089 3.9612 8.62089 4.15722C8.62089 4.35324 8.32689 4.56559 7.94305 4.56559ZM1.81747 5.21898C1.81747 5.16181 1.84197 5.0638 2.04616 4.85962C2.38919 4.51658 2.90374 4.78611 3.93283 5.42317C4.2677 5.63552 4.61889 5.85604 4.98643 6.03572C4.99459 6.03572 5.01093 6.03572 5.0191 6.04389C4.72507 6.47678 4.43104 7.05663 4.23503 7.7264C2.85473 6.54207 1.82564 5.61102 1.80931 5.21081L1.81747 5.21898ZM5.90118 15.1833V12.2348H9.98491V15.1833H5.90118ZM10.2299 11.418H5.65616C5.11711 10.8627 4.83942 10.0949 4.83942 9.18833C4.83942 7.8244 5.50097 6.68911 5.96652 6.1419C6.51375 6.64831 7.23248 6.95863 8.02473 6.95863C8.7761 6.95863 9.45402 6.67279 9.98491 6.22357C10.4096 6.76263 11.0467 7.8652 11.0467 9.18833C11.0467 10.1031 10.7608 10.8708 10.2217 11.418H10.2299ZM11.6347 7.68552C11.4387 7.02399 11.1447 6.45222 10.8588 6.02756C11.2182 5.84787 11.5612 5.62735 11.896 5.415C12.917 4.76978 13.4397 4.50841 13.7827 4.85145C13.9869 5.05563 14.0114 5.15364 14.0114 5.21081C13.9951 5.60285 12.9905 6.51759 11.6347 7.68552Z" fill="#4257EE"/>
</g>
<defs>
<clipPath id="clip0_216_51136">
<rect width="16" height="16" fill="white"/>
</clipPath>
</defs>
</svg>
