<svg width="16" height="16" viewBox="0 0 16 16" fill="none" xmlns="http://www.w3.org/2000/svg">
<path d="M9.49436 7.27022C8.18675 8.7041 6.5367 7.97606 5.8033 7.26571C5.74905 7.21417 5.67676 7.18594 5.60194 7.18708C5.52712 7.18823 5.45573 7.21865 5.40308 7.27182C5.35043 7.32499 5.32072 7.39668 5.32032 7.4715C5.31991 7.54633 5.34885 7.61833 5.40092 7.67207C6.31808 8.57909 8.34008 9.36326 9.9054 7.66782C9.95642 7.61299 9.98389 7.54034 9.98192 7.46548C9.97995 7.39061 9.9487 7.31951 9.89487 7.26744C9.84104 7.21537 9.76893 7.1865 9.69405 7.18702C9.61916 7.18754 9.54746 7.21741 9.49436 7.27022Z" fill="#4257EE"/>
<path d="M13.1953 8.88509C13.1251 8.75791 13.0285 8.64722 12.9119 8.56045C12.7954 8.47368 12.6617 8.41284 12.5197 8.382C12.3777 8.35117 12.2308 8.35106 12.0888 8.38167C11.9468 8.41229 11.813 8.47293 11.6963 8.55952L10.5186 9.44335L10.4052 8.84581C10.7059 8.51457 10.9377 8.12685 11.0871 7.70521C11.2366 7.28356 11.3007 6.83641 11.2758 6.38975C11.1795 5.21901 10.7583 4.09838 10.0597 3.15398L10.5489 2.66268C10.6786 2.54524 10.8434 2.47388 11.0177 2.45966C11.2067 2.43693 11.3878 2.37074 11.5469 2.26629C11.706 2.16183 11.8387 2.02195 11.9346 1.85761C12.6514 0.624684 11.0165 -0.641889 9.99653 0.365078C9.80386 0.558717 9.6809 0.810824 9.64694 1.08187C9.62932 1.26477 9.55199 1.4368 9.42689 1.57138L8.88959 2.10868C8.61361 1.93873 8.31814 1.80267 8.00959 1.70346C7.39243 1.55329 7.08675 1.76537 6.43116 2.11995L5.88243 1.57138C5.75733 1.43679 5.68 1.26477 5.66238 1.08186C5.63354 0.852708 5.54089 0.636269 5.395 0.457217C5.24911 0.278165 5.05585 0.143704 4.83725 0.0691602C4.61865 -0.00538316 4.3835 -0.0170093 4.15861 0.0356071C3.93372 0.0882235 3.72814 0.202966 3.5653 0.366754C3.40246 0.530542 3.28892 0.736786 3.23761 0.961976C3.1863 1.18717 3.19929 1.42224 3.2751 1.64041C3.35091 1.85857 3.48649 2.05105 3.66639 2.19589C3.84629 2.34074 4.06326 2.43213 4.29258 2.45964C4.46659 2.47409 4.63101 2.54543 4.76042 2.66267L5.26566 3.16791C4.55967 4.10522 4.1325 5.22274 4.03327 6.39198C3.96099 6.98677 4.2431 8.21346 4.9041 8.84567L4.79033 9.44309L3.61356 8.56005C3.40076 8.40329 3.13512 8.33591 2.87333 8.37232C2.61154 8.40872 2.37435 8.54602 2.2124 8.7549C2.05045 8.96378 1.97657 9.22769 2.00653 9.4903C2.03649 9.7529 2.16792 9.99339 2.37276 10.1604C2.80274 10.5059 3.90623 11.3933 4.3511 11.7507L3.75654 14.8743C3.7452 14.9339 3.75311 14.9956 3.77914 15.0503C3.80517 15.1051 3.84797 15.1502 3.90133 15.179C4.88888 15.6596 5.96231 15.9385 7.05889 15.9994C7.13373 16.0028 7.2069 15.9766 7.26265 15.9266C7.31841 15.8765 7.35231 15.8066 7.35706 15.7318C7.36181 15.6571 7.33704 15.5834 7.28807 15.5267C7.2391 15.47 7.16984 15.4348 7.09518 15.4286C6.15161 15.3685 5.2258 15.144 4.35943 14.7654L4.41046 14.4973C5.36631 15.1355 7.0575 14.5721 7.04142 13.4273C7.07559 12.4963 5.80908 11.8499 4.85452 12.1645L5.40471 9.27429C5.66659 9.45563 5.95028 9.60324 6.24908 9.71361C6.8493 9.93691 7.49418 10.0136 8.13001 9.93715C8.76585 9.86075 9.37422 9.63353 9.90445 9.2744L10.312 11.4208C9.16975 11.3227 8.82711 12.7036 9.6559 13.4868C9.80079 13.6411 9.97773 13.7618 10.1743 13.8404C10.3708 13.9189 10.5822 13.9535 10.7935 13.9416L10.9502 14.7666C10.0855 15.1473 9.16011 15.3715 8.21706 15.4287C8.17958 15.431 8.14294 15.4407 8.10922 15.4573C8.0755 15.4738 8.04537 15.4968 8.02054 15.525C7.9704 15.5819 7.94491 15.6564 7.94969 15.7321C7.95447 15.8077 7.98912 15.8784 8.04601 15.9286C8.10291 15.9787 8.1774 16.0042 8.25309 15.9994C9.35019 15.9427 10.4243 15.6632 11.4099 15.1782C11.4627 15.149 11.505 15.104 11.5306 15.0494C11.5563 14.9949 11.564 14.9336 11.5528 14.8744L10.9603 11.755L12.9355 10.1613C13.122 10.0132 13.2504 9.80397 13.2979 9.57053C13.3455 9.33709 13.3091 9.09437 13.1953 8.88509ZM2.7299 9.71389C2.66559 9.66139 2.61729 9.59192 2.59049 9.51335C2.56368 9.43478 2.55945 9.35027 2.57827 9.26942C2.59709 9.18856 2.63821 9.11461 2.69695 9.05595C2.75569 8.9973 2.82971 8.95629 2.91059 8.93759C3.16877 8.85547 3.45691 9.17512 3.64787 9.30061L3.14709 10.0492L2.7299 9.71389ZM3.59441 10.4088L4.10581 9.64428L4.67128 10.0687L4.47221 11.1144L3.59441 10.4088ZM5.39822 12.6605C5.97891 12.6605 6.46955 13.0118 6.46955 13.4273C6.45202 14.2129 5.04151 14.445 4.53146 13.8617L4.72641 12.8376C4.93061 12.7198 5.16252 12.6587 5.39822 12.6605ZM9.83124 1.97574C10.0475 1.7521 10.1825 1.46229 10.2144 1.1528C10.2318 1.0077 10.2975 0.872663 10.4009 0.769401C10.4752 0.694715 10.5663 0.638873 10.6666 0.606532C10.7668 0.574191 10.8734 0.566287 10.9773 0.58348C11.0813 0.600672 11.1796 0.642462 11.2641 0.705367C11.3486 0.768271 11.4169 0.850468 11.4632 0.945104C11.5095 1.03974 11.5325 1.14407 11.5303 1.24941C11.5281 1.35474 11.5008 1.45802 11.4506 1.55065C11.4003 1.64327 11.3287 1.72254 11.2416 1.78187C11.1546 1.84119 11.0546 1.87884 10.95 1.89168C10.6476 1.91931 10.3635 2.04866 10.1441 2.25862L9.67659 2.72809C9.57219 2.62487 9.46747 2.52943 9.36281 2.44417L9.83124 1.97574ZM5.16477 2.25834C4.94576 2.04869 4.66217 1.91945 4.36027 1.89169C4.25733 1.8796 4.1587 1.84335 4.07244 1.78589C3.98618 1.72843 3.91473 1.65139 3.86391 1.56106C3.81606 1.47611 3.78761 1.38163 3.78059 1.28438C3.77357 1.18714 3.78815 1.08955 3.8233 0.998608C3.85845 0.907668 3.91329 0.825633 3.98388 0.758388C4.05448 0.691143 4.13908 0.640354 4.23162 0.609665C4.32416 0.578976 4.42234 0.569148 4.51913 0.580884C4.61592 0.592621 4.70891 0.625631 4.79143 0.677549C4.87396 0.729466 4.94397 0.799003 4.99644 0.881172C5.04892 0.963341 5.08256 1.05611 5.09496 1.15281C5.12784 1.71739 5.60251 2.10152 5.96084 2.45837C5.85657 2.54379 5.75189 2.63699 5.64701 2.74057L5.16477 2.25834ZM4.60154 6.45678C4.87221 4.27879 5.8954 2.64875 7.66482 2.22226C9.38097 2.60582 10.5407 4.3821 10.7135 6.62001C9.86641 5.88557 8.79315 5.46368 7.67268 5.42468C6.53954 5.4373 5.44822 5.85445 4.59559 6.60088C4.5963 6.52148 4.6004 6.468 4.60154 6.45678ZM8.86002 9.17802C8.08269 9.46844 7.22664 9.46844 6.4493 9.17802C6.02519 9.04178 5.64201 8.80136 5.33482 8.47877C5.02764 8.15617 4.80625 7.76169 4.69091 7.33143C5.78684 6.02379 7.50252 5.99798 7.66779 5.99658C7.69835 5.99658 9.4756 6.01336 10.6157 7.34064C10.4992 7.76889 10.2776 8.16125 9.97103 8.48212C9.66442 8.80299 9.28253 9.04219 8.86002 9.17802ZM10.0602 13.0824C9.5539 12.5986 9.71612 11.8047 10.4297 12.0251L10.6864 13.3772C10.4482 13.3606 10.2248 13.2554 10.0602 13.0824ZM10.8369 11.1196L10.6374 10.0691L11.2036 9.64435L11.716 10.4104L10.8369 11.1196ZM12.5779 9.71501L12.1627 10.05L11.6615 9.30069C11.8539 9.17434 12.1388 8.85672 12.3988 8.93761C12.4798 8.95632 12.554 8.99743 12.6128 9.05625C12.6716 9.11508 12.7127 9.18926 12.7313 9.27031C12.75 9.35137 12.7455 9.43604 12.7184 9.51467C12.6913 9.5933 12.6426 9.66272 12.5779 9.71501Z" fill="#4257EE"/>
<path d="M6.63479 3.62842C6.52475 3.63002 6.41976 3.67486 6.34251 3.75325C6.26526 3.83163 6.22196 3.93727 6.22196 4.04732C6.22196 4.15737 6.26527 4.26301 6.34252 4.34139C6.41977 4.41977 6.52477 4.46461 6.63481 4.46621C6.74485 4.4646 6.84984 4.41976 6.92709 4.34138C7.00434 4.26299 7.04765 4.15736 7.04765 4.0473C7.04764 3.93725 7.00434 3.83162 6.92708 3.75323C6.84983 3.67485 6.74484 3.63002 6.63479 3.62842ZM8.67532 4.46621C8.78538 4.46463 8.8904 4.4198 8.96767 4.34141C9.04494 4.26302 9.08826 4.15737 9.08826 4.0473C9.08825 3.93723 9.04493 3.83159 8.96766 3.7532C8.89038 3.67482 8.78537 3.62999 8.67531 3.62842C8.56525 3.63 8.46023 3.67483 8.38296 3.75321C8.30569 3.8316 8.26237 3.93725 8.26238 4.04732C8.26238 4.15739 8.3057 4.26304 8.38297 4.34142C8.46025 4.41981 8.56527 4.46463 8.67532 4.46621ZM7.22404 7.11615C7.26159 7.11616 7.29878 7.10877 7.33348 7.09441C7.36817 7.08004 7.3997 7.05898 7.42626 7.03242C7.45281 7.00587 7.47387 6.97434 7.48824 6.93965C7.50261 6.90495 7.50999 6.86776 7.50999 6.83021V6.61463C7.50999 6.53879 7.47986 6.46606 7.42623 6.41243C7.37261 6.35881 7.29988 6.32868 7.22404 6.32868C7.1482 6.32868 7.07547 6.35881 7.02184 6.41243C6.96822 6.46606 6.93809 6.53879 6.93809 6.61463V6.83021C6.93808 6.86776 6.94547 6.90495 6.95984 6.93965C6.9742 6.97434 6.99527 7.00587 7.02182 7.03242C7.04838 7.05898 7.0799 7.08004 7.1146 7.09441C7.1493 7.10877 7.18648 7.11616 7.22404 7.11615ZM8.07854 7.11615C8.11609 7.11616 8.15328 7.10877 8.18798 7.09441C8.22267 7.08004 8.2542 7.05898 8.28076 7.03242C8.30731 7.00587 8.32837 6.97434 8.34274 6.93965C8.35711 6.90495 8.3645 6.86776 8.36449 6.83021V6.61463C8.36449 6.53879 8.33436 6.46606 8.28073 6.41243C8.22711 6.35881 8.15438 6.32868 8.07854 6.32868C8.0027 6.32868 7.92997 6.35881 7.87634 6.41243C7.82272 6.46606 7.79259 6.53879 7.79259 6.61463V6.83021C7.79258 6.86776 7.79997 6.90495 7.81434 6.93965C7.82871 6.97434 7.84977 7.00587 7.87632 7.03242C7.90288 7.05898 7.9344 7.08004 7.9691 7.09441C8.0038 7.10877 8.04098 7.11616 8.07854 7.11615ZM7.38963 10.1647C6.10742 9.47377 5.33961 10.9899 6.51478 11.6801C7.70097 12.3585 8.62841 10.9283 7.38963 10.1647ZM7.38013 11.1697C7.20199 11.4742 6.36107 11.0911 6.52439 10.6754C6.78253 10.3279 7.56139 10.857 7.38013 11.1697Z" fill="#4257EE"/>
</svg>
