<svg width="14" height="16" viewBox="0 0 14 16" fill="none" xmlns="http://www.w3.org/2000/svg">
<path d="M12.9897 1.1537C12.8998 1.12618 10.7664 0.483777 9.21055 1.03546C8.28415 1.36394 7.53839 2.0193 6.81695 2.65306C5.90719 3.45274 5.12111 4.14314 4.20879 3.9769C3.78575 3.89994 3.44191 3.78586 3.13855 3.68522C2.51151 3.47722 1.91871 3.28042 1.28671 3.77098C0.439828 4.4281 0.751828 5.40058 1.03951 5.83082L5.39007 12.9075H4.89183L4.49183 13.3075V14.7875L4.89183 15.1875H10.6518L11.0518 14.7875V13.3075L10.6518 12.9075H9.98383L11.8387 4.42714C11.9704 4.46442 12.0833 4.49802 12.1667 4.52378L12.6747 4.22954L13.2625 1.62426L12.9897 1.1537ZM10.2517 14.3876H5.29167V13.7076H10.2517V14.3876ZM9.24415 12.5446L8.55487 11.6887L10.2235 4.0601C10.4677 4.09178 10.7672 4.15354 11.064 4.22442L9.24415 12.5446ZM4.23535 6.32458C4.30959 6.33066 4.38607 6.33466 4.46511 6.33642C4.75215 6.3425 5.11679 6.34922 5.52543 6.29162L5.24431 7.57722L4.23535 6.32458ZM6.39311 6.06826C6.71903 5.94266 7.05663 5.76042 7.39487 5.49626L6.57759 9.23306L5.88815 8.3769L6.39311 6.06826ZM8.39247 4.67898C8.69423 4.4609 9.03807 4.25402 9.38783 4.13674L7.91087 10.8889L7.22143 10.0327L8.39247 4.67898ZM11.9881 3.6377C11.4344 3.4817 10.4792 3.23722 9.93503 3.23722C9.93151 3.23722 9.92783 3.23722 9.92447 3.23722C8.76159 3.2441 7.66063 4.21002 7.13183 4.67418L7.05119 4.74474C6.10143 5.57146 5.12671 5.55066 4.48255 5.53642C3.82495 5.52218 3.36655 5.30042 3.36191 5.29818L2.87215 5.90714L8.50927 12.9071H8.49263C7.73775 12.8359 6.77695 12.6689 5.94815 12.2879L1.70831 5.3921C1.64015 5.28874 1.32319 4.7553 1.77695 4.40314C2.05855 4.1849 2.26767 4.23946 2.88687 4.44474C3.19903 4.5481 3.58735 4.6769 4.06543 4.7641C5.35935 4.99994 6.36879 4.11226 7.34511 3.25418C8.00943 2.67034 8.69647 2.06666 9.47775 1.7897C10.4459 1.44666 11.7693 1.67994 12.3969 1.82602L11.9881 3.6377Z" fill="#4257EE"/>
</svg>
