<svg width="16" height="16" viewBox="0 0 16 16" fill="none" xmlns="http://www.w3.org/2000/svg">
<path d="M10.229 11.8536C9.68153 9.60508 9.61253 7.92158 9.66303 6.84858C9.76053 6.63258 9.84353 6.40858 9.90803 6.18208L13.2935 8.46358C13.3705 8.51558 13.458 8.54058 13.5445 8.54058C13.689 8.54058 13.831 8.47058 13.918 8.34258C14.284 7.80058 14.405 7.13958 14.267 6.43158C14.078 5.45958 13.4265 4.53608 12.4795 3.89908C12.3125 3.78708 12.139 3.69058 11.9635 3.60258L14.059 2.63858C14.1675 2.58858 14.2515 2.49808 14.293 2.38608C14.3345 2.27358 14.3295 2.15008 14.2795 2.04208C13.622 0.613084 11.605 0.129584 9.78403 0.965584C9.03403 1.31008 8.41103 1.83608 8.00053 2.45258C7.59003 1.83608 6.96703 1.31008 6.21603 0.963584C4.39503 0.130084 2.37853 0.612084 1.72103 2.04108C1.61703 2.26658 1.71603 2.53408 1.94203 2.63758L4.03553 3.60108C3.86053 3.68958 3.68803 3.78608 3.52203 3.89908C2.57553 4.53608 1.92503 5.45908 1.73553 6.43108C1.59753 7.13958 1.71853 7.80108 2.08453 8.34358C2.15153 8.44208 2.25453 8.51058 2.37203 8.53358C2.40053 8.53908 2.42903 8.54208 2.45753 8.54208C2.54653 8.54208 2.63453 8.51508 2.70953 8.46508L6.09253 6.18008C6.15653 6.40708 6.24003 6.63158 6.33753 6.84808C6.38903 7.89708 6.32303 9.58908 5.77153 11.8536C4.20253 12.2451 2.84153 13.0366 1.93953 14.1461C1.74503 14.3851 1.70753 14.7076 1.84053 14.9881C1.97603 15.2731 2.25553 15.4506 2.56953 15.4506H13.4295C13.7435 15.4506 14.023 15.2736 14.1585 14.9881C14.292 14.7076 14.254 14.3851 14.0595 14.1461C13.159 13.0366 11.798 12.2446 10.229 11.8536ZM11.9775 4.64558C12.716 5.14258 13.2415 5.87458 13.3835 6.60308C13.441 6.89708 13.4335 7.17508 13.363 7.42508L10.03 5.17908C10.0145 4.73458 9.93903 4.36158 9.81803 4.05258C10.498 3.97258 11.2825 4.17858 11.9775 4.64558ZM10.16 1.78208C11.3335 1.24408 12.588 1.37458 13.2075 2.03908L10.7135 3.18658C10.2135 3.10408 9.72253 3.12458 9.27203 3.24408C9.11603 3.10608 8.94453 3.00108 8.76453 2.92658C9.08253 2.45808 9.57003 2.05408 10.16 1.78208ZM8.00053 3.67758C8.98853 3.67758 9.13603 4.72458 9.13603 5.34858C9.13603 6.18258 8.47953 7.22408 8.00053 7.84808C7.52203 7.22408 6.86503 6.18258 6.86503 5.34858C6.86503 4.72458 7.01253 3.67758 8.00053 3.67758ZM5.97153 5.17558L2.63953 7.42608C2.56903 7.17558 2.56153 6.89758 2.61853 6.60308C2.76053 5.87458 3.28553 5.14258 4.02603 4.64458C4.70203 4.18508 5.49703 3.97808 6.18153 4.05558C6.06203 4.36308 5.98753 4.73408 5.97153 5.17558ZM5.28403 3.18508L2.79303 2.03908C3.41153 1.37508 4.66703 1.24308 5.84003 1.78158C6.43103 2.05408 6.91853 2.45808 7.23653 2.92658C7.05553 3.00158 6.88403 3.10658 6.72753 3.24558C6.27403 3.12508 5.78203 3.10358 5.28403 3.18508ZM7.22903 8.31858C7.46503 8.63208 7.64653 8.83258 7.66853 8.85708C7.75353 8.95058 7.87403 9.00358 8.00053 9.00358C8.12703 9.00358 8.24753 8.95058 8.33253 8.85708C8.35453 8.83258 8.53603 8.63208 8.77253 8.31808C8.82303 9.22858 8.97003 10.3586 9.26503 11.6681C8.85153 11.6121 8.43153 11.5731 8.00053 11.5731C7.56953 11.5731 7.15003 11.6121 6.73603 11.6681C7.03203 10.3566 7.17853 9.22608 7.22903 8.31858ZM2.77803 14.5501C3.92653 13.2646 5.90403 12.4741 8.00053 12.4741C10.097 12.4741 12.0745 13.2646 13.223 14.5501H2.77803Z" fill="#4257EE"/>
</svg>
