<svg width="16" height="16" viewBox="0 0 16 16" fill="none" xmlns="http://www.w3.org/2000/svg">
<g clip-path="url(#clip0_216_51096)">
<path d="M6.23331 9.52856C6.31818 9.52856 6.39958 9.49485 6.45959 9.43484C6.5196 9.37482 6.55331 9.29343 6.55331 9.20856C6.55331 8.52923 6.04663 7.97656 5.42387 7.97656C4.80109 7.97656 4.29443 8.52923 4.29443 9.20856C4.29443 9.29343 4.32815 9.37482 4.38816 9.43484C4.44817 9.49485 4.52956 9.52856 4.61443 9.52856C4.6993 9.52856 4.7807 9.49485 4.84071 9.43484C4.90072 9.37482 4.93443 9.29343 4.93443 9.20856C4.93443 8.88216 5.15399 8.61656 5.42387 8.61656C5.69376 8.61656 5.91328 8.88216 5.91328 9.20856C5.91328 9.29343 5.947 9.37482 6.00701 9.43484C6.06702 9.49485 6.14844 9.52856 6.23331 9.52856ZM10.6966 7.97656C10.0739 7.97656 9.5672 8.52923 9.5672 9.20856C9.5672 9.29343 9.60092 9.37482 9.66093 9.43484C9.72094 9.49485 9.80233 9.52856 9.8872 9.52856C9.97207 9.52856 10.0535 9.49485 10.1135 9.43484C10.1735 9.37482 10.2072 9.29343 10.2072 9.20856C10.2072 8.88216 10.4268 8.61656 10.6966 8.61656C10.9665 8.61656 11.186 8.88216 11.186 9.20856C11.186 9.29343 11.2198 9.37482 11.2798 9.43484C11.3398 9.49485 11.4212 9.52856 11.506 9.52856C11.5909 9.52856 11.6723 9.49485 11.7323 9.43484C11.7923 9.37482 11.826 9.29343 11.826 9.20856C11.826 8.52923 11.3194 7.97656 10.6966 7.97656ZM10.0089 11.1353C9.924 11.1353 9.8426 11.169 9.78259 11.229C9.72258 11.289 9.68887 11.3704 9.68887 11.4553C9.68887 12.0025 8.94307 12.4649 8.06026 12.4649C7.17744 12.4649 6.43162 12.0025 6.43162 11.4553C6.43162 11.3704 6.3979 11.289 6.33789 11.229C6.27788 11.169 6.19649 11.1353 6.11162 11.1353C6.02675 11.1353 5.94536 11.169 5.88534 11.229C5.82533 11.289 5.79162 11.3704 5.79162 11.4553C5.79162 11.9194 6.04391 12.3472 6.50202 12.6598C6.92266 12.9468 7.47607 13.1049 8.06026 13.1049C8.64445 13.1049 9.19786 12.9468 9.6185 12.6598C10.0766 12.3472 10.3289 11.9194 10.3289 11.4553C10.3289 11.4132 10.3206 11.3716 10.3045 11.3328C10.2885 11.294 10.2649 11.2587 10.2352 11.229C10.2055 11.1993 10.1702 11.1757 10.1314 11.1596C10.0925 11.1435 10.0509 11.1353 10.0089 11.1353H10.0089Z" fill="#F8CC50"/>
<path d="M15.9334 9.04418C15.8316 8.5357 15.5703 8.30993 15.3691 8.21003C15.1064 8.07969 14.8284 8.09688 14.6244 8.14219C14.2825 4.91217 11.6018 2.37009 8.31259 2.24568C8.16314 2.15995 8.03008 2.04839 7.9196 1.91617C7.71624 1.66318 7.69074 1.40689 7.83934 1.10968C7.85814 1.07209 7.86934 1.03117 7.87232 0.989252C7.8753 0.947334 7.86999 0.90524 7.8567 0.865373C7.84341 0.825507 7.8224 0.788648 7.79487 0.756902C7.76733 0.725155 7.73381 0.699143 7.69623 0.680351C7.65864 0.661558 7.61772 0.650353 7.5758 0.647375C7.53388 0.644396 7.49179 0.649704 7.45192 0.662994C7.41205 0.676284 7.37519 0.697296 7.34345 0.724831C7.3117 0.752365 7.28569 0.785883 7.2669 0.823471C7.05736 1.24251 7.05304 1.66878 7.24827 2.05227C7.0252 1.96996 6.82105 1.84343 6.64808 1.68027C6.34776 1.38849 6.19544 0.979055 6.19544 0.463311C6.19544 0.378441 6.16173 0.297048 6.10172 0.237036C6.0417 0.177025 5.96031 0.143311 5.87544 0.143311C5.79057 0.143311 5.70918 0.177025 5.64917 0.237036C5.58916 0.297048 5.55544 0.378441 5.55544 0.463311C5.55544 1.15857 5.77304 1.72245 6.20216 2.13934C6.30896 2.24265 6.42599 2.33484 6.55144 2.41448C3.86005 3.046 1.798 5.32897 1.49682 8.1316C1.30325 8.09509 1.05781 8.09096 0.822482 8.20632C0.520914 8.35409 0.326162 8.64795 0.243698 9.07969C0.133138 9.65841 0.377586 10.2311 0.950642 10.7358C1.26674 11.0142 1.65307 11.2367 1.93205 11.3432C2.26347 12.2052 2.75623 12.996 3.38392 13.6734C4.65122 15.0365 6.31189 15.7872 8.05999 15.7872C9.80808 15.7872 11.4687 15.0365 12.736 13.6734C13.3921 12.9654 13.9005 12.1338 14.2316 11.2272C14.6147 11.0886 15.2983 10.713 15.6836 10.144C15.9209 9.79346 16.0073 9.41317 15.9334 9.04421V9.04418ZM8.05999 2.88033C8.87415 2.87998 9.67971 3.04685 10.4267 3.37059C11.1738 3.69433 11.8464 4.16805 12.4028 4.76238C11.8896 4.64312 11.3948 4.66017 10.9231 4.8148C10.0042 5.11601 9.41291 5.86616 9.11592 6.34408C8.46562 5.4244 9.08831 4.36561 9.11771 4.31678C9.15249 4.25992 9.16864 4.19363 9.16392 4.12714C9.1592 4.06066 9.13384 3.99731 9.09137 3.94594C9.04891 3.89457 8.99146 3.85774 8.92706 3.84059C8.86265 3.82344 8.7945 3.82683 8.73211 3.85029C8.02171 4.11733 7.53115 4.55013 7.27419 5.13669C7.04098 5.66894 7.05109 6.22168 7.11496 6.6307C6.81643 6.4725 6.59138 6.25758 6.4429 5.9883C6.18667 5.52347 6.24104 5.05 6.26414 4.96686C6.29146 4.90497 6.29846 4.836 6.28413 4.76988C6.2698 4.70376 6.23488 4.64388 6.18439 4.59884C6.1339 4.55381 6.07043 4.52593 6.00311 4.51923C5.93578 4.51252 5.86806 4.52733 5.80968 4.56152C4.90911 5.08917 4.82648 5.97345 4.8188 6.45505C3.84456 6.21006 3.56296 5.26146 3.50351 5.00232C4.06218 4.33761 4.75957 3.80321 5.54671 3.43664C6.33385 3.07007 7.19167 2.88017 8.05999 2.88033ZM0.872338 9.19979C0.901522 9.04696 0.965138 8.85035 1.10242 8.78187C1.20904 8.72869 1.35458 8.75041 1.45928 8.78082C1.45909 8.80117 1.45848 8.82146 1.45848 8.8419C1.45941 9.39377 1.52699 9.9435 1.65976 10.4792C1.23448 10.1927 0.771698 9.72661 0.872338 9.19979ZM12.2673 13.2376C11.1224 14.469 9.62824 15.1472 8.05999 15.1472C6.49173 15.1472 4.99752 14.469 3.85266 13.2376C3.26654 12.6054 2.8095 11.8648 2.50719 11.0575C2.50202 11.0041 2.4835 10.9529 2.45333 10.9085C2.2206 10.2443 2.10066 9.54573 2.09848 8.84187C2.0971 7.70238 2.42426 6.58665 3.04075 5.62833C3.09924 5.76567 3.16816 5.89832 3.2469 6.02514C3.66242 6.6917 4.2941 7.07838 5.07371 7.14334C5.08065 7.14392 5.08759 7.14427 5.09455 7.1444C5.13981 7.14551 5.18482 7.13743 5.22688 7.12065C5.26893 7.10388 5.30715 7.07875 5.33922 7.0468C5.45784 6.93032 5.45791 6.78654 5.45797 6.58753C5.4581 6.26434 5.47826 5.91598 5.64155 5.61096C5.67423 5.79386 5.72901 5.97212 5.80469 6.14181C6.00895 6.59461 6.46824 7.19003 7.49627 7.45525C7.52224 7.46196 7.54894 7.46536 7.57576 7.46536C7.6281 7.4653 7.67962 7.45243 7.72584 7.42787C7.77205 7.40331 7.81155 7.36781 7.84088 7.32446C7.87021 7.28112 7.88847 7.23125 7.89409 7.17922C7.8997 7.12719 7.89248 7.07457 7.87307 7.02597C7.86959 7.0172 7.52875 6.14466 7.86213 5.38955C7.94967 5.19255 8.07774 5.0162 8.238 4.87201C8.22672 4.92676 8.21705 4.98182 8.20901 5.03714C8.09045 5.85403 8.3525 6.57813 8.9669 7.13105C9.00457 7.16486 9.04972 7.18926 9.09864 7.20225C9.14756 7.21523 9.19887 7.21644 9.24835 7.20577C9.29783 7.1951 9.34408 7.17286 9.3833 7.14087C9.42252 7.10887 9.45361 7.06804 9.474 7.02171C9.47947 7.00929 10.0334 5.77755 11.1263 5.42171C11.7384 5.22235 12.421 5.3332 13.1556 5.75048C13.7232 6.68164 14.0228 7.75137 14.0215 8.84187C14.0215 10.4363 13.3821 12.0385 12.2673 13.2376ZM15.1536 9.78517C14.9837 10.0362 14.7215 10.2444 14.4802 10.394C14.5997 9.88525 14.6605 9.36447 14.6615 8.84187C14.6615 8.82651 14.661 8.81134 14.6609 8.79601C14.762 8.76094 14.951 8.71701 15.0846 8.78334C15.1906 8.83595 15.2651 8.96597 15.3059 9.16987C15.3465 9.37262 15.2967 9.5739 15.1536 9.78517Z" fill="#F8CC50"/>
</g>
<defs>
<clipPath id="clip0_216_51096">
<rect width="16" height="16" fill="white"/>
</clipPath>
</defs>
</svg>
