<svg width="33" height="32" viewBox="0 0 33 32" fill="none" xmlns="http://www.w3.org/2000/svg">
<path d="M17.8161 26.8771C17.0671 27.0251 16.2881 27.1001 15.5001 27.1001C13.7471 27.1001 11.8511 24.4071 10.9681 20.1501H16.8901C17.3871 20.1501 17.7901 19.7471 17.7901 19.2501C17.7901 18.7531 17.3871 18.3501 16.8901 18.3501H10.6711C10.5391 17.2991 10.4601 16.1831 10.4601 15.0001C10.4601 13.8171 10.5391 12.7001 10.6721 11.6491H20.3301C20.4391 12.5301 20.5121 13.4581 20.5301 14.4371C20.5391 14.9341 20.9401 15.3361 21.4471 15.3201C21.9441 15.3111 22.3391 14.9001 22.3301 14.4031C22.3121 13.4531 22.2501 12.5331 22.1491 11.6491H27.1191C27.3651 12.5051 27.5311 13.3951 27.5821 14.3201C27.6091 14.8171 28.0371 15.1881 28.5301 15.1691C29.0271 15.1421 29.4061 14.7171 29.3791 14.2211C28.9701 6.8631 22.8741 1.1001 15.5001 1.1001C7.8351 1.1001 1.6001 7.3351 1.6001 15.0001C1.6001 22.6651 7.8351 28.9001 15.5001 28.9001C16.4051 28.9001 17.3011 28.8141 18.1651 28.6431C18.6531 28.5471 18.9701 28.0731 18.8731 27.5861C18.7771 27.0981 18.3001 26.7831 17.8161 26.8771ZM8.8601 18.3501H3.8821C3.5741 17.2851 3.4001 16.1631 3.4001 15.0001C3.4001 13.8361 3.5741 12.7151 3.8821 11.6491H8.8601C8.7341 12.7211 8.6601 13.8381 8.6601 15.0001C8.6601 16.1611 8.7341 17.2781 8.8601 18.3501ZM10.9681 9.8491C11.8511 5.5921 13.7471 2.9001 15.5001 2.9001C17.2601 2.9001 19.1621 5.5621 20.0391 9.8491H10.9681ZM26.4531 9.8491H21.8701C21.3851 7.2731 20.5431 5.1091 19.4561 3.5761C22.5381 4.6441 25.0701 6.9131 26.4531 9.8491ZM11.5671 3.5691C10.4751 5.1071 9.6261 7.2801 9.1351 9.8491H4.5671C5.9531 6.9201 8.4751 4.6361 11.5671 3.5691ZM4.5671 20.1501H9.1351C9.6261 22.7191 10.4751 24.8931 11.5671 26.4311C8.4741 25.3631 5.9531 23.0801 4.5671 20.1501Z" fill="#4257EE"/>
<path d="M25.1399 16.207C21.6879 16.207 18.8799 19.015 18.8799 22.467C18.8799 26.265 23.0139 29.662 24.2809 30.613C24.5379 30.806 24.8389 30.902 25.1399 30.902C25.4409 30.902 25.7419 30.806 25.9979 30.613C27.2649 29.663 31.3989 26.266 31.3989 22.467C31.3999 19.015 28.5919 16.207 25.1399 16.207ZM25.1399 29.004C22.9439 27.302 20.6799 24.745 20.6799 22.467C20.6799 20.008 22.6809 18.007 25.1399 18.007C27.5989 18.007 29.5999 20.008 29.5999 22.467C29.5999 24.745 27.3369 27.303 25.1399 29.004Z" fill="#4257EE"/>
<path d="M25.14 20.9683C24.362 20.9683 23.731 21.5993 23.731 22.3773C23.731 23.1553 24.362 23.7863 25.14 23.7863C25.918 23.7863 26.549 23.1553 26.549 22.3773C26.548 21.5983 25.918 20.9683 25.14 20.9683Z" fill="#4257EE"/>
</svg>
