<svg width="39" height="42" viewBox="0 0 39 42" fill="none" xmlns="http://www.w3.org/2000/svg">
<path d="M9.5 19V11C9.5 8.34784 10.5536 5.8043 12.4289 3.92893C14.3043 2.05357 16.8478 1 19.5 1C22.1522 1 24.6957 2.05357 26.5711 3.92893C28.4464 5.8043 29.5 8.34784 29.5 11V19M5.5 19H33.5C35.7091 19 37.5 20.7909 37.5 23V37C37.5 39.2091 35.7091 41 33.5 41H5.5C3.29086 41 1.5 39.2091 1.5 37V23C1.5 20.7909 3.29086 19 5.5 19Z" stroke="#FCFCFD" stroke-width="2" stroke-linecap="round" stroke-linejoin="round"/>
</svg>
