<svg width="72" height="72" viewBox="0 0 72 72" fill="none" xmlns="http://www.w3.org/2000/svg">
<path d="M69.8533 33.3306C69.5291 30.7543 69.0023 28.1953 68.0991 25.7579C68.1049 25.4568 69.8997 24.1368 68.7359 22.0873C67.8501 20.5183 66.0322 20.9815 65.8643 20.8136C65.0654 19.2041 64.0464 17.7162 62.9927 16.2688C64.3822 13.8719 62.1127 11.0755 59.6058 12.4013C58.4749 11.2203 57.3459 10.0373 56.2189 8.85233C57.1452 6.03281 54.0304 3.90225 51.8709 5.94018C50.2383 5.19332 48.5419 4.58542 46.8861 3.90804C46.8456 1.14062 43.2676 0.260607 41.9013 2.67486C40.8129 2.56679 39.7225 2.46064 38.6302 2.35643C38.3639 0.7643 37.0496 -0.231505 35.4401 0.0463945C34.4154 0.225871 33.6048 1.39536 33.3675 2.35643C32.306 2.48766 31.2427 2.62082 30.1774 2.75591C28.7995 0.191134 25.2679 1.13483 25.1521 3.95435C23.585 4.59121 22.0161 5.22999 20.4452 5.8707C20.3641 5.89772 20.285 5.92474 20.2078 5.95175C19.1714 4.7591 17.0814 4.93858 16.1782 6.22965C15.2635 7.53231 15.9698 8.71338 15.8598 8.93917C14.7559 10.0701 13.6521 11.199 12.5482 12.3261C10.9676 11.4113 8.72707 12.7313 8.59969 14.5203C8.52443 15.5624 9.19602 16.0835 8.99918 16.4367C8.06898 17.8725 7.13879 19.3083 6.2086 20.7441L6.01176 20.941C4.06646 20.5299 2.59012 22.3941 3.02434 24.2526C3.2154 25.0747 3.9912 25.5205 3.97962 25.8447C3.09381 28.2937 2.6017 30.8469 2.22538 33.4175C-0.727301 34.0891 -0.756249 37.887 2.22538 38.5181C2.60749 41.1118 3.10539 43.694 3.97962 46.1719C1.98801 48.3835 3.03013 51.3825 6.13334 51.1162C7.00756 52.6967 7.96284 54.2368 9.08602 55.661C7.62705 58.1505 9.8734 60.8079 12.554 59.6905L15.9409 63.2395C14.8872 66.0648 18.0714 67.9522 20.3641 66.0706C21.9311 66.7075 23.5001 67.3463 25.071 67.987C25.3142 70.8586 28.6548 71.8313 30.1716 69.2607C30.6001 69.3012 33.4659 69.4865 33.5585 69.7007C33.6048 71.9644 36.6849 72.8213 38.0223 71.0555C38.5897 70.3086 38.4449 69.7297 38.7807 69.5791C39.792 69.4711 40.8013 69.3649 41.8087 69.2607C43.314 71.785 46.6835 70.9165 46.9093 68.0623C48.5882 67.4138 50.2614 66.7307 51.9346 66.0706C54.0131 68.1259 57.1916 65.8101 56.1205 63.1585C57.2514 62.0006 58.3803 60.8446 59.5074 59.6905C62.1243 60.8021 64.3069 58.1563 62.9753 55.7421C63.9325 54.2522 64.8897 52.7643 65.847 51.2783L66.0438 51.0814C68.927 51.5272 70.0039 48.1461 68.0759 46.2587C68.9502 43.7519 69.5349 41.1639 69.8302 38.5239C72.7713 37.8581 72.7655 34.1701 69.8302 33.3422L69.8533 33.3306ZM66.1017 26.2326C65.5845 28.3709 65.0654 30.5111 64.5443 32.6533L62.5932 32.4564C61.582 30.4648 60.5727 28.4713 59.5653 26.4758C59.5653 26.221 60.7637 25.671 60.8795 23.8821H63.9075C64.1101 26.0068 66.0438 26.0705 66.1017 26.2326ZM48.8777 33.0064C47.3145 34.037 47.3088 35.5365 47.164 35.6001H39.5102C39.3828 34.5812 38.7923 33.6606 37.9528 33.0875C39.296 30.4165 40.6392 27.7456 41.9824 25.0747C43.0245 25.7752 44.7556 25.0284 44.8945 25.1152C46.2222 27.7476 47.5519 30.3799 48.8835 33.0122L48.8777 33.0064ZM45.5314 24.7158C45.5314 24.4957 46.4577 24.0094 46.7645 22.7647C49.1962 23.1236 51.6278 23.4826 54.0594 23.8415C54.0594 25.5552 55.3505 26.1747 55.3331 26.4758C54.2022 28.5639 53.0732 30.6501 51.9462 32.7343C50.7014 32.2017 49.6651 32.6996 49.5551 32.6533C48.2293 30.0016 46.8803 27.3616 45.5256 24.7215L45.5314 24.7158ZM44.7729 18.8567C43.8755 18.4225 42.8218 18.4225 41.9013 18.7757C40.7318 16.7377 39.597 14.6708 38.3523 12.6734C38.3349 12.4592 39.2902 11.585 39.5855 10.5603C42.0171 10.8652 44.4487 11.1701 46.8803 11.475C46.9093 13.345 48.0846 13.9877 48.0788 14.1845C46.9749 15.74 45.871 17.2955 44.7671 18.8509L44.7729 18.8567ZM37.2002 32.7285C36.0075 32.1785 34.977 32.8154 34.7686 32.688C33.4678 30.0557 32.1652 27.4233 30.8606 24.791C30.8606 24.5247 31.9722 23.9631 32.2559 22.2783H39.8286C39.9618 22.3362 39.8576 23.8068 41.305 24.71C39.9348 27.3809 38.5665 30.0518 37.2002 32.7227V32.7285ZM30.1022 25.0747C30.1408 25.1133 30.1813 25.1538 30.2237 25.1963C31.5013 27.7746 32.7769 30.3529 34.0506 32.9311C34.0622 33.2554 32.7596 34.0717 32.4933 35.6001H24.8394C24.7005 35.5307 24.8047 34.1064 23.2068 33.0064C24.577 30.3625 25.9452 27.7186 27.3116 25.0747C28.209 25.4047 29.2106 25.5205 30.1022 25.0747ZM23.9999 14.1093C24.0115 13.9645 25.1637 13.1829 25.1173 11.5561C26.2984 11.3418 31.4801 10.5371 32.0938 10.5603C33.0375 10.595 32.3601 11.5213 33.8075 12.5924C33.7805 12.6464 33.7534 12.7005 33.7264 12.7545C32.5454 14.7345 31.3624 16.7146 30.1774 18.6946C29.9922 18.7467 28.6606 18.0925 27.3869 18.8567C26.256 17.2742 25.127 15.6937 23.9999 14.115V14.1093ZM22.5641 32.6127C22.3905 32.7285 21.4062 32.2132 20.1325 32.7343C19.0016 30.596 17.8727 28.4558 16.7456 26.3137C17.6662 25.5437 17.8456 24.9184 18.1409 23.801C19.4841 23.7663 24.631 22.7415 24.9958 22.7647C25.7252 22.8052 25.2679 23.6042 26.6284 24.7158C25.2737 27.3481 23.9189 29.9804 22.5641 32.6127ZM19.4551 33.0875C18.2277 34.0254 18.0367 35.5365 17.8977 35.6001H12.1545C11.8245 33.5101 10.1976 33.0411 10.2034 32.688C11.1876 30.7736 12.1719 28.8592 13.1561 26.9447C13.3992 26.7595 15.3156 27.3732 15.9061 26.7479C16.1088 26.7016 16.2188 26.9332 16.3461 27.1068C16.6993 27.5932 18.6562 31.8659 19.4551 33.0875ZM12.1603 36.3181H17.9788C18.1351 37.3139 18.5867 38.2691 19.4551 38.8307C18.3242 40.969 17.1953 43.1092 16.0682 45.2514C15.1882 44.8461 14.1461 44.7882 13.2777 45.2514C13.2391 45.2128 13.1985 45.1722 13.1561 45.1298C12.1719 43.1613 11.1876 41.1948 10.2034 39.2302C10.215 39.0044 11.8419 38.356 12.1545 36.3181H12.1603ZM20.1325 39.2707C20.2657 39.2302 21.5104 39.6934 22.4426 39.2707C23.9478 41.8355 25.1463 44.5798 26.5474 47.2024C26.5589 47.463 25.6673 47.9203 25.3142 49.1535C22.9212 48.8332 20.5281 48.5147 18.1351 48.1982C17.8977 48.0535 18.083 46.7335 16.7398 45.6856C17.8707 43.5473 18.9997 41.4071 20.1267 39.2649L20.1325 39.2707ZM23.282 39.0681C23.2647 38.6512 24.6021 38.1128 24.8394 36.3181H32.5743C32.5743 37.3949 33.2806 38.2228 34.0506 38.9118C32.7345 41.5827 31.4183 44.2536 30.1022 46.9245C29.5058 46.1835 27.41 47.0751 27.1147 46.7277C26.8368 46.3977 24.0289 40.0813 23.2878 39.0739L23.282 39.0681ZM27.3116 53.1425C28.1916 53.5536 29.2048 53.5825 30.1022 53.2236C31.4164 55.1805 32.4527 57.3284 33.7322 59.3258C33.7322 59.4937 32.7248 60.3042 32.5743 61.3579C30.4958 61.0685 28.3363 61.0048 26.2752 60.64C24.0405 60.2406 26.1305 60.2116 23.9999 57.8089C25.1038 56.2535 26.2077 54.698 27.3116 53.1425ZM34.8033 39.2707C35.4691 39.4676 36.4996 39.5602 37.1133 39.2707C37.206 39.3093 37.2986 39.3498 37.3912 39.3923C38.6919 42.0246 39.9946 44.657 41.2992 47.2893C39.9734 48.2503 39.9502 49.5067 39.8228 49.5646H32.169C32.0359 48.644 31.5611 47.8046 30.7737 47.2893C32.1169 44.6184 33.4601 41.9474 34.8033 39.2765V39.2707ZM41.9418 46.884L37.9528 38.9118C38.7807 38.1533 39.3655 37.476 39.5102 36.3181H47.2451C47.4014 38.2054 48.8661 38.8307 48.8777 38.987C47.5075 41.6309 46.1393 44.2748 44.7729 46.9187C43.2792 46.224 42.0866 46.9651 41.9418 46.8782V46.884ZM48.0846 57.8089C48.0903 57.9884 46.9209 58.7584 46.8861 60.3621C46.6835 60.6748 40.3671 61.2132 39.5102 61.3579C39.2497 60.0437 38.3407 59.5516 38.3523 59.2447C39.6028 57.2647 40.6623 55.1515 41.9824 53.2236C42.7408 53.5883 43.9566 53.5652 44.6919 53.1425C45.8228 54.698 46.9517 56.2535 48.0788 57.8089H48.0846ZM49.6362 39.2707C50.3714 39.5255 51.1878 39.4792 51.9462 39.2707C53.1215 41.355 54.2041 43.555 55.3331 45.6914C55.3041 45.8303 53.9957 46.5945 54.0594 48.0825C53.9938 48.121 53.9282 48.1616 53.8626 48.204C51.4965 48.5514 49.1305 48.8969 46.7645 49.2404C46.4345 47.7872 45.5198 47.5151 45.5314 47.2082L49.6362 39.2765V39.2707ZM52.6294 38.9118C52.6294 38.7091 53.8915 37.9102 54.0247 36.3181H59.9242C60.26 38.5933 61.8232 38.9755 61.8753 39.1491C60.8795 41.1562 59.8837 43.1632 58.8879 45.1703C57.18 44.5277 56.1552 45.2977 56.0163 45.2514C54.8526 43.1613 53.8104 40.996 52.6294 38.9118ZM59.8432 35.6001H54.0999C53.961 35.5422 53.9436 34.1006 52.6236 33.0875C53.7815 30.9762 54.9375 28.863 56.0915 26.7479C56.9484 27.1532 57.9558 27.2053 58.8011 26.7479C58.8397 26.7865 58.8802 26.827 58.9226 26.8695C59.9069 28.8109 60.8911 30.7504 61.8753 32.688C61.8637 32.9369 60.2716 33.5969 59.8432 35.6001ZM62.3964 16.8593C62.5295 16.8651 63.7106 18.6367 63.8727 18.8914C66.1306 22.4289 64.5559 20.223 63.8322 23.1584H60.8795C60.7 23.0831 60.7579 21.1088 58.6042 20.2462C58.9361 19.1964 59.2681 18.1465 59.6 17.0967C60.5032 17.583 61.5743 17.5193 62.3906 16.8593H62.3964ZM53.5846 10.4445C53.6657 10.346 54.7947 10.6355 55.6978 9.52971C56.1436 9.84813 58.8821 12.6098 58.8474 12.8413C58.5965 13.2273 58.3437 13.6133 58.0889 13.9993C56.5875 13.5863 55.0861 13.1752 53.5846 12.7661C53.5094 12.6387 53.9899 11.5734 53.5846 10.456V10.4445ZM53.1446 13.4319C54.8043 13.8719 56.4659 14.31 58.1295 14.7461C57.9674 15.8982 58.9168 16.4019 58.9284 16.7377C58.5425 17.8686 58.1565 18.9976 57.7705 20.1246C57.2109 20.1787 56.6531 20.2327 56.0973 20.2867C54.7831 18.3646 53.5615 16.3498 52.2299 14.4277C52.5348 14.0957 52.8397 13.7638 53.1446 13.4319ZM55.4199 20.6515C55.4257 20.8946 54.2852 21.4215 54.0247 23.0831C51.593 22.7241 49.1614 22.3652 46.7298 22.0062C46.7472 20.8831 46.3187 19.9162 45.375 19.2967C46.4789 17.7412 47.5828 16.1858 48.6867 14.6303C48.8314 14.5956 49.9546 15.354 51.4772 14.7114C52.7934 16.6914 54.1096 18.6714 55.4257 20.6515H55.4199ZM46.8456 4.74174C47.0598 4.65489 50.9736 6.27018 51.153 6.41492C51.2341 6.4844 51.3615 6.58861 51.3499 6.69282C50.6725 9.25181 51.0604 7.37599 48.5998 8.48759C48.3682 8.08232 46.4982 5.75491 46.4866 5.57543C46.4866 5.52912 46.8051 4.75331 46.8456 4.73594V4.74174ZM42.5382 6.01544C43.5282 6.69282 44.8945 6.84914 45.8845 6.09649C46.614 6.97072 47.2103 7.95494 47.9167 8.84654C47.9456 9.13602 47.1061 9.60497 46.9209 10.7224C44.4622 10.3904 42.0036 10.0585 39.5449 9.72655C39.5276 9.20549 39.4176 8.66706 39.1455 8.20969C40.2764 7.4802 41.4053 6.74878 42.5324 6.01544H42.5382ZM36.4417 5.41911C36.5402 5.16437 38.2828 5.05437 38.636 3.06855C39.6472 3.19978 40.6565 3.33294 41.6639 3.46803C41.7276 3.54329 41.3744 4.51015 42.0229 5.34385C40.946 6.10035 39.8692 6.85879 38.7923 7.61915C37.5823 6.33387 36.0133 6.54808 36.4417 5.4249V5.41911ZM37.5186 13.0324C37.727 12.9861 37.7849 13.1771 37.9586 13.3914C38.306 13.8256 40.3786 17.9593 41.2297 19.0536C41.2297 19.262 39.9676 20.1362 39.875 21.5257C37.3353 21.5643 34.7975 21.6048 32.2617 21.6473C32.0243 19.9509 30.8606 19.2678 30.8664 19.0536C31.9818 17.1391 33.0973 15.2247 34.2128 13.3103C34.5775 12.8877 36.1523 13.8487 37.5244 13.0324H37.5186ZM30.4206 3.46803C31.0111 3.43329 32.7422 3.06276 33.0548 3.06855C34.0217 3.0975 33.188 3.75172 34.2533 4.66068C35.058 5.34964 36.0828 4.85753 35.527 6.33387C34.6817 6.42071 33.9349 6.90125 33.3733 7.53231C32.2424 6.80282 31.1134 6.07141 29.9864 5.33806C30.5248 4.85174 30.5248 4.12225 30.4264 3.46224L30.4206 3.46803ZM26.2752 6.09649C27.1611 6.77966 28.5158 6.73335 29.3843 6.01544C30.5653 6.74493 31.7483 7.47634 32.9333 8.20969C32.802 8.71531 32.6689 9.22093 32.5338 9.72655C30.0481 10.0585 27.5625 10.3904 25.0768 10.7224C25.0015 9.99866 24.5847 9.41392 24.081 8.92759C24.3705 8.5918 26.0958 6.10807 26.2752 6.09649ZM20.8504 6.49597C21.4352 6.37439 24.9263 4.707 25.1579 4.74174C25.2737 4.7591 25.6152 5.53491 25.5979 5.65649C25.5747 5.83596 23.6642 8.11126 23.4036 8.48759C22.6683 7.83336 21.2094 8.21548 21.1283 8.12863C20.9971 7.62301 20.8639 7.11739 20.7288 6.61177L20.8504 6.49018V6.49597ZM20.6131 14.7866C21.5104 15.0182 22.5352 15.1051 23.3226 14.5493L26.6342 19.1346C26.6689 19.482 25.291 20.1536 25.3605 21.9252C22.9289 22.3382 20.4973 22.7492 18.0656 23.1584C17.7935 22.0062 17.5851 21.5141 16.6704 20.7267C17.9267 18.7293 19.212 16.703 20.6188 14.7866H20.6131ZM16.3056 9.52392C17.2783 10.6008 18.4825 10.3171 18.4999 10.4387C18.2741 11.1566 18.2741 11.9382 18.4999 12.6734C16.9714 13.1405 15.443 13.6056 13.9145 14.0687C13.6868 13.6017 13.461 13.1366 13.2371 12.6734C14.26 11.6236 15.2828 10.5738 16.3056 9.52392ZM13.955 14.8272C15.5105 14.3601 17.066 13.895 18.6214 13.4319C19.1136 13.4029 19.4378 14.1729 19.8546 14.5087C18.6041 16.4232 17.3555 18.3376 16.1088 20.252L14.314 20.1304C14.1751 19.6672 13.1387 16.8419 13.1561 16.6625C13.1677 16.5582 13.9898 15.9272 13.955 14.8272ZM9.68813 16.8593C10.5508 17.5135 11.5118 17.5598 12.4787 17.0967L13.4745 20.1651C13.4398 20.4778 11.6103 20.7499 11.1992 23.1526H8.24653C8.13074 23.1005 8.10179 21.6994 6.85125 21.1204C7.79302 19.7001 8.73672 18.2777 9.68235 16.8535L9.68813 16.8593ZM8.17127 23.8763H11.1992C11.3208 23.9631 11.0892 25.3931 12.5945 26.3889L9.4855 32.4506C8.83321 32.5162 8.18285 32.5818 7.53442 32.6475C7.01721 30.5092 6.49808 28.369 5.97702 26.2268C7.12335 25.9605 8.07284 25.0979 8.17127 23.8763ZM5.2649 45.6856C5.17227 45.8477 4.91753 45.9577 4.74384 45.8824C4.39068 45.7319 3.03013 39.2939 3.07066 38.466C6.11018 37.8175 5.9886 34.0601 3.03013 33.4001C3.09381 32.5896 4.35015 26.3774 4.66279 26.1863C4.83647 26.0821 5.16069 26.1921 5.25911 26.3831C5.40964 26.6784 6.35334 31.8948 6.77598 32.8443C6.7644 33.3712 5.53701 33.5854 5.34017 35.3165C5.17806 36.7696 5.49649 38.1012 6.77598 38.906C6.46913 39.7976 5.43859 45.3845 5.25911 45.6856H5.2649ZM6.05807 45.8477C6.54826 43.6824 7.04037 41.5171 7.53442 39.3518C8.18671 39.3904 8.83707 39.4309 9.4855 39.4734C10.4967 41.492 11.5061 43.5126 12.5134 45.535C12.5134 45.7782 11.3034 46.4035 11.1992 48.0477H8.17127C8.02653 47.9782 8.0439 46.1487 6.05807 45.8535V45.8477ZM12.4787 54.8157C11.4076 54.4683 10.6203 54.422 9.68813 55.1341C8.66338 53.8199 7.80073 52.3725 6.93809 50.9483C6.91493 50.6299 7.99179 50.2941 8.25232 48.754H11.205C11.3845 48.8351 11.095 50.6993 13.4803 51.7415L12.4845 54.8099L12.4787 54.8157ZM18.4999 61.3985C18.4304 61.5027 17.2725 61.2885 16.3056 62.4753C15.2828 61.3985 14.26 60.3216 13.2371 59.2447C13.4649 58.8318 13.6907 58.4207 13.9145 58.0116C15.4545 58.4091 16.9965 58.8086 18.5404 59.21C18.7025 59.3895 18.0888 60.5706 18.4999 61.4042V61.3985ZM18.8588 58.5674L13.955 57.1721C14.0708 56.3326 13.5266 55.8347 13.1561 55.1805C13.4282 54.7578 14.0766 51.9615 14.314 51.8688C14.8351 51.973 15.6745 51.7067 15.7498 51.7067C16.0567 51.7183 15.9872 51.7183 16.1898 51.9036C16.4388 52.1294 19.1888 56.79 19.8604 57.5658L18.8646 58.5616L18.8588 58.5674ZM16.6646 51.3478C16.6588 51.1104 17.8688 50.4851 18.0599 48.9161C20.4915 49.2481 22.9231 49.58 25.3547 49.912C25.2447 51.1104 25.841 52.0078 26.7095 52.7836C25.6056 54.312 24.5017 55.8405 23.3978 57.3689C23.2184 57.4152 22.0952 56.6452 20.6073 57.2879C19.2911 55.3078 17.9749 53.3278 16.6588 51.3478H16.6646ZM25.1579 67.2575C24.9321 67.3443 21.2673 65.5612 20.7346 65.3817C21.3252 62.7359 21.0646 64.5769 23.4036 63.5059C23.6989 63.8301 25.5805 66.1575 25.5979 66.337C25.5979 66.3891 25.2042 67.2344 25.1579 67.2517V67.2575ZM29.6216 65.9838C29.4421 65.9954 28.2727 64.658 26.1942 65.8217C25.4917 64.9031 24.7873 63.9864 24.081 63.0716C24.0694 62.9443 24.8915 62.3711 25.1579 61.1958C27.6049 61.4892 30.0501 61.7825 32.4933 62.0758L32.9333 63.7085C31.8294 64.465 30.7255 65.2234 29.6216 65.9838ZM35.6428 66.6612C35.5675 66.8059 33.9175 66.7943 33.4485 68.8554C29.089 68.3865 31.1385 68.9712 30.0616 66.5801C31.1385 65.8506 32.2154 65.1192 33.2922 64.3859C34.3806 65.5438 36.2333 65.4859 35.6428 66.6612ZM34.4849 58.9668C34.4192 58.9282 34.3536 58.8877 34.288 58.8453C33.1455 56.8768 32.0031 54.9103 30.8606 52.9457C30.8374 52.6852 31.9838 51.8688 32.2559 50.2767C34.8226 50.3153 37.3874 50.3558 39.9502 50.3983C39.9155 51.4057 40.5813 52.2336 41.305 52.8704L37.6749 58.8916C37.5186 58.9379 35.9207 58.0521 34.4849 58.9726V58.9668ZM41.5018 68.5312C40.5176 68.6393 39.5334 68.7454 38.5491 68.8496C38.3581 66.9159 36.4244 66.7365 36.3549 66.5743C35.8801 65.4396 37.4607 65.6827 38.7055 64.4611C39.8363 65.1906 40.9653 65.9221 42.0924 66.6554C41.3976 67.2401 41.7566 68.4154 41.496 68.5312H41.5018ZM45.8903 65.8217C43.8292 64.6464 42.7061 66.0127 42.4629 65.9838C41.386 65.2543 40.3092 64.5229 39.2323 63.7896L39.6723 62.0758C41.9843 61.7825 44.2962 61.4892 46.6082 61.1958C47.0772 61.0453 47.0482 62.2495 48.0035 63.0716C47.301 63.9903 46.5966 64.9069 45.8903 65.8217ZM46.9266 67.2575C46.863 67.2459 46.4808 66.4007 46.4866 66.3428C46.504 66.1691 48.3798 63.9169 48.5998 63.5117C49.3351 63.8764 50.1167 64.0675 50.9099 63.749C51.0295 64.2932 51.1492 64.8375 51.2688 65.3817C49.8214 66.007 48.3721 66.6322 46.9209 67.2575H46.9266ZM51.4715 57.2879C50.6435 56.9173 49.5262 56.9173 48.7619 57.45C47.631 55.8945 46.5021 54.339 45.375 52.7836C45.3635 52.5983 46.7298 51.8862 46.7298 49.993C48.044 49.7267 52.6294 48.9335 53.4689 48.9161C53.602 48.9161 54.0015 48.8814 54.0652 48.9567C54.181 50.653 55.4026 51.1336 55.4199 51.2667C54.1115 53.2699 52.8146 55.2963 51.4715 57.2879ZM55.7789 62.4753C55.2115 61.7748 54.3894 61.6358 53.5846 61.3985C53.8452 60.7616 53.7699 60.0263 53.5036 59.4068C53.9841 59.1347 57.62 58.0173 57.8516 58.0116C57.9789 58.0116 58.1353 57.9884 58.2105 58.0521C58.4228 58.4496 58.6351 58.8491 58.8474 59.2505C57.8245 60.3274 56.8017 61.4043 55.7789 62.4811V62.4753ZM58.0079 57.2126C56.4138 57.6912 54.8198 58.1698 53.2257 58.6484L52.2299 57.5716C53.519 55.6185 54.8082 53.6655 56.0973 51.7125L57.8921 51.9094C58.2395 53.0788 58.5849 54.2483 58.9284 55.4178C58.0889 56.0026 58.2105 57.0331 58.0137 57.2126H58.0079ZM62.4774 55.1341C62.3327 55.1689 61.3253 54.0515 59.6058 54.8968C59.4842 54.4047 58.5811 51.9036 58.6911 51.6662C60.8506 50.763 60.7116 48.8409 60.8853 48.754H63.838C64.0696 49.7788 64.2954 50.3056 65.2333 50.8672C64.3147 52.2876 63.398 53.7099 62.4832 55.1341H62.4774ZM63.8322 48.0419H60.8795C60.7463 46.3514 59.5711 45.7782 59.5653 45.5293C60.5765 43.5106 61.5858 41.4901 62.5932 39.4676C63.2185 39.402 63.8438 39.3363 64.469 39.2707C64.5347 39.3093 64.6003 39.3498 64.6659 39.3923C65.1445 41.519 65.6231 43.6457 66.1017 45.7724C66.0438 45.9345 64.2722 45.9345 63.8264 48.0477L63.8322 48.0419ZM67.3407 45.8882C67.1554 45.9693 66.9064 45.784 66.8196 45.6103C66.6749 45.3092 65.7485 40.0871 65.3027 39.0739C65.3259 38.6802 66.7443 38.1997 66.698 36.3238C67.0801 37.5744 67.7402 38.246 69.0486 38.5181C69.0428 39.3344 67.6823 45.7377 67.3349 45.894L67.3407 45.8882ZM66.7038 35.6812C66.7038 33.7648 65.3201 33.2206 65.3085 32.8501C65.737 32.1206 66.7096 26.2616 67.0222 26.111C67.138 26.0531 67.358 26.111 67.4622 26.2326C67.7054 26.5105 69.0833 32.5259 69.0544 33.4117C67.7807 33.6954 67.0049 34.4422 66.7038 35.687V35.6812Z" fill="#4257EE"/>
</svg>
