<svg width="32" height="32" viewBox="0 0 32 32" fill="none" xmlns="http://www.w3.org/2000/svg">
    <path d="M22.3684 6.04698H20.7264V2.89998H21.2914C21.7884 2.89998 22.1914 2.49698 22.1914 1.99998C22.1914 1.50298 21.7884 1.09998 21.2914 1.09998H10.7084C10.2114 1.09998 9.80835 1.50298 9.80835 1.99998C9.80835 2.49698 10.2114 2.89998 10.7084 2.89998H11.2734V6.04698H9.63235C7.55235 6.04698 5.86035 7.73898 5.86035 9.81898V24.482C5.86035 26.562 7.55235 28.254 9.63235 28.254H10.4334V30C10.4334 30.497 10.8364 30.9 11.3334 30.9C11.8304 30.9 12.2334 30.497 12.2334 30V28.255H19.7664V30C19.7664 30.497 20.1694 30.9 20.6664 30.9C21.1634 30.9 21.5664 30.497 21.5664 30V28.255H22.3674C24.4474 28.255 26.1394 26.563 26.1394 24.483V9.81898C26.1414 7.73898 24.4484 6.04698 22.3684 6.04698ZM13.0744 2.89998H18.9264V6.04698H13.0744V2.89998ZM24.3404 24.482C24.3404 25.569 23.4564 26.454 22.3684 26.454H9.63235C8.54435 26.454 7.66035 25.569 7.66035 24.482V9.81898C7.66035 8.73198 8.54435 7.84698 9.63235 7.84698H22.3684C23.4564 7.84698 24.3404 8.73198 24.3404 9.81898V24.482Z" fill="#FFFFFF"/>
    <path d="M21.2404 10.954H10.7604C10.2634 10.954 9.86035 11.357 9.86035 11.854C9.86035 12.351 10.2634 12.754 10.7604 12.754H18.4444V13.811C18.4444 14.308 18.8474 14.711 19.3444 14.711C19.8414 14.711 20.2444 14.308 20.2444 13.811V12.754H21.2404C21.7374 12.754 22.1404 12.351 22.1404 11.854C22.1404 11.357 21.7374 10.954 21.2404 10.954Z" fill="#FFFFFF"/>
</svg>
