<svg width="33" height="32" viewBox="0 0 33 32" fill="none" xmlns="http://www.w3.org/2000/svg">
<rect x="0.5" width="32" height="32" rx="4" fill="#D7E0FE"/>
<path d="M13.6429 4.8252C10.2244 4.8252 7.44336 7.60619 7.44336 11.0247V17.6929C7.44336 18.4564 8.06436 19.0782 8.82786 19.0782H9.70236V24.8689C9.70204 25.2045 9.77494 25.5361 9.91598 25.8405C10.057 26.145 10.2628 26.415 10.5189 26.6317C10.7751 26.8485 11.0755 27.0067 11.3991 27.0954C11.7227 27.1841 12.0618 27.2011 12.3926 27.1452C13.4906 26.9667 14.3179 25.9504 14.3179 24.7819V5.5002C14.3179 5.32117 14.2467 5.14949 14.1202 5.0229C13.9936 4.89631 13.8219 4.8252 13.6429 4.8252ZM12.9679 24.7804C12.9679 25.2949 12.6274 25.7374 12.1751 25.8109C12.0374 25.835 11.8961 25.8287 11.7611 25.7924C11.6262 25.756 11.5007 25.6907 11.3937 25.6008C11.2867 25.5109 11.2006 25.3986 11.1415 25.272C11.0824 25.1453 11.0517 25.0072 11.0516 24.8674V18.4017C11.0516 18.2227 10.9805 18.051 10.8539 17.9244C10.7273 17.7978 10.5556 17.7267 10.3766 17.7267L8.79261 17.6922V11.0239C8.7939 9.85516 9.21681 8.72607 9.98366 7.84403C10.7505 6.96199 11.8099 6.38622 12.9671 6.22245V24.7804H12.9679ZM24.1016 4.82745H18.0671C17.6817 4.82784 17.3123 4.98111 17.0398 5.2536C16.7673 5.5261 16.614 5.89557 16.6136 6.28095L16.6166 13.3047C16.7471 14.7267 17.5076 15.6544 18.7781 15.9709V24.8682C18.7781 26.1402 19.8124 27.1752 21.0844 27.1752C22.3564 27.1752 23.3906 26.1402 23.3906 24.8682V15.9702C24.6611 15.6537 25.4216 14.7184 25.5551 13.2424V6.28095C25.5547 5.89557 25.4014 5.5261 25.129 5.2536C24.8565 4.98111 24.487 4.82784 24.1016 4.82745ZM22.6556 14.7274C22.4877 14.7424 22.3315 14.8197 22.2177 14.9441C22.1039 15.0684 22.0407 15.2309 22.0406 15.3994V24.8682C22.0406 25.3954 21.6116 25.8244 21.0844 25.8244C20.5571 25.8244 20.1281 25.3954 20.1281 24.8682V15.3994C20.1282 15.2308 20.0651 15.0683 19.9513 14.9439C19.8374 14.8195 19.6811 14.7423 19.5131 14.7274C18.5164 14.6389 18.0521 14.1762 17.9636 13.2432V6.28095C17.9636 6.22395 18.0101 6.17745 18.0671 6.17745H19.1441V11.7079C19.1441 11.887 19.2152 12.0587 19.3418 12.1852C19.4684 12.3118 19.6401 12.3829 19.8191 12.3829C19.9981 12.3829 20.1698 12.3118 20.2964 12.1852C20.423 12.0587 20.4941 11.887 20.4941 11.7079V6.17745H21.6746V11.7079C21.6746 11.887 21.7457 12.0587 21.8723 12.1852C21.9989 12.3118 22.1706 12.3829 22.3496 12.3829C22.5286 12.3829 22.7003 12.3118 22.8269 12.1852C22.9535 12.0587 23.0246 11.887 23.0246 11.7079V6.17745H24.1024C24.1298 6.17764 24.1561 6.18858 24.1756 6.20793C24.1951 6.22728 24.2062 6.25349 24.2066 6.28095L24.2096 13.1802C24.1166 14.1754 23.6524 14.6389 22.6556 14.7274Z" fill="#052BA6"/>
</svg>
