<svg width="16" height="16" viewBox="0 0 16 16" fill="none" xmlns="http://www.w3.org/2000/svg">
<g clip-path="url(#clip0_216_51141)">
<path d="M14.8867 1.11342C14.1736 0.400497 13.2065 0 12.1981 0C11.1898 0 10.2227 0.400497 9.50955 1.11342L8.61362 2.00967C7.90741 2.7149 7.50816 3.6704 7.50268 4.66842L0.375178 12.714C0.122376 13 -0.0118938 13.3716 -0.000281575 13.7531C0.0113307 14.1347 0.167952 14.4974 0.437678 14.7675L1.23049 15.5606C1.50058 15.8304 1.86339 15.9871 2.24498 15.9987C2.62658 16.0103 2.99824 15.876 3.28424 15.6231L7.25018 12.1003V15.5C7.25018 15.6326 7.30286 15.7598 7.39662 15.8535C7.49039 15.9473 7.61757 16 7.75018 16H8.25018C8.38279 16 8.50996 15.9473 8.60373 15.8535C8.6975 15.7598 8.75018 15.6326 8.75018 15.5V10.7759L11.3314 8.49717C12.3295 8.49168 13.285 8.09256 13.9905 7.38654L14.8867 6.49029C15.5997 5.77725 16.0003 4.8102 16.0003 3.80185C16.0003 2.79351 15.5997 1.82646 14.8867 1.11342ZM2.2933 14.5L1.50018 13.7069L8.16112 6.18935L9.8108 7.83873L2.2933 14.5ZM11.3021 6.99998C11.2245 6.99643 11.1472 6.98892 11.0705 6.97748L9.0233 4.93029C8.99009 4.61141 9.02429 4.2891 9.12367 3.98429C9.22305 3.67947 9.3854 3.39895 9.60018 3.16092L12.8396 6.39998C12.4199 6.78486 11.8715 6.99888 11.3021 6.99998ZM13.8999 5.33904L10.6608 2.09998C11.096 1.70153 11.6683 1.48676 12.2582 1.50056C12.8481 1.51436 13.4097 1.75568 13.8258 2.17404C14.6955 3.04342 14.7146 4.43748 13.8999 5.33904Z" fill="#F8CC50"/>
</g>
<defs>
<clipPath id="clip0_216_51141">
<rect width="16" height="16" fill="white"/>
</clipPath>
</defs>
</svg>
