<svg width="27" height="26" viewBox="0 0 27 26" fill="none" xmlns="http://www.w3.org/2000/svg">
<path d="M9.33398 21V3.66667L25.334 1V18.3333M9.33398 21C9.33398 23.2091 7.54312 25 5.33398 25C3.12485 25 1.33398 23.2091 1.33398 21C1.33398 18.7909 3.12485 17 5.33398 17C7.54312 17 9.33398 18.7909 9.33398 21ZM25.334 18.3333C25.334 20.5425 23.5431 22.3333 21.334 22.3333C19.1248 22.3333 17.334 20.5425 17.334 18.3333C17.334 16.1242 19.1248 14.3333 21.334 14.3333C23.5431 14.3333 25.334 16.1242 25.334 18.3333Z" stroke="#F8CC50" stroke-width="2" stroke-linecap="round" stroke-linejoin="round"/>
</svg>
