<svg width="33" height="32" viewBox="0 0 33 32" fill="none" xmlns="http://www.w3.org/2000/svg">
<rect x="0.5" width="32" height="32" rx="4" fill="#D7E0FE"/>
<path d="M23.3902 4.8252H9.60897C7.24647 4.8252 5.32422 6.74745 5.32422 9.10995V22.8912C5.32422 25.2537 7.24647 27.1752 9.60897 27.1752H23.3902C25.752 27.1752 27.675 25.2529 27.675 22.8912V9.10995C27.6742 6.74745 25.752 4.8252 23.3902 4.8252ZM26.3242 22.8912C26.3242 24.5089 25.008 25.8259 23.3902 25.8259H9.60897C7.99122 25.8259 6.67497 24.5097 6.67497 22.8912V9.10995C6.67422 7.49145 7.99047 6.1752 9.60897 6.1752H23.3902C25.008 6.1752 26.3242 7.49145 26.3242 9.10995V22.8912Z" fill="#052BA6"/>
<path d="M19.0989 18.8398H13.8999C12.0609 18.8398 10.5466 20.2775 10.4521 22.1143C10.4326 22.487 10.7184 22.8035 11.0919 22.823C11.4669 22.8418 11.7811 22.556 11.7999 22.1833C11.8576 21.065 12.7801 20.189 13.8999 20.189H19.0989C20.2186 20.189 21.1411 21.065 21.1989 22.1833C21.2169 22.5433 21.5154 22.8238 21.8716 22.8238C21.8836 22.8238 21.8949 22.8238 21.9069 22.823C22.2796 22.8035 22.5661 22.4863 22.5466 22.1143C22.4521 20.2775 20.9379 18.8398 19.0989 18.8398ZM16.4994 17.3255C18.7456 17.3255 20.5741 15.4978 20.5741 13.2515C20.5741 11.0053 18.7456 9.17676 16.4994 9.17676C14.2531 9.17676 12.4246 11.0045 12.4246 13.2508C12.4246 15.497 14.2531 17.3255 16.4994 17.3255ZM16.4994 10.5268C18.0016 10.5268 19.2234 11.7485 19.2234 13.2508C19.2234 14.753 18.0016 15.9755 16.4994 15.9755C14.9971 15.9755 13.7754 14.7538 13.7754 13.2515C13.7754 11.7493 14.9971 10.5268 16.4994 10.5268Z" fill="#052BA6"/>
</svg>
