<svg width="33" height="26" viewBox="0 0 33 26" fill="none" xmlns="http://www.w3.org/2000/svg">
<path d="M31.7 23.4002H1.3C0.858 23.4002 0.5 23.7582 0.5 24.2002V25.0002C0.5 25.4422 0.858 25.8002 1.3 25.8002H31.7C32.142 25.8002 32.5 25.4422 32.5 25.0002V24.2002C32.5 23.7582 32.142 23.4002 31.7 23.4002ZM6.1715 15.8162C6.6245 16.2072 7.192 16.5052 7.795 16.6627L23.113 20.6627C24.2445 20.9577 25.96 21.2152 27.7755 20.7312C29.4855 20.2747 30.5065 19.4837 30.811 18.3812C31.1205 17.2527 30.6335 16.0482 29.365 14.7982C28.3195 13.7687 26.9045 12.9992 25.272 12.5727L20.3775 11.2947L15.2445 1.8902C15.0876 1.60275 14.8735 1.35045 14.6155 1.14881C14.3574 0.947174 14.0609 0.80046 13.744 0.717695C11.9335 0.244695 11.855 0.200195 11.455 0.200195C10.8105 0.200195 10.1825 0.460195 9.724 0.937695C9.42828 1.24548 9.22002 1.62658 9.12071 2.04169C9.02139 2.4568 9.03461 2.8909 9.159 3.2992L10.8345 8.8022L6.9975 7.8002L5.82 4.9422C5.533 4.2457 4.936 3.8742 4.207 3.6842C3.5 3.4992 3.289 3.4232 2.9 3.4232C1.13 3.4232 0.5 4.8542 0.5 5.6732V9.9002C0.5 10.6057 0.8105 11.2757 1.349 11.7317L6.1715 15.8162ZM2.9 5.6732L3.601 5.8562L5.2335 9.8202L14.38 12.2087L11.455 2.6002L13.138 3.0397L18.7675 13.3542L24.6655 14.8942C25.8915 15.2142 26.934 15.7722 27.68 16.5072C28.436 17.2517 28.517 17.6692 28.497 17.7422C28.4775 17.8132 28.1925 18.1352 27.1565 18.4117C26.8185 18.5017 25.574 18.8242 23.719 18.3402L8.4005 14.3402C8.1505 14.2752 7.916 14.1517 7.722 13.9847L2.9 9.9002V5.6732Z" fill="#4257EE"/>
</svg>
