<svg width="32" height="24" viewBox="0 0 32 24" fill="none" xmlns="http://www.w3.org/2000/svg">
<path d="M31.2 21.5998H0.800225C0.358228 21.5998 0.000230744 21.9578 0.000230744 22.3998V23.1998C0.000230744 23.6418 0.358228 23.9998 0.800225 23.9998H31.2C31.642 23.9998 32 23.6418 32 23.1998V22.3998C32 21.9578 31.642 21.5998 31.2 21.5998ZM3.7322 16.7883C3.95741 17.0434 4.23427 17.2476 4.54443 17.3875C4.85458 17.5274 5.19094 17.5998 5.53119 17.5998H5.54169L11.7541 17.5728C12.3556 17.5718 12.9656 17.4193 13.5106 17.1318L27.523 9.73486C29.026 8.94137 30.2465 7.83288 31.052 6.52939C32.023 4.9584 32.2495 3.60541 31.725 2.50742C31.206 1.41843 30.0485 0.804431 28.2855 0.685432C28.124 0.674432 27.9625 0.669432 27.8015 0.669432C26.4615 0.669432 25.0965 1.03093 23.7456 1.74442L19.3116 4.08541L19.2936 4.09491L19.2741 4.08741L9.22416 0.164436C8.90332 0.0391196 8.55925 -0.0156506 8.21536 0.00384776C7.87146 0.0233461 7.5358 0.116656 7.23117 0.277435L5.43519 1.22593C5.06568 1.42098 4.7535 1.70912 4.52952 2.06184C4.30553 2.41457 4.17752 2.81965 4.15812 3.23703C4.13873 3.65441 4.22863 4.06962 4.41894 4.4416C4.60925 4.81357 4.89336 5.12942 5.24319 5.3579L10.4392 8.75187L10.4537 8.76137L10.4362 8.77037L7.09668 10.5334L7.07568 10.5444L7.05468 10.5334L4.3227 9.10087C3.9789 8.9205 3.59645 8.8263 3.20821 8.82637C2.82321 8.82637 2.43821 8.91887 2.08771 9.10387L1.27972 9.53036C0.958483 9.69987 0.67992 9.94009 0.465037 10.2329C0.250154 10.5258 0.104559 10.8636 0.0392304 11.2209C-0.0261796 11.5781 -0.00962821 11.9455 0.0876366 12.2954C0.184901 12.6453 0.360341 12.9686 0.600726 13.2408L3.7322 16.7883ZM3.20821 11.2259L7.07968 13.2558L15.1786 8.98037L6.55568 3.34841L8.35167 2.39992L19.4431 6.72939L24.866 3.86691C25.8685 3.33741 26.8565 3.06941 27.802 3.06941C27.909 3.06941 28.0165 3.07291 28.124 3.07991C28.8755 3.13091 29.452 3.31541 29.5595 3.54191C29.6635 3.75991 29.5825 4.3424 29.0105 5.2674C28.4295 6.20739 27.5275 7.01838 26.4025 7.61238L12.3906 15.0093C12.1886 15.1158 11.9646 15.1723 11.7436 15.1728L5.53119 15.1998L2.40021 11.6523L3.20821 11.2259Z" fill="#4257EE"/>
</svg>
