<svg width="16" height="14" viewBox="0 0 16 14" fill="none" xmlns="http://www.w3.org/2000/svg">
<path d="M0.666504 1.66655V5.66655M0.666504 5.66655H4.6665M0.666504 5.66655L3.75984 2.75989C4.47634 2.04303 5.36275 1.51936 6.33638 1.23774C7.31 0.956115 8.3391 0.925722 9.32765 1.14939C10.3162 1.37306 11.232 1.84351 11.9895 2.51683C12.7471 3.19016 13.3217 4.04441 13.6598 4.99989M15.3332 12.3332V8.33322M15.3332 8.33322H11.3332M15.3332 8.33322L12.2398 11.2399C11.5233 11.9567 10.6369 12.4804 9.6633 12.762C8.68967 13.0437 7.66058 13.0741 6.67203 12.8504C5.68348 12.6267 4.7677 12.1563 4.01015 11.4829C3.25259 10.8096 2.67795 9.95536 2.33984 8.99989" stroke="#F8CC50" stroke-linecap="round" stroke-linejoin="round"/>
</svg>
