<svg width="17" height="16" viewBox="0 0 17 16" fill="none" xmlns="http://www.w3.org/2000/svg">
<path d="M13.9913 1.50639C14.1028 1.39875 14.252 1.33919 14.407 1.34054C14.5619 1.34188 14.7101 1.40403 14.8197 1.51359C14.9292 1.62315 14.9914 1.77135 14.9927 1.92629C14.9941 2.08122 14.9345 2.23049 14.8269 2.34193L3.00868 14.1601C2.89724 14.2678 2.74797 14.3273 2.59304 14.326C2.4381 14.3246 2.28989 14.2625 2.18033 14.1529C2.07078 14.0434 2.00863 13.8952 2.00728 13.7402C2.00594 13.5853 2.0655 13.436 2.17314 13.3246L13.9913 1.50639ZM4.65909 6.65143C3.95386 6.65143 3.27751 6.37128 2.77883 5.8726C2.28015 5.37393 2 4.69758 2 3.99234C2 3.28711 2.28015 2.61076 2.77883 2.11208C3.27751 1.61341 3.95386 1.33325 4.65909 1.33325C5.36433 1.33325 6.04068 1.61341 6.53935 2.11208C7.03803 2.61076 7.31818 3.28711 7.31818 3.99234C7.31818 4.69758 7.03803 5.37393 6.53935 5.8726C6.04068 6.37128 5.36433 6.65143 4.65909 6.65143ZM4.65909 5.46962C5.05089 5.46962 5.42664 5.31397 5.70368 5.03693C5.98072 4.75989 6.13636 4.38414 6.13636 3.99234C6.13636 3.60055 5.98072 3.2248 5.70368 2.94775C5.42664 2.67071 5.05089 2.51507 4.65909 2.51507C4.26729 2.51507 3.89154 2.67071 3.6145 2.94775C3.33746 3.2248 3.18182 3.60055 3.18182 3.99234C3.18182 4.38414 3.33746 4.75989 3.6145 5.03693C3.89154 5.31397 4.26729 5.46962 4.65909 5.46962ZM12.3409 14.3333C11.6357 14.3333 10.9593 14.0531 10.4606 13.5544C9.96197 13.0557 9.68182 12.3794 9.68182 11.6742C9.68182 10.9689 9.96197 10.2926 10.4606 9.7939C10.9593 9.29522 11.6357 9.01507 12.3409 9.01507C13.0461 9.01507 13.7225 9.29522 14.2212 9.7939C14.7198 10.2926 15 10.9689 15 11.6742C15 12.3794 14.7198 13.0557 14.2212 13.5544C13.7225 14.0531 13.0461 14.3333 12.3409 14.3333ZM12.3409 13.1514C12.7327 13.1514 13.1085 12.9958 13.3855 12.7188C13.6625 12.4417 13.8182 12.066 13.8182 11.6742C13.8182 11.2824 13.6625 10.9066 13.3855 10.6296C13.1085 10.3525 12.7327 10.1969 12.3409 10.1969C11.9491 10.1969 11.5734 10.3525 11.2963 10.6296C11.0193 10.9066 10.8636 11.2824 10.8636 11.6742C10.8636 12.066 11.0193 12.4417 11.2963 12.7188C11.5734 12.9958 11.9491 13.1514 12.3409 13.1514Z" fill="#4257EE"/>
</svg>
