<svg width="33" height="24" viewBox="0 0 33 24" fill="none" xmlns="http://www.w3.org/2000/svg">
<path d="M8.21913 9.65719C9.18613 9.49734 10.0081 8.82 10.4771 7.79766C10.6506 7.41703 10.4631 6.97594 10.0566 6.81234C9.65063 6.64828 9.18013 6.82406 9.00513 7.20563C8.85814 7.52859 8.52414 8.08359 7.94113 8.17969C7.35664 8.28094 6.83963 7.86047 6.58313 7.60547C6.27864 7.30359 5.77214 7.29047 5.45214 7.57312C5.13014 7.85719 5.11463 8.33203 5.41763 8.63344C5.67614 8.89125 6.73313 9.90563 8.21913 9.65719ZM26.3581 9.75656C25.3876 9.59344 24.3846 9.95578 23.5566 10.7789C23.2536 11.0808 23.2691 11.5552 23.5911 11.8392C23.9116 12.1219 24.4176 12.1088 24.7221 11.8069C24.9781 11.5505 25.4911 11.1347 26.0801 11.2327C26.6631 11.3292 26.9971 11.8847 27.1441 12.2067C27.3211 12.5906 27.7951 12.7622 28.1956 12.6C28.6016 12.4369 28.7896 11.9958 28.6161 11.6147C28.1476 10.5938 27.3256 9.91641 26.3581 9.75656ZM26.6426 14.9414C25.3271 15.6886 23.4896 15.9366 21.5986 15.6248C19.7081 15.3122 18.0721 14.4891 17.1081 13.3655C16.6506 12.8339 15.7456 13.1067 15.6876 13.7733C15.4251 16.7302 17.6221 19.3552 20.7971 19.8797C21.8521 20.0541 26.5491 20.1844 27.8281 15.7805C28.0166 15.1322 27.2661 14.5922 26.6426 14.9414ZM21.0756 18.4027C19.4161 18.128 18.1161 17.0864 17.5616 15.7331C18.6286 16.3936 19.9226 16.8708 21.3211 17.1014C22.7226 17.3348 24.1086 17.3006 25.3541 17.0208C24.3366 18.1144 22.7351 18.6755 21.0756 18.4027ZM17.6316 10.6355C17.8876 10.3805 18.4066 9.95344 18.9896 10.0612C19.5726 10.1573 19.9066 10.7123 20.0536 11.0353C20.2306 11.4192 20.7046 11.5908 21.1051 11.4286C21.5111 11.2655 21.6991 10.8244 21.5256 10.4433C21.0506 9.40547 20.2491 8.745 19.2676 8.58281C18.2881 8.42531 17.2926 8.78484 16.4661 9.60656C16.1631 9.90844 16.1786 10.3828 16.5006 10.6669C16.8226 10.9505 17.3271 10.9373 17.6316 10.6355ZM31.0061 5.62078C28.9196 4.53234 25.0061 2.87625 19.6511 2.95219C19.3576 1.39359 18.2216 0.462656 16.9246 0.268125C15.7296 0.0885937 14.5281 0 13.3321 0C9.49914 0 5.71714 0.912656 2.32614 2.68172C1.11764 3.31172 0.470136 4.6275 0.718636 5.94844L2.30514 14.3841C3.01664 18.1678 9.12163 21.0609 12.5276 21.0609C13.2201 21.0609 13.7206 20.9728 14.7081 20.5144C14.8371 20.6541 17.8476 24 20.8046 24C24.2106 24 30.3156 21.1073 31.0271 17.3231L32.6136 8.8875C32.8621 7.56703 32.2146 6.25125 31.0061 5.62078ZM12.5276 19.5605C9.65513 19.5605 4.42564 17.0194 3.88064 14.1234L2.29464 5.68781C2.16414 4.99453 2.48964 4.31297 3.10414 3.99234C4.37614 3.32906 9.57864 0.684844 16.6721 1.74937C17.3461 1.85063 17.8806 2.36156 18.0311 3.02531C17.4896 3.06938 16.9481 3.12609 16.4076 3.20719C15.0421 3.41203 13.9536 4.44094 13.7056 5.76141L12.5221 12.0516C9.16013 12.195 7.50963 14.2092 7.43964 14.2913C7.16314 14.6142 7.21764 15.0867 7.56164 15.3459C7.95663 15.6422 8.45114 15.5058 8.68664 15.2316C8.73763 15.172 9.80363 13.8464 12.2341 13.5853L12.1191 14.198C11.8066 15.8583 12.5406 17.6864 13.7241 19.312C13.1981 19.522 12.9176 19.5605 12.5276 19.5605ZM31.0381 8.62687L29.4511 17.063C28.9066 19.9589 23.6766 22.5 20.8046 22.5C18.8521 22.5 16.4616 20.1408 15.8266 19.4386C14.2361 17.6789 13.4386 15.817 13.6946 14.4581L15.2811 6.0225C15.4116 5.32922 15.9661 4.79297 16.6606 4.68891C23.7676 3.62297 28.9741 6.2775 30.2286 6.93188C30.8431 7.25203 31.1681 7.93359 31.0381 8.62687Z" fill="#4257EE"/>
</svg>
