<svg width="31" height="20" viewBox="0 0 31 20" fill="none" xmlns="http://www.w3.org/2000/svg">
<path d="M26.1056 0.425781H12.9686C12.3206 0.425781 11.7276 0.663781 11.2716 1.05578C10.8176 0.663781 10.2266 0.425781 9.58162 0.425781H4.34363C2.37063 0.425781 0.765625 2.03078 0.765625 4.00478V15.9968C0.765625 17.9708 2.37063 19.5758 4.34363 19.5758H9.58162C10.2266 19.5758 10.8176 19.3378 11.2716 18.9458C11.7276 19.3378 12.3206 19.5758 12.9686 19.5758H26.1056C28.5646 19.5758 30.5646 17.5748 30.5646 15.1158V4.88578C30.5656 2.42678 28.5646 0.425781 26.1056 0.425781ZM28.7656 15.1158C28.7656 16.5828 27.5726 17.7748 26.1056 17.7748H12.9686C12.5286 17.7748 12.1696 17.4208 12.1696 16.9868V15.5698C12.1696 15.0728 11.7666 14.6698 11.2696 14.6698C10.7726 14.6698 10.3696 15.0728 10.3696 15.5698V16.9868C10.3696 17.4218 10.0156 17.7748 9.58162 17.7748H4.34363C3.36363 17.7748 2.56563 16.9768 2.56563 15.9968V4.00478C2.56563 3.02478 3.36363 2.22678 4.34363 2.22678H9.58162C10.0236 2.22678 10.3696 2.57278 10.3696 3.01478V4.43178C10.3696 4.92878 10.7726 5.33178 11.2696 5.33178C11.7666 5.33178 12.1696 4.92878 12.1696 4.43178V3.01478C12.1696 2.57978 12.5276 2.22678 12.9686 2.22678H26.1056C27.5716 2.22678 28.7656 3.41878 28.7656 4.88578V15.1158Z" fill="#000000"/>
<path d="M11.2691 7.76094C10.7721 7.76094 10.3691 8.16394 10.3691 8.66094V11.3409C10.3691 11.8379 10.7721 12.2409 11.2691 12.2409C11.7661 12.2409 12.1691 11.8379 12.1691 11.3409V8.66094C12.1691 8.16394 11.7661 7.76094 11.2691 7.76094ZM24.7901 7.08594H16.1441C15.6471 7.08594 15.2441 7.48894 15.2441 7.98594C15.2441 8.48294 15.6471 8.88594 16.1441 8.88594H24.7901C25.2871 8.88594 25.6901 8.48294 25.6901 7.98594C25.6901 7.48894 25.2871 7.08594 24.7901 7.08594ZM21.0401 11.1149H16.1441C15.6471 11.1149 15.2441 11.5179 15.2441 12.0149C15.2441 12.5119 15.6471 12.9149 16.1441 12.9149H21.0401C21.5371 12.9149 21.9401 12.5119 21.9401 12.0149C21.9401 11.5179 21.5371 11.1149 21.0401 11.1149Z" fill="#000000"/>
</svg>
