<svg width="31" height="26" viewBox="0 0 31 26" fill="none" xmlns="http://www.w3.org/2000/svg">
    <path d="M25.8746 4.90086H20.8216V2.45686C20.8216 1.17486 19.7776 0.130859 18.4956 0.130859H12.5036C11.2216 0.130859 10.1776 1.17486 10.1776 2.45686V4.90086H5.12461C2.62961 4.90086 0.599609 6.93086 0.599609 9.42586V21.3429C0.599609 23.8379 2.62961 25.8679 5.12461 25.8679H25.8746C28.3696 25.8679 30.3996 23.8379 30.3996 21.3429V9.42686C30.3996 6.93186 28.3696 4.90086 25.8746 4.90086ZM22.1416 6.70186V24.0679H8.85761V6.70186H22.1416ZM11.9786 2.45686C11.9786 2.16686 12.2136 1.93186 12.5036 1.93186H18.4956C18.7856 1.93186 19.0206 2.16686 19.0206 2.45686V4.90086H11.9776V2.45686H11.9786ZM2.39961 21.3439V9.42686C2.39961 7.92386 3.62161 6.70186 5.12461 6.70186H7.05761V24.0679H5.12461C3.62161 24.0679 2.39961 22.8469 2.39961 21.3439ZM28.5996 21.3439C28.5996 22.8469 27.3776 24.0689 25.8746 24.0689H23.9416V6.70186H25.8746C27.3776 6.70186 28.5996 7.92386 28.5996 9.42686V21.3439Z" fill="#FFFFFF"/>
</svg>
