<svg width="16" height="16" viewBox="0 0 16 16" fill="none" xmlns="http://www.w3.org/2000/svg">
<g clip-path="url(#clip0_216_51126)">
<path d="M8.0018 8.24656C7.62348 8.24127 7.25337 8.35708 6.94553 8.57707C6.6377 8.79705 6.40826 9.1097 6.29072 9.46934C6.17318 9.82898 6.1737 10.2168 6.29221 10.5761C6.41071 10.9354 6.64099 11.2475 6.94942 11.4666C7.25785 11.6858 7.62827 11.8006 8.00658 11.7943C8.38488 11.788 8.75127 11.6609 9.05222 11.4316C9.35317 11.2022 9.57293 10.8827 9.67939 10.5196C9.78585 10.1566 9.77345 9.76896 9.64399 9.41344L15.8521 3.20563C15.9458 3.11187 15.9984 2.98474 15.9984 2.85219C15.9984 2.71964 15.9458 2.59251 15.8521 2.49875L15.4999 2.14563C15.4062 2.05193 15.279 1.99929 15.1465 1.99929C15.0139 1.99929 14.8868 2.05193 14.7931 2.14563L8.58399 8.35344C8.3975 8.28466 8.20056 8.24851 8.0018 8.24656ZM15.5559 11.5031L13.0415 7.43L11.9518 8.51969L14.2812 12.2913C14.5624 12.7459 14.5756 13.2703 14.3146 13.7356C14.1827 13.9691 13.9908 14.1632 13.7587 14.2976C13.5266 14.432 13.2628 14.5019 12.9946 14.5H3.00461C2.737 14.502 2.47374 14.4323 2.24213 14.2982C2.01052 14.1641 1.819 13.9705 1.68743 13.7375C1.4268 13.2731 1.43743 12.7466 1.71868 12.2916L6.7143 4.19969C6.84986 3.98131 7.03933 3.8015 7.26448 3.67753C7.48964 3.55357 7.74291 3.48963 7.99993 3.49187C8.53868 3.49187 9.00743 3.75031 9.28524 4.2L10.0624 5.46031L11.1521 4.37063L10.5624 3.4125C10.1546 2.75085 9.50405 2.27505 8.74993 2.08687V0.5C8.74993 0.367392 8.69725 0.240215 8.60348 0.146447C8.50971 0.0526784 8.38253 0 8.24993 0L7.74993 0C7.61732 0 7.49014 0.0526784 7.39637 0.146447C7.3026 0.240215 7.24993 0.367392 7.24993 0.5V2.08687C6.49591 2.27453 5.84532 2.74991 5.43743 3.41125L0.441801 11.505C0.163804 11.9476 0.0111594 12.4573 0.00015223 12.9798C-0.010855 13.5023 0.120188 14.018 0.379301 14.4719C0.901801 15.4119 1.91055 16.0006 3.0043 16.0006H12.9946C13.5302 16.0022 14.0565 15.8605 14.519 15.5903C14.9815 15.3201 15.3633 14.9311 15.6249 14.4637C16.1477 13.5312 16.1249 12.4216 15.5559 11.5031Z" fill="#F8CC50"/>
</g>
<defs>
<clipPath id="clip0_216_51126">
<rect width="16" height="16" fill="white"/>
</clipPath>
</defs>
</svg>
