<svg width="16" height="16" viewBox="0 0 16 16" fill="none" xmlns="http://www.w3.org/2000/svg">
<g clip-path="url(#clip0_216_51116)">
<path d="M8.73316 6.00012C7.53316 5.33345 6.0665 5.60012 5.13316 6.60012C5.73316 7.06679 5.79983 7.86679 5.39983 8.46679C4.93316 9.06679 4.13316 9.13346 3.53316 8.73346C3.33316 8.60012 3.13316 8.33346 3.06649 8.06679C1.26649 8.93346 0.466495 11.1335 1.33316 12.9335C1.46649 13.2668 1.66649 13.5335 1.93316 13.8001M2.19983 14.0668C3.73316 15.4001 5.99983 15.2668 7.33316 13.8001C7.53316 13.5335 7.73316 13.2668 7.93316 12.9335C7.19983 12.7335 6.79983 12.0001 6.99983 11.2668C7.19983 10.5335 7.93316 10.1335 8.6665 10.3335C8.93316 10.4001 9.19983 10.6001 9.33316 10.8001C10.3332 9.86679 10.5998 8.40012 9.93316 7.20012" stroke="#4257EE" stroke-linecap="round" stroke-linejoin="round"/>
<path d="M13 1.66667L14.3333 3M5 12.3333C5 11.9333 5.26667 11.6667 5.66667 11.6667M4.33333 10.3333C4.33333 10.7333 4.06667 11 3.66667 11M14.3333 1L15 1.66667L9 8.33333L7.66667 7L14.3333 1ZM1 15L3 12.3333L3.66667 13L1 15Z" stroke="#4257EE" stroke-linecap="round" stroke-linejoin="round"/>
</g>
<defs>
<clipPath id="clip0_216_51116">
<rect width="16" height="16" fill="white"/>
</clipPath>
</defs>
</svg>
