<svg width="32" height="32" viewBox="0 0 32 32" fill="none" xmlns="http://www.w3.org/2000/svg">
    <path d="M28 6H6C5.20435 6 4.44129 6.31607 3.87868 6.87868C3.31607 7.44129 3 8.20435 3 9V17C3 17.7956 3.31607 18.5587 3.87868 19.1213C4.44129 19.6839 5.20435 20 6 20H28C28.7956 20 29.5587 19.6839 30.1213 19.1213C30.6839 18.5587 31 17.7956 31 17V9C31 8.20435 30.6839 7.44129 30.1213 6.87868C29.5587 6.31607 28.7956 6 28 6ZM6 8H28C28.2652 8 28.5196 8.10536 28.7071 8.29289C28.8946 8.48043 29 8.73478 29 9V14H5V9C5 8.73478 5.10536 8.48043 5.29289 8.29289C5.48043 8.10536 5.73478 8 6 8ZM28 18H6C5.73478 18 5.48043 17.8946 5.29289 17.7071C5.10536 17.5196 5 17.2652 5 17V16H29V17C29 17.2652 28.8946 17.5196 28.7071 17.7071C28.5196 17.8946 28.2652 18 28 18Z" fill="#4257EE"/>
    <path d="M24 12H26C26.2653 12 26.5196 11.8946 26.7072 11.7071C26.8947 11.5196 27 11.2652 27 11C27 10.7348 26.8947 10.4804 26.7072 10.2929C26.5196 10.1054 26.2653 10 26 10H24C23.7348 10 23.4805 10.1054 23.2929 10.2929C23.1054 10.4804 23 10.7348 23 11C23 11.2652 23.1054 11.5196 23.2929 11.7071C23.4805 11.8946 23.7348 12 24 12ZM17 22C16.7348 22 16.4805 22.1054 16.2929 22.2929C16.1054 22.4804 16 22.7348 16 23V25C16 25.2652 16.1054 25.5196 16.2929 25.7071C16.4805 25.8946 16.7348 26 17 26C17.2653 26 17.5196 25.8946 17.7072 25.7071C17.8947 25.5196 18 25.2652 18 25V23C18 22.7348 17.8947 22.4804 17.7072 22.2929C17.5196 22.1054 17.2653 22 17 22ZM21.87 22.5C21.8044 22.3857 21.7169 22.2856 21.6125 22.2051C21.5081 22.1247 21.3889 22.0656 21.2617 22.0313C21.1345 21.9969 21.0017 21.9879 20.871 22.0049C20.7404 22.0218 20.6143 22.0643 20.5 22.13C20.3858 22.1957 20.2856 22.2832 20.2052 22.3876C20.1247 22.492 20.0657 22.6112 20.0313 22.7384C19.997 22.8656 19.988 22.9983 20.0049 23.129C20.0219 23.2597 20.0644 23.3857 20.13 23.5L21.13 25.23C21.2627 25.4607 21.4815 25.6293 21.7384 25.6987C21.9953 25.7681 22.2693 25.7326 22.5 25.6C22.7308 25.4674 22.8994 25.2486 22.9688 24.9916C23.0382 24.7347 23.0027 24.4607 22.87 24.23L21.87 22.5ZM28.23 23.13L26.5 22.13C26.3858 22.0643 26.2597 22.0218 26.1291 22.0049C25.9984 21.9879 25.8656 21.9969 25.7384 22.0313C25.6112 22.0656 25.492 22.1247 25.3876 22.2051C25.2832 22.2856 25.1957 22.3857 25.13 22.5C25.0644 22.6143 25.0219 22.7403 25.0049 22.871C24.988 23.0017 24.997 23.1344 25.0313 23.2616C25.0657 23.3888 25.1247 23.508 25.2052 23.6124C25.2856 23.7168 25.3858 23.8043 25.5 23.87L27.23 24.87C27.3443 24.9357 27.4704 24.9782 27.601 24.9951C27.7317 25.0121 27.8645 25.0031 27.9917 24.9687C28.1189 24.9344 28.2381 24.8753 28.3425 24.7949C28.4469 24.7144 28.5344 24.6143 28.6 24.5C28.6657 24.3857 28.7082 24.2597 28.7252 24.129C28.7421 23.9983 28.7331 23.8656 28.6988 23.7384C28.6644 23.6112 28.6053 23.492 28.5249 23.3876C28.4445 23.2832 28.3443 23.1957 28.23 23.13ZM13.5 22.4C13.3859 22.3339 13.2598 22.291 13.129 22.2738C12.9983 22.2566 12.8654 22.2655 12.738 22.2999C12.6107 22.3343 12.4914 22.3935 12.3871 22.4742C12.2827 22.5549 12.1954 22.6554 12.13 22.77L11.13 24.5C10.9974 24.7307 10.9619 25.0047 11.0313 25.2616C11.1007 25.5186 11.2693 25.7374 11.5 25.87C11.7308 26.0026 12.0048 26.0381 12.2617 25.9687C12.5186 25.8993 12.7374 25.7307 12.87 25.5L13.87 23.77C13.9362 23.6559 13.9791 23.5298 13.9962 23.399C14.0134 23.2682 14.0046 23.1353 13.9702 23.008C13.9358 22.8807 13.8765 22.7614 13.7958 22.657C13.7152 22.5527 13.6146 22.4653 13.5 22.4ZM7.50005 22.13L5.77005 23.13C5.53931 23.2626 5.3707 23.4814 5.30131 23.7384C5.23192 23.9953 5.26744 24.2693 5.40005 24.5C5.53266 24.7307 5.75149 24.8993 6.00842 24.9687C6.26534 25.0381 6.53931 25.0026 6.77005 24.87L8.50005 23.87C8.73079 23.7374 8.8994 23.5186 8.96878 23.2616C9.03817 23.0047 9.00266 22.7307 8.87005 22.5C8.73744 22.2693 8.5186 22.1007 8.26168 22.0313C8.00475 21.9619 7.73079 21.9974 7.50005 22.13Z" fill="#4257EE"/>
</svg>
