<svg width="32" height="32" viewBox="0 0 32 32" fill="none" xmlns="http://www.w3.org/2000/svg">
    <path d="M7.36781 23.121C7.01681 22.77 6.44581 22.769 6.09481 23.121L1.36481 27.851C1.01381 28.202 1.01381 28.773 1.36481 29.124C1.71581 29.475 2.28681 29.476 2.63781 29.124L7.36781 24.394C7.71981 24.043 7.71881 23.473 7.36781 23.121ZM10.0478 25.801C9.69681 25.45 9.12581 25.449 8.77481 25.801L6.38381 28.192C6.03281 28.543 6.03281 29.114 6.38381 29.465C6.73481 29.816 7.30581 29.817 7.65681 29.465L10.0478 27.074C10.3998 26.723 10.3988 26.153 10.0478 25.801ZM28.9878 19.104L26.7078 14.309C30.9008 9.63598 32.0118 5.68598 29.7478 3.42198C27.4838 1.15798 23.5338 2.26798 18.8598 6.46098L14.0648 4.18198C12.2668 3.32798 10.1138 3.69898 8.70681 5.10598L7.17481 6.63898C6.75581 7.05798 6.56181 7.63498 6.63981 8.22098C6.71881 8.80798 7.05881 9.31398 7.57381 9.60798C8.73681 10.274 10.6138 11.491 13.0308 13.146C12.9348 13.289 12.8418 13.431 12.7498 13.572C12.1648 14.478 11.6488 15.35 11.2088 16.175L9.43481 15.441C8.11281 14.894 6.30781 15.443 4.92581 16.824C4.41481 17.335 4.16281 17.998 4.25181 18.598C4.29881 18.913 4.43881 19.194 4.65281 19.407C4.74781 19.502 4.85781 19.583 4.97881 19.649C6.56081 20.497 9.54381 22.485 10.2268 22.944C10.6878 23.631 12.6728 26.608 13.5218 28.191C13.7338 28.582 14.1178 28.851 14.5738 28.918C15.1728 29.007 15.8348 28.755 16.3628 28.227C17.7278 26.862 18.2768 25.056 17.7308 23.734L16.9968 21.96C17.6878 21.593 18.5748 21.084 19.5998 20.419C19.7408 20.328 19.8828 20.234 20.0258 20.138C21.6828 22.557 22.8998 24.434 23.5648 25.595C23.8578 26.109 24.3638 26.449 24.9508 26.528C25.5368 26.606 26.1148 26.411 26.5338 25.992L28.0668 24.459C29.4698 23.054 29.8418 20.901 28.9878 19.104ZM25.2568 24.721L25.1238 24.703C24.3578 23.363 22.9678 21.234 20.9928 18.374C20.8548 18.178 20.6448 18.041 20.4078 17.999C20.1698 17.958 19.9258 18.013 19.7298 18.153C19.3568 18.42 18.9868 18.672 18.6198 18.909C17.2428 19.803 16.1348 20.394 15.4478 20.732C15.0228 20.942 14.8328 21.445 15.0138 21.884L16.0648 24.424C16.2848 24.957 16.0168 26.025 15.0708 26.972C15.0308 27.012 14.9918 27.044 14.9568 27.068C13.8658 25.113 11.6398 21.821 11.6168 21.789C11.5858 21.743 11.5498 21.7 11.5098 21.661C11.4748 21.626 11.4368 21.594 11.3958 21.565C11.3688 21.545 8.04681 19.301 6.10281 18.215C6.12981 18.176 6.16581 18.131 6.21481 18.083C7.14381 17.154 8.21281 16.886 8.74481 17.106L11.2848 18.157C11.7238 18.338 12.2268 18.148 12.4368 17.723C12.9178 16.745 13.5318 15.678 14.2608 14.55C14.4968 14.186 14.7488 13.816 15.0158 13.443C15.1568 13.247 15.2118 13.002 15.1708 12.765C15.1298 12.527 14.9938 12.316 14.7958 12.179C12.8308 10.822 10.1388 9.00398 8.46681 8.04798L8.44781 7.91198L9.98081 6.37898C10.8508 5.50898 12.1808 5.27898 13.2918 5.80798L18.6338 8.34698C18.9678 8.50498 19.3628 8.44398 19.6338 8.19298C22.7228 5.31798 26.6688 2.88898 28.4748 4.69498C30.2808 6.50098 27.8518 10.446 24.9758 13.536C24.7248 13.806 24.6638 14.202 24.8218 14.536L27.3608 19.878C27.8888 20.988 27.6588 22.319 26.7888 23.189L25.2568 24.721Z" fill="#4257EE"/>
</svg>
