<svg width="32" height="32" viewBox="0 0 32 32" fill="none" xmlns="http://www.w3.org/2000/svg">
    <path d="M24.6685 22.6321L22.1285 21.5435C23.7636 18.478 24.6846 14.4046 24.6846 12.006C24.6846 7.1435 20.7286 3.1875 15.8661 3.1875C10.9982 3.1875 7.0475 7.13594 7.0475 12.0061C7.0475 14.3858 7.94044 18.4179 9.6035 21.5436L7.06362 22.6321C5.02856 23.5042 3.8125 26.1416 3.8125 28.1875C3.8125 28.5326 4.09231 28.8125 4.4375 28.8125H27.2946C27.6397 28.8125 27.9196 28.5326 27.9196 28.1875C27.9196 26.1416 26.7036 23.5042 24.6685 22.6321ZM19.2227 19.4387C19.0001 19.1901 19.0028 18.8177 19.2288 18.5911C20.1695 17.6474 20.6875 16.3944 20.6875 15.0625V14.4159C21.5362 14.4733 22.3888 14.4145 23.2216 14.2409C22.8981 16.1986 22.1771 18.8188 20.9888 21.0246C20.4914 20.7227 19.8887 20.1824 19.2227 19.4387ZM23.4346 12.0061C23.4346 12.2799 23.4201 12.5856 23.3912 12.9188C22.3517 13.1933 21.2497 13.2617 20.151 13.1046C16.1356 12.5301 13.1133 9.03056 13.1888 4.92513C14.0427 4.60138 14.9414 4.4375 15.8661 4.4375C20.0394 4.4375 23.4346 7.83275 23.4346 12.0061ZM11.9491 5.53019C11.9918 6.41557 12.1609 7.2903 12.4511 8.12788C11.339 9.07344 10.6875 10.4642 10.6875 11.9375V15.0625C10.6875 16.5223 11.3236 17.9052 12.4327 18.8569C12.7143 19.0985 12.7379 19.5176 12.4839 19.7779C11.9819 20.293 11.3964 20.7194 10.7521 21.0391C9.06219 17.9128 8.29756 13.9381 8.29756 12.0061C8.2975 9.33519 9.7035 6.88931 11.9491 5.53019ZM5.10675 27.5625C5.31081 26.0687 6.20894 24.3582 7.556 23.7809C11.4651 22.1056 10.6019 22.4767 10.7311 22.4202C10.8505 22.3559 12.1363 21.9241 13.3786 20.6509C14.147 19.8631 14.064 18.6094 13.2467 17.9083C12.4147 17.1944 11.9375 16.1572 11.9375 15.0625V11.9375C11.9375 10.9658 12.3154 10.0417 12.9742 9.35038C14.2716 11.8679 16.6585 13.6831 19.4375 14.249V15.0625C19.4375 16.0612 19.049 17.0009 18.3436 17.7085C17.6499 18.4043 17.6271 19.5305 18.2915 20.2725C19.9857 22.1646 20.8728 22.3409 21.0012 22.4202L24.1761 23.7809C25.5232 24.3582 26.4214 26.0686 26.6253 27.5624H5.10675V27.5625Z" fill="#4257EE"/>
    <path d="M17.0886 7.5625C19.0029 7.5625 20.5604 9.11994 20.5604 11.0343C20.5604 11.3794 20.8403 11.6593 21.1854 11.6593C21.5305 11.6593 21.8104 11.3794 21.8104 11.0343C21.8104 8.43063 19.6922 6.3125 17.0886 6.3125C16.7434 6.3125 16.4636 6.59231 16.4636 6.9375C16.4636 7.28269 16.7434 7.5625 17.0886 7.5625ZM5.0625 18.1875C5.0625 17.1536 4.22137 16.3125 3.1875 16.3125C2.15363 16.3125 1.3125 17.1536 1.3125 18.1875C1.3125 19.2214 2.15363 20.0625 3.1875 20.0625C4.22137 20.0625 5.0625 19.2214 5.0625 18.1875ZM2.5625 18.1875C2.5625 17.8429 2.84288 17.5625 3.1875 17.5625C3.53212 17.5625 3.8125 17.8429 3.8125 18.1875C3.8125 18.5321 3.53212 18.8125 3.1875 18.8125C2.84288 18.8125 2.5625 18.5321 2.5625 18.1875ZM15.8706 15.8706C15.8126 15.9286 15.7437 15.9747 15.6678 16.0062C15.592 16.0376 15.5107 16.0538 15.4286 16.0538C15.3465 16.0538 15.2653 16.0376 15.1894 16.0062C15.1136 15.9747 15.0447 15.9286 14.9867 15.8706C14.7426 15.6265 14.3469 15.6265 14.1027 15.8706C13.8587 16.1146 13.8587 16.5104 14.1027 16.7545C14.8337 17.4854 16.0233 17.4856 16.7544 16.7545C16.9985 16.5104 16.9985 16.1147 16.7544 15.8706C16.5103 15.6264 16.1146 15.6264 15.8706 15.8706ZM28.1875 11.9375C26.809 11.9375 25.6875 13.059 25.6875 14.4375C25.6875 15.816 26.809 16.9375 28.1875 16.9375C29.566 16.9375 30.6875 15.816 30.6875 14.4375C30.6875 13.059 29.566 11.9375 28.1875 11.9375ZM28.1875 15.6875C27.4982 15.6875 26.9375 15.1267 26.9375 14.4375C26.9375 13.7483 27.4982 13.1875 28.1875 13.1875C28.8768 13.1875 29.4375 13.7483 29.4375 14.4375C29.4375 15.1267 28.8768 15.6875 28.1875 15.6875Z" fill="#4257EE"/>
    <path d="M24.4375 4.4375C24.7827 4.4375 25.0625 4.15768 25.0625 3.8125C25.0625 3.46732 24.7827 3.1875 24.4375 3.1875C24.0923 3.1875 23.8125 3.46732 23.8125 3.8125C23.8125 4.15768 24.0923 4.4375 24.4375 4.4375Z" fill="#4257EE"/>
    <path d="M28.8125 10.0625C29.1577 10.0625 29.4375 9.78268 29.4375 9.4375C29.4375 9.09232 29.1577 8.8125 28.8125 8.8125C28.4673 8.8125 28.1875 9.09232 28.1875 9.4375C28.1875 9.78268 28.4673 10.0625 28.8125 10.0625Z" fill="#4257EE"/>
    <path d="M26.3125 21.3125C26.6577 21.3125 26.9375 21.0327 26.9375 20.6875C26.9375 20.3423 26.6577 20.0625 26.3125 20.0625C25.9673 20.0625 25.6875 20.3423 25.6875 20.6875C25.6875 21.0327 25.9673 21.3125 26.3125 21.3125Z" fill="#4257EE"/>
    <path d="M5.6875 6.9375C6.03268 6.9375 6.3125 6.65768 6.3125 6.3125C6.3125 5.96732 6.03268 5.6875 5.6875 5.6875C5.34232 5.6875 5.0625 5.96732 5.0625 6.3125C5.0625 6.65768 5.34232 6.9375 5.6875 6.9375Z" fill="#4257EE"/>
    <path d="M3.1875 23.1875C3.53268 23.1875 3.8125 22.9077 3.8125 22.5625C3.8125 22.2173 3.53268 21.9375 3.1875 21.9375C2.84232 21.9375 2.5625 22.2173 2.5625 22.5625C2.5625 22.9077 2.84232 23.1875 3.1875 23.1875Z" fill="#4257EE"/>
</svg>
