<svg width="32" height="32" viewBox="0 0 32 32" fill="none" xmlns="http://www.w3.org/2000/svg">
    <path d="M12.4992 6.99799C12.7781 7.36923 12.9481 7.81083 12.9901 8.27327C13.0322 8.73571 12.9446 9.20073 12.7372 9.61619C12.5298 10.0317 12.2108 10.3812 11.816 10.6255C11.4211 10.8699 10.966 10.9994 10.5017 10.9997C10.0373 10.9999 9.58206 10.8708 9.18696 10.6268C8.79186 10.3829 8.47251 10.0337 8.26471 9.61843C8.05691 9.20317 7.96886 8.73825 8.01045 8.27576C8.05203 7.81328 8.2216 7.37151 8.50015 6.99999M9.00015 27V23L5.42715 19.864C5.23283 19.703 5.09525 19.4839 5.03459 19.239C4.97394 18.994 4.99341 18.7361 5.09015 18.503L6.45315 15.23C6.60563 14.8658 6.86227 14.5548 7.19086 14.336C7.51946 14.1172 7.90536 14.0003 8.30015 14H10.1612C10.3893 14.0008 10.6102 14.0796 10.7874 14.2233C10.9645 14.367 11.0873 14.567 11.1352 14.79C11.7732 17.786 13.4402 18 15.0002 18M9.00015 19L10.7482 14.63" stroke="#4257EE" stroke-width="2" stroke-miterlimit="10" stroke-linecap="round" stroke-linejoin="round"/>
    <path d="M3 26L5 24L6 21M15 21V24H29M18 15H28V21H18V15ZM25 15H21V13C21 12.7348 21.1054 12.4804 21.2929 12.2929C21.4804 12.1054 21.7348 12 22 12H24C24.2652 12 24.5196 12.1054 24.7071 12.2929C24.8946 12.4804 25 12.7348 25 13V15Z" stroke="#4257EE" stroke-width="2" stroke-miterlimit="10" stroke-linecap="round" stroke-linejoin="round"/>
    <path d="M18 28C18.5523 28 19 27.5523 19 27C19 26.4477 18.5523 26 18 26C17.4477 26 17 26.4477 17 27C17 27.5523 17.4477 28 18 28Z" fill="#4257EE"/>
    <path d="M27 28C27.5523 28 28 27.5523 28 27C28 26.4477 27.5523 26 27 26C26.4477 26 26 26.4477 26 27C26 27.5523 26.4477 28 27 28Z" fill="#4257EE"/>
    <path d="M13 7H8L9 3H12L13 7Z" stroke="#4257EE" stroke-width="2" stroke-miterlimit="10" stroke-linecap="round" stroke-linejoin="round"/>
</svg>
