<svg width="32" height="32" viewBox="0 0 32 32" fill="none" xmlns="http://www.w3.org/2000/svg">
    <path d="M15.9996 25.069H5.20961C3.93561 25.069 2.89961 24.033 2.89961 22.759V8.01999C2.89961 6.74599 3.93561 5.70999 5.20961 5.70999H7.38161V6.25399C7.38161 6.75099 7.78461 7.15399 8.28161 7.15399C8.77861 7.15399 9.18161 6.75099 9.18161 6.25399V5.70999H19.9456V6.25399C19.9456 6.75099 20.3486 7.15399 20.8456 7.15399C21.3426 7.15399 21.7456 6.75099 21.7456 6.25399V5.70999H23.9096C25.1826 5.70999 26.2196 6.74599 26.2196 8.01999V14.45C26.2196 14.947 26.6226 15.35 27.1196 15.35C27.6166 15.35 28.0196 14.947 28.0196 14.45V8.01999C28.0196 5.75399 26.1756 3.90999 23.9096 3.90999H21.7456V3.44999C21.7456 2.95299 21.3426 2.54999 20.8456 2.54999C20.3486 2.54999 19.9456 2.95299 19.9456 3.44999V3.90999H9.18161V3.44999C9.18161 2.95299 8.77861 2.54999 8.28161 2.54999C7.78461 2.54999 7.38161 2.95299 7.38161 3.44999V3.90999H5.20961C2.94361 3.90999 1.09961 5.75399 1.09961 8.01999V22.76C1.09961 25.027 2.94361 26.87 5.20961 26.87H15.9996C16.4966 26.87 16.8996 26.467 16.8996 25.97C16.8996 25.473 16.4966 25.069 15.9996 25.069Z" fill="#4257EE"/>
    <path d="M8.09369 12.244C7.51969 12.244 7.05469 12.709 7.05469 13.283C7.05469 13.857 7.51969 14.322 8.09369 14.322C8.66769 14.322 9.13269 13.857 9.13269 13.283C9.13269 12.709 8.66769 12.244 8.09369 12.244ZM14.5627 12.244C13.9887 12.244 13.5237 12.709 13.5237 13.283C13.5237 13.857 13.9887 14.322 14.5627 14.322C15.1367 14.322 15.6017 13.857 15.6017 13.283C15.6017 12.709 15.1357 12.244 14.5627 12.244ZM19.9917 13.283C19.9917 13.857 20.4567 14.322 21.0307 14.322C21.6047 14.322 22.0697 13.857 22.0697 13.283C22.0697 12.709 21.6047 12.244 21.0307 12.244C20.4567 12.244 19.9917 12.709 19.9917 13.283ZM8.09369 17.905C7.51969 17.905 7.05469 18.37 7.05469 18.944C7.05469 19.518 7.51969 19.983 8.09369 19.983C8.66769 19.983 9.13269 19.518 9.13269 18.944C9.13269 18.37 8.66769 17.905 8.09369 17.905ZM14.5627 17.905C13.9887 17.905 13.5237 18.37 13.5237 18.944C13.5237 19.518 13.9887 19.983 14.5627 19.983C15.1367 19.983 15.6017 19.518 15.6017 18.944C15.6017 18.37 15.1357 17.905 14.5627 17.905ZM24.5067 16.665C20.9817 16.665 18.1127 19.533 18.1127 23.058C18.1127 26.582 20.9807 29.451 24.5067 29.451C28.0327 29.451 30.9007 26.583 30.9007 23.058C30.8997 19.532 28.0317 16.665 24.5067 16.665ZM24.5067 27.649C21.9747 27.649 19.9137 25.589 19.9137 23.057C19.9137 20.525 21.9747 18.464 24.5067 18.464C27.0387 18.464 29.0997 20.525 29.0997 23.057C29.0997 25.589 27.0387 27.649 24.5067 27.649Z" fill="#4257EE"/>
    <path d="M25.8105 21.421L23.8385 23.01L23.3475 22.383C23.0395 21.992 22.4765 21.924 22.0835 22.231C21.6925 22.538 21.6245 23.103 21.9315 23.495L22.9855 24.839C23.1335 25.028 23.3515 25.151 23.5905 25.178C23.6245 25.182 23.6585 25.184 23.6935 25.184C23.8975 25.184 24.0975 25.114 24.2575 24.985L26.9395 22.825C27.3275 22.512 27.3875 21.946 27.0765 21.559C26.7645 21.172 26.1975 21.108 25.8105 21.421Z" fill="#4257EE"/>
</svg>
