<svg width="32" height="32" viewBox="0 0 32 32" fill="none" xmlns="http://www.w3.org/2000/svg">
    <path d="M30.8996 17.859C30.8996 16.398 29.8826 15.178 28.5226 14.847C28.0436 9.23503 22.6166 4.79303 15.9996 4.79303C9.38261 4.79303 3.95561 9.23503 3.47661 14.847C2.11561 15.178 1.09961 16.399 1.09961 17.859C1.09961 19.303 2.09361 20.509 3.42961 20.857V22.308C3.42961 25.01 5.62761 27.208 8.32961 27.208H23.6696C26.3716 27.208 28.5696 25.01 28.5696 22.308V20.857C29.9056 20.509 30.8996 19.303 30.8996 17.859ZM15.9996 6.59303C21.5766 6.59303 26.1756 10.178 26.7146 14.751H5.28461C5.82361 10.177 10.4226 6.59303 15.9996 6.59303ZM23.6696 25.407H8.32961C6.62061 25.407 5.22961 24.016 5.22961 22.307V20.967H11.1106L14.3046 23.744C14.7876 24.165 15.3936 24.375 15.9986 24.375C16.6036 24.375 17.2096 24.165 17.6926 23.744L20.8866 20.967H26.7676V22.307C26.7696 24.017 25.3786 25.407 23.6696 25.407ZM13.8536 20.968H18.1456L16.5126 22.388C16.2196 22.642 15.7806 22.642 15.4876 22.388L13.8536 20.968ZM27.7916 19.167H4.20761C3.48561 19.167 2.89961 18.581 2.89961 17.859C2.89961 17.137 3.48561 16.55 4.20761 16.55H27.7916C28.5136 16.55 29.0996 17.137 29.0996 17.859C29.0996 18.581 28.5136 19.167 27.7916 19.167Z" fill="#4257EE"/>
    <path d="M12.3239 11.062C11.9539 11.249 11.8059 11.7 11.9929 12.07C12.1799 12.44 12.6309 12.588 13.0009 12.401C13.3709 12.214 13.5189 11.763 13.3319 11.393C13.1449 11.023 12.6939 10.875 12.3239 11.062ZM10.3069 11.714C10.6769 11.527 10.8249 11.076 10.6379 10.706C10.4509 10.336 9.9999 10.188 9.6299 10.375C9.2599 10.562 9.1129 11.013 9.2999 11.383C9.4869 11.752 9.9379 11.9 10.3069 11.714ZM12.7129 10.059C13.0829 9.87204 13.2309 9.42104 13.0439 9.05104C12.8569 8.68104 12.4059 8.53304 12.0359 8.72004C11.6659 8.90704 11.5179 9.35804 11.7049 9.72804C11.8929 10.097 12.3439 10.246 12.7129 10.059Z" fill="#4257EE"/>
</svg>
