<svg width="32" height="32" viewBox="0 0 32 32" fill="none" xmlns="http://www.w3.org/2000/svg">
    <path d="M26.4216 4.06799H23.9016V3.44999C23.9016 2.95299 23.4986 2.54999 23.0016 2.54999C22.5046 2.54999 22.1016 2.95299 22.1016 3.44999V4.06799H9.90163V3.44999C9.90163 2.95299 9.49863 2.54999 9.00163 2.54999C8.50463 2.54999 8.10163 2.95299 8.10163 3.44999V4.06799H5.57763C3.10763 4.06799 1.09863 6.07699 1.09863 8.54699V24.972C1.09863 27.442 3.10763 29.451 5.57763 29.451H26.4216C28.8916 29.451 30.9006 27.442 30.9006 24.972V8.54599C30.8996 6.07699 28.8916 4.06799 26.4216 4.06799ZM29.0996 24.972C29.0996 26.449 27.8986 27.651 26.4216 27.651H5.57763C4.10063 27.651 2.89963 26.449 2.89963 24.972V8.54599C2.89963 7.06899 4.10063 5.86699 5.57763 5.86699H8.09963V6.57499C8.09963 7.07199 8.50263 7.47499 8.99963 7.47499C9.49663 7.47499 9.89963 7.07199 9.89963 6.57499V5.86799H22.0996V6.57599C22.0996 7.07299 22.5026 7.47599 22.9996 7.47599C23.4966 7.47599 23.8996 7.07299 23.8996 6.57599V5.86799H26.4196C27.8966 5.86799 29.0976 7.06999 29.0976 8.54699V24.972H29.0996Z" fill="#4257EE"/>
    <path d="M8.79081 13.25C8.15081 13.25 7.63281 13.768 7.63281 14.408C7.63281 15.048 8.15081 15.566 8.79081 15.566C9.43081 15.566 9.94881 15.048 9.94881 14.408C9.94881 13.769 9.42981 13.25 8.79081 13.25ZM15.9998 13.25C15.3598 13.25 14.8418 13.768 14.8418 14.408C14.8418 15.048 15.3608 15.566 15.9998 15.566C16.6388 15.566 17.1578 15.048 17.1578 14.408C17.1578 13.769 16.6398 13.25 15.9998 13.25ZM23.2088 13.25C22.5688 13.25 22.0508 13.768 22.0508 14.408C22.0508 15.048 22.5688 15.566 23.2088 15.566C23.8488 15.566 24.3668 15.048 24.3668 14.408C24.3668 13.769 23.8488 13.25 23.2088 13.25ZM8.79081 19.559C8.15081 19.559 7.63281 20.077 7.63281 20.717C7.63281 21.357 8.15081 21.875 8.79081 21.875C9.43081 21.875 9.94881 21.356 9.94881 20.717C9.94881 20.077 9.42981 19.559 8.79081 19.559Z" fill="#4257EE"/>
    <path d="M15.9998 21.875C16.6393 21.875 17.1578 21.3565 17.1578 20.717C17.1578 20.0774 16.6393 19.559 15.9998 19.559C15.3603 19.559 14.8418 20.0774 14.8418 20.717C14.8418 21.3565 15.3603 21.875 15.9998 21.875Z" fill="#4257EE"/>
    <path d="M23.2088 19.559C22.5688 19.559 22.0508 20.077 22.0508 20.717C22.0508 21.357 22.5688 21.875 23.2088 21.875C23.8488 21.875 24.3668 21.356 24.3668 20.717C24.3668 20.077 23.8488 19.559 23.2088 19.559Z" fill="#4257EE"/>
</svg>
