<svg width="30" height="30" viewBox="0 0 30 30" fill="none" xmlns="http://www.w3.org/2000/svg">
    <path d="M24.8989 1.16799H23.5589V1.00199C23.5589 0.50499 23.1559 0.10199 22.6589 0.10199C22.1619 0.10199 21.7589 0.50499 21.7589 1.00199V1.16799H15.8999V1.00199C15.8999 0.50499 15.4969 0.10199 14.9999 0.10199C14.5029 0.10199 14.0999 0.50499 14.0999 1.00199V1.16799H8.24088V1.00199C8.24088 0.50499 7.83788 0.10199 7.34088 0.10199C6.84388 0.10199 6.44088 0.50499 6.44088 1.00199V1.16799H5.10088C2.63588 1.16799 0.629883 3.17299 0.629883 5.63799V25.427C0.629883 27.892 2.63488 29.898 5.10088 29.898H22.2409C23.3869 29.898 24.5079 29.434 25.3169 28.624L28.0939 25.846C28.9159 25.025 29.3689 23.932 29.3689 22.77V5.63799C29.3699 3.17299 27.3639 1.16799 24.8989 1.16799ZM2.42988 25.427V5.63799C2.42988 4.16499 3.62788 2.96799 5.10088 2.96799H6.44088V3.13299C6.44088 3.62999 6.84388 4.03299 7.34088 4.03299C7.83788 4.03299 8.24088 3.62999 8.24088 3.13299V2.96799H14.0999V3.13299C14.0999 3.62999 14.5029 4.03299 14.9999 4.03299C15.4969 4.03299 15.8999 3.62999 15.8999 3.13299V2.96799H21.7589V3.13299C21.7589 3.62999 22.1619 4.03299 22.6589 4.03299C23.1559 4.03299 23.5589 3.62999 23.5589 3.13299V2.96799H24.8989C26.3719 2.96799 27.5689 4.16599 27.5689 5.63799V20.947H23.5419C21.8239 20.947 20.4259 22.344 20.4259 24.062V28.097H5.10088C3.62788 28.098 2.42988 26.899 2.42988 25.427ZM26.8219 24.572L24.0439 27.351C23.5699 27.826 22.9129 28.098 22.2409 28.098H22.2259V24.063C22.2259 23.338 22.8159 22.748 23.5409 22.748H27.5679V22.77C27.5689 23.451 27.3049 24.09 26.8219 24.572Z" fill="#4257EE"/>
    <path d="M24.0078 10.566C24.5048 10.566 24.9078 10.163 24.9078 9.66599C24.9078 9.16899 24.5048 8.76599 24.0078 8.76599H5.9918C5.4948 8.76599 5.0918 9.16899 5.0918 9.66599C5.0918 10.163 5.4948 10.566 5.9918 10.566H24.0078Z" fill="#4257EE"/>
</svg>
