<svg width="32" height="32" viewBox="0 0 32 32" fill="none" xmlns="http://www.w3.org/2000/svg">
    <path d="M27.5206 7.454H27.1766V6.216C27.1766 5.107 26.2736 4.204 25.1636 4.204H23.3046C22.1956 4.204 21.2916 5.106 21.2916 6.216V7.454H19.9636L19.0656 5.595C18.5236 4.472 17.3676 3.746 16.1196 3.746H10.8056C9.55761 3.746 8.40161 4.472 7.85961 5.594L6.95961 7.454H4.47961C2.61661 7.454 1.09961 8.97 1.09961 10.833V24.875C1.09961 26.738 2.61661 28.254 4.47961 28.254H27.5206C29.3836 28.254 30.9006 26.738 30.9006 24.875V10.833C30.8996 8.97 29.3836 7.454 27.5206 7.454ZM23.0926 6.216C23.0926 6.099 23.1876 6.004 23.3046 6.004H25.1636C25.2806 6.004 25.3756 6.099 25.3756 6.216V7.454H23.0926V6.216ZM29.0996 24.875C29.0996 25.746 28.3916 26.454 27.5206 26.454H4.47861C3.60761 26.454 2.89961 25.746 2.89961 24.875V10.833C2.89961 9.962 3.60761 9.253 4.47861 9.253H7.52361C7.86961 9.253 8.18361 9.056 8.33461 8.745L9.47961 6.376C9.72361 5.871 10.2436 5.545 10.8046 5.545H16.1186C16.6806 5.545 17.1996 5.871 17.4436 6.377L18.5886 8.745C18.7386 9.056 19.0536 9.253 19.3996 9.253H27.5206C28.3916 9.253 29.0996 9.961 29.0996 10.833V24.875Z" fill="#4257EE"/>
    <path d="M13.462 10.517C9.41602 10.517 6.12402 13.809 6.12402 17.854C6.12402 21.899 9.41602 25.191 13.462 25.191C17.508 25.191 20.8 21.9 20.8 17.854C20.8 13.808 17.508 10.517 13.462 10.517ZM13.462 23.392C10.408 23.392 7.92502 20.908 7.92502 17.854C7.92502 14.8 10.408 12.316 13.462 12.316C16.516 12.316 18.999 14.8 18.999 17.854C18.999 20.908 16.516 23.392 13.462 23.392Z" fill="#4257EE"/>
    <path d="M13.462 14.017C11.346 14.017 9.62402 15.738 9.62402 17.854C9.62402 18.351 10.027 18.754 10.524 18.754C11.021 18.754 11.424 18.351 11.424 17.854C11.424 16.73 12.338 15.816 13.461 15.816C13.958 15.816 14.361 15.413 14.361 14.916C14.361 14.419 13.959 14.017 13.462 14.017Z" fill="#4257EE"/>
    <path d="M24.2339 14.063C24.9358 14.063 25.5049 13.4939 25.5049 12.792C25.5049 12.09 24.9358 11.521 24.2339 11.521C23.5319 11.521 22.9629 12.09 22.9629 12.792C22.9629 13.4939 23.5319 14.063 24.2339 14.063Z" fill="#4257EE"/>
</svg>
