<svg width="32" height="32" viewBox="0 0 32 32" fill="none" xmlns="http://www.w3.org/2000/svg">
    <path d="M29.255 12.779L29.916 12.622C30.031 12.5947 30.1395 12.545 30.2354 12.4757C30.3312 12.4065 30.4124 12.319 30.4745 12.2183C30.5365 12.1177 30.5781 12.0058 30.5969 11.8891C30.6157 11.7723 30.6113 11.653 30.584 11.538C30.5566 11.423 30.5069 11.3144 30.4377 11.2186C30.3684 11.1228 30.281 11.0415 30.1803 10.9795C30.0796 10.9175 29.9678 10.8759 29.851 10.8571C29.7343 10.8383 29.615 10.8427 29.5 10.87L27.077 11.446L26.012 8.52C25.7046 7.6803 25.1471 6.95505 24.4147 6.44205C23.6823 5.92904 22.8102 5.65295 21.916 5.651H10.083C9.18876 5.65295 8.31666 5.92904 7.58426 6.44205C6.85185 6.95505 6.29436 7.6803 5.98696 8.52L4.92196 11.446L2.49996 10.87C2.38492 10.8427 2.26563 10.8383 2.14889 10.8571C2.03216 10.8759 1.92027 10.9175 1.81961 10.9795C1.71895 11.0415 1.6315 11.1228 1.56224 11.2186C1.49298 11.3144 1.44327 11.423 1.41596 11.538C1.38864 11.653 1.38425 11.7723 1.40304 11.8891C1.42183 12.0058 1.46342 12.1177 1.52545 12.2183C1.58748 12.319 1.66873 12.4065 1.76456 12.4757C1.86039 12.545 1.96892 12.5947 2.08396 12.622L2.74496 12.779C2.31905 13.1763 1.97921 13.6567 1.74648 14.1907C1.51375 14.7246 1.39309 15.3006 1.39196 15.883V20.873C1.39196 21.927 2.24896 22.784 3.30196 22.784H4.64496V23.568C4.64575 24.3046 4.93865 25.0109 5.45943 25.5318C5.98021 26.0528 6.68634 26.3459 7.42296 26.347H8.55096C9.28758 26.3459 9.99371 26.0528 10.5145 25.5318C11.0353 25.0109 11.3282 24.3046 11.329 23.568V22.784H20.67V23.568C20.6708 24.3046 20.9637 25.0109 21.4844 25.5318C22.0052 26.0528 22.7113 26.3459 23.448 26.347H24.576C25.3126 26.3459 26.0187 26.0528 26.5395 25.5318C27.0603 25.0109 27.3532 24.3046 27.354 23.568V22.784H28.697C29.75 22.784 30.607 21.927 30.607 20.873V15.883C30.6064 15.3006 30.4861 14.7245 30.2535 14.1905C30.0209 13.6566 29.681 13.1761 29.255 12.779ZM7.67896 9.136C7.8596 8.6433 8.18685 8.21778 8.61666 7.9167C9.04646 7.61562 9.55819 7.45344 10.083 7.452H21.917C22.989 7.452 23.955 8.129 24.321 9.136L25.22 11.608H6.77896L7.67896 9.136ZM9.52996 23.569C9.52969 23.8286 9.42646 24.0774 9.24292 24.261C9.05938 24.4445 8.81052 24.5477 8.55096 24.548H7.42296C7.16339 24.5477 6.91453 24.4445 6.73099 24.261C6.54745 24.0774 6.44422 23.8286 6.44396 23.569V22.785H9.52996V23.569ZM25.556 23.569C25.5557 23.8286 25.4525 24.0774 25.2689 24.261C25.0854 24.4445 24.8365 24.5477 24.577 24.548H23.449C23.1894 24.5477 22.9405 24.4445 22.757 24.261C22.5735 24.0774 22.4702 23.8286 22.47 23.569V22.785H25.555L25.556 23.569ZM28.809 20.874C28.809 20.9032 28.7974 20.9312 28.7767 20.9518C28.7561 20.9724 28.7281 20.984 28.699 20.984H3.30196C3.27278 20.984 3.2448 20.9724 3.22418 20.9518C3.20355 20.9312 3.19196 20.9032 3.19196 20.874V15.884C3.19301 15.2276 3.45422 14.5985 3.91833 14.1344C4.38244 13.6703 5.01161 13.4091 5.66796 13.408H26.333C26.9894 13.4088 27.6187 13.6699 28.0829 14.1341C28.547 14.5982 28.8082 15.2276 28.809 15.884V20.874Z" fill="#4257EE"/>
    <path d="M7.74996 15.156C7.20892 15.156 6.69004 15.3709 6.30746 15.7535C5.92489 16.1361 5.70996 16.655 5.70996 17.196C5.70996 17.737 5.92489 18.2559 6.30746 18.6385C6.69004 19.0211 7.20892 19.236 7.74996 19.236C8.291 19.236 8.80989 19.0211 9.19246 18.6385C9.57503 18.2559 9.78996 17.737 9.78996 17.196C9.78996 16.655 9.57503 16.1361 9.19246 15.7535C8.80989 15.3709 8.291 15.156 7.74996 15.156ZM24.25 15.156C23.7089 15.156 23.19 15.3709 22.8075 15.7535C22.4249 16.1361 22.21 16.655 22.21 17.196C22.21 17.737 22.4249 18.2559 22.8075 18.6385C23.19 19.0211 23.7089 19.236 24.25 19.236C24.791 19.236 25.3099 19.0211 25.6925 18.6385C26.075 18.2559 26.29 17.737 26.29 17.196C26.29 16.655 26.075 16.1361 25.6925 15.7535C25.3099 15.3709 24.791 15.156 24.25 15.156ZM18.833 16.296H13.166C12.9273 16.296 12.6983 16.3908 12.5296 16.5596C12.3608 16.7284 12.266 16.9573 12.266 17.196C12.266 17.4347 12.3608 17.6636 12.5296 17.8324C12.6983 18.0012 12.9273 18.096 13.166 18.096H18.833C19.0717 18.096 19.3006 18.0012 19.4694 17.8324C19.6381 17.6636 19.733 17.4347 19.733 17.196C19.733 16.9573 19.6381 16.7284 19.4694 16.5596C19.3006 16.3908 19.0717 16.296 18.833 16.296Z" fill="#4257EE"/>
</svg>
