<svg width="32" height="32" viewBox="0 0 32 32" fill="none" xmlns="http://www.w3.org/2000/svg">
    <path d="M25.5863 8.66298H20.3933L21.1773 3.98698C21.2843 3.36698 21.8403 2.89998 22.4733 2.89998H26.8883C27.3853 2.89998 27.7883 2.49698 27.7883 1.99998C27.7883 1.50298 27.3853 1.09998 26.8883 1.09998H22.4733C20.9503 1.09998 19.6603 2.18598 19.4043 3.68598L18.5693 8.66298H6.23034C5.40934 8.66298 4.69934 9.13198 4.37734 9.88698C4.05534 10.642 4.20734 11.479 4.77534 12.072L15.0083 22.754V29.1H12.8823C12.3853 29.1 11.9823 29.503 11.9823 30C11.9823 30.497 12.3853 30.9 12.8823 30.9H19.1183C19.6153 30.9 20.0183 30.497 20.0183 30C20.0183 29.503 19.6153 29.1 19.1183 29.1H16.8083V22.754L27.0423 12.072C27.6093 11.479 27.7623 10.642 27.4393 9.88698C27.1163 9.13198 26.4073 8.66298 25.5863 8.66298ZM6.07534 10.826C6.01034 10.758 5.99534 10.68 6.03334 10.593C6.07034 10.506 6.13734 10.462 6.23134 10.462H18.2673L17.7343 13.64H8.77034L6.07534 10.826ZM15.9083 21.091L10.4943 15.44H21.3213L15.9083 21.091ZM25.7413 10.826L23.0463 13.64H19.5593L20.0923 10.462H25.5863C25.6813 10.462 25.7473 10.506 25.7843 10.593C25.8213 10.68 25.8073 10.758 25.7413 10.826Z" fill="#4257EE"/>
</svg>
