<svg width="32" height="32" viewBox="0 0 32 32" fill="none" xmlns="http://www.w3.org/2000/svg">
    <path d="M17.7291 20.6667C17.615 20.6667 17.5035 20.7009 17.4086 20.765C17.3138 20.8291 17.2398 20.9202 17.1962 21.0268C17.1525 21.1334 17.1411 21.2506 17.1633 21.3638C17.1856 21.477 17.2405 21.5809 17.3212 21.6625C17.4019 21.7441 17.5047 21.7996 17.6166 21.8221C17.7285 21.8446 17.8444 21.8331 17.9498 21.7889C18.0553 21.7448 18.1453 21.67 18.2087 21.5741C18.2721 21.4782 18.306 21.3654 18.306 21.25C18.306 21.0953 18.2452 20.9469 18.137 20.8375C18.0288 20.7281 17.8821 20.6667 17.7291 20.6667ZM15.4217 18.9167C15.3076 18.9167 15.1961 18.9509 15.1012 19.015C15.0063 19.0791 14.9324 19.1702 14.8887 19.2768C14.8451 19.3834 14.8337 19.5006 14.8559 19.6138C14.8782 19.727 14.9331 19.8309 15.0138 19.9125C15.0945 19.9941 15.1972 20.0496 15.3091 20.0721C15.421 20.0946 15.537 20.0831 15.6424 20.0389C15.7478 19.9948 15.8379 19.92 15.9013 19.8241C15.9647 19.7282 15.9985 19.6154 15.9985 19.5C15.9985 19.3453 15.9378 19.1969 15.8296 19.0875C15.7214 18.9781 15.5747 18.9167 15.4217 18.9167ZM8.49945 20.0833C8.38536 20.0833 8.27383 20.1175 8.17897 20.1816C8.08411 20.2457 8.01017 20.3368 7.96651 20.4434C7.92285 20.55 7.91143 20.6673 7.93368 20.7805C7.95594 20.8936 8.01088 20.9976 8.09156 21.0791C8.17223 21.1607 8.27502 21.2163 8.38691 21.2388C8.49881 21.2613 8.6148 21.2497 8.7202 21.2056C8.82561 21.1614 8.9157 21.0867 8.97909 20.9907C9.04247 20.8948 9.07631 20.782 9.07631 20.6667C9.07631 20.512 9.01553 20.3636 8.90735 20.2542C8.79917 20.1448 8.65244 20.0833 8.49945 20.0833ZM12.5374 20.6667C12.4233 20.6667 12.3118 20.7009 12.2169 20.765C12.1221 20.8291 12.0481 20.9202 12.0045 21.0268C11.9608 21.1334 11.9494 21.2506 11.9717 21.3638C11.9939 21.477 12.0489 21.5809 12.1295 21.6625C12.2102 21.7441 12.313 21.7996 12.4249 21.8221C12.5368 21.8446 12.6528 21.8331 12.7582 21.7889C12.8636 21.7448 12.9537 21.67 13.0171 21.5741C13.0804 21.4782 13.1143 21.3654 13.1143 21.25C13.1143 21.0953 13.0535 20.9469 12.9453 20.8375C12.8371 20.7281 12.6904 20.6667 12.5374 20.6667ZM18.8828 18.3333C18.7687 18.3333 18.6572 18.3675 18.5623 18.4316C18.4675 18.4957 18.3935 18.5868 18.3499 18.6934C18.3062 18.8 18.2948 18.9173 18.317 19.0305C18.3393 19.1436 18.3942 19.2476 18.4749 19.3291C18.5556 19.4107 18.6584 19.4663 18.7703 19.4888C18.8822 19.5113 18.9981 19.4997 19.1036 19.4556C19.209 19.4114 19.2991 19.3367 19.3624 19.2408C19.4258 19.1448 19.4597 19.032 19.4597 18.9167C19.4597 18.762 19.3989 18.6136 19.2907 18.5042C19.1825 18.3948 19.0358 18.3333 18.8828 18.3333ZM10.8069 18.3333C10.6928 18.3333 10.5812 18.3675 10.4864 18.4316C10.3915 18.4957 10.3176 18.5868 10.2739 18.6934C10.2303 18.8 10.2188 18.9173 10.2411 19.0305C10.2634 19.1436 10.3183 19.2476 10.399 19.3291C10.4796 19.4107 10.5824 19.4663 10.6943 19.4888C10.8062 19.5113 10.9222 19.4997 11.0276 19.4556C11.133 19.4114 11.2231 19.3367 11.2865 19.2408C11.3499 19.1448 11.3837 19.032 11.3837 18.9167C11.3837 18.762 11.3229 18.6136 11.2148 18.5042C11.1066 18.3948 10.9599 18.3333 10.8069 18.3333ZM18.4213 26.5C18.3072 26.5 18.1957 26.5342 18.1008 26.5983C18.006 26.6624 17.932 26.7535 17.8884 26.8601C17.8447 26.9667 17.8333 27.084 17.8556 27.1971C17.8778 27.3103 17.9328 27.4142 18.0134 27.4958C18.0941 27.5774 18.1969 27.633 18.3088 27.6555C18.4207 27.678 18.5367 27.6664 18.6421 27.6223C18.7475 27.5781 18.8376 27.5033 18.901 27.4074C18.9643 27.3115 18.9982 27.1987 18.9982 27.0833C18.9982 26.9286 18.9374 26.7803 18.8292 26.6709C18.721 26.5615 18.5743 26.5 18.4213 26.5ZM16.1139 26.5H11.4991C11.3461 26.5 11.1994 26.5615 11.0912 26.6709C10.983 26.7803 10.9222 26.9286 10.9222 27.0833C10.9222 27.238 10.983 27.3864 11.0912 27.4958C11.1994 27.6052 11.3461 27.6667 11.4991 27.6667H16.1139C16.2669 27.6667 16.4136 27.6052 16.5218 27.4958C16.63 27.3864 16.6908 27.238 16.6908 27.0833C16.6908 26.9286 16.63 26.7803 16.5218 26.6709C16.4136 26.5615 16.2669 26.5 16.1139 26.5ZM20.1519 27.0833C20.1519 27.1987 20.1857 27.3115 20.2491 27.4074C20.3125 27.5033 20.4026 27.5781 20.508 27.6223C20.6134 27.6664 20.7294 27.678 20.8413 27.6555C20.9532 27.633 21.056 27.5774 21.1366 27.4958C21.2173 27.4142 21.2722 27.3103 21.2945 27.1971C21.3168 27.084 21.3053 26.9667 21.2617 26.8601C21.218 26.7535 21.1441 26.6624 21.0492 26.5983C20.9544 26.5342 20.8428 26.5 20.7287 26.5C20.5757 26.5 20.429 26.5615 20.3208 26.6709C20.2127 26.7803 20.1519 26.9286 20.1519 27.0833ZM6.88426 26.5C6.77017 26.5 6.65865 26.5342 6.56378 26.5983C6.46892 26.6624 6.39498 26.7535 6.35132 26.8601C6.30766 26.9667 6.29624 27.084 6.3185 27.1971C6.34075 27.3103 6.39569 27.4142 6.47637 27.4958C6.55704 27.5774 6.65983 27.633 6.77173 27.6555C6.88363 27.678 6.99961 27.6664 7.10502 27.6223C7.21042 27.5781 7.30052 27.5033 7.3639 27.4074C7.42729 27.3115 7.46112 27.1987 7.46112 27.0833C7.46112 26.9286 7.40034 26.7803 7.29216 26.6709C7.18398 26.5615 7.03726 26.5 6.88426 26.5ZM9.19168 26.5C9.07759 26.5 8.96606 26.5342 8.87119 26.5983C8.77633 26.6624 8.70239 26.7535 8.65873 26.8601C8.61507 26.9667 8.60365 27.084 8.62591 27.1971C8.64817 27.3103 8.7031 27.4142 8.78378 27.4958C8.86445 27.5774 8.96724 27.633 9.07914 27.6555C9.19104 27.678 9.30702 27.6664 9.41243 27.6223C9.51783 27.5781 9.60793 27.5033 9.67131 27.4074C9.7347 27.3115 9.76853 27.1987 9.76853 27.0833C9.76853 26.9286 9.70775 26.7803 9.59957 26.6709C9.49139 26.5615 9.34467 26.5 9.19168 26.5ZM27.2818 9.29167C27.2128 8.57072 26.8799 7.90186 26.3484 7.41624C25.817 6.93063 25.1253 6.6633 24.4091 6.66667H21.2479C21.1149 6.00787 20.7609 5.41577 20.2458 4.99057C19.7308 4.56537 19.0862 4.3332 18.4213 4.33333H16.6331C16.5001 3.67454 16.1461 3.08244 15.631 2.65724C15.1159 2.23204 14.4714 1.99986 13.8065 2H11.4991C10.8362 2.00255 10.1943 2.23595 9.68162 2.66092C9.16892 3.08589 8.81663 3.6765 8.68405 4.33333H5.73056C5.40917 4.33333 5.09414 4.42383 4.82075 4.59469C4.54736 4.76556 4.32643 5.01002 4.1827 5.30071C4.03897 5.59139 3.97813 5.91681 4.00699 6.24049C4.03586 6.56418 4.15328 6.87334 4.34611 7.13333L6.29588 9.75833L6.07667 12.22L5.37291 20.0367V20.6667L5.15371 22.4167C5.1545 23.1324 5.41756 23.8223 5.89208 24.3533C5.33864 24.5584 4.8606 24.9299 4.52232 25.418C4.18404 25.9061 4.00175 26.4873 4 27.0833V29.4167C4 29.5714 4.06078 29.7198 4.16896 29.8291C4.27714 29.9385 4.42386 30 4.57685 30H23.0361C23.1891 30 23.3359 29.9385 23.444 29.8291C23.5522 29.7198 23.613 29.5714 23.613 29.4167V27.0833C23.6148 26.4928 23.4393 25.9157 23.1096 25.4282C22.78 24.9407 22.3119 24.5659 21.7671 24.3533C22.2517 23.8092 22.519 23.1023 22.517 22.37L22.2401 19.5H25.1128C25.5162 19.5004 25.9151 19.4153 26.2839 19.2501C26.6526 19.0849 26.9831 18.8433 27.2538 18.541C27.5245 18.2386 27.7295 17.8822 27.8555 17.4948C27.9816 17.1074 28.0259 16.6975 27.9855 16.2917L27.2818 9.29167ZM20.6134 13.83L21.271 22.4167C21.2711 22.8748 21.0935 23.3147 20.7764 23.6419C20.4593 23.9691 20.028 24.1575 19.575 24.1667H8.03797C7.58688 24.1668 7.15356 23.9889 6.83031 23.6707C6.50706 23.3526 6.31944 22.9193 6.30741 22.4633L7.11501 13.5617L7.58803 13.6667C8.26376 13.8401 8.9563 13.9379 9.65316 13.9583C10.2024 13.9812 10.7499 13.8816 11.2568 13.6667C11.619 13.5018 12.0135 13.422 12.4105 13.4333C12.8076 13.422 13.202 13.5018 13.5642 13.6667C14.0685 13.8936 14.6161 14.0051 15.1679 13.9933C15.7274 14.0082 16.2831 13.8966 16.7946 13.6667C17.1568 13.5018 17.5512 13.422 17.9483 13.4333C18.5637 13.4559 19.1749 13.5458 19.7712 13.7017L20.6134 13.83ZM11.4991 3.16667H13.8065C14.1635 3.16768 14.5115 3.28035 14.8028 3.48921C15.094 3.69808 15.3142 3.99293 15.4332 4.33333H9.87236C9.99137 3.99293 10.2116 3.69808 10.5028 3.48921C10.7941 3.28035 11.142 3.16768 11.4991 3.16667ZM5.28061 6.43333C5.22198 6.34112 5.19081 6.2338 5.19081 6.12417C5.19081 6.01454 5.22198 5.90722 5.28061 5.815C5.32311 5.72827 5.38668 5.65387 5.46538 5.59877C5.54408 5.54368 5.63532 5.50969 5.73056 5.5H18.4213C18.6521 5.5015 18.8802 5.54934 19.0925 5.64074C19.3048 5.73214 19.4971 5.86529 19.6581 6.03244C19.8191 6.19959 19.9456 6.39743 20.0304 6.61445C20.1152 6.83148 20.1565 7.06337 20.1519 7.29667L20.3249 9.63L20.6134 12.605L20.025 12.5C19.3492 12.3268 18.6567 12.229 17.9598 12.2083C17.4106 12.1859 16.8632 12.2854 16.3562 12.5C15.994 12.6649 15.5995 12.7446 15.2025 12.7333C14.8054 12.7446 14.411 12.6649 14.0488 12.5C13.5338 12.2857 12.9781 12.19 12.4221 12.22C11.8737 12.1935 11.3262 12.2891 10.8184 12.5C10.4562 12.6649 10.0618 12.7446 9.6647 12.7333C9.04666 12.7233 8.43155 12.6451 7.8303 12.5L7.21884 12.3833L7.46112 9.63C7.47184 9.48797 7.43081 9.34688 7.34575 9.23333L5.28061 6.43333ZM22.4593 27.0833V28.8333H5.15371V27.0833C5.15371 26.6192 5.33603 26.1741 5.66058 25.8459C5.98512 25.5177 6.42529 25.3333 6.88426 25.3333H20.7287C21.1877 25.3333 21.6279 25.5177 21.9524 25.8459C22.277 26.1741 22.4593 26.6192 22.4593 27.0833ZM21.5363 10.1667H23.6707L24.1552 16H21.9747L21.5363 10.1667ZM26.3819 17.75C26.2206 17.9323 26.0233 18.0785 25.8027 18.179C25.5822 18.2794 25.3432 18.332 25.1013 18.3333H22.1593L22.067 17.1667H24.7667C24.8465 17.1669 24.9255 17.1504 24.9987 17.1183C25.0718 17.0861 25.1376 17.0389 25.1918 16.9797C25.246 16.9204 25.2875 16.8505 25.3136 16.7743C25.3398 16.698 25.3499 16.6171 25.3436 16.5367L24.7667 9.53667C24.7551 9.39018 24.6892 9.25353 24.5823 9.15404C24.4753 9.05454 24.3352 8.99953 24.1898 9H21.444L21.3748 8.11333V7.83333H24.4321C24.8614 7.83141 25.2758 7.99197 25.5939 8.28343C25.9121 8.57489 26.1108 8.97617 26.1511 9.40833L26.8434 16.4083C26.8649 16.6523 26.835 16.8981 26.7554 17.1294C26.6758 17.3607 26.5485 17.5723 26.3819 17.75Z" fill="#4257EE"/>
</svg>
