<svg width="32" height="32" viewBox="0 0 32 32" fill="none" xmlns="http://www.w3.org/2000/svg">
    <path d="M15.9996 1.09998C7.78361 1.09998 1.09961 7.78398 1.09961 16C1.09961 24.216 7.78361 30.9 15.9996 30.9C24.2156 30.9 30.8996 24.216 30.8996 16C30.8996 7.78398 24.2156 1.09998 15.9996 1.09998ZM15.9996 29.1C8.77661 29.1 2.89961 23.224 2.89961 16C2.89961 8.77698 8.77661 2.89998 15.9996 2.89998C23.2226 2.89998 29.0996 8.77698 29.0996 16C29.0996 23.224 23.2226 29.1 15.9996 29.1Z" fill="#4257EE"/>
    <path d="M21.2999 8.87098L13.4679 11.732C12.6589 12.027 12.0259 12.66 11.7309 13.469L8.87092 21.3C8.67792 21.827 8.80492 22.402 9.20292 22.799C9.47692 23.073 9.83592 23.219 10.2049 23.219C10.3709 23.219 10.5379 23.19 10.7009 23.13L18.5339 20.269C19.3419 19.974 19.9749 19.34 20.2699 18.532L23.1309 10.701C23.3239 10.174 23.1969 9.59898 22.7999 9.20198C22.4009 8.80398 21.8259 8.67698 21.2999 8.87098ZM13.2589 14.532L17.4679 18.742L10.8359 21.164L13.2589 14.532ZM18.7409 17.468L14.5319 13.259L21.1639 10.836L18.7409 17.468Z" fill="#4257EE"/>
    <path d="M16 6.80096C16.5523 6.80096 17 6.35325 17 5.80096C17 5.24868 16.5523 4.80096 16 4.80096C15.4477 4.80096 15 5.24868 15 5.80096C15 6.35325 15.4477 6.80096 16 6.80096Z" fill="#4257EE"/>
    <path d="M16 27.199C16.5523 27.199 17 26.7513 17 26.199C17 25.6467 16.5523 25.199 16 25.199C15.4477 25.199 15 25.6467 15 26.199C15 26.7513 15.4477 27.199 16 27.199Z" fill="#4257EE"/>
    <path d="M26.1982 17C26.7505 17 27.1982 16.5523 27.1982 16C27.1982 15.4477 26.7505 15 26.1982 15C25.646 15 25.1982 15.4477 25.1982 16C25.1982 16.5523 25.646 17 26.1982 17Z" fill="#4257EE"/>
    <path d="M5.80078 17C6.35307 17 6.80078 16.5523 6.80078 16C6.80078 15.4477 6.35307 15 5.80078 15C5.2485 15 4.80078 15.4477 4.80078 16C4.80078 16.5523 5.2485 17 5.80078 17Z" fill="#4257EE"/>
</svg>
