<svg width="32" height="32" viewBox="0 0 32 32" fill="none" xmlns="http://www.w3.org/2000/svg">
    <path d="M16.8996 9.73198V8.12398H18.0186C19.4096 8.12398 20.5406 6.99198 20.5406 5.60298V3.88098C20.5406 3.11598 19.9176 2.49298 19.1516 2.49298H12.8466C12.0816 2.49298 11.4586 3.11598 11.4586 3.88098V5.60298C11.4586 6.99298 12.5896 8.12398 13.9796 8.12398H15.0996V9.73198C10.0556 10.189 6.08961 14.436 6.08961 19.597C6.08961 25.061 10.5356 29.507 15.9996 29.507C21.4636 29.507 25.9096 25.061 25.9096 19.597C25.9096 14.437 21.9426 10.189 16.8996 9.73198ZM13.2586 5.60298V4.29398H18.7396V5.60298C18.7396 5.99998 18.4166 6.32398 18.0176 6.32398H13.9796C13.5826 6.32298 13.2586 5.99998 13.2586 5.60298ZM23.1366 15.75H20.6506C20.3786 14.398 19.9606 13.218 19.4346 12.261C21.0086 13.002 22.3116 14.226 23.1366 15.75ZM15.9996 27.706C14.9436 27.706 13.8016 26.026 13.2036 23.443H18.7956C18.1976 26.026 17.0556 27.706 15.9996 27.706ZM12.9006 21.643C12.8266 20.993 12.7826 20.311 12.7826 19.597C12.7826 18.883 12.8266 18.201 12.9006 17.551H19.0986C19.1726 18.201 19.2166 18.883 19.2166 19.597C19.2166 20.311 19.1726 20.993 19.0986 21.643H12.9006ZM7.88961 19.597C7.88961 18.889 7.98961 18.206 8.16161 17.551H11.0816C11.0176 18.208 10.9836 18.891 10.9836 19.597C10.9836 20.303 11.0176 20.986 11.0816 21.643H8.16161C7.98961 20.988 7.88961 20.305 7.88961 19.597ZM15.9996 11.487C17.0556 11.487 18.1976 13.167 18.7956 15.75H13.2036C13.8016 13.167 14.9436 11.487 15.9996 11.487ZM20.9186 17.551H23.8366C24.0076 18.206 24.1086 18.889 24.1086 19.597C24.1086 20.305 24.0086 20.988 23.8366 21.643H20.9186C20.9826 20.986 21.0166 20.303 21.0166 19.597C21.0166 18.891 20.9836 18.207 20.9186 17.551ZM12.5646 12.261C12.0386 13.217 11.6206 14.398 11.3486 15.75H8.86161C9.68761 14.225 10.9906 13.001 12.5646 12.261ZM8.86161 23.443H11.3486C11.6206 24.796 12.0386 25.976 12.5646 26.932C10.9906 26.192 9.68761 24.968 8.86161 23.443ZM19.4346 26.932C19.9606 25.976 20.3786 24.796 20.6506 23.443H23.1366C22.3116 24.968 21.0086 26.192 19.4346 26.932ZM4.03361 13.659C3.62361 13.378 3.06261 13.485 2.78361 13.894C2.50361 14.305 2.60861 14.865 3.01961 15.145L4.29761 16.017C4.45261 16.123 4.62961 16.174 4.80361 16.174C5.09161 16.174 5.37361 16.036 5.54761 15.781C5.82761 15.37 5.72261 14.81 5.31161 14.53L4.03361 13.659ZM4.42661 19.597C4.42661 19.1 4.02361 18.697 3.52661 18.697H1.99961C1.50261 18.697 1.09961 19.1 1.09961 19.597C1.09961 20.094 1.50261 20.497 1.99961 20.497H3.52661C4.02361 20.497 4.42661 20.094 4.42661 19.597ZM4.29661 23.176L3.01961 24.048C2.60861 24.328 2.50361 24.888 2.78361 25.299C2.95761 25.554 3.24061 25.692 3.52761 25.692C3.70261 25.692 3.87861 25.641 4.03361 25.535L5.31161 24.663C5.72261 24.383 5.82761 23.823 5.54761 23.412C5.26761 23.002 4.70761 22.895 4.29661 23.176ZM27.1956 16.175C27.3706 16.175 27.5476 16.124 27.7026 16.018L28.9796 15.146C29.3896 14.866 29.4956 14.306 29.2146 13.895C28.9336 13.484 28.3726 13.377 27.9636 13.66L26.6866 14.532C26.2766 14.812 26.1706 15.372 26.4516 15.783C26.6256 16.037 26.9086 16.175 27.1956 16.175ZM29.9996 18.696H28.4726C27.9756 18.696 27.5726 19.099 27.5726 19.596C27.5726 20.093 27.9756 20.496 28.4726 20.496H29.9996C30.4966 20.496 30.8996 20.093 30.8996 19.596C30.8996 19.099 30.4966 18.696 29.9996 18.696ZM27.7026 23.176C27.2916 22.894 26.7306 23.001 26.4516 23.411C26.1716 23.822 26.2766 24.382 26.6866 24.662L27.9636 25.534C28.1186 25.64 28.2956 25.691 28.4706 25.691C28.7576 25.691 29.0406 25.553 29.2146 25.298C29.4946 24.887 29.3896 24.327 28.9796 24.047L27.7026 23.176Z" fill="#4257EE"/>
</svg>
