<svg width="32" height="32" viewBox="0 0 32 32" fill="none" xmlns="http://www.w3.org/2000/svg">
    <path d="M30 14.1344V5C30 4.20435 29.6839 3.44129 29.1213 2.87868C28.5587 2.31607 27.7956 2 27 2H5C4.20435 2 3.44129 2.31607 2.87868 2.87868C2.31607 3.44129 2 4.20435 2 5V14.1344C0.85875 14.4375 0 15.4306 0 16.6669V29.5C0 29.6326 0.0526784 29.7598 0.146447 29.8536C0.240215 29.9473 0.367392 30 0.5 30H1.5C1.63261 30 1.75979 29.9473 1.85355 29.8536C1.94732 29.7598 2 29.6326 2 29.5V26H30V29.5C30 29.6326 30.0527 29.7598 30.1464 29.8536C30.2402 29.9473 30.3674 30 30.5 30H31.5C31.6326 30 31.7598 29.9473 31.8536 29.8536C31.9473 29.7598 32 29.6326 32 29.5V16.6669C32 15.4306 31.1413 14.4375 30 14.1344ZM4 12C4 11.4696 4.21071 10.9609 4.58579 10.5858C4.96086 10.2107 5.46957 10 6 10H13C13.5304 10 14.0391 10.2107 14.4142 10.5858C14.7893 10.9609 15 11.4696 15 12V14H4V12ZM28 14H17V12C17 11.4696 17.2107 10.9609 17.5858 10.5858C17.9609 10.2107 18.4696 10 19 10H26C26.5304 10 27.0391 10.2107 27.4142 10.5858C27.7893 10.9609 28 11.4696 28 12V14ZM5 4H27C27.2652 4 27.5196 4.10536 27.7071 4.29289C27.8946 4.48043 28 4.73478 28 5V8.55625C27.3948 8.19603 26.7043 8.004 26 8H19C18.4322 7.99993 17.871 8.12091 17.3537 8.35489C16.8363 8.58887 16.3749 8.93046 16 9.35688C15.6251 8.93046 15.1637 8.58887 14.6463 8.35489C14.129 8.12091 13.5678 7.99993 13 8H6C5.29569 8.004 4.60523 8.19603 4 8.55625V5C4 4.73478 4.10536 4.48043 4.29289 4.29289C4.48043 4.10536 4.73478 4 5 4ZM2 24V16.6669C2.00033 16.4901 2.0707 16.3207 2.19569 16.1957C2.32068 16.0707 2.49011 16.0003 2.66687 16H29.3331C29.5099 16.0003 29.6793 16.0707 29.8043 16.1957C29.9293 16.3207 29.9997 16.4901 30 16.6669V24H2Z" fill="#4257EE"/>
</svg>
