<svg width="32" height="32" viewBox="0 0 32 32" fill="none" xmlns="http://www.w3.org/2000/svg">
    <g clip-path="url(#clip0_642_24966)">
        <path d="M23.3335 14.2667C22.9335 14.2667 22.6001 14.0667 22.3335 13.8L17.7335 8.13335C17.4668 7.80001 17.4001 7.33335 17.5335 6.93335C17.6668 6.46668 18.0001 6.13335 18.4668 6.00001C18.9335 5.93335 19.4001 6.06668 19.7335 6.46668L24.3335 12.1333C24.6668 12.5333 24.7335 13 24.5335 13.4667C24.3335 13.8667 24.0001 14.2 23.5335 14.2667C23.4668 14.2667 23.4001 14.2667 23.3335 14.2667Z" fill="#4257EE"/>
        <path d="M10.9999 30.8C10.7999 30.8 10.6666 30.7333 10.4666 30.6666C10.1999 30.5333 9.9999 30.3333 9.86656 30.1333C9.66656 29.8 9.66656 29.4666 9.73323 29.1333L12.2666 20.5333C12.3999 20.0666 12.7999 19.7333 13.2666 19.6C13.7332 19.5333 14.1999 19.6666 14.4666 20C14.7999 20.3333 14.8666 20.8 14.7332 21.2666L12.1999 29.8666C12.0666 30.2666 11.7999 30.5333 11.4666 30.6666C11.3332 30.7333 11.1999 30.8 10.9999 30.8Z" fill="#4257EE"/>
        <path d="M13.533 22.2C13.133 22.2 12.733 22 12.533 21.7333L7.93301 16.0667C7.66635 15.7334 7.53302 15.2 7.73302 14.8L10.333 8.00002C10.533 7.53335 10.8663 7.26668 11.333 7.20002L18.533 6.00002C18.9997 5.93335 19.4663 6.13335 19.733 6.46668L24.333 12.1334C24.5997 12.4667 24.733 13 24.533 13.4L21.933 20.2C21.733 20.6667 21.3997 20.9334 20.933 21L13.8663 22.1334H13.7997C13.733 22.2 13.5997 22.2 13.533 22.2ZM10.4663 15L14.0663 19.4667L19.7997 18.5333L21.8663 13.1334L18.2663 8.66668L12.5997 9.60002L10.4663 15Z" fill="#4257EE"/>
        <path d="M1.79967 19.6666C1.19967 19.6666 0.599674 19.2 0.533008 18.6C0.399674 17.7333 0.333008 16.8666 0.333008 16.0666C0.333008 11.3333 2.46634 6.86664 6.19967 3.86664C6.73301 3.33331 7.59967 3.39997 7.99967 3.99997C8.46634 4.53331 8.33301 5.39997 7.79967 5.86664C4.73301 8.33331 2.93301 12 2.93301 16C2.93301 16.7333 2.99967 17.4 3.13301 18.1333C3.26634 18.8666 2.79967 19.5333 2.06634 19.6666C1.99967 19.6666 1.93301 19.6666 1.79967 19.6666Z" fill="#4257EE"/>
        <path d="M1.86664 19.6667C1.33331 19.6667 0.866641 19.3333 0.666641 18.8667C0.399974 18.2 0.666641 17.4667 1.33331 17.1333L8.46664 14.0667C9.13331 13.8 9.86664 14.0667 10.2 14.7333C10.4666 15.4 10.2 16.1333 9.53331 16.4667L2.33331 19.5333C2.19997 19.6 1.99997 19.6667 1.86664 19.6667Z" fill="#4257EE"/>
        <path d="M11.0001 30.8C10.8668 30.8 10.6668 30.8 10.5334 30.7333C5.26678 28.8 1.40011 24.1333 0.533444 18.6C0.400111 17.8666 0.866778 17.2 1.60011 17.0666C2.33344 16.9333 3.00011 17.4 3.06678 18.1333C3.80011 22.7333 7.00011 26.6 11.4001 28.2666C12.0668 28.5333 12.4001 29.2666 12.2001 29.9333C12.0668 30.4666 11.5334 30.8 11.0001 30.8Z" fill="#4257EE"/>
        <path d="M6.99961 6.13331C6.59961 6.13331 6.26628 5.93331 5.99961 5.59998C5.53294 5.06665 5.59961 4.26665 6.19961 3.79998C8.99961 1.59998 12.4663 0.333313 15.9996 0.333313C17.9996 0.333313 19.9329 0.733313 21.7329 1.39998C22.3996 1.66665 22.7329 2.39998 22.4663 3.06665C22.1996 3.73331 21.4663 4.06665 20.7996 3.79998C19.2663 3.19998 17.6663 2.86665 15.9996 2.86665C12.9996 2.86665 10.1329 3.86665 7.79961 5.73331C7.59961 5.99998 7.26628 6.13331 6.99961 6.13331Z" fill="#4257EE"/>
        <path d="M11.5329 9.73333C11.2663 9.73333 10.9329 9.6 10.7329 9.46667L6.19961 5.8C5.59961 5.4 5.53294 4.53333 5.99961 4C6.46628 3.46667 7.26628 3.33333 7.86628 3.8L11.9329 7.06667L17.9329 6.13333L20.1329 2L22.3996 3.26667L19.8663 7.93333C19.6663 8.26667 19.3329 8.53333 18.9329 8.66667L11.7329 9.8C11.6663 9.73333 11.5996 9.73333 11.5329 9.73333Z" fill="#4257EE"/>
        <path d="M30.2001 15.1333C30.1334 15.1333 30.0668 15.1333 30.0668 15.1333L23.2001 14.2667C22.8668 14.2 22.5334 14.0667 22.3334 13.8L17.7334 8.13333C17.4001 7.73333 17.3334 7.13333 17.6001 6.66667L20.1334 2C20.4668 1.4 21.1334 1.13333 21.7334 1.4C26.9334 3.46667 30.6668 8.13333 31.4668 13.6C31.5334 14 31.4001 14.4 31.1334 14.7333C30.8668 15 30.5334 15.1333 30.2001 15.1333ZM24.0001 11.7333L28.5334 12.2667C27.5334 8.8 25.0668 5.93333 21.8668 4.33333L20.3334 7.2L24.0001 11.7333Z" fill="#4257EE"/>
        <path d="M16.0001 31.6667C14.1334 31.6667 12.3334 31.3334 10.5334 30.6667C9.86676 30.4 9.53342 29.6667 9.73342 29C10.0001 28.3334 10.7334 28 11.4001 28.2C12.8668 28.7334 14.4001 29 15.9334 29C18.9334 29 21.8668 27.9334 24.2001 26.0667C24.7334 25.6 25.6001 25.6667 26.0668 26.2667C26.5334 26.8 26.4668 27.6667 25.8668 28.1334C23.1334 30.4 19.6001 31.6667 16.0001 31.6667Z" fill="#4257EE"/>
        <path d="M13.5333 22.2C13.1333 22.2 12.7333 22 12.5333 21.7333C12.2666 21.3333 12.1999 20.8667 12.3333 20.4C12.5333 20 12.8666 19.6667 13.3333 19.6L20.5333 18.4667C20.9999 18.4 21.3999 18.5333 21.7333 18.8667C21.9999 19.2 22.1333 19.6667 21.9999 20.1333C21.8666 20.6 21.4666 21 20.9333 21.0667L13.7333 22.2C13.6666 22.2 13.5999 22.2 13.5333 22.2Z" fill="#4257EE"/>
        <path d="M25.1334 28.4C24.7334 28.4 24.4001 28.2667 24.1334 27.9333C23.6667 27.4 23.7334 26.5333 24.3334 26.0667C27.4001 23.6 29.1334 19.8667 29.1334 16C29.1334 15.3333 29.0667 14.6667 29.0001 14C28.8667 13.2667 29.4001 12.6 30.0667 12.5333C30.8001 12.4 31.4667 12.9333 31.5334 13.6C31.6667 14.4 31.7334 15.2 31.7334 16C31.7334 20.7333 29.6667 25.1333 26.0001 28.1333C25.6667 28.3333 25.4001 28.4 25.1334 28.4Z" fill="#4257EE"/>
        <path d="M25.1329 28.4C24.6662 28.4 24.2662 28.2 23.9996 27.7333L19.6662 20.4667C19.3996 20.1333 19.3996 19.6667 19.5329 19.2667L22.1329 12.5333C22.1329 12.4667 22.1329 12.4667 22.1996 12.4667C22.3996 11.9333 22.9996 11.6 23.5996 11.6667L30.4662 12.5333C31.1996 12.6 31.6662 13.2667 31.5996 14C31.5329 14.7333 30.8662 15.2 30.1329 15.1333L24.2662 14.4L22.2662 19.6667L26.3329 26.4667C26.7329 27.0667 26.4662 27.8667 25.8662 28.2667C25.5996 28.3333 25.3329 28.4 25.1329 28.4Z" fill="#4257EE"/>
        <path d="M20.7331 21.0667C20.5331 21.0667 20.3331 21 20.1331 20.9334C19.5331 20.6 19.2664 19.9334 19.5331 19.3334L22.1331 12.5334C22.2664 12.1334 22.5997 11.8667 22.9997 11.7334C23.3997 11.6 23.7997 11.6667 24.1331 11.9334C24.5997 12.2667 24.7997 12.9334 24.5997 13.4667L21.9997 20.2667C21.8664 20.6 21.5997 20.8667 21.2664 21C21.0664 21 20.8664 21.0667 20.7331 21.0667Z" fill="#4257EE"/>
        <path d="M25.1336 28.4C25.0669 28.4 25.0003 28.4 25.0003 28.4C24.6003 28.3333 24.2669 28.1333 24.0669 27.8L19.6669 20.4666C19.4669 20.0666 19.4003 19.6666 19.6003 19.2666C19.8003 18.8666 20.1336 18.6 20.6003 18.5333C21.1336 18.4666 21.6669 18.6666 21.9336 19.1333L26.3336 26.4666C26.6669 27 26.5336 27.7333 26.0669 28.1333C25.7336 28.3333 25.4003 28.4 25.1336 28.4Z" fill="#4257EE"/>
    </g>
    <defs>
        <clipPath id="clip0_642_24966">
            <rect width="32" height="32" fill="white"/>
        </clipPath>
    </defs>
</svg>
