<svg width="32" height="32" viewBox="0 0 32 32" fill="none" xmlns="http://www.w3.org/2000/svg">
    <path d="M12.1908 1.09998C7.6328 1.09998 3.9248 4.80798 3.9248 9.36598V18.257C3.9248 19.275 4.7528 20.104 5.7708 20.104H6.9368V27.825C6.93638 28.2724 7.03358 28.7145 7.22163 29.1204C7.40968 29.5264 7.68405 29.8864 8.02559 30.1754C8.36713 30.4643 8.76761 30.6753 9.19909 30.7936C9.63057 30.9118 10.0827 30.9345 10.5238 30.86C11.9878 30.622 13.0908 29.267 13.0908 27.709V1.99998C13.0908 1.76128 12.996 1.53236 12.8272 1.36358C12.6584 1.1948 12.4295 1.09998 12.1908 1.09998ZM11.2908 27.707C11.2908 28.393 10.8368 28.983 10.2338 29.081C10.0502 29.1131 9.86182 29.1046 9.68184 29.0562C9.50186 29.0078 9.33465 28.9206 9.19193 28.8007C9.0492 28.6809 8.93442 28.5312 8.85563 28.3623C8.77684 28.1934 8.73594 28.0094 8.7358 27.823V19.202C8.7358 18.9633 8.64098 18.7344 8.4722 18.5656C8.30342 18.3968 8.0745 18.302 7.8358 18.302L5.7238 18.256V9.36497C5.72552 7.80659 6.2894 6.30114 7.31188 5.12509C8.33436 3.94903 9.74679 3.18134 11.2898 2.96298V27.707H11.2908ZM26.1358 1.10298H18.0898C17.576 1.10351 17.0833 1.30786 16.72 1.67119C16.3567 2.03452 16.1523 2.52715 16.1518 3.04098L16.1558 12.406C16.3298 14.302 17.3438 15.539 19.0378 15.961V27.824C19.0378 29.52 20.4168 30.9 22.1128 30.9C23.8088 30.9 25.1878 29.52 25.1878 27.824V15.96C26.8818 15.538 27.8958 14.291 28.0738 12.323V3.04098C28.0733 2.52715 27.8689 2.03452 27.5056 1.67119C27.1423 1.30786 26.6496 1.10351 26.1358 1.10298ZM24.2078 14.303C23.9839 14.323 23.7756 14.426 23.6239 14.5918C23.4721 14.7576 23.3879 14.9742 23.3878 15.199V27.824C23.3878 28.527 22.8158 29.099 22.1128 29.099C21.4098 29.099 20.8378 28.527 20.8378 27.824V15.199C20.8379 14.9741 20.7538 14.7574 20.602 14.5916C20.4502 14.4257 20.2418 14.3227 20.0178 14.303C18.6888 14.185 18.0698 13.568 17.9518 12.324V3.04098C17.9518 2.96498 18.0138 2.90298 18.0898 2.90298H19.5258V10.277C19.5258 10.5157 19.6206 10.7446 19.7894 10.9134C19.9582 11.0822 20.1871 11.177 20.4258 11.177C20.6645 11.177 20.8934 11.0822 21.0622 10.9134C21.231 10.7446 21.3258 10.5157 21.3258 10.277V2.90298H22.8998V10.277C22.8998 10.5157 22.9946 10.7446 23.1634 10.9134C23.3322 11.0822 23.5611 11.177 23.7998 11.177C24.0385 11.177 24.2674 11.0822 24.4362 10.9134C24.605 10.7446 24.6998 10.5157 24.6998 10.277V2.90298H26.1368C26.1734 2.90323 26.2085 2.91782 26.2345 2.94362C26.2604 2.96942 26.2753 3.00437 26.2758 3.04098L26.2798 12.24C26.1558 13.567 25.5368 14.185 24.2078 14.303Z" fill="#4257EE"/>
</svg>
