<svg width="32" height="32" viewBox="0 0 32 32" fill="none" xmlns="http://www.w3.org/2000/svg">
    <path d="M15.9994 5.56799C10.2474 5.56799 5.56738 10.248 5.56738 16C5.56738 21.752 10.2474 26.432 15.9994 26.432C21.7514 26.432 26.4314 21.752 26.4314 16C26.4314 10.248 21.7514 5.56799 15.9994 5.56799ZM22.1404 9.94499C21.9594 9.88099 21.7524 9.82699 21.4904 9.81199C20.4334 9.74699 19.7044 10.246 19.1644 10.614C18.7634 10.886 18.5594 11.018 18.4074 10.978C18.2234 10.936 18.0104 10.707 17.8284 10.356C17.5034 9.74599 17.5474 8.68799 17.9104 7.58999C19.5444 7.96099 21.0034 8.79099 22.1404 9.94499ZM7.49438 17.411C7.90238 17.667 8.32738 17.817 8.77038 17.85C9.90838 17.932 10.7214 17.254 11.3714 16.707C11.9334 16.233 12.2964 15.934 12.6904 15.998C13.2154 16.067 13.7044 16.732 14.0254 17.422C14.0284 17.431 14.3834 18.268 14.3364 19.073C14.3184 19.364 14.1534 19.539 13.6844 19.966C13.2284 20.381 12.6614 20.898 12.2824 21.768C12.0384 22.327 11.9304 22.945 11.9324 23.607C9.61538 22.365 7.93838 20.094 7.49438 17.411ZM15.9994 24.631C15.2364 24.631 14.5004 24.522 13.7964 24.335C13.6694 23.621 13.7084 22.998 13.9314 22.487C14.1564 21.97 14.5154 21.644 14.8954 21.299C15.4184 20.822 16.0704 20.23 16.1324 19.182C16.2054 17.956 15.7294 16.828 15.6834 16.724L15.6144 16.568C15.2414 15.773 14.3954 14.409 12.9264 14.214C11.7224 14.065 10.8854 14.763 10.2094 15.333C9.65438 15.802 9.30738 16.078 8.90438 16.056C8.46738 16.023 7.96138 15.564 7.46338 14.788C8.05638 10.601 11.6524 7.36899 15.9994 7.36899C16.0314 7.36899 16.0624 7.37299 16.0944 7.37399C15.6754 8.83499 15.7124 10.21 16.2344 11.19C16.6674 12.032 17.2794 12.565 18.0074 12.733C18.1674 12.769 18.3204 12.785 18.4664 12.785C19.1694 12.785 19.7184 12.413 20.1744 12.103C20.6514 11.779 20.9574 11.576 21.3784 11.609C21.5444 11.619 21.5834 11.644 21.7704 11.765C22.0364 11.937 22.4004 12.173 23.0864 12.308C23.3244 12.355 23.5754 12.382 23.8304 12.394C24.3384 13.493 24.6304 14.712 24.6304 16.001C24.6304 20.76 20.7594 24.631 15.9994 24.631Z" fill="#4257EE"/>
    <path d="M29.3657 9.41899C29.1457 8.97399 28.6047 8.78799 28.1607 9.01099C27.7157 9.23099 27.5317 9.77099 27.7527 10.216C30.2377 15.251 29.2377 21.298 25.2617 25.264C20.4497 30.085 12.8727 30.435 7.63566 26.08C7.55366 26.011 7.47466 25.93 7.39266 25.859C7.72166 25.752 7.97166 25.467 8.00966 25.101C8.06166 24.607 7.70166 24.163 7.20766 24.112L5.26866 23.909C5.01866 23.886 4.76566 23.965 4.57766 24.132C4.38866 24.301 4.27866 24.54 4.27466 24.793L4.25066 26.743C4.24466 27.24 4.64366 27.648 5.13966 27.655C5.14366 27.655 5.14766 27.655 5.15166 27.655C5.55366 27.655 5.88266 27.386 5.99766 27.021C6.16066 27.168 6.32066 27.327 6.48566 27.465C9.27566 29.785 12.6487 30.932 16.0097 30.932C19.8247 30.931 23.6257 29.453 26.5347 26.538C31.0567 22.026 32.1947 15.147 29.3657 9.41899ZM6.73666 6.73699C11.1357 2.32799 18.0897 1.63899 23.2667 5.09399C23.3697 5.16199 23.4647 5.24399 23.5657 5.31499C23.2817 5.46999 23.0837 5.76299 23.0887 6.10799C23.0957 6.60099 23.4967 6.99699 23.9887 6.99699C23.9927 6.99699 23.9967 6.99699 24.0007 6.99699L25.9507 6.97299C26.2037 6.96899 26.4427 6.85999 26.6117 6.66999C26.7797 6.48199 26.8607 6.23099 26.8347 5.97899L26.6317 4.03999C26.5787 3.54499 26.1407 3.19099 25.6427 3.23799C25.2147 3.28299 24.9057 3.62499 24.8587 4.03599C24.6607 3.88899 24.4697 3.73199 24.2657 3.59599C18.3737 -0.333008 10.4667 0.449992 5.46366 5.46499C1.38866 9.54099 0.0246627 15.666 1.99066 21.069C2.12366 21.434 2.46966 21.662 2.83666 21.662C2.93966 21.662 3.04266 21.644 3.14466 21.607C3.61166 21.437 3.85266 20.92 3.68266 20.454C1.95466 15.705 3.15266 10.321 6.73666 6.73699Z" fill="#4257EE"/>
</svg>
