<svg width="32" height="32" viewBox="0 0 32 32" fill="none" xmlns="http://www.w3.org/2000/svg">
    <path d="M16.0971 17.692C16.5941 17.692 16.9971 17.289 16.9971 16.792C16.9971 16.295 16.5941 15.892 16.0971 15.892H8.39414C7.89714 15.892 7.49414 16.295 7.49414 16.792C7.49414 17.289 7.89714 17.692 8.39414 17.692H16.0971Z" fill="#4257EE"/>
    <path d="M29.9996 26.856H28.7276V5.63399C28.7276 4.36799 27.6976 3.33899 26.4316 3.33899H13.6416C12.3756 3.33899 11.3456 4.36799 11.3456 5.63399V10.234H5.56761C4.30161 10.234 3.27161 11.263 3.27161 12.529V26.857H1.99961C1.50261 26.857 1.09961 27.26 1.09961 27.757C1.09961 28.254 1.50261 28.657 1.99961 28.657H29.9996C30.4966 28.657 30.8996 28.254 30.8996 27.757C30.8996 27.26 30.4966 26.856 29.9996 26.856ZM13.1456 5.63399C13.1456 5.36099 13.3676 5.13899 13.6406 5.13899H26.4306C26.7036 5.13899 26.9256 5.36099 26.9256 5.63399V26.857H21.2236V12.528C21.2236 11.262 20.1946 10.233 18.9286 10.233H13.1456V5.63399ZM5.07261 12.528C5.07261 12.255 5.29461 12.033 5.56761 12.033H18.9296C19.2016 12.033 19.4236 12.255 19.4236 12.528V26.856H15.7376V22.924C15.7376 21.784 14.8096 20.856 13.6696 20.856H10.8226C9.68161 20.856 8.75361 21.784 8.75361 22.924V26.856H5.07261V12.528ZM13.9376 26.856H10.5546V22.924C10.5546 22.776 10.6746 22.656 10.8236 22.656H13.6706C13.8176 22.656 13.9386 22.776 13.9386 22.924V26.856H13.9376Z" fill="#4257EE"/>
</svg>
