<svg width="32" height="32" viewBox="0 0 32 32" fill="none" xmlns="http://www.w3.org/2000/svg">
    <path d="M30 24V19C30 16.39 28.747 16 28 16V11C28 9.897 27.103 9 26 9H13C11.897 9 11 9.897 11 11V16C10.253 16 9 16.39 9 19V24H6V13H7C7.3 13 7.583 12.866 7.773 12.634C7.963 12.403 8.039 12.098 7.98 11.804L6.98 6.804C6.887 6.336 6.477 6 6 6H4C3.523 6 3.113 6.336 3.02 6.804L2.02 11.804C1.961 12.098 2.037 12.403 2.227 12.634C2.417 12.866 2.7 13 3 13H4V24H2C1.448 24 1 24.448 1 25C1 25.552 1.448 26 2 26H30C30.552 26 31 25.552 31 25C31 24.448 30.552 24 30 24ZM4.82 8H5.18L5.78 11H4.22L4.82 8ZM13 11H26V16H23V15C23 13.897 22.103 13 21 13H18C16.897 13 16 13.897 16 15V16H13V11ZM18 16V15H21V16H18ZM11.122 18H27.879C27.926 18.125 28 18.413 28 19V21H11V19C11 18.413 11.074 18.125 11.122 18ZM11 23H28V24H11V23Z" fill="#4257EE"/>
</svg>
