<svg width="32" height="32" viewBox="0 0 32 32" fill="none" xmlns="http://www.w3.org/2000/svg">
    <path d="M4.66847 7.04798C4.66847 9.13798 6.36847 10.839 8.45947 10.839C10.5505 10.839 12.2505 9.13798 12.2505 7.04798C12.2505 4.95798 10.5505 3.25698 8.45947 3.25698C6.36847 3.25698 4.66847 4.95798 4.66847 7.04798ZM8.45947 5.05798C9.55747 5.05798 10.4505 5.95098 10.4505 7.04798C10.4505 8.14498 9.55747 9.03798 8.45947 9.03798C7.36147 9.03798 6.46847 8.14498 6.46847 7.04798C6.46847 5.95098 7.36147 5.05798 8.45947 5.05798ZM1.99047 6.40998C1.83047 6.57998 1.73047 6.80998 1.73047 7.04998C1.73047 7.27998 1.83047 7.51998 1.99047 7.67998C2.16047 7.84998 2.39047 7.94998 2.63047 7.94998C2.87047 7.94998 3.10047 7.84898 3.27047 7.67898C3.43047 7.51898 3.53047 7.28898 3.53047 7.04898C3.53047 6.80898 3.43047 6.57898 3.27047 6.40898C2.93047 6.06898 2.33047 6.06898 1.99047 6.40998ZM14.2905 7.94998C14.5205 7.94998 14.7605 7.84898 14.9205 7.67898C15.0905 7.51898 15.1905 7.27998 15.1905 7.04898C15.1905 6.80898 15.0905 6.57898 14.9305 6.40898C14.8405 6.32898 14.7405 6.25898 14.6305 6.21898C14.3005 6.07898 13.9005 6.15898 13.6505 6.40898C13.4805 6.57898 13.3905 6.80798 13.3905 7.04898C13.3905 7.27898 13.4805 7.51898 13.6505 7.67898C13.8205 7.84998 14.0505 7.94998 14.2905 7.94998ZM5.54047 13C5.78047 13 6.01047 12.899 6.18047 12.729C6.35047 12.559 6.44047 12.33 6.44047 12.099C6.44047 11.979 6.42047 11.859 6.38047 11.749C6.33047 11.639 6.26047 11.539 6.18047 11.459C5.93047 11.209 5.53047 11.119 5.20047 11.259C5.09047 11.309 4.99047 11.379 4.91047 11.459C4.82047 11.539 4.76047 11.639 4.71047 11.749C4.67047 11.858 4.64047 11.978 4.64047 12.099C4.64047 12.329 4.74047 12.559 4.91047 12.729C5.08047 12.899 5.31047 13 5.54047 13ZM11.0305 2.82998C11.1405 2.87998 11.2605 2.89898 11.3805 2.89898C11.6105 2.89898 11.8405 2.79898 12.0105 2.63898C12.1805 2.46998 12.2705 2.23998 12.2705 1.99998C12.2705 1.75998 12.1805 1.52998 12.0105 1.35898C11.7605 1.10898 11.3605 1.02998 11.0305 1.16998C10.9205 1.20998 10.8205 1.27998 10.7405 1.35898C10.5705 1.52998 10.4705 1.75998 10.4705 1.99998C10.4705 2.23998 10.5705 2.46998 10.7405 2.63998C10.8205 2.71998 10.9205 2.78998 11.0305 2.82998ZM12.0105 11.46C11.6805 11.12 11.0705 11.12 10.7405 11.46C10.6505 11.54 10.5905 11.64 10.5405 11.75C10.5005 11.859 10.4705 11.979 10.4705 12.1C10.4705 12.33 10.5705 12.56 10.7405 12.73C10.9005 12.899 11.1405 13 11.3705 13C11.4905 13 11.6105 12.97 11.7205 12.93C11.8305 12.88 11.9305 12.81 12.0105 12.73C12.1805 12.56 12.2705 12.331 12.2705 12.1C12.2705 11.98 12.2505 11.86 12.2105 11.75C12.1605 11.64 12.0905 11.54 12.0105 11.46ZM5.54047 2.89898C5.78047 2.89898 6.01047 2.79898 6.18047 2.63898C6.35047 2.46998 6.45047 2.23998 6.45047 1.99998C6.45047 1.75998 6.35047 1.52998 6.18047 1.35898C6.10047 1.27998 6.00047 1.20998 5.89047 1.16998C5.56047 1.02998 5.16047 1.10898 4.91047 1.35898C4.74047 1.52998 4.65047 1.75998 4.65047 1.99998C4.65047 2.23998 4.74047 2.46998 4.91047 2.63998C5.08047 2.79998 5.31047 2.89898 5.54047 2.89898ZM25.2135 7.23598L25.3785 6.61398C25.5055 6.13398 25.2195 5.63998 24.7385 5.51298C24.2605 5.38498 23.7655 5.67198 23.6375 6.15298L23.4725 6.77498C19.8505 6.20898 16.3905 8.04298 15.1925 11.291C15.0555 11.662 15.0815 12.075 15.2625 12.425C15.4425 12.772 15.7615 13.028 16.1385 13.127L21.4165 14.524L20.5135 17.926C19.2535 17.501 17.8815 17.267 16.4505 17.267C11.2415 17.267 6.82147 20.357 5.81547 24.485C5.45847 24.392 5.03947 24.323 4.49847 24.323C4.00147 24.323 3.59847 24.726 3.59847 25.223C3.59847 25.72 4.00147 26.123 4.49847 26.123C5.28947 26.123 5.64647 26.295 6.09947 26.512C6.62547 26.765 7.27947 27.079 8.48047 27.079C9.68047 27.079 10.3345 26.765 10.8605 26.512C11.3135 26.295 11.6715 26.123 12.4615 26.123C13.2515 26.123 13.6095 26.295 14.0625 26.512C14.5885 26.765 15.2425 27.079 16.4425 27.079C17.6435 27.079 18.2975 26.765 18.8235 26.512C19.2775 26.295 19.6355 26.123 20.4275 26.123C21.2195 26.123 21.5785 26.295 22.0315 26.512C22.5575 26.765 23.2125 27.079 24.4145 27.079C25.6165 27.079 26.2715 26.765 26.7975 26.512C27.2515 26.295 27.6105 26.123 28.4015 26.123C28.8985 26.123 29.3015 25.72 29.3015 25.223C29.3015 24.726 28.8985 24.323 28.4015 24.323C27.8605 24.323 27.4425 24.392 27.0845 24.485C26.4815 22.02 24.6655 19.926 22.1855 18.639L23.1545 14.985L28.4485 16.386C28.5635 16.416 28.6815 16.432 28.7995 16.432C29.0655 16.432 29.3295 16.356 29.5565 16.208C29.8865 15.994 30.1125 15.647 30.1775 15.258C30.7465 11.841 28.6435 8.53598 25.2135 7.23598ZM25.3995 25.146C25.1415 25.226 24.8435 25.278 24.4165 25.278C23.6245 25.278 23.2655 25.106 22.8125 24.889C22.2865 24.636 21.6315 24.322 20.4295 24.322C19.2285 24.322 18.5735 24.636 18.0475 24.889C17.5935 25.106 17.2355 25.278 16.4445 25.278C15.6535 25.278 15.2965 25.106 14.8435 24.889C14.3175 24.636 13.6635 24.322 12.4635 24.322C11.2635 24.322 10.6095 24.636 10.0835 24.889C9.63047 25.106 9.27247 25.278 8.48247 25.278C8.05847 25.278 7.76147 25.226 7.50447 25.147C8.18647 21.69 11.9685 19.067 16.4525 19.067C20.9305 19.067 24.7135 21.69 25.3995 25.146ZM24.4395 13.461L21.0705 12.57C22.0345 9.83298 23.3935 8.54998 23.8965 8.69698C24.4005 8.82898 24.9555 10.608 24.4395 13.461ZM21.1145 8.59398C20.3875 9.54498 19.7725 10.796 19.3215 12.107L17.0545 11.507C17.7955 9.95498 19.3385 8.91098 21.1145 8.59398ZM26.1905 13.924C26.4465 12.562 26.5295 11.17 26.3665 9.98398C27.7545 11.138 28.5795 12.809 28.4575 14.524L26.1905 13.924ZM22.4995 28.565C22.0375 28.356 21.4295 28.143 20.4315 28.143C19.2265 28.143 18.5705 28.458 18.0435 28.71C17.5905 28.928 17.2325 29.099 16.4435 29.099C15.6545 29.099 15.2975 28.928 14.8445 28.71C14.3185 28.457 13.6645 28.143 12.4655 28.143C11.4565 28.143 10.8545 28.358 10.3995 28.568C9.94747 28.775 9.75047 29.31 9.95847 29.761C10.1665 30.213 10.7015 30.413 11.1515 30.202C11.4245 30.077 11.7735 29.943 12.4655 29.943C13.2555 29.943 13.6125 30.114 14.0655 30.332C14.5905 30.585 15.2445 30.899 16.4435 30.899C17.6415 30.899 18.2955 30.585 18.8215 30.333C19.2765 30.115 19.6355 29.943 20.4305 29.943C21.1195 29.943 21.4775 30.078 21.7595 30.205C22.2135 30.41 22.7445 30.208 22.9495 29.754C23.1545 29.302 22.9525 28.77 22.4995 28.565Z" fill="#4257EE"/>
    <path d="M12.9992 22.445C12.7382 22.577 12.6342 22.895 12.7652 23.156C12.8972 23.417 13.2152 23.522 13.4762 23.39C13.7372 23.258 13.8412 22.94 13.7102 22.679C13.5792 22.418 13.2602 22.313 12.9992 22.445ZM11.0982 21.96C10.8372 22.092 10.7332 22.41 10.8642 22.671C10.9962 22.932 11.3142 23.036 11.5752 22.905C11.8362 22.773 11.9402 22.455 11.8092 22.194C11.6772 21.933 11.3592 21.828 11.0982 21.96ZM13.2742 21.737C13.5352 21.605 13.6392 21.287 13.5082 21.026C13.3762 20.765 13.0582 20.661 12.7972 20.792C12.5362 20.924 12.4322 21.242 12.5632 21.503C12.6942 21.764 13.0132 21.869 13.2742 21.737Z" fill="#4257EE"/>
</svg>
