<svg width="32" height="32" viewBox="0 0 32 32" fill="none" xmlns="http://www.w3.org/2000/svg">
    <path d="M22.0789 9.02301C20.1289 7.28901 17.5129 6.47101 14.8939 6.77601C10.8619 7.25001 7.60189 10.373 6.96789 14.368C6.42889 17.759 7.78589 21.136 10.5129 23.181C10.9809 23.532 11.2479 24.038 11.2479 24.571V25.254V26.15C11.2479 28.769 13.3799 30.9 15.9989 30.9C18.6179 30.9 20.7499 28.769 20.7499 26.15V25.254V24.563C20.7499 24.034 21.0129 23.534 21.4719 23.192C23.8099 21.445 25.1509 18.773 25.1509 15.862C25.1509 13.251 24.0309 10.759 22.0789 9.02301ZM15.9999 29.1C14.3749 29.1 13.0529 27.779 13.0499 26.154H18.9499C18.9469 27.779 17.6249 29.1 15.9999 29.1ZM20.3959 21.75C19.5359 22.392 19.0199 23.332 18.9579 24.354H13.0439C12.9789 23.332 12.4579 22.389 11.5939 21.741C9.40489 20.097 8.31389 17.381 8.74689 14.651C9.24789 11.498 11.9219 8.93801 15.1059 8.56401C17.2389 8.31601 19.2939 8.95301 20.8839 10.367C22.4509 11.762 23.3509 13.764 23.3509 15.862C23.3509 18.2 22.2729 20.347 20.3959 21.75ZM15.9999 4.22001C16.4969 4.22001 16.8999 3.81701 16.8999 3.32001V2.00001C16.8999 1.50301 16.4969 1.10001 15.9999 1.10001C15.5029 1.10001 15.0999 1.50301 15.0999 2.00001V3.32001C15.0999 3.81701 15.5029 4.22001 15.9999 4.22001ZM3.55789 14.862H2.23789C1.74089 14.862 1.33789 15.265 1.33789 15.762C1.33789 16.259 1.74089 16.662 2.23789 16.662H3.55689C4.05389 16.662 4.45689 16.259 4.45689 15.762C4.45689 15.265 4.05489 14.862 3.55789 14.862ZM29.7619 14.862H28.4429C27.9459 14.862 27.5429 15.265 27.5429 15.762C27.5429 16.259 27.9459 16.662 28.4429 16.662H29.7619C30.2589 16.662 30.6619 16.259 30.6619 15.762C30.6619 15.265 30.2589 14.862 29.7619 14.862ZM25.0959 5.39401L24.1609 6.32701C23.8089 6.67901 23.8089 7.24801 24.1609 7.60001C24.3369 7.77601 24.5669 7.86401 24.7979 7.86401C25.0289 7.86401 25.2589 7.77601 25.4339 7.60101L26.3689 6.66801C26.7209 6.31601 26.7209 5.74701 26.3689 5.39501C26.0169 5.04301 25.4449 5.04301 25.0959 5.39401ZM7.83889 7.60001C8.19089 7.24801 8.19089 6.67901 7.83889 6.32701L6.90389 5.39401C6.55389 5.04301 5.98289 5.04301 5.63189 5.39401C5.28089 5.74501 5.27989 6.31501 5.63189 6.66701L6.56689 7.60001C6.74189 7.77501 6.97189 7.86301 7.20289 7.86301C7.43389 7.86301 7.66289 7.77601 7.83889 7.60001Z" fill="#4257EE"/>
</svg>
