<svg width="32" height="32" viewBox="0 0 32 32" fill="none" xmlns="http://www.w3.org/2000/svg">
    <path d="M25.1876 1.10001H6.81261C3.66261 1.10001 1.09961 3.66301 1.09961 6.81301V25.188C1.09961 28.337 3.66261 30.901 6.81161 30.901H25.1866C28.3366 30.901 30.8986 28.338 30.8986 25.188V6.81301C30.8996 3.66301 28.3366 1.10001 25.1876 1.10001ZM29.0996 25.188C29.0996 27.345 27.3446 29.1 25.1866 29.1H6.81261C4.65561 29.1 2.89961 27.345 2.89961 25.188V6.81301C2.89961 4.65501 4.65461 2.90001 6.81261 2.90001H25.1876C27.3446 2.90001 29.1006 4.65501 29.1006 6.81201L29.0996 25.188Z" fill="#4257EE"/>
    <path d="M15.9999 7.517C12.0269 7.517 8.79395 10.749 8.79395 14.722C8.79395 19.114 13.6079 23.07 15.0859 24.179C15.3589 24.383 15.6789 24.486 15.9989 24.486C16.3189 24.486 16.6409 24.383 16.9149 24.178C18.3909 23.07 23.2049 19.114 23.2049 14.722C23.2059 10.749 19.9729 7.517 15.9999 7.517ZM15.9999 22.613C13.3559 20.587 10.5939 17.49 10.5939 14.721C10.5939 11.741 13.0189 9.317 15.9999 9.317C18.9809 9.317 21.4059 11.741 21.4059 14.721C21.4059 17.491 18.6429 20.588 15.9999 22.613Z" fill="#4257EE"/>
    <path d="M15.9998 12.958C15.0848 12.958 14.3428 13.7 14.3428 14.615C14.3428 15.53 15.0848 16.272 15.9998 16.272C16.9148 16.272 17.6568 15.53 17.6568 14.615C17.6568 13.7 16.9148 12.958 15.9998 12.958Z" fill="#4257EE"/>
</svg>
