<svg width="32" height="32" viewBox="0 0 32 32" fill="none" xmlns="http://www.w3.org/2000/svg">
    <path d="M15.9996 1.10001C7.78361 1.10001 1.09961 7.78401 1.09961 16C1.09961 24.216 7.78361 30.9 15.9996 30.9C24.2156 30.9 30.8996 24.216 30.8996 16C30.8996 7.78401 24.2156 1.10001 15.9996 1.10001ZM15.9996 29.1C8.77661 29.1 2.89961 23.224 2.89961 16C2.89961 8.77601 8.77661 2.90001 15.9996 2.90001C23.2226 2.90001 29.0996 8.77601 29.0996 16C29.0996 23.224 23.2226 29.1 15.9996 29.1Z" fill="#4257EE"/>
    <path d="M20.474 10.61C18.966 10.122 17.316 10.463 16 11.493C14.685 10.463 13.038 10.122 11.527 10.61C9.75202 11.184 8.53302 12.776 8.26802 14.87C7.70302 19.339 12.543 22.614 15.726 23.629C15.815 23.657 15.907 23.672 15.999 23.672C16.091 23.672 16.184 23.657 16.273 23.629C19.455 22.612 24.294 19.337 23.731 14.87C23.467 12.777 22.249 11.185 20.474 10.61ZM16 21.822C13.208 20.839 9.66102 18.2 10.054 15.096C10.231 13.692 10.97 12.681 12.08 12.323C12.351 12.235 12.632 12.192 12.914 12.192C13.777 12.192 14.655 12.591 15.341 13.326C15.511 13.509 15.749 13.612 15.999 13.612C16.249 13.612 16.487 13.508 16.657 13.326C17.568 12.35 18.818 11.967 19.919 12.323C21.029 12.681 21.768 13.692 21.945 15.095C22.337 18.197 18.791 20.838 16 21.822Z" fill="#4257EE"/>
</svg>
