<svg width="32" height="32" viewBox="0 0 32 32" fill="none" xmlns="http://www.w3.org/2000/svg">
    <path d="M28.2096 15.286C27.7126 15.286 27.3096 15.689 27.3096 16.186L27.3856 27.213L20.3606 24.581V15.436C20.3606 14.939 19.9576 14.536 19.4606 14.536C18.9636 14.536 18.5606 14.939 18.5606 15.436V24.66L11.6346 28.133V8.33999L16.3726 5.97099C16.8166 5.74899 16.9976 5.20799 16.7746 4.76399C16.5526 4.31999 16.0116 4.13899 15.5676 4.36199L10.7156 6.81299L3.45061 4.09599C2.91761 3.89399 2.32061 3.96399 1.85061 4.28699C1.38061 4.61099 1.09961 5.14599 1.09961 5.71699V25.717C1.09961 26.438 1.53961 27.076 2.23561 27.35L10.0806 30.278C10.2766 30.353 10.4846 30.39 10.6946 30.39C10.9586 30.39 11.2236 30.33 11.4726 30.212L19.4936 26.18L26.7626 28.903C27.2996 29.099 27.8996 29.02 28.3676 28.692C28.8326 28.367 29.1096 27.834 29.1096 27.267V16.187C29.1096 15.689 28.7066 15.286 28.2096 15.286ZM2.89961 5.81199L9.83261 8.40499V28.269L2.89961 25.717V5.81199Z" fill="#4257EE"/>
    <path d="M24.5063 14.39C28.0313 14.39 30.9003 11.522 30.9003 7.996C30.9003 4.472 28.0323 1.603 24.5063 1.603C20.9803 1.603 18.1123 4.471 18.1123 7.996C18.1123 11.521 20.9803 14.39 24.5063 14.39ZM24.5063 3.404C27.0383 3.404 29.0993 5.464 29.0993 7.996C29.0993 10.528 27.0383 12.589 24.5063 12.589C21.9743 12.589 19.9133 10.528 19.9133 7.996C19.9133 5.464 21.9743 3.404 24.5063 3.404Z" fill="#4257EE"/>
    <path d="M22.6843 10.159L25.0853 9.515C25.5433 9.392 25.9013 9.034 26.0243 8.576L26.6683 6.175C26.7223 5.974 26.5383 5.789 26.3373 5.843L23.9333 6.48C23.4723 6.602 23.1113 6.963 22.9893 7.424L22.3523 9.828C22.2983 10.029 22.4833 10.213 22.6843 10.159Z" fill="#4257EE"/>
</svg>
