<svg width="32" height="32" viewBox="0 0 32 32" fill="none" xmlns="http://www.w3.org/2000/svg">
    <path d="M30.5335 27.873C27.7365 24.433 22.8955 22.379 17.5835 22.379C17.1215 22.379 16.6685 22.414 16.2145 22.445L14.3105 15.257L23.5135 12.822C23.9745 12.699 24.3655 12.386 24.5855 11.963C24.8085 11.534 24.8395 11.026 24.6715 10.569C22.7505 5.36099 17.0765 2.49599 11.2335 3.63399L10.8295 2.10599C10.7025 1.62499 10.2125 1.33899 9.72951 1.46599C9.24951 1.59299 8.96251 2.08599 9.08951 2.56599L9.49351 4.09399C3.84651 5.99399 0.330512 11.293 1.23651 16.77C1.31551 17.25 1.59351 17.676 2.00051 17.939C2.27751 18.118 2.59951 18.211 2.92451 18.211C3.06951 18.211 3.21551 18.192 3.35751 18.155L12.5695 15.717L14.4055 22.651C10.3845 23.297 6.85651 25.135 4.63151 27.872C4.23051 28.365 4.15251 29.031 4.42751 29.609C4.70751 30.198 5.28451 30.564 5.93251 30.564H29.2295C29.8775 30.564 30.4545 30.198 30.7345 29.609C31.0125 29.031 30.9345 28.366 30.5335 27.873ZM22.9785 11.101L18.0815 12.397C17.1485 9.49999 15.7265 6.81199 14.0975 5.21899C18.0685 5.36599 21.6525 7.60999 22.9785 11.101ZM2.99951 16.388C2.42551 12.675 4.42151 8.95699 7.79251 6.87499C7.15751 9.06599 7.24851 12.112 7.87151 15.099L2.99951 16.388ZM10.8135 5.56699L10.8155 5.56599H10.8165C12.2475 5.18299 14.7825 8.06599 16.3395 12.857L9.61251 14.637C8.59651 9.70499 9.37551 5.94999 10.8135 5.56699ZM6.23451 28.764C8.69651 25.928 13.0085 24.179 17.5835 24.179C22.1585 24.179 26.4705 25.929 28.9325 28.764H6.23451Z" fill="#4257EE"/>
</svg>
