<svg width="32" height="32" viewBox="0 0 32 32" fill="none" xmlns="http://www.w3.org/2000/svg">
    <path d="M18.8579 6.547C14.6889 6.547 11.2969 9.94 11.2969 14.109C11.2969 18.278 14.6889 21.671 18.8579 21.671C23.0269 21.671 26.4199 18.278 26.4199 14.109C26.4199 9.94 23.0269 6.547 18.8579 6.547ZM24.5419 13.208H22.4639C22.3829 11.695 22.1009 10.228 21.6219 9.056C23.1539 9.897 24.2589 11.417 24.5419 13.208ZM18.8579 19.869C18.2699 19.869 17.2419 18.038 17.0639 15.009H20.6519C20.4739 18.038 19.4469 19.869 18.8579 19.869ZM17.0639 13.208C17.2429 10.179 18.2699 8.348 18.8579 8.348C19.4459 8.348 20.4739 10.179 20.6519 13.208H17.0639ZM16.0949 9.056C15.6169 10.228 15.3339 11.695 15.2539 13.208H13.1749C13.4579 11.417 14.5629 9.897 16.0949 9.056ZM13.1749 15.009H15.2539C15.3339 16.522 15.6169 17.989 16.0949 19.161C14.5629 18.319 13.4579 16.799 13.1749 15.009ZM21.6209 19.161C22.0999 17.989 22.3819 16.522 22.4629 15.009H24.5409C24.2589 16.799 23.1539 18.32 21.6209 19.161ZM23.4839 23.652H14.2319C13.7349 23.652 13.3319 24.055 13.3319 24.552C13.3319 25.049 13.7349 25.452 14.2319 25.452H23.4839C23.9809 25.452 24.3839 25.049 24.3839 24.552C24.3839 24.055 23.9809 23.652 23.4839 23.652Z" fill="#4257EE"/>
    <path d="M25.456 1.35001H6.54398C4.24598 1.35001 2.37598 3.22001 2.37598 5.51901V26.482C2.37598 28.781 4.24598 30.651 6.54398 30.651H25.456C27.754 30.651 29.624 28.781 29.624 26.482V5.51901C29.624 3.22001 27.754 1.35001 25.456 1.35001ZM4.17598 26.481V5.51901C4.17598 4.21301 5.23898 3.15101 6.54498 3.15101H8.09298V28.85H6.54398C5.23798 28.85 4.17598 27.787 4.17598 26.481ZM27.823 26.481C27.823 27.787 26.761 28.849 25.456 28.849H9.89298V3.15001H25.456C26.762 3.15001 27.823 4.21301 27.823 5.51801V26.481Z" fill="#4257EE"/>
</svg>
