<svg width="32" height="32" viewBox="0 0 32 32" fill="none" xmlns="http://www.w3.org/2000/svg">
    <path d="M16.0013 14.2297C12.3573 14.2297 9.21879 16.4895 7.60524 20.2748C6.32904 23.2693 6.42542 26.3776 7.83952 27.8331C8.59172 28.6077 9.46032 29 10.4221 29C11.806 28.9997 13.0695 28.1945 14.1843 27.4838C14.852 27.0583 15.6082 26.5758 16.0016 26.5758C16.4031 26.5758 17.1773 27.0557 17.8602 27.4789C18.9863 28.1769 20.2625 28.9679 21.6336 28.9679C22.585 28.9679 23.4367 28.5854 24.1645 27.8305C25.6117 26.3305 25.7189 23.1737 24.4258 20.1543C22.8367 16.4445 19.6874 14.2297 16.0013 14.2297ZM22.9078 26.6307C22.5101 27.043 22.1051 27.2348 21.6333 27.2348C20.7604 27.2348 19.7086 26.583 18.7807 26.0078C17.814 25.4086 16.9007 24.8427 16.0013 24.8427C15.0981 24.8427 14.1976 25.4167 13.2445 26.0246C12.3312 26.6067 11.296 27.2669 10.4218 27.2669C9.9373 27.2669 9.5149 27.064 9.09192 26.6287C8.30518 25.8189 8.1339 23.4741 9.20862 20.952C9.70767 19.7816 11.6713 15.9635 16.001 15.9635C20.2752 15.9635 22.1956 19.3699 22.823 20.8344C23.9157 23.3848 23.7241 25.7842 22.9078 26.6307ZM12.362 12.8303C12.5344 12.8303 12.7072 12.8129 12.8761 12.7786C14.7849 12.3911 15.886 9.95683 15.3832 7.23708C14.9289 4.78197 13.3194 3 11.5561 3C11.3835 3.00002 11.2113 3.01734 11.0422 3.05171C9.13344 3.43914 8.032 5.87316 8.53511 8.5932C8.98915 11.0483 10.5986 12.8303 12.362 12.8303ZM11.3903 4.75048C11.4449 4.7395 11.5006 4.73372 11.5561 4.73372C12.3219 4.73372 13.3479 5.81105 13.6701 7.55112C14.0162 9.4238 13.3461 10.9143 12.5277 11.0804C12.4732 11.0914 12.4174 11.0971 12.362 11.0971C11.5958 11.0971 10.5699 10.0198 10.2482 8.27974C9.90218 6.40648 10.5722 4.91631 11.3903 4.75048ZM8.12461 11.8344C7.25339 10.5751 5.94612 9.79302 4.71288 9.79302C4.11891 9.79302 3.56587 9.97416 3.11385 10.3171C1.69511 11.3938 1.62253 13.7395 2.94867 15.6572C3.81989 16.9163 5.12716 17.6986 6.36068 17.6986C6.95466 17.6986 7.50741 17.5175 7.95942 17.1748C9.37788 16.0978 9.45045 13.7525 8.12461 11.8344ZM6.90327 15.7962C6.75521 15.9083 6.57261 15.9652 6.36068 15.9652C5.70197 15.9652 4.92597 15.4584 4.38338 14.6741C3.5438 13.4604 3.59722 12.13 4.16971 11.6955C4.31777 11.5831 4.50038 11.5265 4.71259 11.5265C5.37102 11.5265 6.14731 12.0332 6.6896 12.8173C7.52918 14.0313 7.47576 15.3614 6.90327 15.7962ZM19.1242 12.7789C19.2934 12.8133 19.4656 12.8306 19.6383 12.8306C21.4008 12.8306 23.0103 11.0489 23.4652 8.5932C23.9674 5.87316 22.8663 3.43914 20.9572 3.052C20.7882 3.01762 20.6161 3.00029 20.4436 3.00029C18.6803 3.00029 17.0711 4.78225 16.617 7.23708C16.1137 9.95712 17.2148 12.3911 19.1242 12.7789ZM18.3302 7.55112C18.6518 5.81105 19.6778 4.73372 20.4436 4.73372C20.4991 4.73372 20.5551 4.7395 20.6091 4.75048C21.4272 4.9166 22.0978 6.40677 21.7521 8.27945C21.4298 10.0198 20.4039 11.0971 19.6383 11.0971C19.5826 11.0971 19.5271 11.0914 19.4725 11.0804C18.6536 10.9143 17.9835 9.42409 18.3302 7.55112ZM28.8858 10.3168C28.4341 9.97388 27.8814 9.79302 27.2874 9.79302C26.0542 9.79302 24.7469 10.5754 23.8757 11.8344C22.5492 13.7522 22.6215 16.0978 24.0406 17.1745C24.4923 17.5175 25.045 17.6983 25.639 17.6983C26.8723 17.6983 28.1801 16.916 29.0516 15.6566C30.3775 13.7392 30.3049 11.3936 28.8858 10.3168ZM27.6169 14.6741C27.074 15.4584 26.2977 15.9652 25.639 15.9652C25.4271 15.9652 25.2445 15.9083 25.0967 15.7962C24.5236 15.3614 24.4708 14.0313 25.3101 12.8173C25.8527 12.0329 26.629 11.5262 27.2874 11.5262C27.4993 11.5262 27.6819 11.5831 27.8297 11.6949C28.4028 12.13 28.4562 13.4604 27.6169 14.6741Z" fill="#4257EE"/>
</svg>
