<svg width="32" height="32" viewBox="0 0 32 32" fill="none" xmlns="http://www.w3.org/2000/svg">
    <path d="M23.0712 17.422C25.1822 17.422 26.8992 15.705 26.8992 13.594C26.8992 11.483 25.1822 9.76599 23.0712 9.76599C20.9602 9.76599 19.2432 11.483 19.2432 13.594C19.2432 15.705 20.9602 17.422 23.0712 17.422ZM23.0712 11.566C24.1892 11.566 25.0992 12.476 25.0992 13.594C25.0992 14.712 24.1892 15.622 23.0712 15.622C21.9532 15.622 21.0432 14.712 21.0432 13.594C21.0432 12.476 21.9532 11.566 23.0712 11.566Z" fill="#4257EE"/>
    <path d="M27.3746 5.76701H26.2296V4.62001C26.2296 2.67901 24.6506 1.10001 22.7096 1.10001H4.61961C2.67861 1.10001 1.09961 2.67901 1.09961 4.62001V22.71C1.09961 24.651 2.67861 26.231 4.61961 26.231H5.76561V27.376C5.76561 29.319 7.34661 30.901 9.29061 30.901H27.3736C29.3176 30.901 30.8986 29.319 30.8986 27.376V9.29201C30.8996 7.34801 29.3186 5.76701 27.3746 5.76701ZM29.0996 9.29201V21.506C27.8516 22.373 26.4836 22.705 25.1166 22.457C23.2716 22.123 21.7296 20.808 20.0956 19.415C19.6626 19.046 19.2256 18.675 18.7796 18.316C14.9896 15.277 11.0626 14.368 7.56561 15.673V9.29201C7.56561 8.34101 8.33961 7.56701 9.29061 7.56701H27.3736C28.3256 7.56601 29.0996 8.34001 29.0996 9.29201ZM4.61961 24.43C3.67161 24.43 2.89961 23.659 2.89961 22.71V4.62001C2.89961 3.67201 3.67161 2.90001 4.61961 2.90001H22.7096C23.6576 2.90001 24.4296 3.67201 24.4296 4.62001V5.76601H9.29161C7.34761 5.76601 5.76661 7.34701 5.76661 9.29101V24.43H4.61961ZM27.3746 29.1H9.29161C8.34061 29.1 7.56661 28.327 7.56661 27.375V17.636C11.6326 15.699 15.6046 18.078 17.6546 19.721C18.0866 20.068 18.5086 20.428 18.9286 20.785C20.6716 22.271 22.4736 23.807 24.7956 24.228C25.1916 24.3 25.5906 24.335 25.9886 24.335C27.0506 24.335 28.1026 24.06 29.0996 23.569V27.374C29.0996 28.326 28.3256 29.1 27.3746 29.1Z" fill="#4257EE"/>
</svg>
