<svg width="32" height="32" viewBox="0 0 32 32" fill="none" xmlns="http://www.w3.org/2000/svg">
    <path d="M14.4748 25.589C14.9105 25.9285 15.447 26.1129 15.9993 26.1129C16.5517 26.1129 17.0882 25.9285 17.5238 25.589C20.2578 23.466 26.6168 17.866 26.6168 11.717C26.6178 5.86298 21.8538 1.09998 15.9998 1.09998C10.1458 1.09998 5.38184 5.86298 5.38184 11.718C5.38184 17.867 11.7408 23.467 14.4748 25.589ZM15.9998 2.89998C20.8618 2.89998 24.8178 6.85598 24.8178 11.718C24.8178 17.221 18.3908 22.638 16.4208 24.168C16.3011 24.2626 16.153 24.3141 16.0003 24.3141C15.8477 24.3141 15.6996 24.2626 15.5798 24.168C13.6098 22.639 7.18284 17.222 7.18284 11.718C7.18184 6.85498 11.1378 2.89998 15.9998 2.89998Z" fill="#4257EE"/>
    <path d="M20.6575 11.553C20.6575 8.98502 18.5685 6.89502 15.9995 6.89502C13.4305 6.89502 11.3415 8.98402 11.3415 11.553C11.3415 14.122 13.4305 16.211 15.9995 16.211C18.5685 16.211 20.6575 14.121 20.6575 11.553ZM13.1415 11.553C13.1415 9.97702 14.4235 8.69502 15.9995 8.69502C17.5755 8.69502 18.8575 9.97702 18.8575 11.553C18.8575 13.129 17.5755 14.411 15.9995 14.411C14.4235 14.411 13.1415 13.129 13.1415 11.553ZM24.6015 21.202C24.3779 21.1265 24.1336 21.1418 23.9212 21.2447C23.7088 21.3476 23.5453 21.5299 23.4659 21.7522C23.3866 21.9744 23.3977 22.219 23.497 22.4332C23.5962 22.6473 23.7756 22.8139 23.9965 22.897C25.9595 23.596 27.1795 24.551 27.1795 25.39C27.1795 26.939 22.9265 29.1 15.9995 29.1C9.07253 29.1 4.81953 26.939 4.81953 25.39C4.81953 24.552 6.03953 23.597 8.00253 22.897C8.22343 22.8139 8.40283 22.6473 8.50208 22.4332C8.60133 22.219 8.61248 21.9744 8.53314 21.7522C8.4538 21.5299 8.29031 21.3476 8.0779 21.2447C7.86548 21.1418 7.62115 21.1265 7.39753 21.202C4.57453 22.208 3.01953 23.695 3.01953 25.39C3.01953 28.969 9.70753 30.9 15.9995 30.9C22.2915 30.9 28.9795 28.969 28.9795 25.39C28.9795 23.695 27.4245 22.208 24.6015 21.202Z" fill="#4257EE"/>
</svg>
