<svg width="32" height="32" viewBox="0 0 32 32" fill="none" xmlns="http://www.w3.org/2000/svg">
    <path d="M15.9998 6.45599C12.1208 6.45599 8.96582 9.61199 8.96582 13.491C8.96582 17.37 12.1208 20.525 15.9998 20.525C19.8788 20.525 23.0338 17.37 23.0338 13.491C23.0338 9.61199 19.8788 6.45599 15.9998 6.45599ZM21.1418 12.591H19.3858C19.3118 11.305 19.0778 10.058 18.6898 9.02499C19.9608 9.79399 20.8768 11.075 21.1418 12.591ZM15.9998 18.725C15.5748 18.725 14.6028 17.205 14.4218 14.392H17.5768C17.3968 17.204 16.4248 18.725 15.9998 18.725ZM14.4218 12.591C14.6018 9.77699 15.5748 8.25699 15.9998 8.25699C16.4248 8.25699 17.3968 9.77699 17.5778 12.591H14.4218ZM13.3088 9.02499C12.9208 10.057 12.6878 11.304 12.6128 12.591H10.8568C11.1228 11.075 12.0388 9.79399 13.3088 9.02499ZM10.8578 14.392H12.6138C12.6878 15.678 12.9218 16.925 13.3098 17.957C12.0388 17.188 11.1228 15.907 10.8578 14.392ZM18.6908 17.956C19.0788 16.924 19.3118 15.677 19.3868 14.391H21.1428C20.8768 15.907 19.9608 17.188 18.6908 17.956Z" fill="#4257EE"/>
    <path d="M16 1.09998C9.08498 1.09998 3.45898 6.72598 3.45898 13.641C3.45898 21.4 12.114 28.497 14.768 30.488C15.137 30.764 15.569 30.903 16 30.903C16.431 30.903 16.864 30.764 17.232 30.488C19.885 28.498 28.541 21.4 28.541 13.641C28.541 6.72598 22.915 1.09998 16 1.09998ZM16.152 29.048C16.06 29.116 15.939 29.116 15.847 29.048C13.364 27.184 5.25998 20.564 5.25998 13.641C5.25998 7.71798 10.077 2.89998 16 2.89998C21.923 2.89998 26.74 7.71698 26.74 13.64C26.74 20.564 18.636 27.184 16.152 29.048Z" fill="#4257EE"/>
</svg>
