<svg width="32" height="32" viewBox="0 0 32 32" fill="none" xmlns="http://www.w3.org/2000/svg">
    <path d="M3.17824 25.4C3.46574 25.1843 3.77512 25.0031 4.10324 24.8625C4.02824 24.8937 3.95324 24.925 3.87824 24.9562C4.24387 24.8 4.62824 24.6968 5.02199 24.6406C4.93762 24.6531 4.85637 24.6625 4.77199 24.675C5.16262 24.625 5.55637 24.625 5.95012 24.675C5.86574 24.6625 5.78449 24.6531 5.70012 24.6406C6.09387 24.6968 6.47824 24.8 6.84387 24.9562C6.76887 24.925 6.69387 24.8937 6.61887 24.8625C6.86574 24.9687 7.10012 25.0968 7.32199 25.2437C7.53449 25.3843 7.73137 25.5468 7.95324 25.675C8.45637 25.975 9.02824 26.2 9.60637 26.3093C10.847 26.5468 12.1157 26.3687 13.2314 25.7687C13.4782 25.6343 13.7001 25.4718 13.9282 25.3093C14.1814 25.1312 14.4501 24.9812 14.7345 24.8593C14.6595 24.8906 14.5845 24.9218 14.5095 24.9531C14.8751 24.7968 15.2595 24.6937 15.6532 24.6375C15.5689 24.65 15.4876 24.6593 15.4032 24.6718C15.7939 24.6218 16.1876 24.6218 16.5814 24.6718C16.497 24.6593 16.4157 24.65 16.3314 24.6375C16.7251 24.6937 17.1095 24.7968 17.4751 24.9531C17.4001 24.9218 17.3251 24.8906 17.2501 24.8593C17.497 24.9656 17.7314 25.0937 17.9532 25.2406C18.1657 25.3812 18.3626 25.5437 18.5845 25.6718C19.0876 25.9718 19.6595 26.1968 20.2376 26.3062C21.4782 26.5437 22.747 26.3656 23.8626 25.7656C24.1095 25.6312 24.3314 25.4687 24.5595 25.3062C24.8126 25.1281 25.0814 24.9781 25.3657 24.8562C25.2907 24.8875 25.2157 24.9187 25.1407 24.95C25.5064 24.7937 25.8907 24.6906 26.2845 24.6343C26.2001 24.6468 26.1189 24.6562 26.0345 24.6687C26.4251 24.6187 26.8189 24.6187 27.2126 24.6687C27.1282 24.6562 27.047 24.6468 26.9626 24.6343C27.3564 24.6906 27.7407 24.7937 28.1064 24.95C28.0314 24.9187 27.9564 24.8875 27.8814 24.8562C28.2095 25 28.5189 25.1781 28.8064 25.3937C28.9876 25.5312 29.3189 25.5468 29.5282 25.4875C29.747 25.4281 29.9814 25.2593 30.0876 25.0562C30.2032 24.8375 30.2595 24.575 30.1814 24.3343C30.1001 24.0875 29.9564 23.9281 29.7501 23.775C28.0657 22.5156 25.6657 22.4312 23.872 23.5125C23.6595 23.6406 23.4689 23.7968 23.2626 23.9312C23.0407 24.0781 22.8032 24.2062 22.5595 24.3125C22.6345 24.2812 22.7095 24.25 22.7845 24.2187C22.4189 24.375 22.0345 24.4781 21.6407 24.5343C21.7251 24.5218 21.8064 24.5125 21.8907 24.5C21.5001 24.55 21.1064 24.55 20.7126 24.5C20.797 24.5125 20.8782 24.5218 20.9626 24.5343C20.5689 24.4781 20.1845 24.375 19.8189 24.2187C19.8939 24.25 19.9689 24.2812 20.0439 24.3125C19.797 24.2062 19.5626 24.0781 19.3407 23.9312C19.1282 23.7906 18.9314 23.6281 18.7095 23.5C18.2064 23.2 17.6345 22.975 17.0564 22.8656C15.8157 22.6281 14.547 22.8062 13.4314 23.4062C13.1845 23.5406 12.9626 23.7031 12.7345 23.8656C12.4814 24.0437 12.2126 24.1937 11.9282 24.3156C12.0032 24.2843 12.0782 24.2531 12.1532 24.2218C11.7876 24.3781 11.4032 24.4812 11.0095 24.5375C11.0939 24.525 11.1751 24.5156 11.2595 24.5031C10.8689 24.5531 10.4751 24.5531 10.0814 24.5031C10.1657 24.5156 10.247 24.525 10.3314 24.5375C9.93762 24.4812 9.55324 24.3781 9.18762 24.2218C9.26262 24.2531 9.33762 24.2843 9.41262 24.3156C8.99074 24.1312 8.64387 23.8718 8.26574 23.6187C7.83137 23.3312 7.34074 23.1125 6.84387 22.9656C5.86574 22.6781 4.77512 22.6843 3.80012 22.9875C3.23762 23.1625 2.69387 23.425 2.22199 23.7781C2.01887 23.9312 1.86262 24.0843 1.79074 24.3375C1.72824 24.5625 1.75637 24.8593 1.88449 25.0593C2.01262 25.2593 2.20637 25.4343 2.44387 25.4906C2.68449 25.5468 2.98137 25.5468 3.17824 25.4ZM15.7282 5.44685C15.7157 3.6156 14.6345 1.84685 12.9439 1.09372C12.0376 0.690597 11.0907 0.565597 10.1126 0.715597C9.39387 0.824972 8.68449 1.1281 8.10324 1.5656C7.47824 2.03747 6.93762 2.6281 6.60324 3.34685C6.29074 4.01247 6.11887 4.7156 6.11574 5.4531C6.11262 6.1156 6.11574 6.78122 6.11574 7.44372C6.11574 8.59372 6.11574 9.74372 6.11574 10.8937C6.11574 12.6437 6.11574 14.3968 6.11574 16.1468C6.11574 17.3625 6.11574 18.5781 6.11574 19.7937C6.11574 19.8593 6.11574 19.9218 6.11574 19.9875C6.11574 20.4781 6.54699 20.9468 7.05324 20.925C7.56262 20.9031 7.99074 20.5125 7.99074 19.9875C7.99074 18.95 7.99074 17.9156 7.99074 16.8781C7.99074 16.1 7.99074 15.3218 7.99074 14.5437C7.99074 13.2593 7.99074 11.9781 7.99074 10.6937C7.99074 10.0406 7.99074 9.38435 7.99074 8.73122C7.99074 7.63747 7.98449 6.54685 7.99074 5.4531C7.99074 5.2781 8.00324 5.1031 8.02512 4.9281C8.01262 5.01247 8.00324 5.09372 7.99074 5.1781C8.03762 4.84372 8.12824 4.51872 8.25637 4.20622C8.22512 4.28122 8.19387 4.35622 8.16262 4.43122C8.25637 4.20935 8.37199 3.99685 8.50637 3.79372C8.54074 3.74372 8.57824 3.69372 8.61262 3.6406C8.68449 3.53747 8.54074 3.7281 8.54074 3.73122C8.54387 3.71247 8.59074 3.66872 8.60637 3.64997C8.68449 3.55622 8.76887 3.4656 8.85637 3.3781C8.93762 3.29685 9.02512 3.21872 9.11262 3.14372C9.13762 3.12185 9.16574 3.09997 9.19387 3.0781C9.27512 3.00935 9.01262 3.20935 9.10324 3.14997C9.15324 3.1156 9.20324 3.0781 9.25324 3.04372C9.45949 2.90622 9.67824 2.78747 9.90637 2.6906C9.83137 2.72185 9.75637 2.7531 9.68137 2.78435C9.99387 2.6531 10.3189 2.5656 10.6532 2.51872C10.5689 2.53122 10.4876 2.5406 10.4032 2.5531C10.7439 2.50935 11.0876 2.50935 11.4282 2.54997C11.3439 2.53747 11.2626 2.5281 11.1782 2.5156C11.522 2.56247 11.8532 2.6531 12.1751 2.78747C12.1001 2.75622 12.0251 2.72497 11.9501 2.69372C12.172 2.7906 12.3876 2.9031 12.5876 3.03747C12.6407 3.07185 12.6939 3.11247 12.7439 3.14685C12.822 3.2031 12.7939 3.18435 12.6689 3.08747C12.6939 3.10622 12.7189 3.1281 12.7439 3.14685C12.8282 3.21872 12.9126 3.29372 12.9907 3.37497C13.0689 3.4531 13.147 3.53747 13.2189 3.62185C13.2407 3.64685 13.2595 3.67185 13.2782 3.69685C13.1814 3.56872 13.1626 3.54372 13.2189 3.62185C13.2564 3.67497 13.2939 3.72497 13.3282 3.7781C13.4626 3.9781 13.5751 4.19372 13.672 4.4156C13.6407 4.3406 13.6095 4.2656 13.5782 4.1906C13.7126 4.50935 13.8001 4.84372 13.8501 5.18747C13.8376 5.1031 13.8282 5.02185 13.8157 4.93747C13.8376 5.10622 13.847 5.27497 13.8501 5.44372C13.8532 5.93435 14.2782 6.4031 14.7876 6.38122C15.297 6.36247 15.7314 5.97497 15.7282 5.44685ZM28.4314 5.44685C28.4189 3.6156 27.3376 1.84685 25.647 1.09372C24.7407 0.690597 23.7939 0.565597 22.8157 0.715597C22.097 0.824972 21.3876 1.1281 20.8064 1.5656C20.1814 2.03747 19.6407 2.6281 19.3064 3.34685C18.9939 4.01247 18.822 4.7156 18.8189 5.4531C18.8157 6.11872 18.8189 6.78747 18.8189 7.4531C18.8189 8.6031 18.8189 9.7531 18.8189 10.9031C18.8189 12.6531 18.8189 14.4031 18.8189 16.1531C18.8189 17.3656 18.8189 18.5781 18.8189 19.7937C18.8189 19.8593 18.8189 19.9218 18.8189 19.9875C18.8189 20.4781 19.2501 20.9468 19.7564 20.925C20.2657 20.9031 20.6939 20.5125 20.6939 19.9875C20.6939 18.95 20.6939 17.9125 20.6939 16.875C20.6939 16.1031 20.6939 15.3312 20.6939 14.5593C20.6939 13.2718 20.6939 11.9843 20.6939 10.7C20.6939 10.0468 20.6939 9.39372 20.6939 8.7406C20.6939 7.64372 20.6876 6.54685 20.6939 5.44997C20.6939 5.27497 20.7064 5.09997 20.7282 4.92497C20.7157 5.00935 20.7064 5.0906 20.6939 5.17497C20.7407 4.8406 20.8314 4.5156 20.9595 4.2031C20.9282 4.2781 20.897 4.3531 20.8657 4.4281C20.9595 4.20622 21.0751 3.99372 21.2095 3.7906C21.2439 3.7406 21.2814 3.6906 21.3157 3.63747C21.3876 3.53435 21.2439 3.72497 21.2439 3.7281C21.247 3.70935 21.2939 3.6656 21.3095 3.64685C21.3876 3.5531 21.472 3.46247 21.5595 3.37497C21.6407 3.29372 21.7282 3.2156 21.8157 3.1406C21.8407 3.11872 21.8689 3.09685 21.897 3.07497C21.9782 3.00622 21.7157 3.20622 21.8064 3.14685C21.8564 3.11247 21.9064 3.07497 21.9564 3.0406C22.1626 2.9031 22.3814 2.78435 22.6095 2.68747C22.5345 2.71872 22.4595 2.74997 22.3845 2.78122C22.697 2.64997 23.022 2.56247 23.3564 2.5156C23.272 2.5281 23.1907 2.53747 23.1064 2.54997C23.447 2.50622 23.7907 2.50622 24.1314 2.54685C24.047 2.53435 23.9657 2.52497 23.8814 2.51247C24.2251 2.55935 24.5564 2.64997 24.8782 2.78435C24.8032 2.7531 24.7282 2.72185 24.6532 2.6906C24.8751 2.78747 25.0907 2.89997 25.2907 3.03435C25.3439 3.06872 25.397 3.10935 25.447 3.14372C25.5251 3.19997 25.497 3.18122 25.372 3.08435C25.397 3.1031 25.422 3.12497 25.447 3.14372C25.5314 3.2156 25.6157 3.2906 25.6939 3.37185C25.772 3.44997 25.8501 3.53435 25.922 3.61872C25.9439 3.64372 25.9626 3.66872 25.9814 3.69372C25.8845 3.5656 25.8657 3.5406 25.922 3.61872C25.9595 3.67185 25.997 3.72185 26.0314 3.77497C26.1657 3.97497 26.2782 4.1906 26.3751 4.41247C26.3439 4.33747 26.3126 4.26247 26.2814 4.18747C26.4157 4.50622 26.5032 4.8406 26.5532 5.18435C26.5407 5.09997 26.5314 5.01872 26.5189 4.93435C26.5407 5.1031 26.5501 5.27185 26.5532 5.4406C26.5564 5.93122 26.9814 6.39997 27.4907 6.3781C28.0001 6.36247 28.4345 5.97497 28.4314 5.44685Z" fill="#4257EE"/>
    <path d="M18.8189 10.15C18.8189 10.9 18.8189 11.6469 18.8189 12.3969C18.8189 13.5906 18.8189 14.7812 18.8189 15.975C18.8189 16.2469 18.8189 16.5219 18.8189 16.7937C19.1314 16.4812 19.4439 16.1687 19.7564 15.8562C19.3345 15.8562 18.9157 15.8562 18.4939 15.8562C17.4845 15.8562 16.472 15.8562 15.4626 15.8562C14.2407 15.8562 13.0157 15.8562 11.7939 15.8562C10.7345 15.8562 9.67824 15.8562 8.61887 15.8562C8.10324 15.8562 7.58762 15.8406 7.07199 15.8562C7.06574 15.8562 7.05637 15.8562 7.05012 15.8562C7.36262 16.1687 7.67512 16.4812 7.98762 16.7937C7.98762 16.0437 7.98762 15.2969 7.98762 14.5469C7.98762 13.3531 7.98762 12.1625 7.98762 10.9687C7.98762 10.6969 7.98762 10.4219 7.98762 10.15C7.67512 10.4625 7.36262 10.775 7.05012 11.0875C7.47199 11.0875 7.89074 11.0875 8.31262 11.0875C9.32199 11.0875 10.3345 11.0875 11.3439 11.0875C12.5657 11.0875 13.7907 11.0875 15.0126 11.0875C16.072 11.0875 17.1282 11.0875 18.1876 11.0875C18.7032 11.0875 19.2189 11.0969 19.7345 11.0875C19.7407 11.0875 19.7501 11.0875 19.7564 11.0875C20.247 11.0875 20.7157 10.6562 20.6939 10.15C20.672 9.6406 20.2814 9.21248 19.7564 9.21248C19.3345 9.21248 18.9157 9.21248 18.4939 9.21248C17.4845 9.21248 16.472 9.21248 15.4626 9.21248C14.2407 9.21248 13.0157 9.21248 11.7939 9.21248C10.7345 9.21248 9.67824 9.21248 8.61887 9.21248C8.10324 9.21248 7.58762 9.2031 7.07199 9.21248C7.06574 9.21248 7.05637 9.21248 7.05012 9.21248C6.54387 9.21248 6.11262 9.6406 6.11262 10.15C6.11262 10.9 6.11262 11.6469 6.11262 12.3969C6.11262 13.5906 6.11262 14.7812 6.11262 15.975C6.11262 16.2469 6.11262 16.5219 6.11262 16.7937C6.11262 17.3 6.54074 17.7312 7.05012 17.7312C7.47199 17.7312 7.89074 17.7312 8.31262 17.7312C9.32199 17.7312 10.3345 17.7312 11.3439 17.7312C12.5657 17.7312 13.7907 17.7312 15.0126 17.7312C16.072 17.7312 17.1282 17.7312 18.1876 17.7312C18.7032 17.7312 19.2189 17.7406 19.7345 17.7312C19.7407 17.7312 19.7501 17.7312 19.7564 17.7312C20.2626 17.7312 20.6939 17.3031 20.6939 16.7937C20.6939 16.0437 20.6939 15.2969 20.6939 14.5469C20.6939 13.3531 20.6939 12.1625 20.6939 10.9687C20.6939 10.6969 20.6939 10.4219 20.6939 10.15C20.6939 9.65935 20.2626 9.1906 19.7564 9.21248C19.2501 9.23435 18.8189 9.62498 18.8189 10.15ZM3.17824 30.3375C3.46574 30.1219 3.77512 29.9406 4.10324 29.8C4.02824 29.8312 3.95324 29.8625 3.87824 29.8937C4.24387 29.7375 4.62824 29.6344 5.02199 29.5781C4.93762 29.5906 4.85637 29.6 4.77199 29.6125C5.16262 29.5625 5.55637 29.5625 5.95012 29.6125C5.86574 29.6 5.78449 29.5906 5.70012 29.5781C6.09387 29.6344 6.47824 29.7375 6.84387 29.8937C6.76887 29.8625 6.69387 29.8312 6.61887 29.8C6.86574 29.9062 7.10012 30.0344 7.32199 30.1812C7.53449 30.3219 7.73137 30.4844 7.95324 30.6125C8.45637 30.9125 9.02824 31.1375 9.60637 31.2469C10.847 31.4844 12.1157 31.3062 13.2314 30.7062C13.4782 30.5719 13.7001 30.4094 13.9282 30.2469C14.1814 30.0687 14.4501 29.9187 14.7345 29.7969C14.6595 29.8281 14.5845 29.8594 14.5095 29.8906C14.8751 29.7344 15.2595 29.6312 15.6532 29.575C15.5689 29.5875 15.4876 29.5969 15.4032 29.6094C15.7939 29.5594 16.1876 29.5594 16.5814 29.6094C16.497 29.5969 16.4157 29.5875 16.3314 29.575C16.7251 29.6312 17.1095 29.7344 17.4751 29.8906C17.4001 29.8594 17.3251 29.8281 17.2501 29.7969C17.497 29.9031 17.7314 30.0312 17.9532 30.1781C18.1657 30.3187 18.3626 30.4812 18.5845 30.6094C19.0876 30.9094 19.6595 31.1344 20.2376 31.2437C21.4782 31.4812 22.747 31.3031 23.8626 30.7031C24.1095 30.5687 24.3314 30.4062 24.5595 30.2437C24.8126 30.0656 25.0814 29.9156 25.3657 29.7937C25.2907 29.825 25.2157 29.8562 25.1407 29.8875C25.5064 29.7312 25.8907 29.6281 26.2845 29.5719C26.2001 29.5844 26.1189 29.5937 26.0345 29.6062C26.4251 29.5562 26.8189 29.5562 27.2126 29.6062C27.1282 29.5937 27.047 29.5844 26.9626 29.5719C27.3564 29.6281 27.7407 29.7312 28.1064 29.8875C28.0314 29.8562 27.9564 29.825 27.8814 29.7937C28.2095 29.9375 28.5189 30.1156 28.8064 30.3312C28.9876 30.4687 29.3189 30.4844 29.5282 30.425C29.747 30.3656 29.9814 30.1969 30.0876 29.9937C30.2032 29.775 30.2595 29.5125 30.1814 29.2719C30.1001 29.025 29.9564 28.8656 29.7501 28.7125C28.0657 27.4531 25.6657 27.3687 23.872 28.45C23.6595 28.5781 23.4689 28.7344 23.2626 28.8687C23.0407 29.0156 22.8032 29.1437 22.5595 29.25C22.6345 29.2187 22.7095 29.1875 22.7845 29.1562C22.4189 29.3125 22.0345 29.4156 21.6407 29.4719C21.7251 29.4594 21.8064 29.45 21.8907 29.4375C21.5001 29.4875 21.1064 29.4875 20.7126 29.4375C20.797 29.45 20.8782 29.4594 20.9626 29.4719C20.5689 29.4156 20.1845 29.3125 19.8189 29.1562C19.8939 29.1875 19.9689 29.2187 20.0439 29.25C19.797 29.1437 19.5626 29.0156 19.3407 28.8687C19.1282 28.7281 18.9314 28.5656 18.7095 28.4375C18.2064 28.1375 17.6345 27.9125 17.0564 27.8031C15.8157 27.5656 14.547 27.7437 13.4314 28.3437C13.1845 28.4781 12.9626 28.6406 12.7345 28.8031C12.4814 28.9812 12.2126 29.1312 11.9282 29.2531C12.0032 29.2219 12.0782 29.1906 12.1532 29.1594C11.7876 29.3156 11.4032 29.4187 11.0095 29.475C11.0939 29.4625 11.1751 29.4531 11.2595 29.4406C10.8689 29.4906 10.4751 29.4906 10.0814 29.4406C10.1657 29.4531 10.247 29.4625 10.3314 29.475C9.93762 29.4187 9.55324 29.3156 9.18762 29.1594C9.26262 29.1906 9.33762 29.2219 9.41262 29.2531C8.99074 29.0687 8.64387 28.8094 8.26574 28.5562C7.83137 28.2687 7.34074 28.05 6.84387 27.9031C5.86574 27.6156 4.77512 27.6219 3.80012 27.925C3.23762 28.1 2.69387 28.3625 2.22199 28.7156C2.01887 28.8687 1.86262 29.0219 1.79074 29.275C1.72824 29.5 1.75637 29.7969 1.88449 29.9969C2.01262 30.1969 2.20637 30.3719 2.44387 30.4281C2.68449 30.4844 2.98137 30.4844 3.17824 30.3375Z" fill="#4257EE"/>
</svg>
