<svg width="32" height="32" viewBox="0 0 32 32" fill="none" xmlns="http://www.w3.org/2000/svg">
    <path d="M12 19V21.5C12 21.8283 11.9353 22.1534 11.8097 22.4567C11.6841 22.76 11.4999 23.0356 11.2678 23.2678C11.0356 23.4999 10.76 23.6841 10.4567 23.8097C10.1534 23.9353 9.8283 24 9.5 24H7V14H27C27.5304 14 28.0391 14.2107 28.4142 14.5858C28.7893 14.9609 29 15.4696 29 16V24H26.5C26.1717 24 25.8466 23.9353 25.5433 23.8097C25.24 23.6841 24.9644 23.4999 24.7322 23.2678C24.5001 23.0356 24.3159 22.76 24.1903 22.4567C24.0647 22.1534 24 21.8283 24 21.5V20" stroke="#4257EE" stroke-width="2" stroke-miterlimit="10" stroke-linecap="round" stroke-linejoin="round"/>
    <path d="M10 29C10.5523 29 11 28.5523 11 28C11 27.4477 10.5523 27 10 27C9.44772 27 9 27.4477 9 28C9 28.5523 9.44772 29 10 29Z" stroke="#4257EE" stroke-width="2" stroke-miterlimit="10" stroke-linecap="round" stroke-linejoin="round"/>
    <path d="M26 29C26.5523 29 27 28.5523 27 28C27 27.4477 26.5523 27 26 27C25.4477 27 25 27.4477 25 28C25 28.5523 25.4477 29 26 29Z" stroke="#4257EE" stroke-width="2" stroke-miterlimit="10" stroke-linecap="round" stroke-linejoin="round"/>
    <path d="M18 4C16.4087 4 14.8826 4.63214 13.7574 5.75736C12.6321 6.88258 12 8.4087 12 10H24C24 8.4087 23.3679 6.88258 22.2426 5.75736C21.1174 4.63214 19.5913 4 18 4ZM18 4V2M26 10H10M3 10H5L7 14M16 20V22M16 22C16 22.5304 15.7893 23.0391 15.4142 23.4142C15.0391 23.7893 14.5304 24 14 24C13.4696 24 12.9609 23.7893 12.5858 23.4142C12.2107 23.0391 12 22.5304 12 22V19M16 22C16 22.5304 16.2107 23.0391 16.5858 23.4142C16.9609 23.7893 17.4696 24 18 24C18.5304 24 19.0391 23.7893 19.4142 23.4142C19.7893 23.0391 20 22.5304 20 22M20 19V22M20 22C20 22.5304 20.2107 23.0391 20.5858 23.4142C20.9609 23.7893 21.4696 24 22 24C22.5304 24 23.0391 23.7893 23.4142 23.4142C23.7893 23.0391 24 22.5304 24 22V20" stroke="#4257EE" stroke-width="2" stroke-miterlimit="10" stroke-linecap="round" stroke-linejoin="round"/>
</svg>
