<svg width="32" height="32" viewBox="0 0 32 32" fill="none" xmlns="http://www.w3.org/2000/svg">
    <path d="M5.33333 11.3333V14M5.33333 20.6667V23.3333M6.66667 28.6667H9.33333M22.6667 28.6667H25.3333M13.3333 11.3333H21.3333M4 7.33333C4 6.59696 4.59696 6 5.33333 6H26.6667C27.4031 6 28 6.59696 28 7.33333V26C28 26.7364 27.4031 27.3333 26.6667 27.3333H5.33333C4.59696 27.3333 4 26.7364 4 26V7.33333Z" stroke="#4257EE" stroke-linecap="round" stroke-linejoin="round"/>
    <path d="M13.3333 16.6667C14.0697 16.6667 14.6667 16.0697 14.6667 15.3333C14.6667 14.597 14.0697 14 13.3333 14C12.597 14 12 14.597 12 15.3333C12 16.0697 12.597 16.6667 13.3333 16.6667Z" fill="#4257EE"/>
    <path d="M13.3333 20.6667C14.0697 20.6667 14.6667 20.0697 14.6667 19.3333C14.6667 18.597 14.0697 18 13.3333 18C12.597 18 12 18.597 12 19.3333C12 20.0697 12.597 20.6667 13.3333 20.6667Z" fill="#4257EE"/>
    <path d="M17.3333 16.6667C18.0697 16.6667 18.6667 16.0697 18.6667 15.3333C18.6667 14.597 18.0697 14 17.3333 14C16.597 14 16 14.597 16 15.3333C16 16.0697 16.597 16.6667 17.3333 16.6667Z" fill="#4257EE"/>
    <path d="M17.3333 20.6667C18.0697 20.6667 18.6667 20.0697 18.6667 19.3333C18.6667 18.597 18.0697 18 17.3333 18C16.597 18 16 18.597 16 19.3333C16 20.0697 16.597 20.6667 17.3333 20.6667Z" fill="#4257EE"/>
    <path d="M21.3333 16.6667C22.0697 16.6667 22.6667 16.0697 22.6667 15.3333C22.6667 14.597 22.0697 14 21.3333 14C20.597 14 20 14.597 20 15.3333C20 16.0697 20.597 16.6667 21.3333 16.6667Z" fill="#4257EE"/>
    <path d="M21.3333 20.6667C22.0697 20.6667 22.6667 20.0697 22.6667 19.3333C22.6667 18.597 22.0697 18 21.3333 18C20.597 18 20 18.597 20 19.3333C20 20.0697 20.597 20.6667 21.3333 20.6667Z" fill="#4257EE"/>
</svg>
