<svg width="32" height="32" viewBox="0 0 32 32" fill="none" xmlns="http://www.w3.org/2000/svg">
    <path d="M25 14H7V7.639C7 6.661 7.709 5.837 8.671 5.663C11.0896 5.22319 13.5428 5.0013 16.001 5C18.465 5 20.929 5.225 23.393 5.675C24.33 5.846 25 6.686 25 7.64V14Z" stroke="#4257EE" stroke-width="2" stroke-miterlimit="10" stroke-linecap="round" stroke-linejoin="round"/>
    <path d="M27 23H5M5 27V16C5 15.4696 5.21071 14.9609 5.58579 14.5858C5.96086 14.2107 6.46957 14 7 14H25C25.5304 14 26.0391 14.2107 26.4142 14.5858C26.7893 14.9609 27 15.4696 27 16V27M5 19H27M19 14H13V11C13 10.7348 13.1054 10.4804 13.2929 10.2929C13.4804 10.1054 13.7348 10 14 10H18C18.2652 10 18.5196 10.1054 18.7071 10.2929C18.8946 10.4804 19 10.7348 19 11V14Z" stroke="#4257EE" stroke-width="2" stroke-miterlimit="10" stroke-linecap="round" stroke-linejoin="round"/>
</svg>
