<svg width="32" height="32" viewBox="0 0 32 32" fill="none" xmlns="http://www.w3.org/2000/svg">
    <path d="M19.8272 20.176C19.8272 18.065 18.1102 16.348 15.9992 16.348C13.8882 16.348 12.1712 18.065 12.1712 20.176C12.1712 22.287 13.8882 24.004 15.9992 24.004C18.1102 24.004 19.8272 22.287 19.8272 20.176ZM15.9992 22.204C14.8812 22.204 13.9712 21.294 13.9712 20.176C13.9712 19.058 14.8812 18.148 15.9992 18.148C17.1172 18.148 18.0272 19.058 18.0272 20.176C18.0272 21.294 17.1172 22.204 15.9992 22.204ZM10.7292 19.54C10.6492 19.46 10.5492 19.39 10.4392 19.34C10.2192 19.25 9.96922 19.25 9.74922 19.34C9.63922 19.39 9.53922 19.46 9.45922 19.54C9.37922 19.62 9.30922 19.72 9.25922 19.83C9.21922 19.94 9.19922 20.06 9.19922 20.18C9.19922 20.29 9.21922 20.41 9.25922 20.52C9.30922 20.63 9.37922 20.73 9.45922 20.81C9.53922 20.9 9.63922 20.96 9.74922 21.01C9.85922 21.05 9.97922 21.08 10.0992 21.08C10.3292 21.08 10.5692 20.98 10.7292 20.81C10.8192 20.73 10.8792 20.63 10.9292 20.52C10.9692 20.41 10.9992 20.29 10.9992 20.18C10.9992 20.06 10.9692 19.94 10.9292 19.83C10.8792 19.72 10.8192 19.62 10.7292 19.54ZM22.5392 19.54C22.4592 19.46 22.3592 19.39 22.2492 19.34C22.0292 19.25 21.7792 19.25 21.5592 19.34C21.4492 19.39 21.3492 19.46 21.2692 19.54C21.1792 19.62 21.1192 19.72 21.0692 19.83C21.0292 19.94 20.9992 20.06 20.9992 20.18C20.9992 20.41 21.0992 20.64 21.2692 20.81C21.3492 20.9 21.4492 20.96 21.5592 21.01C21.6692 21.05 21.7892 21.08 21.9092 21.08C22.0192 21.08 22.1392 21.05 22.2492 21.01C22.3592 20.96 22.4592 20.89 22.5392 20.81C22.7092 20.64 22.7992 20.41 22.7992 20.18C22.7992 20.06 22.7792 19.94 22.7292 19.83C22.6892 19.72 22.6192 19.62 22.5392 19.54ZM13.6792 24.65C13.5992 24.57 13.4992 24.5 13.3892 24.46C13.0592 24.32 12.6592 24.4 12.4092 24.65C12.3292 24.74 12.2592 24.83 12.2192 24.94C12.1692 25.05 12.1492 25.17 12.1492 25.29C12.1492 25.53 12.2392 25.76 12.4092 25.93C12.5792 26.09 12.8092 26.19 13.0492 26.19C13.1692 26.19 13.2792 26.17 13.3892 26.12C13.4992 26.07 13.5992 26.01 13.6792 25.93C13.8492 25.76 13.9492 25.53 13.9492 25.29C13.9492 25.17 13.9192 25.05 13.8792 24.94C13.8292 24.83 13.7692 24.74 13.6792 24.65ZM18.3192 14.43C18.1492 14.59 18.0492 14.83 18.0492 15.06C18.0492 15.3 18.1492 15.53 18.3192 15.7C18.4792 15.87 18.7192 15.96 18.9492 15.96C19.1892 15.96 19.4192 15.87 19.5892 15.7C19.7592 15.53 19.8492 15.3 19.8492 15.06C19.8492 14.83 19.7592 14.59 19.5892 14.43C19.2492 14.09 18.6492 14.09 18.3192 14.43ZM18.3192 24.65C18.1492 24.82 18.0492 25.05 18.0492 25.29C18.0492 25.53 18.1492 25.76 18.3192 25.93C18.4792 26.09 18.7192 26.19 18.9492 26.19C19.1892 26.19 19.4192 26.09 19.5892 25.93C19.7592 25.76 19.8492 25.53 19.8492 25.29C19.8492 25.05 19.7592 24.82 19.5892 24.65C19.2492 24.32 18.6492 24.32 18.3192 24.65ZM13.0492 15.96C13.1692 15.96 13.2792 15.94 13.3892 15.89C13.4992 15.85 13.5992 15.78 13.6792 15.7C13.8492 15.53 13.9492 15.3 13.9492 15.06C13.9492 14.83 13.8492 14.59 13.6792 14.43C13.5992 14.34 13.4992 14.28 13.3892 14.23C13.0592 14.09 12.6592 14.18 12.4092 14.43C12.2392 14.59 12.1492 14.83 12.1492 15.06C12.1492 15.3 12.2392 15.53 12.4092 15.7C12.5792 15.87 12.8092 15.96 13.0492 15.96Z" fill="#4257EE"/>
    <path d="M26.2846 2.70901H24.8556V2.49601C24.8556 1.99901 24.4526 1.59601 23.9556 1.59601C23.4586 1.59601 23.0556 1.99901 23.0556 2.49601V2.70901H8.94361V2.49601C8.94361 1.99901 8.54061 1.59601 8.04361 1.59601C7.54661 1.59601 7.14361 1.99901 7.14361 2.49601V2.70901H5.71461C3.16961 2.70901 1.09961 4.77401 1.09961 7.31301V25.79C1.09961 28.334 3.16961 30.405 5.71461 30.405H26.2956C28.8346 30.405 30.8996 28.34 30.8996 25.801V7.31301C30.8996 4.77401 28.8296 2.70901 26.2846 2.70901ZM5.71461 4.50901H7.14361V4.70901C7.14361 5.20601 7.54661 5.60901 8.04361 5.60901C8.54061 5.60901 8.94361 5.20601 8.94361 4.70901V4.50901H23.0556V4.70901C23.0556 5.20601 23.4586 5.60901 23.9556 5.60901C24.4526 5.60901 24.8556 5.20601 24.8556 4.70901V4.50901H26.2846C27.8366 4.50901 29.0996 5.76701 29.0996 7.31301V9.94801H2.89961V7.31301C2.89961 5.76701 4.16261 4.50901 5.71461 4.50901ZM26.2956 28.604H5.71461C4.16261 28.604 2.89961 27.341 2.89961 25.789V11.747H29.0996V25.8C29.0996 27.347 27.8416 28.604 26.2956 28.604Z" fill="#4257EE"/>
</svg>
