<svg width="32" height="32" viewBox="0 0 32 32" fill="none" xmlns="http://www.w3.org/2000/svg">
    <path d="M28.8992 29.1H27.6412C25.5422 25.682 21.4462 23.445 16.9002 23.178V17.09C17.9472 16.969 18.9542 16.642 19.7732 16.095C20.8252 16.797 22.1612 17.19 23.5462 17.19C24.9162 17.19 26.2502 16.805 27.3042 16.107C27.8972 15.713 28.2422 15.038 28.2022 14.346C27.8782 8.48098 22.9892 3.83798 16.9002 3.41598V1.99998C16.9002 1.50298 16.4972 1.09998 16.0002 1.09998C15.5032 1.09998 15.1002 1.50298 15.1002 1.99998V3.41598C9.01117 3.83798 4.12217 8.48098 3.79717 14.345C3.75817 15.037 4.10317 15.713 4.69517 16.107C6.81517 17.512 10.1342 17.492 12.2262 16.095C13.0452 16.642 14.0522 16.969 15.0992 17.09V23.178C10.5472 23.445 6.45317 25.681 4.36217 29.1H3.10117C2.60417 29.1 2.20117 29.503 2.20117 30C2.20117 30.497 2.60417 30.9 3.10117 30.9H4.87317C4.87317 30.9 4.87517 30.9 4.87717 30.9H28.9002C29.3972 30.9 29.8002 30.497 29.8002 30C29.8002 29.503 29.3962 29.1 28.8992 29.1ZM26.4062 14.445C26.4092 14.5 26.3692 14.567 26.3082 14.607C25.5472 15.112 24.5662 15.391 23.5462 15.391C22.5522 15.391 21.6162 15.118 20.8732 14.648C22.4202 10.508 20.7452 7.45398 19.0262 5.59598C23.1262 6.76098 26.1732 10.233 26.4062 14.445ZM11.1262 14.647C10.3832 15.117 9.44717 15.39 8.45317 15.39C7.43317 15.39 6.45217 15.112 5.69117 14.607C5.63017 14.566 5.59017 14.5 5.59317 14.444C5.82617 10.232 8.87317 6.75998 12.9722 5.59398C11.2532 7.45298 9.57817 10.507 11.1262 14.647ZM16.0022 5.32798C17.3452 6.21098 21.1792 9.28498 19.0302 14.393C18.2472 15.023 17.1612 15.391 16.0002 15.391C14.8392 15.391 13.7532 15.023 12.9702 14.393C10.8312 9.30597 14.6642 6.21398 16.0022 5.32798ZM6.56517 29.1C8.63117 26.528 12.1582 24.924 16.0002 24.924C19.8362 24.924 23.3662 26.527 25.4392 29.1H6.56517Z" fill="#4257EE"/>
</svg>
