<svg width="32" height="32" viewBox="0 0 32 32" fill="none" xmlns="http://www.w3.org/2000/svg">
    <path d="M16 6.076C10.528 6.076 6.076 10.528 6.076 16C6.076 21.472 10.528 25.924 16 25.924C21.472 25.924 25.924 21.472 25.924 16C25.924 10.528 21.472 6.076 16 6.076ZM16 24.125C11.52 24.125 7.875 20.48 7.875 16C7.875 11.52 11.52 7.875 16 7.875C20.48 7.875 24.125 11.52 24.125 16C24.125 20.48 20.48 24.125 16 24.125ZM24.633 6.1C24.283 6.45 24.283 7.017 24.633 7.367C24.983 7.717 25.55 7.717 25.9 7.367C26.25 7.017 26.25 6.45 25.9 6.1C25.55 5.751 24.982 5.751 24.633 6.1ZM6.101 24.632C5.751 24.982 5.751 25.549 6.101 25.899C6.451 26.249 7.018 26.249 7.368 25.899C7.718 25.549 7.718 24.982 7.368 24.632C7.018 24.283 6.45 24.283 6.101 24.632ZM24.633 24.632C24.283 24.982 24.283 25.549 24.633 25.899C24.983 26.249 25.55 26.249 25.9 25.899C26.25 25.549 26.25 24.982 25.9 24.632C25.55 24.283 24.982 24.283 24.633 24.632ZM7.367 7.367C7.717 7.017 7.717 6.45 7.367 6.1C7.017 5.75 6.45 5.75 6.1 6.1C5.75 6.45 5.75 7.017 6.1 7.367C6.45 7.717 7.018 7.717 7.367 7.367ZM16 3.792C16.495 3.792 16.896 3.391 16.896 2.896C16.896 2.401 16.495 2 16 2C15.505 2 15.104 2.401 15.104 2.896C15.104 3.391 15.505 3.792 16 3.792ZM16 28.208C15.505 28.208 15.104 28.609 15.104 29.104C15.104 29.599 15.505 30 16 30C16.495 30 16.896 29.599 16.896 29.104C16.896 28.609 16.495 28.208 16 28.208ZM29.104 15.104C28.609 15.104 28.208 15.505 28.208 16C28.208 16.495 28.609 16.896 29.104 16.896C29.599 16.896 30 16.495 30 16C30 15.505 29.599 15.104 29.104 15.104ZM2.896 15.104C2.401 15.104 2 15.505 2 16C2 16.495 2.401 16.896 2.896 16.896C3.391 16.896 3.792 16.495 3.792 16C3.792 15.505 3.391 15.104 2.896 15.104Z" fill="#4257EE"/>
</svg>
