<svg width="30" height="32" viewBox="0 0 30 32" fill="none" xmlns="http://www.w3.org/2000/svg">
    <g clip-path="url(#clip0_2015_41245)">
        <path d="M7.08105 13.6572C7.98761 13.4973 8.75824 12.82 9.19792 11.7977C9.36058 11.417 9.1848 10.9759 8.80371 10.8123C8.42308 10.6483 7.98199 10.8241 7.81792 11.2056C7.68011 11.5286 7.36699 12.0836 6.82043 12.1797C6.27246 12.2809 5.78777 11.8605 5.5473 11.6055C5.26183 11.3036 4.78699 11.2905 4.48699 11.5731C4.18511 11.8572 4.17058 12.332 4.45464 12.6334C4.69699 12.8912 5.68792 13.9056 7.08105 13.6572ZM24.0864 13.7566C23.1765 13.5934 22.2362 13.9558 21.46 14.7789C21.1759 15.0808 21.1904 15.5552 21.4923 15.8392C21.7928 16.1219 22.2671 16.1088 22.5526 15.8069C22.7926 15.5505 23.2736 15.1347 23.8257 15.2327C24.3723 15.3292 24.6854 15.8847 24.8232 16.2067C24.9892 16.5906 25.4335 16.7622 25.809 16.6C26.1896 16.4369 26.3659 15.9958 26.2032 15.6147C25.764 14.5938 24.9934 13.9164 24.0864 13.7566ZM24.3531 18.9414C23.1198 19.6886 21.3971 19.9366 19.6243 19.6248C17.852 19.3122 16.3182 18.4891 15.4145 17.3655C14.9856 16.8339 14.1371 17.1067 14.0828 17.7733C13.8367 20.7302 15.8964 23.3552 18.8729 23.8797C19.862 24.0541 24.2654 24.1844 25.4645 19.7805C25.6412 19.1322 24.9376 18.5922 24.3531 18.9414ZM19.134 22.4027C17.5782 22.128 16.3595 21.0864 15.8396 19.7331C16.84 20.3936 18.0531 20.8708 19.3642 21.1014C20.6781 21.3348 21.9775 21.3006 23.1451 21.0208C22.1912 22.1144 20.6898 22.6755 19.134 22.4027ZM15.9053 14.6355C16.1453 14.3805 16.6318 13.9534 17.1784 14.0612C17.725 14.1573 18.0381 14.7123 18.1759 15.0353C18.3418 15.4192 18.7862 15.5908 19.1617 15.4286C19.5423 15.2655 19.7185 14.8244 19.5559 14.4433C19.1106 13.4055 18.3592 12.745 17.439 12.5828C16.5207 12.4253 15.5875 12.7848 14.8126 13.6066C14.5286 13.9084 14.5431 14.3828 14.845 14.6669C15.1468 14.9505 15.6198 14.9373 15.9053 14.6355ZM28.4439 9.62078C26.4878 8.53234 22.8189 6.87625 17.7986 6.95219C17.5234 5.39359 16.4584 4.46266 15.2425 4.26812C14.1221 4.08859 12.9957 4 11.8745 4C8.28105 4 4.73542 4.91266 1.55636 6.68172C0.423394 7.31172 -0.183638 8.6275 0.0493312 9.94844L1.53667 18.3841C2.20371 22.1678 7.92714 25.0609 11.1203 25.0609C11.7695 25.0609 12.2387 24.9728 13.1645 24.5144C13.2854 24.6541 16.1078 28 18.88 28C22.0731 28 27.7965 25.1073 28.4635 21.3231L29.9509 12.8875C30.1839 11.567 29.5768 10.2513 28.4439 9.62078ZM11.1203 23.5605C8.4273 23.5605 3.52464 21.0194 3.01371 18.1234L1.52683 9.68781C1.40449 8.99453 1.70964 8.31297 2.28574 7.99234C3.47824 7.32906 8.35558 4.68484 15.0057 5.74937C15.6376 5.85063 16.1387 6.36156 16.2798 7.02531C15.7721 7.06938 15.2645 7.12609 14.7578 7.20719C13.4776 7.41203 12.4571 8.44094 12.2246 9.76141L11.1151 16.0516C7.96324 16.195 6.41589 18.2092 6.35027 18.2913C6.09105 18.6142 6.14214 19.0867 6.46464 19.3459C6.83496 19.6422 7.29855 19.5058 7.51933 19.2316C7.56714 19.172 8.56652 17.8464 10.8451 17.5853L10.7373 18.198C10.4443 19.8583 11.1325 21.6864 12.242 23.312C11.7489 23.522 11.4859 23.5605 11.1203 23.5605ZM28.4739 12.6269L26.986 21.063C26.4756 23.9589 21.5725 26.5 18.88 26.5C17.0495 26.5 14.8084 24.1408 14.2131 23.4386C12.722 21.6789 11.9743 19.817 12.2143 18.4581L13.7017 10.0225C13.824 9.32922 14.3439 8.79297 14.995 8.68891C21.6578 7.62297 26.5389 10.2775 27.715 10.9319C28.291 11.252 28.5957 11.9336 28.4739 12.6269Z" fill="#4257EE"/>
    </g>
    <defs>
        <clipPath id="clip0_2015_41245">
            <rect width="30" height="32" fill="white"/>
        </clipPath>
    </defs>
</svg>
