<svg width="32" height="32" viewBox="0 0 32 32" fill="none" xmlns="http://www.w3.org/2000/svg">
    <path d="M26.4396 6.42499H13.3026C12.6546 6.42499 12.0616 6.66299 11.6056 7.05499C11.1516 6.66299 10.5606 6.42499 9.91561 6.42499H4.67761C2.70461 6.42499 1.09961 8.02999 1.09961 10.004V21.996C1.09961 23.97 2.70461 25.575 4.67761 25.575H9.91561C10.5606 25.575 11.1516 25.337 11.6056 24.945C12.0616 25.337 12.6546 25.575 13.3026 25.575H26.4396C28.8986 25.575 30.8986 23.574 30.8986 21.115V10.885C30.8996 8.42599 28.8986 6.42499 26.4396 6.42499ZM29.0996 21.115C29.0996 22.582 27.9066 23.774 26.4396 23.774H13.3026C12.8626 23.774 12.5036 23.42 12.5036 22.986V21.569C12.5036 21.072 12.1006 20.669 11.6036 20.669C11.1066 20.669 10.7036 21.072 10.7036 21.569V22.986C10.7036 23.421 10.3496 23.774 9.91561 23.774H4.67761C3.69761 23.774 2.89961 22.976 2.89961 21.996V10.004C2.89961 9.02399 3.69761 8.22599 4.67761 8.22599H9.91561C10.3576 8.22599 10.7036 8.57199 10.7036 9.01399V10.431C10.7036 10.928 11.1066 11.331 11.6036 11.331C12.1006 11.331 12.5036 10.928 12.5036 10.431V9.01399C12.5036 8.57899 12.8616 8.22599 13.3026 8.22599H26.4396C27.9056 8.22599 29.0996 9.41799 29.0996 10.885V21.115Z" fill="#4257EE"/>
    <path d="M11.6031 13.76C11.1061 13.76 10.7031 14.163 10.7031 14.66V17.34C10.7031 17.837 11.1061 18.24 11.6031 18.24C12.1001 18.24 12.5031 17.837 12.5031 17.34V14.66C12.5031 14.163 12.1001 13.76 11.6031 13.76ZM25.1241 13.085H16.4781C15.9811 13.085 15.5781 13.488 15.5781 13.985C15.5781 14.482 15.9811 14.885 16.4781 14.885H25.1241C25.6211 14.885 26.0241 14.482 26.0241 13.985C26.0241 13.488 25.6211 13.085 25.1241 13.085ZM21.3741 17.114H16.4781C15.9811 17.114 15.5781 17.517 15.5781 18.014C15.5781 18.511 15.9811 18.914 16.4781 18.914H21.3741C21.8711 18.914 22.2741 18.511 22.2741 18.014C22.2741 17.517 21.8711 17.114 21.3741 17.114Z" fill="#4257EE"/>
</svg>
