<svg width="32" height="32" viewBox="0 0 32 32" fill="none" xmlns="http://www.w3.org/2000/svg">
    <path d="M11.8302 8.95499H4.40618C3.58018 8.95499 2.81818 9.41199 2.41918 10.149C1.03518 12.704 0.446183 17.006 2.08018 19.948C3.13718 21.85 5.01818 23.073 7.22018 23.336V27.093H6.24018C5.74318 27.093 5.34018 27.496 5.34018 27.993C5.34018 28.49 5.74318 28.893 6.24018 28.893H10.0022C10.4992 28.893 10.9022 28.49 10.9022 27.993C10.9022 27.496 10.4992 27.093 10.0022 27.093H9.02218V23.336C11.2242 23.073 13.1052 21.849 14.1622 19.948C15.7962 17.006 15.2072 12.703 13.8242 10.15C13.4242 9.41299 12.6602 8.95499 11.8302 8.95499ZM4.00118 11.007C4.08718 10.849 4.23818 10.755 4.40618 10.755H11.8302C11.9982 10.755 12.1552 10.851 12.2392 11.006C13.0492 12.502 13.4152 14.45 13.3172 16.199H2.92318C2.82518 14.451 3.19118 12.503 4.00118 11.007ZM8.12018 21.593C6.19918 21.593 4.53018 20.652 3.65418 19.074C3.47718 18.755 3.34318 18.387 3.22918 18H13.0102C12.8962 18.387 12.7622 18.756 12.5852 19.075C11.7102 20.651 10.0412 21.593 8.12018 21.593ZM29.5822 10.15C29.1842 9.41299 28.4202 8.95499 27.5892 8.95499H20.1662C19.3382 8.95499 18.5762 9.41299 18.1792 10.149C16.7952 12.704 16.2062 17.006 17.8402 19.948C18.8972 21.85 20.7782 23.073 22.9802 23.336V27.093H22.0002C21.5032 27.093 21.1002 27.496 21.1002 27.993C21.1002 28.49 21.5032 28.893 22.0002 28.893H25.7622C26.2592 28.893 26.6622 28.49 26.6622 27.993C26.6622 27.496 26.2592 27.093 25.7622 27.093H24.7822V23.336C26.9842 23.073 28.8652 21.849 29.9222 19.948C31.5542 17.006 30.9652 12.704 29.5822 10.15ZM19.7622 11.005C19.8472 10.848 19.9972 10.755 20.1662 10.755H27.5892C27.7582 10.755 27.9152 10.851 27.9992 11.006C28.8092 12.502 29.1752 14.45 29.0772 16.199H18.6832C18.5852 14.451 18.9512 12.502 19.7622 11.005ZM23.8802 21.593C21.9592 21.593 20.2902 20.652 19.4142 19.074C19.2372 18.755 19.1032 18.387 18.9892 17.999H28.7702C28.6562 18.386 28.5222 18.755 28.3452 19.074C27.4702 20.651 25.8012 21.593 23.8802 21.593ZM11.4002 6.95099C11.5722 7.10899 11.7902 7.18599 12.0062 7.18599C12.2502 7.18599 12.4932 7.08699 12.6712 6.89299C13.0062 6.52599 12.9802 5.95599 12.6122 5.62199L12.1642 5.21299C11.7992 4.87899 11.2282 4.90399 10.8932 5.27099C10.5582 5.63799 10.5842 6.20799 10.9522 6.54199L11.4002 6.95099ZM19.9932 7.18699C20.2102 7.18699 20.4282 7.10899 20.5992 6.95199L21.0472 6.54299C21.4142 6.20799 21.4412 5.63899 21.1062 5.27199C20.7702 4.90399 20.2002 4.87899 19.8352 5.21399L19.3872 5.62299C19.0202 5.95799 18.9932 6.52699 19.3282 6.89399C19.5062 7.08799 19.7492 7.18699 19.9932 7.18699ZM16.9002 4.00599C16.9002 3.50899 16.4972 3.10599 16.0002 3.10599C15.5032 3.10599 15.1002 3.50899 15.1002 4.00599V4.58499C15.1002 5.08199 15.5032 5.48499 16.0002 5.48499C16.4972 5.48499 16.9002 5.08199 16.9002 4.58499V4.00599Z" fill="#4257EE"/>
</svg>
