<svg width="32" height="32" viewBox="0 0 32 32" fill="none" xmlns="http://www.w3.org/2000/svg">
    <path d="M31.04 9.52754C31.04 7.93418 29.7339 6.63759 28.1269 6.63759H27.3403V5.24567C27.3403 3.7397 25.6098 2.56 23.3993 2.56H8.60124C6.42791 2.56 4.65961 4.31337 4.65961 6.46906V6.63759H3.87357C2.26659 6.63759 0.959961 7.93418 0.959961 9.52754C0.959961 11.1209 2.26659 12.4175 3.87357 12.4175H4.65961V24.6134C4.65961 24.7621 4.70137 24.8999 4.7683 25.0214C4.70137 25.1428 4.65961 25.2801 4.65961 25.4288C4.65961 25.8992 5.04347 26.2799 5.51773 26.2799H9.19907C9.18762 26.3344 9.18248 26.3906 9.18248 26.4485V28.5888C9.18248 29.0592 9.56634 29.44 10.0406 29.44H27.5102C27.9839 29.44 28.3683 29.0592 28.3683 28.5888V12.3931C29.8598 12.2688 31.04 11.0386 31.04 9.52754ZM6.37642 24.5771V21.9986H22.3358V24.5771H6.37642ZM6.37642 6.46906C6.37642 5.25191 7.3747 4.2623 8.60182 4.2623H23.3998C24.7797 4.2623 25.6246 4.89897 25.6246 5.24567V6.07299C25.5388 6.04462 25.4484 6.02533 25.3529 6.02533C23.6893 6.02533 22.3363 7.36731 22.3363 9.01685V20.2958H6.37642V6.46906ZM3.87414 10.7146C3.21396 10.7146 2.67677 10.1818 2.67677 9.52697C2.67677 8.87215 3.21339 8.33933 3.87414 8.33933H4.66018V10.7146H3.87414ZM10.8987 27.7377V26.4485C10.8987 26.3906 10.8919 26.3344 10.8816 26.2799H23.1939C23.6681 26.2799 24.052 25.8992 24.052 25.4288C24.052 25.3397 24.0348 25.2552 24.0085 25.1746C24.0348 25.0929 24.052 25.0089 24.052 24.9198V12.4169H26.6521V27.7371H10.8987V27.7377ZM28.1269 10.7146H24.052V9.01741C24.052 8.76831 24.1269 8.53736 24.2511 8.3399H28.1269C28.7871 8.3399 29.3237 8.87272 29.3237 9.52754C29.3237 10.1824 28.7871 10.7146 28.1269 10.7146Z" fill="black"/>
</svg>
