<svg width="32" height="32" viewBox="0 0 32 32" fill="none" xmlns="http://www.w3.org/2000/svg">
    <path d="M2.66707 14.6666V6.66664C2.66707 6.31302 2.80755 5.97388 3.0576 5.72383C3.30765 5.47378 3.64678 5.33331 4.00041 5.33331H24.7871L24.4004 4.94664C24.182 4.69157 24.0678 4.36347 24.0808 4.0279C24.0938 3.69234 24.2329 3.37402 24.4703 3.13656C24.7078 2.8991 25.0261 2.75999 25.3617 2.74703C25.6972 2.73407 26.0253 2.84821 26.2804 3.06664L28.9471 5.73331C29.1954 5.98313 29.3348 6.32106 29.3348 6.67331C29.3348 7.02556 29.1954 7.36349 28.9471 7.61331L26.2804 10.28C26.0253 10.4984 25.6972 10.6126 25.3617 10.5996C25.0261 10.5866 24.7078 10.4475 24.4703 10.2101C24.2329 9.9726 24.0938 9.65428 24.0808 9.31871C24.0678 8.98315 24.182 8.65505 24.4004 8.39998L24.7871 7.99998H5.33374V14.6666C5.33374 15.0203 5.19326 15.3594 4.94322 15.6095C4.69317 15.8595 4.35403 16 4.00041 16C3.64678 16 3.30765 15.8595 3.0576 15.6095C2.80755 15.3594 2.66707 15.0203 2.66707 14.6666ZM28.0004 16C27.6468 16 27.3076 16.1405 27.0576 16.3905C26.8075 16.6405 26.6671 16.9797 26.6671 17.3333V24H7.21374L7.60041 23.6133C7.81884 23.3582 7.93298 23.0301 7.92002 22.6946C7.90706 22.359 7.76795 22.0407 7.53049 21.8032C7.29303 21.5658 6.97471 21.4267 6.63914 21.4137C6.30358 21.4007 5.97547 21.5149 5.72041 21.7333L3.05374 24.4C2.8054 24.6498 2.66602 24.9877 2.66602 25.34C2.66602 25.6922 2.8054 26.0302 3.05374 26.28L5.72041 28.9466C5.97547 29.1651 6.30358 29.2792 6.63914 29.2663C6.97471 29.2533 7.29303 29.1142 7.53049 28.8767C7.76795 28.6393 7.90706 28.3209 7.92002 27.9854C7.93298 27.6498 7.81884 27.3217 7.60041 27.0666L7.21374 26.6666H28.0004C28.354 26.6666 28.6932 26.5262 28.9432 26.2761C29.1933 26.0261 29.3337 25.6869 29.3337 25.3333V17.3333C29.3337 16.9797 29.1933 16.6405 28.9432 16.3905C28.6932 16.1405 28.354 16 28.0004 16Z" fill="#4257EE"/>
</svg>
