<svg width="32" height="32" viewBox="0 0 32 32" fill="none" xmlns="http://www.w3.org/2000/svg">
    <path d="M26.3746 7.90098H21.3216V5.45698C21.3216 4.17498 20.2776 3.13098 18.9956 3.13098H13.0036C11.7216 3.13098 10.6776 4.17498 10.6776 5.45698V7.90098H5.62461C3.12961 7.90098 1.09961 9.93098 1.09961 12.426V24.343C1.09961 26.838 3.12961 28.868 5.62461 28.868H26.3746C28.8696 28.868 30.8996 26.838 30.8996 24.343V12.427C30.8996 9.93198 28.8696 7.90098 26.3746 7.90098ZM22.6416 9.70198V27.068H9.35761V9.70198H22.6416ZM12.4786 5.45698C12.4786 5.16698 12.7136 4.93198 13.0036 4.93198H18.9956C19.2856 4.93198 19.5206 5.16698 19.5206 5.45698V7.90098H12.4776V5.45698H12.4786ZM2.89961 24.344V12.427C2.89961 10.924 4.12161 9.70198 5.62461 9.70198H7.55761V27.068H5.62461C4.12161 27.068 2.89961 25.847 2.89961 24.344ZM29.0996 24.344C29.0996 25.847 27.8776 27.069 26.3746 27.069H24.4416V9.70198H26.3746C27.8776 9.70198 29.0996 10.924 29.0996 12.427V24.344Z" fill="#4257EE"/>
    <path d="M13.8961 19.286H18.1051C18.6021 19.286 19.0051 18.883 19.0051 18.386C19.0051 17.889 18.6021 17.486 18.1051 17.486H13.8961C13.3991 17.486 12.9961 17.889 12.9961 18.386C12.9961 18.883 13.3981 19.286 13.8961 19.286Z" fill="#4257EE"/>
</svg>
