<svg width="32" height="32" viewBox="0 0 32 32" fill="none" xmlns="http://www.w3.org/2000/svg">
    <path d="M28.803 28.3024C28.7614 28.3595 28.7089 28.4078 28.6485 28.4445C28.5882 28.4812 28.5211 28.5057 28.4513 28.5165C28.3815 28.5273 28.3102 28.5242 28.2416 28.5074C28.1729 28.4906 28.1083 28.4604 28.0514 28.4185C27.2117 27.8051 26.0469 27.7593 25.1515 28.305L25.0418 28.3722C24.9199 28.4459 24.7737 28.4684 24.6353 28.4348C24.4968 28.4012 24.3773 28.3141 24.3029 28.1926C24.2287 28.0707 24.2059 27.9244 24.2395 27.7857C24.2732 27.647 24.3606 27.5274 24.4824 27.4531L24.5918 27.3865C25.8542 26.6173 27.5 26.6819 28.6862 27.551C28.7432 27.5927 28.7915 27.6452 28.8282 27.7055C28.8649 27.7658 28.8894 27.8327 28.9003 27.9025C28.9111 27.9723 28.9081 28.0435 28.8914 28.1121C28.8747 28.1807 28.8447 28.2454 28.803 28.3024ZM23.1173 26.2182C22.6776 26.2182 22.2386 26.1398 21.8232 25.9865C21.4594 28.4905 20.0914 28.9069 19.2267 28.9069H12.7736C11.7694 28.9069 10.085 28.3482 10.085 24.6045V11.3888C10.085 10.832 10.2971 10.3033 10.6824 9.90079C10.7112 9.87071 10.7435 9.84415 10.7784 9.82143L13.3115 8.17919V6.85791C13.2409 6.85795 13.1709 6.84408 13.1057 6.81708C13.0404 6.79008 12.9811 6.75049 12.9312 6.70056C12.8812 6.65064 12.8416 6.59136 12.8145 6.52611C12.7875 6.46087 12.7736 6.39094 12.7736 6.32031V4.30367C12.774 3.98291 12.9016 3.67541 13.1284 3.44859C13.3553 3.22178 13.6628 3.09417 13.9835 3.09375H18.0168C18.3376 3.09417 18.6451 3.22178 18.8719 3.44859C19.0987 3.67541 19.2263 3.98291 19.2267 4.30367V6.32031C19.2267 6.39094 19.2128 6.46087 19.1858 6.52611C19.1587 6.59136 19.1191 6.65064 19.0691 6.70056C19.0192 6.75049 18.9599 6.79008 18.8946 6.81708C18.8294 6.84408 18.7594 6.85795 18.6888 6.85791V8.17919L21.2219 9.82143C21.2568 9.84415 21.2891 9.87103 21.3179 9.90079C21.7023 10.3006 21.9165 10.8341 21.9154 11.3888V21.6298C22.7186 22.0413 23.7061 22.0112 24.4818 21.5385L24.5918 21.4713C24.7135 21.4028 24.857 21.3842 24.9921 21.4194C25.1272 21.4547 25.2433 21.5411 25.3159 21.6604C25.3885 21.7797 25.4119 21.9225 25.3812 22.0587C25.3505 22.1949 25.268 22.3138 25.1512 22.3904L25.0418 22.457C24.4614 22.8082 23.7957 22.9932 23.1173 22.9917C22.7102 22.9917 22.3035 22.9248 21.9157 22.7933V24.6045C21.9157 24.6902 21.9138 24.7725 21.9122 24.8547C22.716 25.2678 23.7054 25.239 24.4821 24.7651L24.5922 24.6979C25.8546 23.9289 27.5003 23.9942 28.6866 24.8624C28.7461 24.9031 28.7969 24.9553 28.8358 25.016C28.8748 25.0766 28.9011 25.1445 28.9133 25.2156C28.9255 25.2867 28.9233 25.3595 28.9068 25.4296C28.8903 25.4998 28.8599 25.566 28.8173 25.6242C28.7747 25.6824 28.7209 25.7314 28.659 25.7684C28.5971 25.8054 28.5284 25.8295 28.457 25.8394C28.3855 25.8493 28.3129 25.8447 28.2432 25.826C28.1736 25.8072 28.1085 25.7747 28.0517 25.7302C27.212 25.1168 26.0472 25.0707 25.1518 25.6166L25.0421 25.6842C24.4614 26.0349 23.7956 26.2196 23.1173 26.2182ZM13.8491 5.78207H18.1515V4.30335C18.1515 4.26768 18.1374 4.23346 18.1122 4.2082C18.087 4.18295 18.0528 4.16871 18.0171 4.16863H13.9835C13.9478 4.16871 13.9137 4.18295 13.8885 4.2082C13.8633 4.23346 13.8491 4.26768 13.8491 4.30335V5.78207ZM11.1602 11.3885V13.8486H20.8398V11.3885C20.8398 11.129 20.7477 10.8816 20.5787 10.6864L17.8584 8.92223C17.7831 8.87347 17.7212 8.80665 17.6783 8.72784C17.6354 8.64903 17.613 8.56074 17.613 8.47103V6.85759H14.3867V7.93311H16.0002C16.1428 7.93311 16.2796 7.98977 16.3804 8.09062C16.4813 8.19147 16.5379 8.32825 16.5379 8.47087C16.5379 8.61349 16.4813 8.75027 16.3804 8.85112C16.2796 8.95197 16.1428 9.00863 16.0002 9.00863H14.0078L11.4213 10.6861C11.2524 10.8811 11.1597 11.1305 11.1602 11.3885ZM20.8264 25.1421H15.4622C15.3197 25.1417 15.183 25.0849 15.0822 24.9841C14.9814 24.8833 14.9247 24.7467 14.9243 24.6042C14.9243 24.3088 15.1662 24.0665 15.4622 24.0665H20.8398V14.9245H11.1602V24.0665C11.4558 24.0665 11.6978 24.3088 11.6978 24.6042C11.6978 24.8953 11.4629 25.1331 11.1736 25.1405C11.2424 26.4704 11.5995 27.8307 12.7736 27.8307H19.227C20.4005 27.831 20.7576 26.4717 20.8264 25.1421ZM7.51792 12.9334L7.40848 12.8672C6.14608 12.0973 4.50064 12.1622 3.31376 13.031C3.25679 13.0727 3.2086 13.1253 3.17194 13.1856C3.13527 13.2459 3.11085 13.3129 3.10006 13.3827C3.08928 13.4524 3.09234 13.5236 3.10907 13.5922C3.12581 13.6608 3.15589 13.7254 3.1976 13.7824C3.2393 13.8394 3.29182 13.8875 3.35215 13.9242C3.41249 13.9609 3.47945 13.9853 3.54922 13.9961C3.61899 14.0069 3.6902 14.0038 3.75879 13.9871C3.82737 13.9703 3.89199 13.9403 3.94896 13.8986C4.788 13.2851 5.95312 13.2384 6.84912 13.7856L6.95856 13.8521C7.08039 13.9263 7.22669 13.9491 7.36529 13.9154C7.50389 13.8817 7.62342 13.7943 7.6976 13.6725C7.77177 13.5506 7.79451 13.4043 7.76082 13.2657C7.72712 13.1271 7.63975 13.0076 7.51792 12.9334ZM7.51792 10.2445L7.40848 10.1785C6.14608 9.40863 4.50064 9.47359 3.31376 10.3424C3.19872 10.4266 3.12185 10.5531 3.10006 10.694C3.07828 10.8349 3.11336 10.9787 3.1976 11.0938C3.28183 11.2088 3.40831 11.2857 3.54922 11.3074C3.69013 11.3292 3.83392 11.2941 3.94896 11.2099C4.788 10.5968 5.95312 10.5498 6.84912 11.097L6.95856 11.1635C7.08047 11.2372 7.22657 11.2597 7.365 11.226C7.50342 11.1924 7.62292 11.1054 7.69744 10.984C7.77166 10.8621 7.79445 10.7157 7.76078 10.5771C7.72712 10.4384 7.63976 10.3188 7.51792 10.2445ZM11.0766 7.77247C11.137 7.73575 11.1894 7.6875 11.2311 7.63049C11.2727 7.57347 11.3028 7.5088 11.3194 7.44018C11.336 7.37155 11.339 7.30032 11.3281 7.23056C11.3172 7.16079 11.2926 7.09386 11.2558 7.03359C11.2193 6.97311 11.1711 6.92047 11.1141 6.8787C11.0571 6.83692 10.9924 6.80684 10.9237 6.79018C10.855 6.77352 10.7837 6.77062 10.7139 6.78164C10.6441 6.79266 10.5772 6.81739 10.517 6.85439L10.2485 7.01823C9.41936 7.52351 8.348 7.52383 7.51824 7.01759L7.4088 6.95135C6.1464 6.18207 4.50096 6.24607 3.31408 7.11519C3.25709 7.1569 3.20888 7.20942 3.1722 7.26976C3.13551 7.3301 3.11107 7.39707 3.10027 7.46686C3.07846 7.6078 3.11352 7.75163 3.19776 7.86671C3.28199 7.98179 3.40849 8.0587 3.54943 8.08051C3.69036 8.10233 3.83419 8.06726 3.94928 7.98303C4.78832 7.36959 5.95344 7.32351 6.84944 7.87007L6.95856 7.93631C7.53894 8.28786 8.20481 8.47307 8.88336 8.47167C9.56194 8.4733 10.2279 8.28808 10.8082 7.93631L11.0766 7.77247ZM13.3112 24.0665C13.0152 24.0665 12.7733 24.3088 12.7733 24.6042C12.7733 24.9002 13.0152 25.1421 13.3112 25.1421C13.6069 25.1421 13.8488 24.9002 13.8488 24.6042C13.8484 24.4617 13.7916 24.3252 13.6909 24.2245C13.5901 24.1237 13.4536 24.067 13.3112 24.0665ZM16.0002 21.9155C15.4298 21.9149 14.883 21.6881 14.4797 21.2848C14.0764 20.8816 13.8495 20.3348 13.8488 19.7645C13.8488 18.7203 15.3074 17.0419 15.5998 16.7165C15.8037 16.4896 16.1963 16.4896 16.4002 16.7165C16.6926 17.0419 18.1512 18.7206 18.1512 19.7645C18.1506 20.3348 17.9238 20.8816 17.5205 21.2848C17.1172 21.6881 16.5705 21.9149 16.0002 21.9155ZM16.0002 20.84C16.2853 20.8396 16.5586 20.7261 16.7602 20.5245C16.9618 20.3229 17.0753 20.0496 17.0757 19.7645C17.0757 19.4314 16.5714 18.625 15.9998 17.9085C15.4299 18.6211 14.9243 19.4214 14.9243 19.7645C14.9248 20.0496 15.0383 20.3229 15.24 20.5245C15.4417 20.7261 15.715 20.8396 16.0002 20.84Z" fill="#4257EE"/>
</svg>
