<svg width="24" height="24" viewBox="0 0 24 24" fill="none" xmlns="http://www.w3.org/2000/svg">
<path d="M16 12V11.999C16 9.79005 14.209 7.99905 12 7.99905C9.79097 7.99905 7.99997 9.79005 7.99997 11.999C7.99997 14.208 9.79097 15.999 12 15.999C13.104 15.999 14.104 15.551 14.828 14.828C15.551 14.127 16 13.146 16 12.06C16 12.039 16 12.018 15.999 11.997L16 12ZM18.16 12C18.148 15.379 15.406 18.114 12.025 18.114C8.63697 18.114 5.88997 15.367 5.88997 11.979C5.88997 8.59105 8.63697 5.84405 12.025 5.84405C13.719 5.84405 15.253 6.53105 16.363 7.64105C17.472 8.72105 18.161 10.228 18.161 11.897C18.161 11.933 18.161 11.97 18.16 12.006V12.001V12ZM19.847 5.59405V5.59605C19.847 6.39105 19.202 7.03605 18.407 7.03605C17.612 7.03605 16.967 6.39105 16.967 5.59605C16.967 4.80105 17.612 4.15605 18.407 4.15605C18.805 4.15605 19.165 4.31705 19.425 4.57805C19.681 4.82905 19.84 5.17905 19.84 5.56605V5.59505L19.847 5.59405ZM12.007 2.15405L10.812 2.14605C10.088 2.14071 9.53831 2.14071 9.16297 2.14605C8.78764 2.15138 8.28497 2.16705 7.65497 2.19305C7.06997 2.21305 6.51497 2.27105 5.97197 2.36305L6.04497 2.35305C5.61997 2.42305 5.24297 2.52305 4.88197 2.65605L4.92497 2.64205C3.88097 3.06705 3.06797 3.87905 2.65297 4.89605L2.64297 4.92305C2.52397 5.24105 2.42397 5.61805 2.35897 6.00605L2.35397 6.04305C2.27197 6.51205 2.21397 7.06705 2.19497 7.63205L2.19397 7.65305C2.16797 8.28371 2.15231 8.78638 2.14697 9.16105C2.14164 9.53571 2.14164 10.0854 2.14697 10.81C2.15231 11.5347 2.15497 11.933 2.15497 12.005C2.15497 12.077 2.15231 12.4754 2.14697 13.2C2.14164 13.9247 2.14164 14.4744 2.14697 14.849C2.15231 15.2237 2.16797 15.7264 2.19397 16.357C2.21397 16.942 2.27197 17.497 2.36397 18.04L2.35397 17.967C2.42397 18.392 2.52397 18.769 2.65697 19.13L2.64297 19.087C3.06797 20.131 3.87997 20.944 4.89697 21.359L4.92397 21.369C5.24197 21.488 5.61897 21.588 6.00697 21.653L6.04397 21.658C6.51297 21.74 7.06797 21.798 7.63197 21.817L7.65297 21.818C8.28364 21.844 8.78631 21.8597 9.16097 21.865C9.53564 21.8704 10.0853 21.8704 10.81 21.865L11.998 21.841L13.193 21.849C13.917 21.8544 14.4666 21.8544 14.842 21.849C15.2173 21.8437 15.72 21.828 16.35 21.802C16.935 21.782 17.49 21.724 18.033 21.632L17.96 21.642C18.385 21.572 18.762 21.472 19.123 21.339L19.08 21.353C20.124 20.928 20.937 20.116 21.352 19.099L21.362 19.072C21.481 18.754 21.581 18.377 21.646 17.989L21.651 17.952C21.733 17.483 21.791 16.928 21.81 16.364L21.811 16.343C21.837 15.7124 21.8526 15.2097 21.858 14.835C21.8633 14.4604 21.8633 13.9107 21.858 13.186C21.8526 12.4614 21.85 12.063 21.85 11.991C21.85 11.919 21.8526 11.5207 21.858 10.796C21.8633 10.0714 21.8633 9.52171 21.858 9.14705C21.8526 8.77238 21.837 8.26971 21.811 7.63905C21.791 7.05405 21.733 6.49905 21.641 5.95605L21.651 6.02905C21.581 5.60405 21.481 5.22705 21.348 4.86605L21.362 4.90905C20.937 3.86505 20.125 3.05205 19.108 2.63705L19.081 2.62705C18.763 2.50805 18.386 2.40805 17.998 2.34305L17.961 2.33805C17.492 2.25605 16.937 2.19805 16.373 2.17905L16.352 2.17805C15.7213 2.15205 15.2186 2.13638 14.844 2.13105C14.4693 2.12571 13.9196 2.12571 13.195 2.13105L12.007 2.15405ZM24 12C24 14.3854 23.9733 16.0364 23.92 16.953C23.925 17.054 23.929 17.172 23.929 17.29C23.929 20.957 20.956 23.93 17.289 23.93C17.17 23.93 17.052 23.927 16.935 23.921L16.951 23.922C16.0343 23.9754 14.3833 24.002 11.998 24.002C9.61264 24.002 7.96164 23.9754 7.04497 23.922C6.94397 23.927 6.82597 23.931 6.70797 23.931C3.04097 23.931 0.0679717 20.958 0.0679717 17.291C0.0679717 17.172 0.0709717 17.054 0.0769717 16.937L0.0759717 16.953C0.0226383 16.0364 -0.00402832 14.3854 -0.00402832 12C-0.00402832 9.61471 0.0226383 7.96371 0.0759717 7.04705C0.0709717 6.94605 0.0669717 6.82805 0.0669717 6.71005C0.0669717 3.04305 3.03997 0.0700469 6.70697 0.0700469C6.82597 0.0700469 6.94397 0.0730469 7.06097 0.0790469L7.04497 0.0780469C7.96164 0.0247135 9.61264 -0.00195312 11.998 -0.00195312C14.3833 -0.00195312 16.0343 0.0247135 16.951 0.0780469C17.052 0.0730469 17.17 0.0690469 17.288 0.0690469C20.955 0.0690469 23.928 3.04205 23.928 6.70905C23.928 6.82805 23.925 6.94605 23.919 7.06305L23.92 7.04705C23.9733 7.96305 24 9.61405 24 12Z" fill="#EFF4FA"/>
</svg>
