<svg width="333" height="96" viewBox="0 0 333 96" fill="none" xmlns="http://www.w3.org/2000/svg">
<path d="M4.63925 22.688H21.5353C23.4979 22.688 25.4606 22.8373 27.4233 23.136C29.4286 23.392 31.2206 23.9467 32.7993 24.8C34.3779 25.6107 35.6579 26.7627 36.6393 28.256C37.6206 29.7493 38.1113 31.7333 38.1113 34.208C38.1113 36.768 37.3859 38.9013 35.9353 40.608C34.5273 42.272 32.6499 43.4667 30.3033 44.192V44.32C31.7966 44.5333 33.1406 44.96 34.3353 45.6C35.5726 46.1973 36.6179 46.9867 37.4713 47.968C38.3673 48.9067 39.0499 50.016 39.5193 51.296C39.9886 52.576 40.2233 53.9413 40.2233 55.392C40.2233 57.7813 39.7113 59.7867 38.6873 61.408C37.6633 62.9867 36.3406 64.2667 34.7193 65.248C33.0979 66.2293 31.2633 66.9333 29.2153 67.36C27.2099 67.7867 25.2046 68 23.1993 68H4.63925V22.688ZM14.6233 40.8H21.8553C22.6233 40.8 23.3699 40.7147 24.0953 40.544C24.8633 40.3733 25.5459 40.096 26.1433 39.712C26.7406 39.328 27.2099 38.816 27.5513 38.176C27.9353 37.536 28.1273 36.768 28.1273 35.872C28.1273 34.9333 27.9139 34.1653 27.4873 33.568C27.1033 32.928 26.5913 32.4373 25.9513 32.096C25.3113 31.7547 24.5859 31.52 23.7753 31.392C22.9646 31.2213 22.1753 31.136 21.4073 31.136H14.6233V40.8ZM14.6233 59.552H23.5833C24.3513 59.552 25.1193 59.4667 25.8873 59.296C26.6979 59.1253 27.4233 58.8267 28.0633 58.4C28.7033 57.9733 29.2153 57.4187 29.5993 56.736C30.0259 56.0533 30.2393 55.2213 30.2393 54.24C30.2393 53.1733 29.9619 52.32 29.4073 51.68C28.8953 50.9973 28.2339 50.4853 27.4233 50.144C26.6126 49.8027 25.7379 49.568 24.7993 49.44C23.8606 49.312 22.9859 49.248 22.1753 49.248H14.6233V59.552ZM74.3633 62.624C72.8273 64.5867 70.8859 66.1013 68.5393 67.168C66.1926 68.2347 63.7606 68.768 61.2433 68.768C58.8539 68.768 56.5926 68.384 54.4593 67.616C52.3686 66.848 50.5339 65.76 48.9553 64.352C47.4193 62.9013 46.2033 61.1733 45.3073 59.168C44.4113 57.1627 43.9633 54.9227 43.9633 52.448C43.9633 49.9733 44.4113 47.7333 45.3073 45.728C46.2033 43.7227 47.4193 42.016 48.9553 40.608C50.5339 39.1573 52.3686 38.048 54.4593 37.28C56.5926 36.512 58.8539 36.128 61.2433 36.128C63.4619 36.128 65.4673 36.512 67.2593 37.28C69.0939 38.048 70.6299 39.1573 71.8673 40.608C73.1473 42.016 74.1286 43.7227 74.8113 45.728C75.4939 47.7333 75.8353 49.9733 75.8353 52.448V55.456H53.5633C53.9473 57.2907 54.7793 58.7627 56.0593 59.872C57.3393 60.9387 58.9179 61.472 60.7953 61.472C62.3739 61.472 63.6966 61.1307 64.7633 60.448C65.8726 59.7227 66.8326 58.8053 67.6433 57.696L74.3633 62.624ZM66.2353 48.928C66.2779 47.3067 65.7446 45.92 64.6353 44.768C63.5259 43.616 62.0966 43.04 60.3472 43.04C59.2806 43.04 58.3419 43.2107 57.5312 43.552C56.7206 43.8933 56.0166 44.3413 55.4193 44.896C54.8646 45.408 54.4166 46.0267 54.0753 46.752C53.7766 47.4347 53.6059 48.16 53.5633 48.928H66.2353ZM99.2733 46.048C97.8653 44.2987 96.0093 43.424 93.7053 43.424C92.8946 43.424 92.1053 43.616 91.3373 44C90.5693 44.384 90.1853 45.0453 90.1853 45.984C90.1853 46.752 90.5693 47.328 91.3373 47.712C92.1479 48.0533 93.1506 48.3733 94.3453 48.672C95.5826 48.928 96.8839 49.2267 98.2493 49.568C99.6573 49.8667 100.959 50.3573 102.153 51.04C103.391 51.7227 104.393 52.6613 105.161 53.856C105.972 55.008 106.377 56.5653 106.377 58.528C106.377 60.5333 105.929 62.1973 105.033 63.52C104.18 64.8 103.071 65.8453 101.705 66.656C100.34 67.424 98.8039 67.9573 97.0972 68.256C95.3906 68.5973 93.7053 68.768 92.0413 68.768C89.8653 68.768 87.6679 68.4693 85.4493 67.872C83.2306 67.232 81.3533 66.1227 79.8173 64.544L85.6413 58.08C86.5373 59.1893 87.5186 60.0427 88.5853 60.64C89.6946 61.1947 90.9746 61.472 92.4253 61.472C93.5346 61.472 94.5373 61.3227 95.4333 61.024C96.3293 60.6827 96.7773 60.0853 96.7773 59.232C96.7773 58.4213 96.3719 57.824 95.5613 57.44C94.7933 57.0133 93.7906 56.672 92.5533 56.416C91.3586 56.1173 90.0573 55.8187 88.6493 55.52C87.2839 55.1787 85.9826 54.688 84.7453 54.048C83.5506 53.408 82.5479 52.512 81.7373 51.36C80.9693 50.1653 80.5853 48.5867 80.5853 46.624C80.5853 44.7893 80.9479 43.2107 81.6733 41.888C82.4413 40.5653 83.4226 39.4773 84.6173 38.624C85.8546 37.7707 87.2626 37.152 88.8413 36.768C90.4199 36.3413 92.0199 36.128 93.6413 36.128C95.6893 36.128 97.7586 36.4267 99.8493 37.024C101.94 37.6213 103.711 38.688 105.161 40.224L99.2733 46.048ZM132.482 44.576H124.034V54.944C124.034 55.7973 124.077 56.5867 124.162 57.312C124.248 57.9947 124.44 58.592 124.738 59.104C125.037 59.616 125.485 60.0213 126.082 60.32C126.722 60.576 127.554 60.704 128.578 60.704C129.09 60.704 129.752 60.6613 130.562 60.576C131.416 60.448 132.056 60.192 132.482 59.808V67.808C131.416 68.192 130.306 68.448 129.154 68.576C128.002 68.704 126.872 68.768 125.762 68.768C124.141 68.768 122.648 68.5973 121.282 68.256C119.917 67.9147 118.722 67.3813 117.698 66.656C116.674 65.888 115.864 64.9067 115.266 63.712C114.712 62.5173 114.434 61.0667 114.434 59.36V44.576H108.29V36.896H114.434V27.68H124.034V36.896H132.482V44.576ZM137.489 36.896H147.089V68H137.489V36.896ZM136.721 27.104C136.721 25.568 137.254 24.2667 138.321 23.2C139.43 22.0907 140.753 21.536 142.289 21.536C143.825 21.536 145.126 22.0907 146.193 23.2C147.302 24.2667 147.857 25.568 147.857 27.104C147.857 28.64 147.302 29.9627 146.193 31.072C145.126 32.1387 143.825 32.672 142.289 32.672C140.753 32.672 139.43 32.1387 138.321 31.072C137.254 29.9627 136.721 28.64 136.721 27.104ZM153.986 36.896H163.202V41.12H163.33C163.628 40.5227 164.055 39.9253 164.61 39.328C165.164 38.7307 165.826 38.1973 166.594 37.728C167.362 37.2587 168.236 36.8747 169.218 36.576C170.199 36.2773 171.266 36.128 172.418 36.128C174.85 36.128 176.812 36.512 178.306 37.28C179.799 38.0053 180.951 39.0293 181.762 40.352C182.615 41.6747 183.191 43.232 183.49 45.024C183.788 46.816 183.938 48.7573 183.938 50.848V68H174.338V52.768C174.338 51.872 174.295 50.9547 174.21 50.016C174.167 49.0347 173.975 48.1387 173.634 47.328C173.335 46.5173 172.844 45.856 172.162 45.344C171.522 44.832 170.583 44.576 169.346 44.576C168.108 44.576 167.106 44.8107 166.338 45.28C165.57 45.7067 164.972 46.304 164.546 47.072C164.162 47.7973 163.906 48.6293 163.778 49.568C163.65 50.5067 163.586 51.488 163.586 52.512V68H153.986V36.896ZM194.064 44.576H187.728V36.896H194.064V31.392C194.064 29.6853 194.213 28.0853 194.512 26.592C194.81 25.056 195.386 23.712 196.24 22.56C197.093 21.408 198.309 20.512 199.888 19.872C201.509 19.1893 203.621 18.848 206.224 18.848C207.205 18.848 208.165 18.8907 209.104 18.976C210.042 19.0613 210.96 19.2107 211.856 19.424L211.408 27.552C210.853 27.3387 210.341 27.1893 209.872 27.104C209.402 26.976 208.869 26.912 208.272 26.912C206.736 26.912 205.584 27.2533 204.816 27.936C204.048 28.576 203.664 29.92 203.664 31.968V36.896H210.768V44.576H203.664V68H194.064V44.576ZM213.271 52.448C213.271 49.9733 213.719 47.7333 214.615 45.728C215.511 43.7227 216.727 42.016 218.263 40.608C219.842 39.1573 221.677 38.048 223.767 37.28C225.901 36.512 228.162 36.128 230.551 36.128C232.941 36.128 235.181 36.512 237.271 37.28C239.405 38.048 241.239 39.1573 242.775 40.608C244.354 42.016 245.591 43.7227 246.487 45.728C247.383 47.7333 247.831 49.9733 247.831 52.448C247.831 54.9227 247.383 57.1627 246.487 59.168C245.591 61.1733 244.354 62.9013 242.775 64.352C241.239 65.76 239.405 66.848 237.271 67.616C235.181 68.384 232.941 68.768 230.551 68.768C228.162 68.768 225.901 68.384 223.767 67.616C221.677 66.848 219.842 65.76 218.263 64.352C216.727 62.9013 215.511 61.1733 214.615 59.168C213.719 57.1627 213.271 54.9227 213.271 52.448ZM222.871 52.448C222.871 54.7947 223.533 56.6933 224.855 58.144C226.221 59.5947 228.119 60.32 230.551 60.32C232.983 60.32 234.861 59.5947 236.183 58.144C237.549 56.6933 238.231 54.7947 238.231 52.448C238.231 50.1013 237.549 48.2027 236.183 46.752C234.861 45.3013 232.983 44.576 230.551 44.576C228.119 44.576 226.221 45.3013 224.855 46.752C223.533 48.2027 222.871 50.1013 222.871 52.448ZM253.486 36.896H263.086V41.888H263.214C264.238 39.968 265.454 38.5387 266.862 37.6C268.27 36.6187 270.04 36.128 272.174 36.128C272.728 36.128 273.283 36.1493 273.838 36.192C274.392 36.2347 274.904 36.32 275.374 36.448V45.216C274.691 45.0027 274.008 44.8533 273.326 44.768C272.686 44.64 272.003 44.576 271.278 44.576C269.443 44.576 267.992 44.832 266.926 45.344C265.859 45.856 265.027 46.5813 264.43 47.52C263.875 48.416 263.512 49.504 263.342 50.784C263.171 52.064 263.086 53.472 263.086 55.008V68H253.486V36.896ZM280.673 36.896H289.889V41.12H290.017C290.316 40.5227 290.743 39.9253 291.297 39.328C291.852 38.7307 292.513 38.1973 293.281 37.728C294.049 37.2587 294.924 36.8747 295.905 36.576C296.887 36.2773 297.953 36.128 299.105 36.128C301.281 36.128 303.201 36.576 304.865 37.472C306.572 38.368 307.852 39.776 308.705 41.696C309.815 39.6907 311.159 38.2613 312.737 37.408C314.316 36.5547 316.257 36.128 318.561 36.128C320.652 36.128 322.401 36.4907 323.809 37.216C325.26 37.8987 326.391 38.8587 327.201 40.096C328.055 41.2907 328.652 42.72 328.993 44.384C329.377 46.0053 329.569 47.7547 329.569 49.632V68H319.969V49.888C319.969 48.4373 319.649 47.2 319.009 46.176C318.412 45.1093 317.324 44.576 315.745 44.576C314.636 44.576 313.697 44.768 312.929 45.152C312.204 45.4933 311.607 45.984 311.137 46.624C310.711 47.264 310.391 48.0107 310.177 48.864C310.007 49.7173 309.921 50.6133 309.921 51.552V68H300.321V51.552C300.321 50.9973 300.3 50.3147 300.257 49.504C300.215 48.6933 300.065 47.9253 299.809 47.2C299.553 46.4747 299.127 45.856 298.529 45.344C297.975 44.832 297.143 44.576 296.033 44.576C294.796 44.576 293.793 44.8107 293.025 45.28C292.257 45.7067 291.66 46.304 291.233 47.072C290.849 47.7973 290.593 48.6293 290.465 49.568C290.337 50.5067 290.273 51.488 290.273 52.512V68H280.673V36.896Z" fill="#FBFFFE"/>
</svg>
