<svg width="429" height="96" viewBox="0 0 429 96" fill="none" xmlns="http://www.w3.org/2000/svg">
<mask id="mask0_44_107403" style="mask-type:luminance" maskUnits="userSpaceOnUse" x="0" y="12" width="72" height="72">
<path d="M72 12H0V84H72V12Z" fill="white"/>
</mask>
<g mask="url(#mask0_44_107403)">
<path d="M69.8533 45.3306C69.5291 42.7543 69.0023 40.1953 68.0991 37.7579C68.1049 37.4568 69.8997 36.1368 68.7359 34.0873C67.8501 32.5183 66.0322 32.9815 65.8643 32.8136C65.0654 31.2041 64.0464 29.7162 62.9927 28.2688C64.3822 25.8719 62.1127 23.0755 59.6058 24.4013C58.4749 23.2203 57.3459 22.0373 56.2189 20.8523C57.1452 18.0328 54.0304 15.9022 51.8709 17.9402C50.2383 17.1933 48.5419 16.5854 46.8861 15.908C46.8456 13.1406 43.2676 12.2606 41.9013 14.6749C40.8129 14.5668 39.7225 14.4606 38.6302 14.3564C38.3639 12.7643 37.0496 11.7685 35.4401 12.0464C34.4154 12.2259 33.6048 13.3954 33.3675 14.3564C32.3061 14.4877 31.2427 14.6208 30.1774 14.7559C28.7995 12.1911 25.2679 13.1348 25.1521 15.9544C23.585 16.5912 22.0161 17.23 20.4452 17.8707C20.3641 17.8977 20.285 17.9247 20.2078 17.9518C19.1715 16.7591 17.0814 16.9386 16.1782 18.2297C15.2635 19.5323 15.9698 20.7134 15.8598 20.9392C14.7559 22.0701 13.6521 23.199 12.5482 24.3261C10.9676 23.4113 8.72706 24.7313 8.59969 26.5203C8.52443 27.5624 9.19602 28.0835 8.99918 28.4367C8.06899 29.8725 7.13879 31.3083 6.2086 32.7441L6.01176 32.9409C4.06646 32.5299 2.59012 34.3941 3.02434 36.2526C3.2154 37.0747 3.9912 37.5205 3.97962 37.8447C3.09381 40.2937 2.6017 42.8469 2.22538 45.4175C-0.727302 46.0891 -0.756249 49.887 2.22538 50.5181C2.60749 53.1118 3.10539 55.694 3.97962 58.1719C1.98801 60.3835 3.03013 63.3825 6.13334 63.1162C7.00756 64.6967 7.96284 66.2368 9.08602 67.661C7.62705 70.1505 9.8734 72.8079 12.554 71.6905L15.9409 75.2395C14.8872 78.0649 18.0714 79.9523 20.3641 78.0706C21.9311 78.7075 23.5001 79.3463 25.071 79.987C25.3142 82.8586 28.6548 83.8313 30.1716 81.2607C30.6001 81.3012 33.4659 81.4865 33.5585 81.7007C33.6048 83.9644 36.6849 84.8213 38.0223 83.0555C38.5897 82.3086 38.4449 81.7297 38.7807 81.5791C39.792 81.4711 40.8013 81.3649 41.8087 81.2607C43.314 83.785 46.6835 82.9165 46.9093 80.0623C48.5882 79.4138 50.2614 78.7307 51.9346 78.0706C54.0131 80.1259 57.1916 77.8101 56.1205 75.1585C57.2514 74.0006 58.3803 72.8446 59.5074 71.6905C62.1243 72.8021 64.3069 70.1563 62.9753 67.7421C63.9325 66.2522 64.8898 64.7643 65.847 63.2783L66.0438 63.0814C68.927 63.5272 70.0039 60.1461 68.0759 58.2587C68.9502 55.7519 69.5349 53.1639 69.8302 50.5239C72.7713 49.8581 72.7655 46.1701 69.8302 45.3422L69.8533 45.3306ZM66.1017 38.2326C65.5845 40.3709 65.0654 42.5111 64.5443 44.6533L62.5932 44.4564C61.582 42.4648 60.5727 40.4713 59.5653 38.4758C59.5653 38.221 60.7637 37.671 60.8795 35.8821H63.9074C64.1101 38.0068 66.0438 38.0705 66.1017 38.2326ZM48.8777 45.0064C47.3145 46.037 47.3088 47.5365 47.164 47.6001H39.5102C39.3828 46.5812 38.7923 45.6606 37.9528 45.0875C39.296 42.4165 40.6392 39.7456 41.9824 37.0747C43.0245 37.7752 44.7556 37.0284 44.8945 37.1152C46.2222 39.7476 47.5519 42.3799 48.8835 45.0122L48.8777 45.0064ZM45.5314 36.7158C45.5314 36.4957 46.4577 36.0094 46.7645 34.7647C49.1962 35.1236 51.6278 35.4826 54.0594 35.8415C54.0594 37.5552 55.3505 38.1747 55.3331 38.4758C54.2022 40.5639 53.0732 42.6501 51.9462 44.7343C50.7014 44.2017 49.6651 44.6996 49.5551 44.6533C48.2293 42.0016 46.8803 39.3616 45.5256 36.7215L45.5314 36.7158ZM44.7729 30.8567C43.8755 30.4225 42.8218 30.4225 41.9013 30.7757C40.7318 28.7377 39.597 26.6708 38.3523 24.6734C38.3349 24.4592 39.2902 23.585 39.5855 22.5603C42.0171 22.8652 44.4487 23.1701 46.8803 23.475C46.9093 25.345 48.0846 25.9877 48.0788 26.1845C46.9749 27.74 45.871 29.2955 44.7671 30.8509L44.7729 30.8567ZM37.2002 44.7285C36.0075 44.1785 34.977 44.8154 34.7686 44.688C33.4678 42.0557 32.1652 39.4233 30.8606 36.791C30.8606 36.5247 31.9722 35.9631 32.2559 34.2783H39.8286C39.9618 34.3362 39.8576 35.8068 41.305 36.71C39.9348 39.3809 38.5665 42.0518 37.2002 44.7227V44.7285ZM30.1022 37.0747C30.1408 37.1133 30.1813 37.1538 30.2237 37.1963C31.5013 39.7746 32.7769 42.3529 34.0506 44.9311C34.0622 45.2554 32.7596 46.0717 32.4933 47.6001H24.8394C24.7005 47.5307 24.8047 46.1064 23.2068 45.0064C24.577 42.3625 25.9452 39.7186 27.3116 37.0747C28.209 37.4047 29.2106 37.5205 30.1022 37.0747ZM23.9999 26.1093C24.0115 25.9645 25.1637 25.1829 25.1173 23.5561C26.2984 23.3418 31.4801 22.5371 32.0938 22.5603C33.0375 22.595 32.3601 23.5213 33.8075 24.5924C33.7805 24.6464 33.7534 24.7005 33.7264 24.7545C32.5454 26.7345 31.3624 28.7146 30.1774 30.6946C29.9922 30.7467 28.6606 30.0925 27.3869 30.8567C26.256 29.2742 25.127 27.6937 23.9999 26.115V26.1093ZM22.5641 44.6127C22.3905 44.7285 21.4062 44.2132 20.1325 44.7343C19.0016 42.596 17.8727 40.4558 16.7456 38.3137C17.6662 37.5437 17.8456 36.9184 18.1409 35.801C19.4841 35.7663 24.631 34.7415 24.9958 34.7647C25.7252 34.8052 25.2679 35.6042 26.6284 36.7158C25.2737 39.3481 23.9189 41.9804 22.5641 44.6127ZM19.4551 45.0875C18.2277 46.0254 18.0367 47.5365 17.8977 47.6001H12.1545C11.8245 45.5101 10.1976 45.0412 10.2034 44.688C11.1876 42.7736 12.1719 40.8592 13.1561 38.9447C13.3992 38.7595 15.3156 39.3732 15.9061 38.7479C16.1088 38.7016 16.2188 38.9332 16.3461 39.1068C16.6993 39.5932 18.6562 43.8659 19.4551 45.0875ZM12.1603 48.318H17.9788C18.1351 49.3139 18.5867 50.2691 19.4551 50.8307C18.3242 52.969 17.1953 55.1092 16.0682 57.2514C15.1882 56.8461 14.1461 56.7882 13.2777 57.2514C13.2391 57.2128 13.1985 57.1722 13.1561 57.1298C12.1719 55.1613 11.1876 53.1948 10.2034 51.2302C10.215 51.0044 11.8419 50.356 12.1545 48.318H12.1603ZM20.1325 51.2707C20.2657 51.2302 21.5104 51.6934 22.4426 51.2707C23.9478 53.8355 25.1463 56.5798 26.5474 59.2024C26.5589 59.463 25.6673 59.9203 25.3142 61.1535C22.9212 60.8332 20.5281 60.5147 18.1351 60.1982C17.8977 60.0535 18.083 58.7335 16.7398 57.6856C17.8707 55.5473 18.9997 53.4071 20.1267 51.2649L20.1325 51.2707ZM23.282 51.0681C23.2647 50.6512 24.6021 50.1128 24.8394 48.318H32.5743C32.5743 49.3949 33.2806 50.2228 34.0506 50.9118C32.7345 53.5827 31.4183 56.2536 30.1022 58.9245C29.5058 58.1835 27.41 59.0751 27.1147 58.7277C26.8368 58.3977 24.0289 52.0813 23.2878 51.0739L23.282 51.0681ZM27.3116 65.1425C28.1916 65.5536 29.2048 65.5825 30.1022 65.2236C31.4164 67.1805 32.4527 69.3284 33.7322 71.3258C33.7322 71.4937 32.7248 72.3042 32.5743 73.3579C30.4958 73.0685 28.3363 73.0048 26.2752 72.64C24.0405 72.2406 26.1305 72.2116 23.9999 69.8089C25.1038 68.2535 26.2077 66.698 27.3116 65.1425ZM34.8033 51.2707C35.4691 51.4676 36.4996 51.5602 37.1133 51.2707C37.206 51.3093 37.2986 51.3499 37.3912 51.3923C38.6919 54.0246 39.9946 56.657 41.2992 59.2893C39.9734 60.2503 39.9502 61.5067 39.8228 61.5646H32.169C32.0359 60.644 31.5611 59.8046 30.7737 59.2893C32.1169 56.6184 33.4601 53.9474 34.8033 51.2765V51.2707ZM41.9418 58.884L37.9528 50.9118C38.7807 50.1533 39.3655 49.476 39.5102 48.318H47.2451C47.4014 50.2054 48.8661 50.8307 48.8777 50.987C47.5075 53.6309 46.1393 56.2748 44.7729 58.9187C43.2792 58.224 42.0866 58.9651 41.9418 58.8782V58.884ZM48.0846 69.8089C48.0903 69.9884 46.9209 70.7584 46.8861 72.3621C46.6835 72.6748 40.3671 73.2132 39.5102 73.3579C39.2497 72.0437 38.3407 71.5516 38.3523 71.2447C39.6028 69.2647 40.6623 67.1515 41.9824 65.2236C42.7408 65.5883 43.9566 65.5652 44.6919 65.1425C45.8228 66.698 46.9517 68.2535 48.0788 69.8089H48.0846ZM49.6362 51.2707C50.3714 51.5255 51.1878 51.4792 51.9462 51.2707C53.1215 53.355 54.2041 55.555 55.3331 57.6914C55.3042 57.8303 53.9957 58.5945 54.0594 60.0825C53.9938 60.121 53.9282 60.1616 53.8626 60.204C51.4965 60.5514 49.1305 60.8969 46.7645 61.2404C46.4345 59.7872 45.5198 59.5151 45.5314 59.2082L49.6362 51.2765V51.2707ZM52.6294 50.9118C52.6294 50.7091 53.8915 49.9102 54.0247 48.318H59.9242C60.26 50.5934 61.8232 50.9755 61.8753 51.1491C60.8795 53.1562 59.8837 55.1632 58.8879 57.1703C57.18 56.5277 56.1552 57.2977 56.0163 57.2514C54.8526 55.1613 53.8104 52.996 52.6294 50.9118ZM59.8432 47.6001H54.0999C53.961 47.5422 53.9436 46.1006 52.6236 45.0875C53.7815 42.9762 54.9375 40.863 56.0915 38.7479C56.9484 39.1532 57.9558 39.2053 58.8011 38.7479C58.8397 38.7865 58.8802 38.827 58.9226 38.8695C59.9069 40.8109 60.8911 42.7504 61.8753 44.688C61.8637 44.9369 60.2716 45.5969 59.8432 47.6001ZM62.3964 28.8593C62.5295 28.8651 63.7106 30.6367 63.8727 30.8914C66.1306 34.4289 64.5559 32.223 63.8322 35.1584H60.8795C60.7 35.0831 60.7579 33.1088 58.6042 32.2462C58.9361 31.1964 59.2681 30.1465 59.6 29.0967C60.5032 29.583 61.5743 29.5193 62.3906 28.8593H62.3964ZM53.5846 22.4445C53.6657 22.346 54.7947 22.6355 55.6978 21.5297C56.1436 21.8481 58.8821 24.6098 58.8474 24.8413C58.5965 25.2273 58.3437 25.6133 58.0889 25.9993C56.5875 25.5863 55.0861 25.1752 53.5846 24.7661C53.5094 24.6387 53.9899 23.5734 53.5846 22.456V22.4445ZM53.1446 25.4319C54.8043 25.8719 56.4659 26.31 58.1295 26.7461C57.9674 27.8982 58.9168 28.4019 58.9284 28.7377C58.5425 29.8686 58.1565 30.9976 57.7705 32.1246C57.2109 32.1787 56.6531 32.2327 56.0973 32.2867C54.7831 30.3646 53.5615 28.3498 52.2299 26.4277C52.5348 26.0957 52.8397 25.7638 53.1446 25.4319ZM55.4199 32.6515C55.4257 32.8946 54.2852 33.4215 54.0247 35.0831C51.593 34.7241 49.1614 34.3652 46.7298 34.0062C46.7472 32.8831 46.3187 31.9162 45.375 31.2967C46.4789 29.7412 47.5828 28.1858 48.6867 26.6303C48.8314 26.5956 49.9546 27.354 51.4772 26.7114C52.7934 28.6914 54.1096 30.6714 55.4257 32.6515H55.4199ZM46.8456 16.7417C47.0598 16.6549 50.9736 18.2702 51.153 18.4149C51.2341 18.4844 51.3615 18.5886 51.3499 18.6928C50.6725 21.2518 51.0604 19.376 48.5998 20.4876C48.3682 20.0823 46.4982 17.7549 46.4866 17.5754C46.4866 17.5291 46.8051 16.7533 46.8456 16.7359V16.7417ZM42.5382 18.0154C43.5282 18.6928 44.8945 18.8491 45.8845 18.0965C46.614 18.9707 47.2103 19.9549 47.9167 20.8465C47.9456 21.136 47.1061 21.605 46.9209 22.7224C44.4622 22.3904 42.0036 22.0585 39.5449 21.7266C39.5276 21.2055 39.4176 20.6671 39.1455 20.2097C40.2764 19.4802 41.4053 18.7488 42.5324 18.0154H42.5382ZM36.4417 17.4191C36.5402 17.1644 38.2828 17.0544 38.636 15.0685C39.6472 15.1998 40.6565 15.3329 41.6639 15.468C41.7276 15.5433 41.3744 16.5102 42.0229 17.3438C40.946 18.1004 39.8692 18.8588 38.7923 19.6192C37.5823 18.3339 36.0133 18.5481 36.4417 17.4249V17.4191ZM37.5186 25.0324C37.727 24.9861 37.7849 25.1771 37.9586 25.3914C38.306 25.8256 40.3786 29.9593 41.2297 31.0536C41.2297 31.262 39.9676 32.1362 39.8749 33.5257C37.3353 33.5643 34.7975 33.6048 32.2617 33.6473C32.0243 31.9509 30.8606 31.2678 30.8664 31.0536C31.9818 29.1391 33.0973 27.2247 34.2128 25.3103C34.5775 24.8877 36.1523 25.8487 37.5244 25.0324H37.5186ZM30.4206 15.468C31.0111 15.4333 32.7422 15.0628 33.0548 15.0685C34.0217 15.0975 33.188 15.7517 34.2533 16.6607C35.058 17.3496 36.0828 16.8575 35.527 18.3339C34.6817 18.4207 33.9349 18.9012 33.3733 19.5323C32.2424 18.8028 31.1134 18.0714 29.9864 17.3381C30.5248 16.8517 30.5248 16.1223 30.4264 15.4622L30.4206 15.468ZM26.2752 18.0965C27.1611 18.7797 28.5158 18.7333 29.3843 18.0154C30.5653 18.7449 31.7483 19.4763 32.9333 20.2097C32.802 20.7153 32.6689 21.2209 32.5338 21.7266C30.0481 22.0585 27.5625 22.3904 25.0768 22.7224C25.0015 21.9987 24.5847 21.4139 24.081 20.9276C24.3705 20.5918 26.0958 18.1081 26.2752 18.0965ZM20.8504 18.496C21.4352 18.3744 24.9263 16.707 25.1579 16.7417C25.2737 16.7591 25.6152 17.5349 25.5979 17.6565C25.5747 17.836 23.6642 20.1113 23.4036 20.4876C22.6683 19.8334 21.2094 20.2155 21.1283 20.1286C20.9971 19.623 20.8639 19.1174 20.7288 18.6118L20.8504 18.4902V18.496ZM20.6131 26.7866C21.5104 27.0182 22.5352 27.1051 23.3226 26.5493L26.6342 31.1346C26.6689 31.482 25.291 32.1536 25.3605 33.9252C22.9289 34.3382 20.4973 34.7492 18.0656 35.1584C17.7935 34.0062 17.5851 33.5141 16.6704 32.7267C17.9267 30.7293 19.212 28.703 20.6188 26.7866H20.6131ZM16.3056 21.5239C17.2783 22.6008 18.4825 22.3171 18.4999 22.4387C18.2741 23.1566 18.2741 23.9382 18.4999 24.6734C16.9714 25.1405 15.443 25.6056 13.9145 26.0687C13.6868 25.6017 13.461 25.1366 13.2371 24.6734C14.26 23.6236 15.2828 22.5738 16.3056 21.5239ZM13.955 26.8272C15.5105 26.3601 17.066 25.895 18.6214 25.4319C19.1136 25.4029 19.4378 26.1729 19.8546 26.5087C18.6041 28.4232 17.3555 30.3376 16.1088 32.252L14.314 32.1304C14.1751 31.6672 13.1387 28.8419 13.1561 28.6625C13.1677 28.5582 13.9898 27.9272 13.955 26.8272ZM9.68813 28.8593C10.5508 29.5135 11.5118 29.5598 12.4787 29.0967L13.4745 32.1651C13.4398 32.4778 11.6103 32.7499 11.1992 35.1526H8.24653C8.13074 35.1005 8.10179 33.6994 6.85125 33.1204C7.79302 31.7001 8.73672 30.2777 9.68235 28.8535L9.68813 28.8593ZM8.17127 35.8763H11.1992C11.3208 35.9631 11.0892 37.3931 12.5945 38.3889L9.4855 44.4506C8.83321 44.5162 8.18285 44.5818 7.53442 44.6475C7.01721 42.5092 6.49808 40.369 5.97702 38.2268C7.12335 37.9605 8.07284 37.0979 8.17127 35.8763ZM5.2649 57.6856C5.17227 57.8477 4.91753 57.9577 4.74384 57.8824C4.39068 57.7319 3.03013 51.2939 3.07066 50.466C6.11018 49.8175 5.9886 46.0601 3.03013 45.4001C3.09381 44.5896 4.35015 38.3774 4.66279 38.1863C4.83647 38.0821 5.16069 38.1921 5.25911 38.3831C5.40964 38.6784 6.35334 43.8948 6.77598 44.8443C6.7644 45.3712 5.53701 45.5854 5.34017 47.3165C5.17806 48.7696 5.49649 50.1012 6.77598 50.906C6.46913 51.7976 5.43859 57.3845 5.25911 57.6856H5.2649ZM6.05807 57.8477C6.54826 55.6824 7.04037 53.5171 7.53442 51.3518C8.18671 51.3904 8.83707 51.4309 9.4855 51.4734C10.4967 53.492 11.5061 55.5126 12.5134 57.535C12.5134 57.7782 11.3034 58.4035 11.1992 60.0477H8.17127C8.02653 59.9782 8.0439 58.1487 6.05807 57.8535V57.8477ZM12.4787 66.8157C11.4076 66.4684 10.6203 66.422 9.68813 67.1341C8.66338 65.8199 7.80073 64.3725 6.93809 62.9483C6.91493 62.6299 7.99179 62.2941 8.25232 60.754H11.205C11.3845 60.8351 11.095 62.6993 13.4803 63.7415L12.4845 66.8099L12.4787 66.8157ZM18.4999 73.3985C18.4304 73.5027 17.2725 73.2885 16.3056 74.4753C15.2828 73.3985 14.26 72.3216 13.2371 71.2447C13.4649 70.8318 13.6907 70.4207 13.9145 70.0116C15.4545 70.4091 16.9965 70.8086 18.5404 71.21C18.7025 71.3895 18.0888 72.5706 18.4999 73.4042V73.3985ZM18.8588 70.5674L13.955 69.1721C14.0708 68.3326 13.5266 67.8347 13.1561 67.1805C13.4282 66.7578 14.0766 63.9615 14.314 63.8688C14.8351 63.973 15.6745 63.7067 15.7498 63.7067C16.0567 63.7183 15.9872 63.7183 16.1898 63.9036C16.4388 64.1294 19.1888 68.79 19.8604 69.5658L18.8646 70.5616L18.8588 70.5674ZM16.6646 63.3478C16.6588 63.1104 17.8688 62.4851 18.0599 60.9161C20.4915 61.2481 22.9231 61.58 25.3547 61.912C25.2447 63.1104 25.841 64.0078 26.7095 64.7836C25.6056 66.312 24.5017 67.8405 23.3978 69.3689C23.2184 69.4152 22.0952 68.6452 20.6073 69.2879C19.2911 67.3078 17.9749 65.3278 16.6588 63.3478H16.6646ZM25.1579 79.2575C24.9321 79.3443 21.2673 77.5612 20.7346 77.3817C21.3252 74.7359 21.0646 76.5769 23.4036 75.5059C23.6989 75.8301 25.5805 78.1575 25.5979 78.337C25.5979 78.3891 25.2042 79.2343 25.1579 79.2517V79.2575ZM29.6216 77.9838C29.4421 77.9954 28.2727 76.658 26.1942 77.8217C25.4917 76.9031 24.7873 75.9864 24.081 75.0716C24.0694 74.9443 24.8915 74.3711 25.1579 73.1958C27.6049 73.4892 30.0501 73.7825 32.4933 74.0758L32.9333 75.7085C31.8294 76.465 30.7255 77.2234 29.6216 77.9838ZM35.6428 78.6612C35.5675 78.8059 33.9175 78.7943 33.4485 80.8554C29.089 80.3865 31.1385 80.9712 30.0616 78.5801C31.1385 77.8506 32.2153 77.1192 33.2922 76.3859C34.3806 77.5438 36.2333 77.4859 35.6428 78.6612ZM34.4849 70.9668C34.4192 70.9282 34.3536 70.8877 34.288 70.8453C33.1455 68.8768 32.0031 66.9103 30.8606 64.9457C30.8374 64.6852 31.9838 63.8688 32.2559 62.2767C34.8226 62.3153 37.3874 62.3558 39.9502 62.3983C39.9155 63.4057 40.5813 64.2336 41.305 64.8704L37.6749 70.8916C37.5186 70.9379 35.9207 70.0521 34.4849 70.9726V70.9668ZM41.5018 80.5312C40.5176 80.6393 39.5334 80.7454 38.5491 80.8496C38.3581 78.9159 36.4244 78.7364 36.3549 78.5743C35.8801 77.4396 37.4607 77.6827 38.7055 76.4611C39.8364 77.1906 40.9653 77.922 42.0924 78.6554C41.3976 79.2401 41.7566 80.4154 41.496 80.5312H41.5018ZM45.8903 77.8217C43.8292 76.6464 42.706 78.0127 42.4629 77.9838C41.386 77.2543 40.3092 76.5229 39.2323 75.7896L39.6723 74.0758C41.9843 73.7825 44.2962 73.4892 46.6082 73.1958C47.0772 73.0453 47.0482 74.2495 48.0035 75.0716C47.301 75.9903 46.5966 76.9069 45.8903 77.8217ZM46.9266 79.2575C46.863 79.2459 46.4808 78.4006 46.4866 78.3428C46.504 78.1691 48.3798 75.9169 48.5998 75.5117C49.3351 75.8764 50.1167 76.0675 50.9099 75.749C51.0295 76.2932 51.1492 76.8375 51.2688 77.3817C49.8214 78.007 48.3721 78.6322 46.9209 79.2575H46.9266ZM51.4715 69.2879C50.6435 68.9173 49.5262 68.9173 48.7619 69.45C47.631 67.8945 46.5021 66.339 45.375 64.7836C45.3635 64.5983 46.7298 63.8862 46.7298 61.993C48.044 61.7267 52.6294 60.9335 53.4689 60.9161C53.602 60.9161 54.0015 60.8814 54.0652 60.9567C54.181 62.653 55.4026 63.1336 55.4199 63.2667C54.1115 65.2699 52.8146 67.2963 51.4715 69.2879ZM55.7789 74.4753C55.2115 73.7748 54.3894 73.6358 53.5846 73.3985C53.8452 72.7616 53.7699 72.0263 53.5036 71.4068C53.9841 71.1347 57.62 70.0174 57.8516 70.0116C57.9789 70.0116 58.1353 69.9884 58.2105 70.0521C58.4228 70.4496 58.6351 70.8491 58.8474 71.2505C57.8245 72.3274 56.8017 73.4042 55.7789 74.4811V74.4753ZM58.0079 69.2126C56.4138 69.6912 54.8198 70.1698 53.2257 70.6484L52.2299 69.5716C53.519 67.6185 54.8082 65.6655 56.0973 63.7125L57.8921 63.9094C58.2395 65.0789 58.5849 66.2483 58.9284 67.4178C58.0889 68.0026 58.2105 69.0331 58.0137 69.2126H58.0079ZM62.4774 67.1341C62.3327 67.1689 61.3253 66.0515 59.6058 66.8968C59.4842 66.4047 58.581 63.9036 58.6911 63.6662C60.8506 62.763 60.7116 60.8409 60.8853 60.754H63.838C64.0696 61.7788 64.2954 62.3056 65.2333 62.8672C64.3147 64.2876 63.398 65.7099 62.4832 67.1341H62.4774ZM63.8322 60.0419H60.8795C60.7463 58.3514 59.5711 57.7782 59.5653 57.5293C60.5765 55.5106 61.5858 53.4901 62.5932 51.4676C63.2185 51.402 63.8438 51.3363 64.469 51.2707C64.5347 51.3093 64.6003 51.3499 64.6659 51.3923C65.1445 53.519 65.6231 55.6457 66.1017 57.7724C66.0438 57.9345 64.2722 57.9345 63.8264 60.0477L63.8322 60.0419ZM67.3407 57.8882C67.1554 57.9693 66.9064 57.784 66.8196 57.6103C66.6749 57.3092 65.7485 52.0871 65.3027 51.0739C65.3259 50.6802 66.7443 50.1997 66.698 48.3238C67.0801 49.5744 67.7401 50.246 69.0486 50.5181C69.0428 51.3344 67.6822 57.7377 67.3349 57.894L67.3407 57.8882ZM66.7038 47.6812C66.7038 45.7648 65.3201 45.2206 65.3085 44.8501C65.737 44.1206 66.7096 38.2616 67.0222 38.111C67.138 38.0531 67.358 38.111 67.4622 38.2326C67.7054 38.5105 69.0833 44.5259 69.0544 45.4117C67.7807 45.6954 67.0049 46.4422 66.7038 47.687V47.6812Z" fill="#4257EE"/>
</g>
<path d="M100.639 22.688H117.535C119.498 22.688 121.461 22.8373 123.423 23.136C125.429 23.392 127.221 23.9467 128.799 24.8C130.378 25.6107 131.658 26.7627 132.639 28.256C133.621 29.7493 134.111 31.7333 134.111 34.208C134.111 36.768 133.386 38.9013 131.935 40.608C130.527 42.272 128.65 43.4667 126.303 44.192V44.32C127.797 44.5333 129.141 44.96 130.335 45.6C131.573 46.1973 132.618 46.9867 133.471 47.968C134.367 48.9067 135.05 50.016 135.519 51.296C135.989 52.576 136.223 53.9413 136.223 55.392C136.223 57.7813 135.711 59.7867 134.687 61.408C133.663 62.9867 132.341 64.2667 130.719 65.248C129.098 66.2293 127.263 66.9333 125.215 67.36C123.21 67.7867 121.205 68 119.199 68H100.639V22.688ZM110.623 40.8H117.855C118.623 40.8 119.37 40.7147 120.095 40.544C120.863 40.3733 121.546 40.096 122.143 39.712C122.741 39.328 123.21 38.816 123.551 38.176C123.935 37.536 124.127 36.768 124.127 35.872C124.127 34.9333 123.914 34.1653 123.487 33.568C123.103 32.928 122.591 32.4373 121.951 32.096C121.311 31.7547 120.586 31.52 119.775 31.392C118.965 31.2213 118.175 31.136 117.407 31.136H110.623V40.8ZM110.623 59.552H119.583C120.351 59.552 121.119 59.4667 121.887 59.296C122.698 59.1253 123.423 58.8267 124.063 58.4C124.703 57.9733 125.215 57.4187 125.599 56.736C126.026 56.0533 126.239 55.2213 126.239 54.24C126.239 53.1733 125.962 52.32 125.407 51.68C124.895 50.9973 124.234 50.4853 123.423 50.144C122.613 49.8027 121.738 49.568 120.799 49.44C119.861 49.312 118.986 49.248 118.175 49.248H110.623V59.552ZM170.363 62.624C168.827 64.5867 166.886 66.1013 164.539 67.168C162.193 68.2347 159.761 68.768 157.243 68.768C154.854 68.768 152.593 68.384 150.459 67.616C148.369 66.848 146.534 65.76 144.955 64.352C143.419 62.9013 142.203 61.1733 141.307 59.168C140.411 57.1627 139.963 54.9227 139.963 52.448C139.963 49.9733 140.411 47.7333 141.307 45.728C142.203 43.7227 143.419 42.016 144.955 40.608C146.534 39.1573 148.369 38.048 150.459 37.28C152.593 36.512 154.854 36.128 157.243 36.128C159.462 36.128 161.467 36.512 163.259 37.28C165.094 38.048 166.63 39.1573 167.867 40.608C169.147 42.016 170.129 43.7227 170.811 45.728C171.494 47.7333 171.835 49.9733 171.835 52.448V55.456H149.563C149.947 57.2907 150.779 58.7627 152.059 59.872C153.339 60.9387 154.918 61.472 156.795 61.472C158.374 61.472 159.697 61.1307 160.763 60.448C161.873 59.7227 162.833 58.8053 163.643 57.696L170.363 62.624ZM162.235 48.928C162.278 47.3067 161.745 45.92 160.635 44.768C159.526 43.616 158.097 43.04 156.347 43.04C155.281 43.04 154.342 43.2107 153.531 43.552C152.721 43.8933 152.017 44.3413 151.419 44.896C150.865 45.408 150.417 46.0267 150.075 46.752C149.777 47.4347 149.606 48.16 149.563 48.928H162.235ZM195.273 46.048C193.865 44.2987 192.009 43.424 189.705 43.424C188.895 43.424 188.105 43.616 187.337 44C186.569 44.384 186.185 45.0453 186.185 45.984C186.185 46.752 186.569 47.328 187.337 47.712C188.148 48.0533 189.151 48.3733 190.345 48.672C191.583 48.928 192.884 49.2267 194.249 49.568C195.657 49.8667 196.959 50.3573 198.153 51.04C199.391 51.7227 200.393 52.6613 201.161 53.856C201.972 55.008 202.377 56.5653 202.377 58.528C202.377 60.5333 201.929 62.1973 201.033 63.52C200.18 64.8 199.071 65.8453 197.705 66.656C196.34 67.424 194.804 67.9573 193.097 68.256C191.391 68.5973 189.705 68.768 188.041 68.768C185.865 68.768 183.668 68.4693 181.449 67.872C179.231 67.232 177.353 66.1227 175.817 64.544L181.641 58.08C182.537 59.1893 183.519 60.0427 184.585 60.64C185.695 61.1947 186.975 61.472 188.425 61.472C189.535 61.472 190.537 61.3227 191.433 61.024C192.329 60.6827 192.777 60.0853 192.777 59.232C192.777 58.4213 192.372 57.824 191.561 57.44C190.793 57.0133 189.791 56.672 188.553 56.416C187.359 56.1173 186.057 55.8187 184.649 55.52C183.284 55.1787 181.983 54.688 180.745 54.048C179.551 53.408 178.548 52.512 177.737 51.36C176.969 50.1653 176.585 48.5867 176.585 46.624C176.585 44.7893 176.948 43.2107 177.673 41.888C178.441 40.5653 179.423 39.4773 180.617 38.624C181.855 37.7707 183.263 37.152 184.841 36.768C186.42 36.3413 188.02 36.128 189.641 36.128C191.689 36.128 193.759 36.4267 195.849 37.024C197.94 37.6213 199.711 38.688 201.161 40.224L195.273 46.048ZM228.482 44.576H220.034V54.944C220.034 55.7973 220.077 56.5867 220.162 57.312C220.248 57.9947 220.44 58.592 220.738 59.104C221.037 59.616 221.485 60.0213 222.082 60.32C222.722 60.576 223.554 60.704 224.578 60.704C225.09 60.704 225.752 60.6613 226.562 60.576C227.416 60.448 228.056 60.192 228.482 59.808V67.808C227.416 68.192 226.306 68.448 225.154 68.576C224.002 68.704 222.872 68.768 221.762 68.768C220.141 68.768 218.648 68.5973 217.282 68.256C215.917 67.9147 214.722 67.3813 213.698 66.656C212.674 65.888 211.864 64.9067 211.266 63.712C210.712 62.5173 210.434 61.0667 210.434 59.36V44.576H204.29V36.896H210.434V27.68H220.034V36.896H228.482V44.576ZM233.489 36.896H243.089V68H233.489V36.896ZM232.721 27.104C232.721 25.568 233.254 24.2667 234.321 23.2C235.43 22.0907 236.753 21.536 238.289 21.536C239.825 21.536 241.126 22.0907 242.193 23.2C243.302 24.2667 243.857 25.568 243.857 27.104C243.857 28.64 243.302 29.9627 242.193 31.072C241.126 32.1387 239.825 32.672 238.289 32.672C236.753 32.672 235.43 32.1387 234.321 31.072C233.254 29.9627 232.721 28.64 232.721 27.104ZM249.986 36.896H259.202V41.12H259.33C259.628 40.5227 260.055 39.9253 260.61 39.328C261.164 38.7307 261.826 38.1973 262.594 37.728C263.362 37.2587 264.236 36.8747 265.218 36.576C266.199 36.2773 267.266 36.128 268.418 36.128C270.85 36.128 272.812 36.512 274.306 37.28C275.799 38.0053 276.951 39.0293 277.762 40.352C278.615 41.6747 279.191 43.232 279.49 45.024C279.788 46.816 279.938 48.7573 279.938 50.848V68H270.338V52.768C270.338 51.872 270.295 50.9547 270.21 50.016C270.167 49.0347 269.975 48.1387 269.634 47.328C269.335 46.5173 268.844 45.856 268.162 45.344C267.522 44.832 266.583 44.576 265.346 44.576C264.108 44.576 263.106 44.8107 262.338 45.28C261.57 45.7067 260.972 46.304 260.546 47.072C260.162 47.7973 259.906 48.6293 259.778 49.568C259.65 50.5067 259.586 51.488 259.586 52.512V68H249.986V36.896ZM290.064 44.576H283.728V36.896H290.064V31.392C290.064 29.6853 290.213 28.0853 290.512 26.592C290.81 25.056 291.386 23.712 292.24 22.56C293.093 21.408 294.309 20.512 295.888 19.872C297.509 19.1893 299.621 18.848 302.224 18.848C303.205 18.848 304.165 18.8907 305.104 18.976C306.042 19.0613 306.96 19.2107 307.856 19.424L307.408 27.552C306.853 27.3387 306.341 27.1893 305.872 27.104C305.402 26.976 304.869 26.912 304.272 26.912C302.736 26.912 301.584 27.2533 300.816 27.936C300.048 28.576 299.664 29.92 299.664 31.968V36.896H306.768V44.576H299.664V68H290.064V44.576ZM309.271 52.448C309.271 49.9733 309.719 47.7333 310.615 45.728C311.511 43.7227 312.727 42.016 314.263 40.608C315.842 39.1573 317.677 38.048 319.767 37.28C321.901 36.512 324.162 36.128 326.551 36.128C328.941 36.128 331.181 36.512 333.271 37.28C335.405 38.048 337.239 39.1573 338.775 40.608C340.354 42.016 341.591 43.7227 342.487 45.728C343.383 47.7333 343.831 49.9733 343.831 52.448C343.831 54.9227 343.383 57.1627 342.487 59.168C341.591 61.1733 340.354 62.9013 338.775 64.352C337.239 65.76 335.405 66.848 333.271 67.616C331.181 68.384 328.941 68.768 326.551 68.768C324.162 68.768 321.901 68.384 319.767 67.616C317.677 66.848 315.842 65.76 314.263 64.352C312.727 62.9013 311.511 61.1733 310.615 59.168C309.719 57.1627 309.271 54.9227 309.271 52.448ZM318.871 52.448C318.871 54.7947 319.533 56.6933 320.855 58.144C322.221 59.5947 324.119 60.32 326.551 60.32C328.983 60.32 330.861 59.5947 332.183 58.144C333.549 56.6933 334.231 54.7947 334.231 52.448C334.231 50.1013 333.549 48.2027 332.183 46.752C330.861 45.3013 328.983 44.576 326.551 44.576C324.119 44.576 322.221 45.3013 320.855 46.752C319.533 48.2027 318.871 50.1013 318.871 52.448ZM349.486 36.896H359.086V41.888H359.214C360.238 39.968 361.454 38.5387 362.862 37.6C364.27 36.6187 366.04 36.128 368.174 36.128C368.728 36.128 369.283 36.1493 369.838 36.192C370.392 36.2347 370.904 36.32 371.374 36.448V45.216C370.691 45.0027 370.008 44.8533 369.326 44.768C368.686 44.64 368.003 44.576 367.278 44.576C365.443 44.576 363.992 44.832 362.926 45.344C361.859 45.856 361.027 46.5813 360.43 47.52C359.875 48.416 359.512 49.504 359.342 50.784C359.171 52.064 359.086 53.472 359.086 55.008V68H349.486V36.896ZM376.673 36.896H385.889V41.12H386.017C386.316 40.5227 386.743 39.9253 387.297 39.328C387.852 38.7307 388.513 38.1973 389.281 37.728C390.049 37.2587 390.924 36.8747 391.905 36.576C392.887 36.2773 393.953 36.128 395.105 36.128C397.281 36.128 399.201 36.576 400.865 37.472C402.572 38.368 403.852 39.776 404.705 41.696C405.815 39.6907 407.159 38.2613 408.737 37.408C410.316 36.5547 412.257 36.128 414.561 36.128C416.652 36.128 418.401 36.4907 419.809 37.216C421.26 37.8987 422.391 38.8587 423.201 40.096C424.055 41.2907 424.652 42.72 424.993 44.384C425.377 46.0053 425.569 47.7547 425.569 49.632V68H415.969V49.888C415.969 48.4373 415.649 47.2 415.009 46.176C414.412 45.1093 413.324 44.576 411.745 44.576C410.636 44.576 409.697 44.768 408.929 45.152C408.204 45.4933 407.607 45.984 407.137 46.624C406.711 47.264 406.391 48.0107 406.177 48.864C406.007 49.7173 405.921 50.6133 405.921 51.552V68H396.321V51.552C396.321 50.9973 396.3 50.3147 396.257 49.504C396.215 48.6933 396.065 47.9253 395.809 47.2C395.553 46.4747 395.127 45.856 394.529 45.344C393.975 44.832 393.143 44.576 392.033 44.576C390.796 44.576 389.793 44.8107 389.025 45.28C388.257 45.7067 387.66 46.304 387.233 47.072C386.849 47.7973 386.593 48.6293 386.465 49.568C386.337 50.5067 386.273 51.488 386.273 52.512V68H376.673V36.896Z" fill="#4257EE"/>
</svg>
