<svg width="137" height="12" viewBox="0 0 137 12" fill="none" xmlns="http://www.w3.org/2000/svg">
<path d="M8.4 7.052C8.25067 7.724 7.94267 8.256 7.476 8.648C7.00933 9.04 6.454 9.236 5.81 9.236C5.334 9.236 4.90467 9.15667 4.522 8.998C4.13933 8.83 3.81267 8.606 3.542 8.326C3.27133 8.03667 3.06133 7.70067 2.912 7.318C2.772 6.926 2.702 6.50133 2.702 6.044C2.702 5.58667 2.772 5.162 2.912 4.77C3.052 4.378 3.25267 4.042 3.514 3.762C3.77533 3.482 4.09733 3.26267 4.48 3.104C4.86267 2.94533 5.292 2.866 5.768 2.866C6.09467 2.866 6.40267 2.91267 6.692 3.006C6.99067 3.09 7.25667 3.22067 7.49 3.398C7.72333 3.57533 7.91467 3.79933 8.064 4.07C8.22267 4.33133 8.33 4.63467 8.386 4.98H7.532C7.45733 4.588 7.26133 4.266 6.944 4.014C6.636 3.75267 6.24867 3.622 5.782 3.622C5.43667 3.622 5.12867 3.68733 4.858 3.818C4.58733 3.93933 4.35867 4.10733 4.172 4.322C3.99467 4.53667 3.85933 4.79333 3.766 5.092C3.67267 5.38133 3.626 5.69867 3.626 6.044C3.626 6.37067 3.67733 6.68333 3.78 6.982C3.88267 7.27133 4.02733 7.528 4.214 7.752C4.41 7.976 4.63867 8.15333 4.9 8.284C5.17067 8.41467 5.474 8.48 5.81 8.48C6.27667 8.48 6.664 8.34467 6.972 8.074C7.28 7.80333 7.46667 7.46267 7.532 7.052H8.4ZM0.392 6.044C0.392 5.30667 0.527333 4.62067 0.798 3.986C1.078 3.342 1.456 2.79133 1.932 2.334C2.408 1.86733 2.95867 1.50333 3.584 1.242C4.21867 0.971333 4.89067 0.836 5.6 0.836C6.30933 0.836 6.97667 0.971333 7.602 1.242C8.23667 1.50333 8.792 1.86733 9.268 2.334C9.744 2.79133 10.1173 3.342 10.388 3.986C10.668 4.62067 10.808 5.30667 10.808 6.044C10.808 6.79067 10.668 7.48133 10.388 8.116C10.1173 8.75067 9.744 9.30133 9.268 9.768C8.792 10.2253 8.23667 10.5893 7.602 10.86C6.97667 11.1213 6.30933 11.252 5.6 11.252C4.89067 11.252 4.21867 11.1213 3.584 10.86C2.95867 10.5893 2.408 10.2253 1.932 9.768C1.456 9.30133 1.078 8.75067 0.798 8.116C0.527333 7.48133 0.392 6.79067 0.392 6.044ZM1.316 6.044C1.316 6.67867 1.428 7.26667 1.652 7.808C1.876 8.34933 2.17933 8.82067 2.562 9.222C2.94467 9.614 3.39733 9.92667 3.92 10.16C4.44267 10.384 5.00267 10.496 5.6 10.496C6.19733 10.496 6.75267 10.384 7.266 10.16C7.78867 9.92667 8.24133 9.614 8.624 9.222C9.016 8.82067 9.324 8.34933 9.548 7.808C9.772 7.26667 9.884 6.67867 9.884 6.044C9.884 5.41867 9.772 4.83533 9.548 4.294C9.324 3.74333 9.016 3.272 8.624 2.88C8.24133 2.47867 7.78867 2.166 7.266 1.942C6.75267 1.70867 6.19733 1.592 5.6 1.592C5.00267 1.592 4.44267 1.70867 3.92 1.942C3.39733 2.166 2.94467 2.47867 2.562 2.88C2.17933 3.272 1.876 3.74333 1.652 4.294C1.428 4.83533 1.316 5.41867 1.316 6.044ZM15.7938 9.656L19.5318 6.016C19.7651 5.792 19.9704 5.58667 20.1478 5.4C20.3251 5.204 20.4698 5.01733 20.5818 4.84C20.7031 4.65333 20.7918 4.462 20.8478 4.266C20.9038 4.07 20.9318 3.85067 20.9318 3.608C20.9318 3.34667 20.8851 3.11333 20.7918 2.908C20.6984 2.70267 20.5678 2.53 20.3998 2.39C20.2411 2.24067 20.0498 2.12867 19.8258 2.054C19.6111 1.97 19.3778 1.928 19.1258 1.928C18.6218 1.928 18.2064 2.07267 17.8798 2.362C17.5531 2.65133 17.3431 3.034 17.2498 3.51L15.9758 3.398C16.0411 2.99667 16.1624 2.642 16.3398 2.334C16.5264 2.01667 16.7551 1.75533 17.0258 1.55C17.3058 1.34467 17.6184 1.19067 17.9638 1.088C18.3091 0.976 18.6824 0.92 19.0838 0.92C19.4944 0.92 19.8818 0.980666 20.2458 1.102C20.6098 1.214 20.9271 1.382 21.1978 1.606C21.4778 1.83 21.6971 2.11 21.8558 2.446C22.0238 2.782 22.1078 3.16933 22.1078 3.608C22.1078 4 22.0518 4.35467 21.9398 4.672C21.8371 4.98933 21.6924 5.28333 21.5058 5.554C21.3284 5.81533 21.1231 6.06733 20.8898 6.31C20.6658 6.54333 20.4278 6.77667 20.1758 7.01L17.1238 9.88V9.908H22.1778V11H15.7938V9.656ZM23.405 6.044C23.405 5.484 23.4517 4.90067 23.545 4.294C23.6384 3.68733 23.811 3.13667 24.063 2.642C24.315 2.138 24.6557 1.72733 25.085 1.41C25.5237 1.08333 26.0837 0.92 26.765 0.92C27.4464 0.92 28.0017 1.08333 28.431 1.41C28.8697 1.72733 29.215 2.138 29.467 2.642C29.719 3.13667 29.8917 3.68733 29.985 4.294C30.0784 4.90067 30.125 5.484 30.125 6.044C30.125 6.604 30.0784 7.18733 29.985 7.794C29.8917 8.40067 29.719 8.956 29.467 9.46C29.215 9.95467 28.8697 10.3653 28.431 10.692C28.0017 11.0093 27.4464 11.168 26.765 11.168C26.0837 11.168 25.5237 11.0093 25.085 10.692C24.6557 10.3653 24.315 9.95467 24.063 9.46C23.811 8.956 23.6384 8.40067 23.545 7.794C23.4517 7.18733 23.405 6.604 23.405 6.044ZM24.581 6.044C24.581 6.28667 24.5904 6.55733 24.609 6.856C24.6277 7.15467 24.6604 7.458 24.707 7.766C24.763 8.06467 24.8377 8.35867 24.931 8.648C25.0337 8.93733 25.1644 9.194 25.323 9.418C25.491 9.642 25.6917 9.824 25.925 9.964C26.1584 10.0947 26.4384 10.16 26.765 10.16C27.0917 10.16 27.3717 10.0947 27.605 9.964C27.8384 9.824 28.0344 9.642 28.193 9.418C28.361 9.194 28.4917 8.93733 28.585 8.648C28.6877 8.35867 28.7624 8.06467 28.809 7.766C28.865 7.458 28.9024 7.15467 28.921 6.856C28.9397 6.55733 28.949 6.28667 28.949 6.044C28.949 5.80133 28.9397 5.53067 28.921 5.232C28.9024 4.93333 28.865 4.63467 28.809 4.336C28.7624 4.028 28.6877 3.72933 28.585 3.44C28.4917 3.15067 28.361 2.894 28.193 2.67C28.0344 2.446 27.8384 2.26867 27.605 2.138C27.3717 1.998 27.0917 1.928 26.765 1.928C26.4384 1.928 26.1584 1.998 25.925 2.138C25.6917 2.26867 25.491 2.446 25.323 2.67C25.1644 2.894 25.0337 3.15067 24.931 3.44C24.8377 3.72933 24.763 4.028 24.707 4.336C24.6604 4.63467 24.6277 4.93333 24.609 5.232C24.5904 5.53067 24.581 5.80133 24.581 6.044ZM31.3523 9.656L35.0903 6.016C35.3237 5.792 35.529 5.58667 35.7063 5.4C35.8837 5.204 36.0283 5.01733 36.1403 4.84C36.2617 4.65333 36.3503 4.462 36.4063 4.266C36.4623 4.07 36.4903 3.85067 36.4903 3.608C36.4903 3.34667 36.4437 3.11333 36.3503 2.908C36.257 2.70267 36.1263 2.53 35.9583 2.39C35.7997 2.24067 35.6083 2.12867 35.3843 2.054C35.1697 1.97 34.9363 1.928 34.6843 1.928C34.1803 1.928 33.765 2.07267 33.4383 2.362C33.1117 2.65133 32.9017 3.034 32.8083 3.51L31.5343 3.398C31.5997 2.99667 31.721 2.642 31.8983 2.334C32.085 2.01667 32.3137 1.75533 32.5843 1.55C32.8643 1.34467 33.177 1.19067 33.5223 1.088C33.8677 0.976 34.241 0.92 34.6423 0.92C35.053 0.92 35.4403 0.980666 35.8043 1.102C36.1683 1.214 36.4857 1.382 36.7563 1.606C37.0363 1.83 37.2557 2.11 37.4143 2.446C37.5823 2.782 37.6663 3.16933 37.6663 3.608C37.6663 4 37.6103 4.35467 37.4983 4.672C37.3957 4.98933 37.251 5.28333 37.0643 5.554C36.887 5.81533 36.6817 6.06733 36.4483 6.31C36.2243 6.54333 35.9863 6.77667 35.7343 7.01L32.6823 9.88V9.908H37.7363V11H31.3523V9.656ZM41.2876 5.288H41.6516C41.8943 5.288 42.1463 5.26933 42.4076 5.232C42.6783 5.19467 42.921 5.11533 43.1356 4.994C43.3596 4.87267 43.5416 4.7 43.6816 4.476C43.831 4.24267 43.9056 3.93933 43.9056 3.566C43.9056 3.062 43.747 2.66533 43.4296 2.376C43.1216 2.07733 42.7156 1.928 42.2116 1.928C41.7916 1.928 41.4276 2.02133 41.1196 2.208C40.8116 2.39467 40.569 2.67 40.3916 3.034L39.2576 2.6C39.5003 2.04 39.8783 1.62 40.3916 1.34C40.9143 1.06 41.493 0.92 42.1276 0.92C42.5196 0.92 42.893 0.976 43.2476 1.088C43.6116 1.2 43.929 1.36333 44.1996 1.578C44.4703 1.79267 44.685 2.06333 44.8436 2.39C45.0023 2.70733 45.0816 3.08067 45.0816 3.51C45.0816 4.03267 44.923 4.504 44.6056 4.924C44.2976 5.33467 43.8916 5.61933 43.3876 5.778V5.806C43.705 5.862 43.985 5.96467 44.2276 6.114C44.4796 6.26333 44.6943 6.45 44.8716 6.674C45.049 6.88867 45.1843 7.136 45.2776 7.416C45.371 7.696 45.4176 7.99 45.4176 8.298C45.4176 8.774 45.329 9.18933 45.1516 9.544C44.9743 9.89867 44.7363 10.1973 44.4376 10.44C44.139 10.6827 43.789 10.8647 43.3876 10.986C42.9956 11.1073 42.5803 11.168 42.1416 11.168C41.3856 11.168 40.7276 11.0047 40.1676 10.678C39.6076 10.3513 39.2016 9.81933 38.9496 9.082L40.1396 8.69C40.3076 9.222 40.5456 9.6 40.8536 9.824C41.1616 10.048 41.591 10.16 42.1416 10.16C42.4216 10.16 42.683 10.1133 42.9256 10.02C43.1683 9.92667 43.3783 9.796 43.5556 9.628C43.7423 9.45067 43.887 9.24533 43.9896 9.012C44.1016 8.76933 44.1576 8.50333 44.1576 8.214C44.1576 7.85 44.083 7.54667 43.9336 7.304C43.7936 7.052 43.6023 6.856 43.3596 6.716C43.1263 6.56667 42.8603 6.45933 42.5616 6.394C42.263 6.32867 41.9596 6.296 41.6516 6.296H41.2876V5.288ZM51.3394 1.088H54.3634C54.7741 1.088 55.1754 1.13 55.5674 1.214C55.9594 1.298 56.3094 1.438 56.6174 1.634C56.9254 1.82067 57.1728 2.068 57.3594 2.376C57.5554 2.684 57.6534 3.06667 57.6534 3.524C57.6534 4.10267 57.4948 4.58333 57.1774 4.966C56.8694 5.33933 56.4494 5.60533 55.9174 5.764V5.792C56.2348 5.82 56.5288 5.904 56.7994 6.044C57.0794 6.17467 57.3174 6.34733 57.5134 6.562C57.7188 6.77667 57.8774 7.02867 57.9894 7.318C58.1014 7.598 58.1574 7.90133 58.1574 8.228C58.1574 8.77867 58.0408 9.23133 57.8074 9.586C57.5834 9.94067 57.2848 10.2253 56.9114 10.44C56.5474 10.6453 56.1321 10.79 55.6654 10.874C55.2081 10.958 54.7508 11 54.2934 11H51.3394V1.088ZM52.5154 5.288H54.1394C54.4194 5.288 54.6901 5.26933 54.9514 5.232C55.2221 5.19467 55.4648 5.12 55.6794 5.008C55.8941 4.88667 56.0668 4.72333 56.1974 4.518C56.3281 4.30333 56.3934 4.02333 56.3934 3.678C56.3934 3.37 56.3328 3.12267 56.2114 2.936C56.0901 2.74 55.9268 2.586 55.7214 2.474C55.5254 2.362 55.2968 2.28733 55.0354 2.25C54.7834 2.20333 54.5268 2.18 54.2654 2.18H52.5154V5.288ZM52.5154 9.908H54.5034C54.7928 9.908 55.0774 9.88 55.3574 9.824C55.6468 9.75867 55.9034 9.66067 56.1274 9.53C56.3608 9.39 56.5474 9.21267 56.6874 8.998C56.8274 8.774 56.8974 8.50333 56.8974 8.186C56.8974 7.84067 56.8274 7.55133 56.6874 7.318C56.5568 7.08467 56.3794 6.898 56.1554 6.758C55.9408 6.618 55.6888 6.52 55.3994 6.464C55.1194 6.408 54.8301 6.38 54.5314 6.38H52.5154V9.908ZM65.8138 9.81C65.4218 10.314 64.9924 10.6687 64.5258 10.874C64.0591 11.07 63.5178 11.168 62.9018 11.168C62.3884 11.168 61.9264 11.0793 61.5158 10.902C61.1051 10.7153 60.7551 10.468 60.4658 10.16C60.1858 9.852 59.9664 9.488 59.8078 9.068C59.6584 8.648 59.5838 8.2 59.5838 7.724C59.5838 7.22 59.6678 6.758 59.8358 6.338C60.0038 5.90867 60.2371 5.54467 60.5358 5.246C60.8344 4.938 61.1891 4.7 61.5998 4.532C62.0104 4.364 62.4584 4.28 62.9438 4.28C63.4011 4.28 63.8211 4.35933 64.2038 4.518C64.5864 4.66733 64.9131 4.89133 65.1838 5.19C65.4638 5.47933 65.6784 5.83867 65.8278 6.268C65.9771 6.688 66.0518 7.16867 66.0518 7.71V8.06H60.7598C60.7784 8.34 60.8438 8.61067 60.9558 8.872C61.0771 9.124 61.2311 9.348 61.4178 9.544C61.6044 9.73067 61.8238 9.88 62.0758 9.992C62.3278 10.104 62.6031 10.16 62.9018 10.16C63.3778 10.16 63.7791 10.076 64.1058 9.908C64.4324 9.74 64.7264 9.49267 64.9878 9.166L65.8138 9.81ZM64.8758 7.136C64.8571 6.576 64.6751 6.128 64.3298 5.792C63.9844 5.456 63.5084 5.288 62.9018 5.288C62.2951 5.288 61.8051 5.456 61.4318 5.792C61.0584 6.128 60.8344 6.576 60.7598 7.136H64.8758ZM67.8811 9.278C68.0957 9.54867 68.3291 9.76333 68.5811 9.922C68.8424 10.0807 69.1691 10.16 69.5611 10.16C69.7291 10.16 69.8971 10.1413 70.0651 10.104C70.2424 10.0667 70.4011 10.006 70.5411 9.922C70.6811 9.838 70.7931 9.73533 70.8771 9.614C70.9611 9.48333 71.0031 9.32933 71.0031 9.152C71.0031 8.97467 70.9611 8.83 70.8771 8.718C70.8024 8.606 70.6997 8.51267 70.5691 8.438C70.4384 8.354 70.2891 8.28867 70.1211 8.242C69.9531 8.19533 69.7804 8.15333 69.6031 8.116C69.2951 8.05067 69.0011 7.976 68.7211 7.892C68.4411 7.808 68.1937 7.70067 67.9791 7.57C67.7737 7.43 67.6057 7.25267 67.4751 7.038C67.3537 6.82333 67.2931 6.548 67.2931 6.212C67.2931 5.89467 67.3631 5.61467 67.5031 5.372C67.6431 5.12933 67.8297 4.92867 68.0631 4.77C68.2964 4.61133 68.5577 4.49 68.8471 4.406C69.1364 4.322 69.4351 4.28 69.7431 4.28C70.2097 4.28 70.6391 4.37333 71.0311 4.56C71.4324 4.74667 71.7451 5.05 71.9691 5.47L71.0591 6.072C70.9191 5.83867 70.7324 5.652 70.4991 5.512C70.2751 5.36267 69.9997 5.288 69.6731 5.288C69.5237 5.288 69.3697 5.30667 69.2111 5.344C69.0617 5.38133 68.9264 5.43733 68.8051 5.512C68.6837 5.58667 68.5811 5.68467 68.4971 5.806C68.4224 5.918 68.3851 6.04867 68.3851 6.198C68.3851 6.338 68.4271 6.45933 68.5111 6.562C68.6044 6.65533 68.7257 6.73933 68.8751 6.814C69.0337 6.88867 69.2111 6.954 69.4071 7.01C69.6124 7.066 69.8224 7.11267 70.0371 7.15C70.3264 7.206 70.6017 7.28067 70.8631 7.374C71.1244 7.458 71.3531 7.57467 71.5491 7.724C71.7451 7.87333 71.8991 8.06 72.0111 8.284C72.1231 8.508 72.1791 8.78333 72.1791 9.11C72.1791 9.48333 72.1044 9.80067 71.9551 10.062C71.8057 10.3233 71.6051 10.538 71.3531 10.706C71.1104 10.8647 70.8304 10.9813 70.5131 11.056C70.2051 11.1307 69.8877 11.168 69.5611 11.168C69.0011 11.168 68.5157 11.084 68.1051 10.916C67.7037 10.7387 67.3397 10.4167 67.0131 9.95L67.8811 9.278ZM77.286 5.372H75.354V8.648C75.354 8.86267 75.3587 9.06333 75.368 9.25C75.3773 9.42733 75.4147 9.586 75.48 9.726C75.5453 9.85667 75.6433 9.964 75.774 10.048C75.9047 10.1227 76.0913 10.16 76.334 10.16C76.4927 10.16 76.656 10.1413 76.824 10.104C76.992 10.0667 77.1507 10.0107 77.3 9.936L77.342 10.93C77.1553 11.014 76.9453 11.0747 76.712 11.112C76.488 11.1493 76.2733 11.168 76.068 11.168C75.676 11.168 75.3633 11.1167 75.13 11.014C74.8967 10.9113 74.7147 10.7667 74.584 10.58C74.4533 10.3933 74.3647 10.1647 74.318 9.894C74.2807 9.614 74.262 9.306 74.262 8.97V5.372H72.834V4.448H74.262V2.586H75.354V4.448H77.286V5.372ZM78.7356 4.448H79.8276V11H78.7356V4.448ZM78.4836 1.886C78.4836 1.67133 78.5582 1.48467 78.7076 1.326C78.8662 1.16733 79.0576 1.088 79.2816 1.088C79.5056 1.088 79.6922 1.16733 79.8416 1.326C80.0002 1.48467 80.0796 1.67133 80.0796 1.886C80.0796 2.11933 80.0049 2.31067 79.8556 2.46C79.7062 2.60933 79.5149 2.684 79.2816 2.684C79.0482 2.684 78.8569 2.60933 78.7076 2.46C78.5582 2.31067 78.4836 2.11933 78.4836 1.886ZM82.0008 6.002C82.0008 5.70333 81.9915 5.42333 81.9728 5.162C81.9542 4.90067 81.9448 4.66267 81.9448 4.448H82.9808C82.9808 4.62533 82.9855 4.80267 82.9948 4.98C83.0042 5.15733 83.0088 5.33933 83.0088 5.526H83.0368C83.1115 5.36733 83.2142 5.21333 83.3448 5.064C83.4848 4.91467 83.6482 4.784 83.8348 4.672C84.0215 4.55067 84.2315 4.45733 84.4648 4.392C84.6982 4.31733 84.9502 4.28 85.2208 4.28C85.6502 4.28 86.0188 4.34533 86.3268 4.476C86.6442 4.60667 86.9055 4.78867 87.1108 5.022C87.3162 5.25533 87.4655 5.54 87.5588 5.876C87.6615 6.20267 87.7128 6.562 87.7128 6.954V11H86.6208V7.066C86.6208 6.51533 86.4995 6.08133 86.2568 5.764C86.0142 5.44667 85.6362 5.288 85.1228 5.288C84.7682 5.288 84.4602 5.34867 84.1988 5.47C83.9468 5.59133 83.7368 5.764 83.5688 5.988C83.4102 6.212 83.2888 6.478 83.2048 6.786C83.1302 7.094 83.0928 7.43467 83.0928 7.808V11H82.0008V6.002ZM90.3401 5.372H88.9121V4.448H90.3401V2.978C90.3401 2.57667 90.3775 2.21267 90.4521 1.886C90.5268 1.55 90.6528 1.26067 90.8301 1.018C91.0168 0.775333 91.2595 0.588666 91.5581 0.458C91.8568 0.318 92.2255 0.248 92.6641 0.248C92.8041 0.248 92.9535 0.262 93.1121 0.289999C93.2708 0.318 93.4015 0.36 93.5041 0.415999L93.3501 1.396C93.0888 1.30267 92.8415 1.256 92.6081 1.256C92.3281 1.256 92.1088 1.30733 91.9501 1.41C91.7915 1.50333 91.6701 1.63867 91.5861 1.816C91.5115 1.984 91.4648 2.18933 91.4461 2.432C91.4368 2.67467 91.4321 2.936 91.4321 3.216V4.448H93.0281V5.372H91.4321V11H90.3401V5.372ZM93.8182 7.724C93.8182 7.21067 93.9068 6.744 94.0842 6.324C94.2615 5.904 94.5042 5.54467 94.8122 5.246C95.1202 4.938 95.4888 4.7 95.9182 4.532C96.3475 4.364 96.8142 4.28 97.3182 4.28C97.8222 4.28 98.2888 4.364 98.7182 4.532C99.1475 4.7 99.5162 4.938 99.8242 5.246C100.132 5.54467 100.375 5.904 100.552 6.324C100.729 6.744 100.818 7.21067 100.818 7.724C100.818 8.23733 100.729 8.704 100.552 9.124C100.375 9.544 100.132 9.908 99.8242 10.216C99.5162 10.5147 99.1475 10.748 98.7182 10.916C98.2888 11.084 97.8222 11.168 97.3182 11.168C96.8142 11.168 96.3475 11.084 95.9182 10.916C95.4888 10.748 95.1202 10.5147 94.8122 10.216C94.5042 9.908 94.2615 9.544 94.0842 9.124C93.9068 8.704 93.8182 8.23733 93.8182 7.724ZM94.9942 7.724C94.9942 8.06933 95.0455 8.39133 95.1482 8.69C95.2602 8.97933 95.4188 9.236 95.6242 9.46C95.8295 9.67467 96.0722 9.84733 96.3522 9.978C96.6415 10.0993 96.9635 10.16 97.3182 10.16C97.6728 10.16 97.9902 10.0993 98.2702 9.978C98.5595 9.84733 98.8068 9.67467 99.0122 9.46C99.2175 9.236 99.3715 8.97933 99.4742 8.69C99.5862 8.39133 99.6422 8.06933 99.6422 7.724C99.6422 7.37867 99.5862 7.06133 99.4742 6.772C99.3715 6.47333 99.2175 6.21667 99.0122 6.002C98.8068 5.778 98.5595 5.60533 98.2702 5.484C97.9902 5.35333 97.6728 5.288 97.3182 5.288C96.9635 5.288 96.6415 5.35333 96.3522 5.484C96.0722 5.60533 95.8295 5.778 95.6242 6.002C95.4188 6.21667 95.2602 6.47333 95.1482 6.772C95.0455 7.06133 94.9942 7.37867 94.9942 7.724ZM102.509 6.002C102.509 5.70333 102.499 5.42333 102.481 5.162C102.462 4.90067 102.453 4.66267 102.453 4.448H103.489C103.489 4.62533 103.493 4.80267 103.503 4.98C103.512 5.15733 103.517 5.33933 103.517 5.526H103.545C103.619 5.36733 103.722 5.21333 103.853 5.064C103.993 4.91467 104.156 4.784 104.343 4.672C104.529 4.55067 104.739 4.45733 104.973 4.392C105.206 4.31733 105.458 4.28 105.729 4.28C105.803 4.28 105.878 4.28467 105.953 4.294C106.027 4.30333 106.102 4.322 106.177 4.35L106.107 5.456C105.92 5.4 105.724 5.372 105.519 5.372C104.847 5.372 104.357 5.59133 104.049 6.03C103.75 6.45933 103.601 7.052 103.601 7.808V11H102.509V6.002ZM107.431 6.002C107.431 5.70333 107.421 5.42333 107.403 5.162C107.384 4.90067 107.375 4.66267 107.375 4.448H108.411C108.411 4.62533 108.415 4.80267 108.425 4.98C108.434 5.15733 108.439 5.33933 108.439 5.526H108.467C108.541 5.36733 108.644 5.21333 108.775 5.064C108.915 4.91467 109.078 4.784 109.265 4.672C109.451 4.55067 109.661 4.45733 109.895 4.392C110.128 4.31733 110.38 4.28 110.651 4.28C111.005 4.28 111.299 4.32667 111.533 4.42C111.775 4.504 111.976 4.61133 112.135 4.742C112.293 4.86333 112.415 4.99867 112.499 5.148C112.592 5.288 112.667 5.414 112.723 5.526C112.965 5.134 113.245 4.83067 113.563 4.616C113.88 4.392 114.291 4.28 114.795 4.28C115.261 4.28 115.653 4.34533 115.971 4.476C116.288 4.59733 116.545 4.77933 116.741 5.022C116.937 5.25533 117.077 5.54467 117.161 5.89C117.245 6.226 117.287 6.604 117.287 7.024V11H116.195V7.08C116.195 6.856 116.171 6.63667 116.125 6.422C116.078 6.20733 115.994 6.016 115.873 5.848C115.751 5.68 115.588 5.54467 115.383 5.442C115.177 5.33933 114.916 5.288 114.599 5.288C114.365 5.288 114.146 5.33467 113.941 5.428C113.735 5.52133 113.553 5.652 113.395 5.82C113.245 5.988 113.124 6.19333 113.031 6.436C112.947 6.66933 112.905 6.93067 112.905 7.22V11H111.813V7.29C111.813 6.562 111.715 6.04867 111.519 5.75C111.323 5.442 111.001 5.288 110.553 5.288C110.198 5.288 109.89 5.34867 109.629 5.47C109.377 5.59133 109.167 5.764 108.999 5.988C108.84 6.212 108.719 6.478 108.635 6.786C108.56 7.094 108.523 7.43467 108.523 7.808V11H107.431V6.002ZM120.262 9.404C120.496 9.404 120.692 9.488 120.85 9.656C121.018 9.81467 121.102 10.0107 121.102 10.244C121.102 10.4773 121.014 10.678 120.836 10.846C120.668 11.0047 120.477 11.084 120.262 11.084C120.048 11.084 119.852 11.0047 119.674 10.846C119.506 10.678 119.422 10.4773 119.422 10.244C119.422 10.0107 119.502 9.81467 119.66 9.656C119.828 9.488 120.029 9.404 120.262 9.404ZM129.101 9.81C128.709 10.314 128.28 10.6687 127.813 10.874C127.346 11.07 126.805 11.168 126.189 11.168C125.676 11.168 125.214 11.0793 124.803 10.902C124.392 10.7153 124.042 10.468 123.753 10.16C123.473 9.852 123.254 9.488 123.095 9.068C122.946 8.648 122.871 8.2 122.871 7.724C122.871 7.22 122.955 6.758 123.123 6.338C123.291 5.90867 123.524 5.54467 123.823 5.246C124.122 4.938 124.476 4.7 124.887 4.532C125.298 4.364 125.746 4.28 126.231 4.28C126.688 4.28 127.108 4.35933 127.491 4.518C127.874 4.66733 128.2 4.89133 128.471 5.19C128.751 5.47933 128.966 5.83867 129.115 6.268C129.264 6.688 129.339 7.16867 129.339 7.71V8.06H124.047C124.066 8.34 124.131 8.61067 124.243 8.872C124.364 9.124 124.518 9.348 124.705 9.544C124.892 9.73067 125.111 9.88 125.363 9.992C125.615 10.104 125.89 10.16 126.189 10.16C126.665 10.16 127.066 10.076 127.393 9.908C127.72 9.74 128.014 9.49267 128.275 9.166L129.101 9.81ZM128.163 7.136C128.144 6.576 127.962 6.128 127.617 5.792C127.272 5.456 126.796 5.288 126.189 5.288C125.582 5.288 125.092 5.456 124.719 5.792C124.346 6.128 124.122 6.576 124.047 7.136H128.163ZM136.74 9.446C136.74 9.74467 136.75 10.0247 136.768 10.286C136.787 10.5473 136.796 10.7853 136.796 11H135.76C135.76 10.8227 135.756 10.6453 135.746 10.468C135.737 10.2907 135.732 10.1087 135.732 9.922H135.704C135.63 10.0807 135.522 10.2347 135.382 10.384C135.252 10.5333 135.093 10.6687 134.906 10.79C134.72 10.902 134.51 10.9907 134.276 11.056C134.043 11.1307 133.791 11.168 133.52 11.168C133.091 11.168 132.718 11.1027 132.4 10.972C132.092 10.8413 131.836 10.6593 131.63 10.426C131.425 10.1927 131.271 9.91267 131.168 9.586C131.075 9.25 131.028 8.886 131.028 8.494V4.448H132.12V8.382C132.12 8.93267 132.242 9.36667 132.484 9.684C132.727 10.0013 133.105 10.16 133.618 10.16C133.973 10.16 134.276 10.0993 134.528 9.978C134.79 9.85667 135 9.684 135.158 9.46C135.326 9.236 135.448 8.97 135.522 8.662C135.606 8.354 135.648 8.01333 135.648 7.64V4.448H136.74V9.446Z" fill="#FBFFFE"/>
</svg>
