<svg width="22" height="24" viewBox="0 0 22 24" fill="none" xmlns="http://www.w3.org/2000/svg">
<path fill-rule="evenodd" clip-rule="evenodd" d="M15.5923 0.0201562C15.5937 0.38625 15.7006 5.67703 21.2529 6.00703C21.2529 7.53281 21.2548 8.63906 21.2548 10.095C20.8343 10.1194 17.5995 9.88453 15.5862 8.08875L15.5801 16.0472C15.6565 21.5709 11.5915 24.9323 6.27825 23.7712C-2.88393 21.0305 0.160598 7.44141 9.36028 8.89594C9.36028 13.283 9.36263 8.89453 9.36263 13.283C5.562 12.7238 4.29075 15.8855 5.30091 18.1491C6.21966 20.2102 10.0039 20.6569 11.3239 17.7492C11.4734 17.1802 11.5479 16.5314 11.5479 15.803V0L15.5923 0.0201562Z" fill="#EFF4FA"/>
</svg>
