<svg width="24" height="19" viewBox="0 0 24 19" fill="none" xmlns="http://www.w3.org/2000/svg">
<path d="M22.4992 7.15698H18.159V4.26123H18.2835C18.6562 4.26123 18.9585 3.95898 18.9585 3.58623C18.9585 3.21348 18.6562 2.91123 18.2835 2.91123H16.629V1.64298C16.629 0.904235 16.0282 0.302734 15.2887 0.302734H8.70972C7.97097 0.302734 7.36947 0.903485 7.36947 1.64298V2.91123H5.71572C5.34297 2.91123 5.04072 3.21348 5.04072 3.58623C5.04072 3.95898 5.34297 4.26123 5.71572 4.26123H5.84022V7.15698H1.49922C1.12647 7.15698 0.824219 7.45923 0.824219 7.83198C0.824219 8.20473 1.12647 8.50698 1.49922 8.50698H1.62372V17.48C1.62372 18.1512 2.16972 18.6972 2.84097 18.6972H6.51447H17.484H21.1575C21.8287 18.6972 22.3747 18.1505 22.3747 17.48V8.50698H22.4992C22.872 8.50698 23.1742 8.20473 23.1742 7.83198C23.1742 7.45923 22.872 7.15698 22.4992 7.15698ZM8.70972 1.65273L15.279 1.64298V2.91123H8.71572L8.70972 1.65273ZM2.97297 8.50698H5.83947V17.3465H2.97297V8.50698ZM7.18947 7.83198V4.26123H16.809V7.83198V17.3465H14.5387V13.8267C14.5387 13.0505 13.9072 12.4182 13.1317 12.4182H10.8667C10.0905 12.4182 9.45972 13.0505 9.45972 13.8267V17.3465H7.18947V7.83198ZM13.1887 17.3465H10.809V13.8267C10.809 13.7945 10.8352 13.769 10.8667 13.769H13.1317C13.1632 13.769 13.1895 13.7945 13.1895 13.8267L13.1887 17.3465ZM21.0255 17.3465H18.159V8.50698H21.0255V17.3465Z" fill="#4257EE"/>
<path d="M9.40352 7.725H14.5965C14.9693 7.725 15.2715 7.42275 15.2715 7.05C15.2715 6.67725 14.9693 6.375 14.5965 6.375H9.40352C9.03077 6.375 8.72852 6.67725 8.72852 7.05C8.72852 7.42275 9.03077 7.725 9.40352 7.725ZM14.5965 10.3057C14.9693 10.3057 15.2715 10.0035 15.2715 9.63075C15.2715 9.258 14.9693 8.95575 14.5965 8.95575H9.40352C9.03077 8.95575 8.72852 9.258 8.72852 9.63075C8.72852 10.0035 9.03077 10.3057 9.40352 10.3057H14.5965Z" fill="#4257EE"/>
</svg>
