<svg width="24" height="23" viewBox="0 0 24 23" fill="none" xmlns="http://www.w3.org/2000/svg">
<path d="M18.8902 0.325195H5.10897C2.74647 0.325195 0.824219 2.24745 0.824219 4.60995V18.3912C0.824219 20.7537 2.74647 22.6752 5.10897 22.6752H18.8902C21.252 22.6752 23.175 20.7529 23.175 18.3912V4.60995C23.1742 2.24745 21.252 0.325195 18.8902 0.325195ZM21.8242 18.3912C21.8242 20.0089 20.508 21.3259 18.8902 21.3259H5.10897C3.49122 21.3259 2.17497 20.0097 2.17497 18.3912V4.60995C2.17422 2.99145 3.49047 1.6752 5.10897 1.6752H18.8902C20.508 1.6752 21.8242 2.99145 21.8242 4.60995V18.3912Z" fill="#4257EE"/>
<path d="M14.5989 14.3398H9.39986C7.56086 14.3398 6.04661 15.7775 5.95211 17.6143C5.93261 17.987 6.21836 18.3035 6.59186 18.323C6.96686 18.3418 7.28111 18.056 7.29986 17.6833C7.35761 16.565 8.28011 15.689 9.39986 15.689H14.5989C15.7186 15.689 16.6411 16.565 16.6989 17.6833C16.7169 18.0433 17.0154 18.3238 17.3716 18.3238C17.3836 18.3238 17.3949 18.3238 17.4069 18.323C17.7796 18.3035 18.0661 17.9863 18.0466 17.6143C17.9521 15.7775 16.4379 14.3398 14.5989 14.3398ZM11.9994 12.8255C14.2456 12.8255 16.0741 10.9978 16.0741 8.75151C16.0741 6.50526 14.2456 4.67676 11.9994 4.67676C9.75311 4.67676 7.92461 6.50451 7.92461 8.75076C7.92461 10.997 9.75311 12.8255 11.9994 12.8255ZM11.9994 6.02676C13.5016 6.02676 14.7234 7.24851 14.7234 8.75076C14.7234 10.253 13.5016 11.4755 11.9994 11.4755C10.4971 11.4755 9.27536 10.2538 9.27536 8.75151C9.27536 7.24926 10.4971 6.02676 11.9994 6.02676Z" fill="#4257EE"/>
</svg>
