<svg width="20" height="23" viewBox="0 0 20 23" fill="none" xmlns="http://www.w3.org/2000/svg">
<path d="M7.14286 0.325195C3.72436 0.325195 0.943359 3.10619 0.943359 6.5247V13.1929C0.943359 13.9564 1.56436 14.5782 2.32786 14.5782H3.20236V20.3689C3.20204 20.7045 3.27494 21.0361 3.41598 21.3405C3.55702 21.645 3.76279 21.915 4.01895 22.1317C4.2751 22.3485 4.57546 22.5067 4.89907 22.5954C5.22269 22.6841 5.56175 22.7011 5.89261 22.6452C6.99061 22.4667 7.81786 21.4504 7.81786 20.2819V1.0002C7.81786 0.821174 7.74674 0.649485 7.62016 0.522898C7.49357 0.396311 7.32188 0.325195 7.14286 0.325195ZM6.46786 20.2804C6.46786 20.7949 6.12736 21.2374 5.67511 21.3109C5.53741 21.335 5.39612 21.3287 5.26114 21.2924C5.12615 21.256 5.00074 21.1907 4.8937 21.1008C4.78666 21.0109 4.70057 20.8986 4.64148 20.772C4.58238 20.6453 4.55171 20.5072 4.55161 20.3674V13.9017C4.55161 13.7227 4.48049 13.551 4.35391 13.4244C4.22732 13.2978 4.05563 13.2267 3.87661 13.2267L2.29261 13.1922V6.52394C2.2939 5.35516 2.71681 4.22607 3.48366 3.34403C4.25052 2.46199 5.30985 1.88622 6.46711 1.72245V20.2804H6.46786ZM17.6016 0.327445H11.5671C11.1817 0.327842 10.8123 0.481106 10.5398 0.753604C10.2673 1.0261 10.114 1.39557 10.1136 1.78095L10.1166 8.8047C10.2471 10.2267 11.0076 11.1544 12.2781 11.4709V20.3682C12.2781 21.6402 13.3124 22.6752 14.5844 22.6752C15.8564 22.6752 16.8906 21.6402 16.8906 20.3682V11.4702C18.1611 11.1537 18.9216 10.2184 19.0551 8.74244V1.78095C19.0547 1.39557 18.9014 1.0261 18.629 0.753604C18.3565 0.481106 17.987 0.327842 17.6016 0.327445ZM16.1556 10.2274C15.9877 10.2424 15.8315 10.3197 15.7177 10.4441C15.6039 10.5684 15.5407 10.7309 15.5406 10.8994V20.3682C15.5406 20.8954 15.1116 21.3244 14.5844 21.3244C14.0571 21.3244 13.6281 20.8954 13.6281 20.3682V10.8994C13.6282 10.7308 13.5651 10.5683 13.4513 10.4439C13.3374 10.3195 13.1811 10.2423 13.0131 10.2274C12.0164 10.1389 11.5521 9.6762 11.4636 8.7432V1.78095C11.4636 1.72395 11.5101 1.67745 11.5671 1.67745H12.6441V7.20795C12.6441 7.38697 12.7152 7.55865 12.8418 7.68524C12.9684 7.81183 13.1401 7.88295 13.3191 7.88295C13.4981 7.88295 13.6698 7.81183 13.7964 7.68524C13.923 7.55865 13.9941 7.38697 13.9941 7.20795V1.67745H15.1746V7.20795C15.1746 7.38697 15.2457 7.55865 15.3723 7.68524C15.4989 7.81183 15.6706 7.88295 15.8496 7.88295C16.0286 7.88295 16.2003 7.81183 16.3269 7.68524C16.4535 7.55865 16.5246 7.38697 16.5246 7.20795V1.67745H17.6024C17.6298 1.67764 17.6561 1.68858 17.6756 1.70793C17.6951 1.72728 17.7062 1.75349 17.7066 1.78095L17.7096 8.68019C17.6166 9.67544 17.1524 10.1389 16.1556 10.2274Z" fill="#4257EE"/>
</svg>
