<svg width="24" height="17" viewBox="0 0 24 17" fill="none" xmlns="http://www.w3.org/2000/svg">
<path d="M23.1742 9.89423C23.1742 8.79848 22.4115 7.88348 21.3915 7.63523C21.0322 3.42623 16.962 0.0947266 11.9992 0.0947266C7.03647 0.0947266 2.96622 3.42623 2.60697 7.63523C1.58622 7.88348 0.824219 8.79923 0.824219 9.89423C0.824219 10.9772 1.56972 11.8817 2.57172 12.1427V13.231C2.57172 15.2575 4.22022 16.906 6.24672 16.906H17.7517C19.7782 16.906 21.4267 15.2575 21.4267 13.231V12.1427C22.4287 11.8817 23.1742 10.9772 23.1742 9.89423ZM11.9992 1.44473C16.182 1.44473 19.6312 4.13348 20.0355 7.56323H3.96297C4.36722 4.13273 7.81647 1.44473 11.9992 1.44473ZM17.7517 15.5552H6.24672C4.96497 15.5552 3.92172 14.512 3.92172 13.2302V12.2252H8.33247L10.728 14.308C11.0902 14.6237 11.5447 14.7812 11.9985 14.7812C12.4522 14.7812 12.9067 14.6237 13.269 14.308L15.6645 12.2252H20.0752V13.2302C20.0767 14.5127 19.0335 15.5552 17.7517 15.5552ZM10.3897 12.226H13.6087L12.384 13.291C12.1642 13.4815 11.835 13.4815 11.6152 13.291L10.3897 12.226ZM20.8432 10.8752H3.15522C2.61372 10.8752 2.17422 10.4357 2.17422 9.89423C2.17422 9.35273 2.61372 8.91248 3.15522 8.91248H20.8432C21.3847 8.91248 21.8242 9.35273 21.8242 9.89423C21.8242 10.4357 21.3847 10.8752 20.8432 10.8752Z" fill="#4257EE"/>
<path d="M9.24292 4.7967C8.96542 4.93695 8.85442 5.27519 8.99467 5.55269C9.13492 5.83019 9.47317 5.9412 9.75067 5.80095C10.0282 5.6607 10.1392 5.32244 9.99892 5.04494C9.85867 4.76744 9.52042 4.65645 9.24292 4.7967ZM7.73017 5.2857C8.00767 5.14545 8.11867 4.8072 7.97842 4.5297C7.83817 4.2522 7.49992 4.1412 7.22242 4.28145C6.94492 4.4217 6.83467 4.75995 6.97492 5.03745C7.11517 5.3142 7.45342 5.4252 7.73017 5.2857ZM9.53467 4.04445C9.81217 3.9042 9.92317 3.56594 9.78292 3.28844C9.64267 3.01094 9.30442 2.89995 9.02692 3.0402C8.74942 3.18045 8.63842 3.51869 8.77867 3.79619C8.91967 4.07294 9.25792 4.1847 9.53467 4.04445Z" fill="#4257EE"/>
</svg>
