<svg width="25" height="25" viewBox="0 0 25 25" fill="none" xmlns="http://www.w3.org/2000/svg">
<path d="M19.6898 6.99745H15.795L16.383 3.49045C16.4633 3.02545 16.8803 2.6752 17.355 2.6752H20.6663C21.039 2.6752 21.3413 2.37295 21.3413 2.0002C21.3413 1.62745 21.039 1.3252 20.6663 1.3252H17.355C16.2128 1.3252 15.2453 2.1397 15.0533 3.2647L14.427 6.99745H5.17276C4.55701 6.99745 4.02451 7.34919 3.78301 7.91544C3.54151 8.48169 3.65551 9.10944 4.08151 9.55419L11.7563 17.5657V22.3252H10.1618C9.78901 22.3252 9.48676 22.6274 9.48676 23.0002C9.48676 23.3729 9.78901 23.6752 10.1618 23.6752H14.8388C15.2115 23.6752 15.5138 23.3729 15.5138 23.0002C15.5138 22.6274 15.2115 22.3252 14.8388 22.3252H13.1063V17.5657L20.7818 9.55419C21.207 9.10944 21.3218 8.48169 21.0795 7.91544C20.8373 7.34919 20.3055 6.99745 19.6898 6.99745ZM5.05651 8.61969C5.00776 8.56869 4.99651 8.51019 5.02501 8.44494C5.05276 8.37969 5.10301 8.34669 5.17351 8.34669H14.2005L13.8008 10.7302H7.07776L5.05651 8.61969ZM12.4313 16.3184L8.37076 12.0802H16.491L12.4313 16.3184ZM19.806 8.61969L17.7848 10.7302H15.1695L15.5693 8.34669H19.6898C19.761 8.34669 19.8105 8.37969 19.8383 8.44494C19.866 8.51019 19.8555 8.56869 19.806 8.61969Z" fill="#4257EE"/>
</svg>
