<svg width="20" height="23" viewBox="0 0 20 23" fill="none" xmlns="http://www.w3.org/2000/svg">
<path d="M3.37444 12.1512C3.88369 12.3342 4.41694 12.4227 4.94869 12.4227C6.36469 12.4227 7.77394 11.7987 8.69794 10.6835C8.86669 10.4795 8.98819 10.2485 9.07069 10.007H10.9314C11.0139 10.2492 11.1354 10.4802 11.3042 10.6835C12.2274 11.7987 13.6367 12.4227 15.0527 12.4227C15.5852 12.4227 16.1184 12.3342 16.6277 12.1512C18.9909 11.2992 20.2817 8.61873 19.4462 6.29823C19.2392 5.71848 18.7892 5.25723 18.2139 5.03373C18.1194 4.99698 18.0249 4.97448 17.9304 4.94298C18.0309 4.47573 18.0782 3.99723 18.0594 3.50898C18.0144 2.49948 17.6964 1.50648 17.1377 0.63498C16.9359 0.32148 16.5182 0.23148 16.2047 0.43173C15.8912 0.63348 15.7989 1.05123 16.0007 1.36473C16.4312 2.03598 16.6764 2.79723 16.7102 3.56448C16.7244 3.94623 16.6734 4.31748 16.5924 4.68348C16.2347 4.66323 15.8784 4.67073 15.5244 4.72923C13.8384 5.00673 12.8049 6.10473 12.1877 6.76098C11.7677 7.20723 11.3994 7.70373 11.0912 8.23848V8.23923C11.0147 8.37273 10.9592 8.51373 10.9142 8.65698H9.08719C9.04219 8.51373 8.98669 8.37273 8.91019 8.23923V8.23848C8.60194 7.70298 8.23369 7.20648 7.81444 6.76098C7.19644 6.10473 6.16219 5.00598 4.47769 4.72923C4.12294 4.66998 3.76669 4.66248 3.40894 4.68273C3.32794 4.31748 3.27694 3.94623 3.29044 3.56823C3.32419 2.79723 3.57019 2.03598 4.00069 1.36473C4.20244 1.05123 4.11094 0.63273 3.79744 0.43173C3.48244 0.23148 3.06619 0.32223 2.86444 0.63498C2.30494 1.50648 1.98619 2.50023 1.94194 3.51348C1.92394 3.99948 1.97119 4.47648 2.07169 4.94373C1.97719 4.97523 1.88269 4.99773 1.78894 5.03448C1.21369 5.25798 0.764443 5.71848 0.555943 6.29748C-0.280307 8.61948 1.01119 11.3 3.37444 12.1512ZM12.2619 8.91198C12.5177 8.46798 12.8229 8.05548 13.1709 7.68648C13.7357 7.08573 14.5089 6.26448 15.7449 6.06048C16.3907 5.95473 17.0567 6.03198 17.7242 6.29298C17.9319 6.37323 18.1014 6.54648 18.1764 6.75498C18.7547 8.36073 17.8172 10.2882 16.1709 10.8815C14.8547 11.3562 13.2459 10.9107 12.3437 9.82248C12.1299 9.56448 12.0969 9.19848 12.2619 8.91198ZM1.82569 6.75498C1.90069 6.54648 2.07019 6.37323 2.27869 6.29298C2.75269 6.10773 3.22594 6.01473 3.69169 6.01473C3.88144 6.01473 4.07044 6.03048 4.25719 6.06123C5.49169 6.26448 6.26569 7.08648 6.83044 7.68723C7.17769 8.05548 7.48369 8.46798 7.73944 8.91273C7.90444 9.19923 7.87144 9.56523 7.65769 9.82323C6.75694 10.9107 5.14669 11.3555 3.83119 10.8822C2.18569 10.2882 1.24819 8.35998 1.82569 6.75498ZM18.0107 15.6875H1.99069C1.61794 15.6875 1.31569 15.9897 1.31569 16.3625C1.31569 16.7352 1.61794 17.0375 1.99069 17.0375H3.06469C4.38094 17.606 5.04319 18.4895 5.80069 19.511C6.52069 20.4815 7.33669 21.5825 8.81719 22.3782C9.18169 22.5755 9.59044 22.6737 9.99994 22.6737C10.4094 22.6737 10.8182 22.5755 11.1827 22.379C12.6639 21.5817 13.4799 20.4815 14.1992 19.5102C14.9567 18.4895 15.6189 17.606 16.9352 17.0375H18.0092C18.3819 17.0375 18.6842 16.7352 18.6842 16.3625C18.6842 15.9897 18.3834 15.6875 18.0107 15.6875ZM13.1162 18.7062C12.4179 19.6475 11.7587 20.5355 10.5437 21.1902C10.2084 21.3702 9.79294 21.3702 9.45769 21.1902C8.24194 20.5362 7.58269 19.6475 6.88519 18.707C6.46369 18.1385 6.03394 17.5617 5.48269 17.0375H14.5179C13.9674 17.5617 13.5377 18.1385 13.1162 18.7062Z" fill="#4257EE"/>
</svg>
