<svg width="17" height="16" viewBox="0 0 17 16" fill="none" xmlns="http://www.w3.org/2000/svg">
<path d="M8.50078 12.5349H3.10578C2.46878 12.5349 1.95078 12.0169 1.95078 11.3799V4.01039C1.95078 3.37339 2.46878 2.85539 3.10578 2.85539H4.19178V3.12739C4.19178 3.37589 4.39328 3.57739 4.64178 3.57739C4.89028 3.57739 5.09178 3.37589 5.09178 3.12739V2.85539H10.4738V3.12739C10.4738 3.37589 10.6753 3.57739 10.9238 3.57739C11.1723 3.57739 11.3738 3.37589 11.3738 3.12739V2.85539H12.4558C13.0923 2.85539 13.6108 3.37339 13.6108 4.01039V7.22539C13.6108 7.47389 13.8123 7.67539 14.0608 7.67539C14.3093 7.67539 14.5108 7.47389 14.5108 7.22539V4.01039C14.5108 2.87739 13.5888 1.95539 12.4558 1.95539H11.3738V1.72539C11.3738 1.47689 11.1723 1.27539 10.9238 1.27539C10.6753 1.27539 10.4738 1.47689 10.4738 1.72539V1.95539H5.09178V1.72539C5.09178 1.47689 4.89028 1.27539 4.64178 1.27539C4.39328 1.27539 4.19178 1.47689 4.19178 1.72539V1.95539H3.10578C1.97278 1.95539 1.05078 2.87739 1.05078 4.01039V11.3804C1.05078 12.5139 1.97278 13.4354 3.10578 13.4354H8.50078C8.74928 13.4354 8.95078 13.2339 8.95078 12.9854C8.95078 12.7369 8.74928 12.5349 8.50078 12.5349Z" fill="#4257EE"/>
<path d="M4.54684 6.12207C4.25984 6.12207 4.02734 6.35457 4.02734 6.64157C4.02734 6.92857 4.25984 7.16107 4.54684 7.16107C4.83384 7.16107 5.06634 6.92857 5.06634 6.64157C5.06634 6.35457 4.83384 6.12207 4.54684 6.12207ZM7.78134 6.12207C7.49434 6.12207 7.26184 6.35457 7.26184 6.64157C7.26184 6.92857 7.49434 7.16107 7.78134 7.16107C8.06834 7.16107 8.30084 6.92857 8.30084 6.64157C8.30084 6.35457 8.06784 6.12207 7.78134 6.12207ZM10.4958 6.64157C10.4958 6.92857 10.7283 7.16107 11.0153 7.16107C11.3023 7.16107 11.5348 6.92857 11.5348 6.64157C11.5348 6.35457 11.3023 6.12207 11.0153 6.12207C10.7283 6.12207 10.4958 6.35457 10.4958 6.64157ZM4.54684 8.95257C4.25984 8.95257 4.02734 9.18507 4.02734 9.47207C4.02734 9.75907 4.25984 9.99157 4.54684 9.99157C4.83384 9.99157 5.06634 9.75907 5.06634 9.47207C5.06634 9.18507 4.83384 8.95257 4.54684 8.95257ZM7.78134 8.95257C7.49434 8.95257 7.26184 9.18507 7.26184 9.47207C7.26184 9.75907 7.49434 9.99157 7.78134 9.99157C8.06834 9.99157 8.30084 9.75907 8.30084 9.47207C8.30084 9.18507 8.06784 8.95257 7.78134 8.95257ZM12.7533 8.33257C10.9908 8.33257 9.55634 9.76657 9.55634 11.5291C9.55634 13.2911 10.9903 14.7256 12.7533 14.7256C14.5163 14.7256 15.9503 13.2916 15.9503 11.5291C15.9498 9.76607 14.5158 8.33257 12.7533 8.33257ZM12.7533 13.8246C11.4873 13.8246 10.4568 12.7946 10.4568 11.5286C10.4568 10.2626 11.4873 9.23207 12.7533 9.23207C14.0193 9.23207 15.0498 10.2626 15.0498 11.5286C15.0498 12.7946 14.0193 13.8246 12.7533 13.8246Z" fill="#4257EE"/>
<path d="M13.4067 10.7108L12.4207 11.5053L12.1752 11.1918C12.0212 10.9963 11.7397 10.9623 11.5432 11.1158C11.3477 11.2693 11.3137 11.5518 11.4672 11.7478L11.9942 12.4198C12.0682 12.5143 12.1772 12.5758 12.2967 12.5893C12.3137 12.5913 12.3307 12.5923 12.3482 12.5923C12.4502 12.5923 12.5502 12.5573 12.6302 12.4928L13.9712 11.4128C14.1652 11.2563 14.1952 10.9733 14.0397 10.7798C13.8837 10.5863 13.6002 10.5543 13.4067 10.7108Z" fill="#4257EE"/>
</svg>
