<svg width="16" height="14" viewBox="0 0 16 14" fill="none" xmlns="http://www.w3.org/2000/svg">
<path d="M3.68391 10.5606C3.50841 10.3851 3.22291 10.3846 3.04741 10.5606L0.682406 12.9256C0.506906 13.1011 0.506906 13.3866 0.682406 13.5621C0.857906 13.7376 1.14341 13.7381 1.31891 13.5621L3.68391 11.1971C3.85991 11.0216 3.85941 10.7366 3.68391 10.5606ZM5.02391 11.9006C4.84841 11.7251 4.56291 11.7246 4.38741 11.9006L3.19191 13.0961C3.01641 13.2716 3.01641 13.5571 3.19191 13.7326C3.36741 13.9081 3.65291 13.9086 3.82841 13.7326L5.02391 12.5371C5.19991 12.3616 5.19941 12.0766 5.02391 11.9006ZM14.4939 8.55205L13.3539 6.15455C15.4504 3.81805 16.0059 1.84305 14.8739 0.711051C13.7419 -0.420949 11.7669 0.134051 9.42991 2.23055L7.03241 1.09105C6.13341 0.664051 5.05691 0.849551 4.35341 1.55305L3.58741 2.31955C3.37791 2.52905 3.28091 2.81755 3.31991 3.11055C3.35941 3.40405 3.52941 3.65705 3.78691 3.80405C4.36841 4.13705 5.30691 4.74555 6.51541 5.57305C6.46741 5.64455 6.42091 5.71555 6.37491 5.78605C6.08241 6.23905 5.82441 6.67505 5.60441 7.08755L4.71741 6.72055C4.05641 6.44705 3.15391 6.72155 2.46291 7.41205C2.20741 7.66755 2.08141 7.99905 2.12591 8.29905C2.14941 8.45655 2.21941 8.59705 2.32641 8.70355C2.37391 8.75105 2.42891 8.79155 2.48941 8.82455C3.28041 9.24855 4.77191 10.2426 5.11341 10.4721C5.34391 10.8156 6.33641 12.3041 6.76091 13.0956C6.86691 13.2911 7.05891 13.4256 7.28691 13.4591C7.58641 13.5036 7.91741 13.3776 8.18141 13.1136C8.86391 12.4311 9.13841 11.5281 8.86541 10.8671L8.49841 9.98005C8.84391 9.79655 9.28741 9.54205 9.79991 9.20955C9.87041 9.16405 9.94141 9.11705 10.0129 9.06905C10.8414 10.2786 11.4499 11.2171 11.7824 11.7976C11.9289 12.0546 12.1819 12.2246 12.4754 12.2641C12.7684 12.3031 13.0574 12.2056 13.2669 11.9961L14.0334 11.2296C14.7349 10.5271 14.9209 9.45055 14.4939 8.55205ZM12.6284 11.3606L12.5619 11.3516C12.1789 10.6816 11.4839 9.61705 10.4964 8.18705C10.4274 8.08905 10.3224 8.02055 10.2039 7.99955C10.0849 7.97905 9.96291 8.00655 9.86491 8.07655C9.67841 8.21005 9.49341 8.33605 9.30991 8.45455C8.62141 8.90155 8.06741 9.19705 7.72391 9.36605C7.51141 9.47105 7.41641 9.72255 7.50691 9.94205L8.03241 11.2121C8.14241 11.4785 8.00841 12.0126 7.53541 12.4861C7.51541 12.5061 7.49591 12.5221 7.47841 12.5341C6.93291 11.5566 5.81991 9.91055 5.80841 9.89455C5.79291 9.87155 5.77491 9.85005 5.75491 9.83055C5.73741 9.81305 5.71841 9.79705 5.69791 9.78255C5.68441 9.77255 4.02341 8.65055 3.05141 8.10755C3.06491 8.08805 3.08291 8.06555 3.10741 8.04155C3.57191 7.57705 4.10641 7.44305 4.37241 7.55305L5.64241 8.07855C5.86191 8.16905 6.11341 8.07405 6.21841 7.86155C6.45891 7.37255 6.76591 6.83905 7.13041 6.27505C7.24841 6.09305 7.37441 5.90805 7.50791 5.72155C7.57841 5.62355 7.60591 5.50105 7.58541 5.38255C7.56491 5.26355 7.49691 5.15805 7.39791 5.08955C6.41541 4.41105 5.06941 3.50205 4.23341 3.02405L4.22391 2.95605L4.99041 2.18955C5.42541 1.75455 6.09041 1.63955 6.64591 1.90405L9.31691 3.17355C9.48391 3.25255 9.68141 3.22205 9.81691 3.09655C11.3614 1.65905 13.3344 0.444551 14.2374 1.34755C15.1404 2.25055 13.9259 4.22305 12.4879 5.76805C12.3624 5.90305 12.3319 6.10105 12.4109 6.26805L13.6804 8.93905C13.9444 9.49405 13.8294 10.1595 13.3944 10.5946L12.6284 11.3606Z" fill="#333447"/>
</svg>
