<svg width="13" height="14" viewBox="0 0 13 14" fill="none" xmlns="http://www.w3.org/2000/svg">
<path d="M10.332 0.333496H2.33203C1.8016 0.333496 1.29289 0.54421 0.917818 0.919283C0.542745 1.29436 0.332031 1.80306 0.332031 2.3335V10.3335C0.333191 10.7461 0.46195 11.1483 0.700657 11.4849C0.939364 11.8214 1.27633 12.076 1.66536 12.2135V13.0002C1.66536 13.177 1.7356 13.3465 1.86063 13.4716C1.98565 13.5966 2.15522 13.6668 2.33203 13.6668C2.50884 13.6668 2.67841 13.5966 2.80344 13.4716C2.92846 13.3465 2.9987 13.177 2.9987 13.0002V12.3335H9.66537V13.0002C9.66537 13.177 9.7356 13.3465 9.86063 13.4716C9.98565 13.5966 10.1552 13.6668 10.332 13.6668C10.5088 13.6668 10.6784 13.5966 10.8034 13.4716C10.9285 13.3465 10.9987 13.177 10.9987 13.0002V12.2135C11.3877 12.076 11.7247 11.8214 11.9634 11.4849C12.2021 11.1483 12.3309 10.7461 12.332 10.3335V2.3335C12.332 1.80306 12.1213 1.29436 11.7462 0.919283C11.3712 0.54421 10.8625 0.333496 10.332 0.333496ZM1.66536 4.3335H5.66536V7.00016H1.66536V4.3335ZM10.9987 10.3335C10.9987 10.5103 10.9285 10.6799 10.8034 10.8049C10.6784 10.9299 10.5088 11.0002 10.332 11.0002H2.33203C2.15522 11.0002 1.98565 10.9299 1.86063 10.8049C1.7356 10.6799 1.66536 10.5103 1.66536 10.3335V8.3335H10.9987V10.3335ZM10.9987 7.00016H6.9987V4.3335H10.9987V7.00016ZM10.9987 3.00016H1.66536V2.3335C1.66536 2.15668 1.7356 1.98712 1.86063 1.86209C1.98565 1.73707 2.15522 1.66683 2.33203 1.66683H10.332C10.5088 1.66683 10.6784 1.73707 10.8034 1.86209C10.9285 1.98712 10.9987 2.15668 10.9987 2.3335V3.00016ZM8.74537 10.2802C8.82551 10.3143 8.91158 10.3324 8.9987 10.3335C9.17551 10.3335 9.34508 10.2633 9.4701 10.1382C9.59513 10.0132 9.66537 9.84364 9.66537 9.66683C9.66864 9.62245 9.66864 9.57788 9.66537 9.5335C9.65807 9.49173 9.64459 9.45129 9.62537 9.4135C9.61077 9.37101 9.5906 9.33066 9.56536 9.2935C9.54075 9.25857 9.51403 9.22518 9.48536 9.1935L9.38536 9.1135C9.3482 9.08826 9.30785 9.06809 9.26536 9.0535C9.22425 9.02831 9.17917 9.01028 9.13203 9.00016C9.02391 8.97756 8.91187 8.98217 8.80598 9.01359C8.70009 9.04501 8.60366 9.10225 8.52536 9.18016C8.49669 9.21184 8.46998 9.24524 8.44536 9.28016C8.42013 9.31733 8.39996 9.35768 8.38536 9.40016C8.36614 9.43795 8.35266 9.4784 8.34537 9.52016C8.34209 9.56455 8.34209 9.60911 8.34537 9.65349C8.3461 9.82839 8.41554 9.99599 8.5387 10.1202C8.59636 10.1866 8.66659 10.241 8.74537 10.2802ZM3.41203 10.2802C3.49218 10.3143 3.57825 10.3324 3.66536 10.3335C3.84218 10.3335 4.01174 10.2633 4.13677 10.1382C4.26179 10.0132 4.33203 9.84364 4.33203 9.66683C4.3353 9.62245 4.3353 9.57788 4.33203 9.5335C4.32473 9.49173 4.31125 9.45129 4.29203 9.4135C4.27744 9.37101 4.25726 9.33066 4.23203 9.2935C4.20742 9.25857 4.1807 9.22518 4.15203 9.1935L4.05203 9.1135L3.93203 9.0535L3.7987 9.00016C3.69058 8.97756 3.57854 8.98217 3.47265 9.01359C3.36675 9.04501 3.27033 9.10225 3.19203 9.18016C3.16336 9.21184 3.13665 9.24524 3.11203 9.28016C3.0868 9.31733 3.06662 9.35768 3.05203 9.40016C3.03281 9.43795 3.01933 9.4784 3.01203 9.52016C3.00876 9.56455 3.00876 9.60911 3.01203 9.65349C3.01277 9.82839 3.0822 9.99599 3.20536 10.1202C3.26302 10.1866 3.33326 10.241 3.41203 10.2802Z" fill="#333447"/>
</svg>
