<svg width="18" height="18" viewBox="0 0 18 18" fill="none" xmlns="http://www.w3.org/2000/svg">
<path fill-rule="evenodd" clip-rule="evenodd" d="M17.9999 4.66008V5.00008C18.0007 6.06616 17.576 7.0885 16.8199 7.84L13.9999 10.67C13.4738 11.1911 12.6261 11.1911 12.1 10.67L12 10.56C11.8094 10.3656 11.8094 10.0544 12 9.86L15.4399 6.42006C15.807 6.03938 16.0083 5.52883 15.9999 5.00008V4.66008C16.0003 4.12705 15.788 3.61589 15.4099 3.2401L14.7599 2.59011C14.3841 2.21207 13.873 1.99969 13.3399 2.00011H12.9999C12.4669 1.99969 11.9558 2.21207 11.58 2.59011L8.14 6.00007C7.9456 6.19064 7.6344 6.19064 7.44 6.00007L7.33 5.89007C6.8089 5.36394 6.8089 4.51623 7.33 3.99009L10.16 1.15012C10.9165 0.405048 11.9382 -0.00867213 12.9999 0.000137874H13.3399C14.4011 -0.000702126 15.4191 0.420178 16.1699 1.17012L16.8299 1.83012C17.5798 2.5809 18.0007 3.59891 17.9999 4.66008ZM5.64993 10.94L10.9399 5.65008C11.0338 5.55543 11.1616 5.50218 11.2949 5.50218C11.4282 5.50218 11.556 5.55543 11.6499 5.65008L12.3499 6.35007C12.4445 6.44395 12.4978 6.57175 12.4978 6.70507C12.4978 6.83839 12.4445 6.96618 12.3499 7.0601L7.0599 12.35C6.96604 12.4447 6.83824 12.4979 6.70492 12.4979C6.57161 12.4979 6.44381 12.4447 6.34993 12.35L5.64993 11.65C5.55528 11.5561 5.50204 11.4283 5.50204 11.295C5.50204 11.1617 5.55528 11.0339 5.64993 10.94ZM10.5599 12C10.3655 11.8094 10.0543 11.8094 9.8599 12L6.42993 15.41C6.0517 15.7905 5.53645 16.003 4.99995 15.9999H4.65995C4.12691 16.0004 3.61576 15.788 3.23997 15.41L2.58997 14.76C2.21194 14.3842 1.99956 13.873 1.99998 13.34V13C1.99956 12.4669 2.21194 11.9558 2.58997 11.58L6.00993 8.14C6.2005 7.9456 6.2005 7.6345 6.00993 7.44L5.89993 7.33C5.3738 6.80894 4.52609 6.80894 3.99996 7.33L1.17999 10.16C0.423921 10.9116 -0.000838757 11.9339 1.24351e-06 13V13.35C0.00182124 14.4077 0.422491 15.4216 1.16999 16.1699L1.82998 16.8299C2.58076 17.5799 3.59878 18.0008 4.65995 17.9999H4.99995C6.05338 18.0061 7.0667 17.5964 7.8199 16.8599L10.6699 14.01C11.191 13.4838 11.191 12.6361 10.6699 12.11L10.5599 12Z" fill="#333447"/>
</svg>
