<svg width="16" height="14" viewBox="0 0 16 14" fill="none" xmlns="http://www.w3.org/2000/svg">
<path d="M15.0008 5.43815H12.1073V3.50765H12.1903C12.4388 3.50765 12.6403 3.30615 12.6403 3.05765C12.6403 2.80915 12.4388 2.60765 12.1903 2.60765H11.0873V1.76215C11.0873 1.26965 10.6868 0.868652 10.1938 0.868652H5.80778C5.31528 0.868652 4.91428 1.26915 4.91428 1.76215V2.60765H3.81178C3.56328 2.60765 3.36178 2.80915 3.36178 3.05765C3.36178 3.30615 3.56328 3.50765 3.81178 3.50765H3.89478V5.43815H1.00078C0.752281 5.43815 0.550781 5.63965 0.550781 5.88815C0.550781 6.13665 0.752281 6.33815 1.00078 6.33815H1.08378V12.3202C1.08378 12.7677 1.44778 13.1317 1.89528 13.1317H4.34428H11.6573H14.1063C14.5538 13.1317 14.9178 12.7672 14.9178 12.3202V6.33815H15.0008C15.2493 6.33815 15.4508 6.13665 15.4508 5.88815C15.4508 5.63965 15.2493 5.43815 15.0008 5.43815ZM5.80778 1.76865L10.1873 1.76215V2.60765H5.81178L5.80778 1.76865ZM1.98328 6.33815H3.89428V12.2312H1.98328V6.33815ZM4.79428 5.88815V3.50765H11.2073V5.88815V12.2312H9.69378V9.88465C9.69378 9.36715 9.27278 8.94565 8.75578 8.94565H7.24578C6.72828 8.94565 6.30778 9.36715 6.30778 9.88465V12.2312H4.79428V5.88815ZM8.79378 12.2312H7.20728V9.88465C7.20728 9.86315 7.22478 9.84615 7.24578 9.84615H8.75578C8.77678 9.84615 8.79428 9.86315 8.79428 9.88465L8.79378 12.2312ZM14.0183 12.2312H12.1073V6.33815H14.0183V12.2312Z" fill="#333447"/>
</svg>
