<svg width="14" height="16" viewBox="0 0 14 16" fill="none" xmlns="http://www.w3.org/2000/svg">
<path d="M13 6.66699C13 11.3337 7 15.3337 7 15.3337C7 15.3337 1 11.3337 1 6.66699C1 5.07569 1.63214 3.54957 2.75736 2.42435C3.88258 1.29913 5.4087 0.666992 7 0.666992C8.5913 0.666992 10.1174 1.29913 11.2426 2.42435C12.3679 3.54957 13 5.07569 13 6.66699Z" stroke="#FCFCFD" stroke-width="2" stroke-linecap="round" stroke-linejoin="round"/>
<path d="M7 8.66699C8.10457 8.66699 9 7.77156 9 6.66699C9 5.56242 8.10457 4.66699 7 4.66699C5.89543 4.66699 5 5.56242 5 6.66699C5 7.77156 5.89543 8.66699 7 8.66699Z" stroke="#FCFCFD" stroke-width="2" stroke-linecap="round" stroke-linejoin="round"/>
</svg>
