<svg width="14" height="16" viewBox="0 0 14 16" fill="none" xmlns="http://www.w3.org/2000/svg">
<path d="M9.22903 11.8533C8.68153 9.60484 8.61253 7.92134 8.66303 6.84834C8.76053 6.63234 8.84353 6.40834 8.90803 6.18184L12.2935 8.46334C12.3705 8.51534 12.458 8.54034 12.5445 8.54034C12.689 8.54034 12.831 8.47034 12.918 8.34234C13.284 7.80034 13.405 7.13934 13.267 6.43134C13.078 5.45934 12.4265 4.53584 11.4795 3.89884C11.3125 3.78684 11.139 3.69034 10.9635 3.60234L13.059 2.63834C13.1675 2.58834 13.2515 2.49784 13.293 2.38584C13.3345 2.27334 13.3295 2.14984 13.2795 2.04184C12.622 0.61284 10.605 0.12934 8.78403 0.96534C8.03403 1.30984 7.41103 1.83584 7.00053 2.45234C6.59003 1.83584 5.96703 1.30984 5.21603 0.96334C3.39503 0.12984 1.37853 0.61184 0.721027 2.04084C0.617027 2.26634 0.716027 2.53384 0.942027 2.63734L3.03553 3.60084C2.86053 3.68934 2.68803 3.78584 2.52203 3.89884C1.57553 4.53584 0.925027 5.45884 0.735527 6.43084C0.597527 7.13934 0.718527 7.80084 1.08453 8.34334C1.15153 8.44184 1.25453 8.51034 1.37203 8.53334C1.40053 8.53884 1.42903 8.54184 1.45753 8.54184C1.54653 8.54184 1.63453 8.51484 1.70953 8.46484L5.09253 6.17984C5.15653 6.40684 5.24003 6.63134 5.33753 6.84784C5.38903 7.89684 5.32303 9.58884 4.77153 11.8533C3.20253 12.2448 1.84153 13.0363 0.939527 14.1458C0.745027 14.3848 0.707527 14.7073 0.840527 14.9878C0.976027 15.2728 1.25553 15.4503 1.56953 15.4503H12.4295C12.7435 15.4503 13.023 15.2733 13.1585 14.9878C13.292 14.7073 13.254 14.3848 13.0595 14.1458C12.159 13.0363 10.798 12.2443 9.22903 11.8533ZM10.9775 4.64534C11.716 5.14234 12.2415 5.87434 12.3835 6.60284C12.441 6.89684 12.4335 7.17484 12.363 7.42484L9.03003 5.17884C9.01453 4.73434 8.93903 4.36134 8.81803 4.05234C9.49803 3.97234 10.2825 4.17834 10.9775 4.64534ZM9.16003 1.78184C10.3335 1.24384 11.588 1.37434 12.2075 2.03884L9.71353 3.18634C9.21353 3.10384 8.72253 3.12434 8.27203 3.24384C8.11603 3.10584 7.94453 3.00084 7.76453 2.92634C8.08253 2.45784 8.57003 2.05384 9.16003 1.78184ZM7.00053 3.67734C7.98853 3.67734 8.13603 4.72434 8.13603 5.34834C8.13603 6.18234 7.47953 7.22384 7.00053 7.84784C6.52203 7.22384 5.86503 6.18234 5.86503 5.34834C5.86503 4.72434 6.01253 3.67734 7.00053 3.67734ZM4.97153 5.17534L1.63953 7.42584C1.56903 7.17534 1.56153 6.89734 1.61853 6.60284C1.76053 5.87434 2.28553 5.14234 3.02603 4.64434C3.70203 4.18484 4.49703 3.97784 5.18153 4.05534C5.06203 4.36284 4.98753 4.73384 4.97153 5.17534ZM4.28403 3.18484L1.79303 2.03884C2.41153 1.37484 3.66703 1.24284 4.84003 1.78134C5.43103 2.05384 5.91853 2.45784 6.23653 2.92634C6.05553 3.00134 5.88403 3.10634 5.72753 3.24534C5.27403 3.12484 4.78203 3.10334 4.28403 3.18484ZM6.22903 8.31834C6.46503 8.63184 6.64653 8.83234 6.66853 8.85684C6.75353 8.95034 6.87403 9.00334 7.00053 9.00334C7.12703 9.00334 7.24753 8.95034 7.33253 8.85684C7.35453 8.83234 7.53603 8.63184 7.77253 8.31784C7.82303 9.22834 7.97003 10.3583 8.26503 11.6678C7.85153 11.6118 7.43153 11.5728 7.00053 11.5728C6.56953 11.5728 6.15003 11.6118 5.73603 11.6678C6.03203 10.3563 6.17853 9.22584 6.22903 8.31834ZM1.77803 14.5498C2.92653 13.2643 4.90403 12.4738 7.00053 12.4738C9.09703 12.4738 11.0745 13.2643 12.223 14.5498H1.77803Z" fill="#333447"/>
</svg>
