<svg width="64" height="64" viewBox="0 0 64 64" fill="none" xmlns="http://www.w3.org/2000/svg">
<g opacity="0.6" filter="url(#filter0_d_1750_34883)">
<rect x="16" y="8" width="32" height="32" rx="16" fill="#4257EE" shape-rendering="crispEdges"/>
<rect x="16.5" y="8.5" width="31" height="31" rx="15.5" stroke="#D5D6E2" shape-rendering="crispEdges"/>
<g clip-path="url(#clip0_1750_34883)">
<path d="M38 22.667C38 27.3337 32 31.3337 32 31.3337C32 31.3337 26 27.3337 26 22.667C26 21.0757 26.6321 19.5496 27.7574 18.4244C28.8826 17.2991 30.4087 16.667 32 16.667C33.5913 16.667 35.1174 17.2991 36.2426 18.4244C37.3679 19.5496 38 21.0757 38 22.667Z" stroke="#FCFCFD" stroke-width="2" stroke-linecap="round" stroke-linejoin="round"/>
<path d="M32 24.667C33.1046 24.667 34 23.7716 34 22.667C34 21.5624 33.1046 20.667 32 20.667C30.8954 20.667 30 21.5624 30 22.667C30 23.7716 30.8954 24.667 32 24.667Z" stroke="#FCFCFD" stroke-width="2" stroke-linecap="round" stroke-linejoin="round"/>
</g>
</g>
<defs>
<filter id="filter0_d_1750_34883" x="0" y="0" width="64" height="64" filterUnits="userSpaceOnUse" color-interpolation-filters="sRGB">
<feFlood flood-opacity="0" result="BackgroundImageFix"/>
<feColorMatrix in="SourceAlpha" type="matrix" values="0 0 0 0 0 0 0 0 0 0 0 0 0 0 0 0 0 0 127 0" result="hardAlpha"/>
<feOffset dy="8"/>
<feGaussianBlur stdDeviation="8"/>
<feComposite in2="hardAlpha" operator="out"/>
<feColorMatrix type="matrix" values="0 0 0 0 0 0 0 0 0 0 0 0 0 0 0 0 0 0 0.08 0"/>
<feBlend mode="normal" in2="BackgroundImageFix" result="effect1_dropShadow_1750_34883"/>
<feBlend mode="normal" in="SourceGraphic" in2="effect1_dropShadow_1750_34883" result="shape"/>
</filter>
<clipPath id="clip0_1750_34883">
<rect width="16" height="16" fill="white" transform="translate(24 16)"/>
</clipPath>
</defs>
</svg>
