<svg width="13" height="11" viewBox="0 0 13 11" fill="none" xmlns="http://www.w3.org/2000/svg">
<path d="M12.105 8.73391L10.105 10.7339C10.0585 10.7808 10.0032 10.818 9.94229 10.8434C9.88136 10.8687 9.81601 10.8818 9.75 10.8818C9.68399 10.8818 9.61864 10.8687 9.55771 10.8434C9.49678 10.818 9.44148 10.7808 9.395 10.7339L7.395 8.73391C7.30085 8.63975 7.24795 8.51206 7.24795 8.37891C7.24795 8.24576 7.30085 8.11806 7.395 8.02391C7.48915 7.92975 7.61685 7.87686 7.75 7.87686C7.88315 7.87686 8.01085 7.92975 8.105 8.02391L9.25 9.17391V3.37891C9.25 3.2463 9.30268 3.11912 9.39645 3.02535C9.49021 2.93158 9.61739 2.87891 9.75 2.87891C9.88261 2.87891 10.0098 2.93158 10.1036 3.02535C10.1973 3.11912 10.25 3.2463 10.25 3.37891V9.17391L11.395 8.02391C11.4892 7.92975 11.6168 7.87686 11.75 7.87686C11.8832 7.87686 12.0108 7.92975 12.105 8.02391C12.1992 8.11806 12.252 8.24576 12.252 8.37891C12.252 8.51206 12.1992 8.63975 12.105 8.73391ZM0.75 1.87891H9.75C9.88261 1.87891 10.0098 1.82623 10.1036 1.73246C10.1973 1.63869 10.25 1.51151 10.25 1.37891C10.25 1.2463 10.1973 1.11912 10.1036 1.02535C10.0098 0.931585 9.88261 0.878906 9.75 0.878906H0.75C0.617392 0.878906 0.490215 0.931585 0.396447 1.02535C0.302679 1.11912 0.25 1.2463 0.25 1.37891C0.25 1.51151 0.302679 1.63869 0.396447 1.73246C0.490215 1.82623 0.617392 1.87891 0.75 1.87891ZM0.75 4.87891H7.75C7.88261 4.87891 8.00979 4.82623 8.10355 4.73246C8.19732 4.63869 8.25 4.51151 8.25 4.37891C8.25 4.2463 8.19732 4.11912 8.10355 4.02535C8.00979 3.93158 7.88261 3.87891 7.75 3.87891H0.75C0.617392 3.87891 0.490215 3.93158 0.396447 4.02535C0.302679 4.11912 0.25 4.2463 0.25 4.37891C0.25 4.51151 0.302679 4.63869 0.396447 4.73246C0.490215 4.82623 0.617392 4.87891 0.75 4.87891ZM5.75 6.87891H0.75C0.617392 6.87891 0.490215 6.93158 0.396447 7.02535C0.302679 7.11912 0.25 7.2463 0.25 7.37891C0.25 7.51151 0.302679 7.63869 0.396447 7.73246C0.490215 7.82623 0.617392 7.87891 0.75 7.87891H5.75C5.88261 7.87891 6.00979 7.82623 6.10355 7.73246C6.19732 7.63869 6.25 7.51151 6.25 7.37891C6.25 7.2463 6.19732 7.11912 6.10355 7.02535C6.00979 6.93158 5.88261 6.87891 5.75 6.87891Z" fill="#333447"/>
</svg>
