<svg width="15" height="16" viewBox="0 0 15 16" fill="none" xmlns="http://www.w3.org/2000/svg">
<path d="M14.6733 0.357599C14.5656 0.328756 12.0106 -0.344526 10.1474 0.233675C9.03796 0.577945 8.14485 1.26481 7.28087 1.92904C6.19136 2.76716 5.24996 3.49075 4.15738 3.31652C3.65076 3.23586 3.23898 3.11629 2.87569 3.01081C2.12475 2.79282 1.41483 2.58655 0.657956 3.1007C-0.356252 3.78941 0.0173932 4.80864 0.361913 5.25956L5.57206 12.6764H4.97538L4.49635 13.0956V14.6468L4.97538 15.066H11.8735L12.3525 14.6468V13.0956L11.8735 12.6764H11.0735L13.2948 3.7884C13.4525 3.82747 13.5878 3.86269 13.6876 3.88969L14.296 3.5813L15 0.85078L14.6733 0.357599ZM11.3942 14.2277H5.45422V13.515H11.3942V14.2277ZM10.1876 12.2961L9.36217 11.3991L11.3605 3.40372C11.6529 3.43692 12.0116 3.50165 12.367 3.57593L10.1876 12.2961ZM4.18919 5.77705C4.2781 5.78343 4.36969 5.78762 4.46435 5.78946C4.8081 5.79584 5.24479 5.80288 5.73417 5.74251L5.3975 7.08991L4.18919 5.77705ZM6.77329 5.50841C7.1636 5.37677 7.56791 5.18577 7.97298 4.90892L6.99422 8.82535L6.16856 7.92803L6.77329 5.50841ZM9.16768 4.05235C9.52907 3.82378 9.94084 3.60696 10.3597 3.48404L8.59093 10.5608L7.76527 9.66347L9.16768 4.05235ZM13.4738 2.96101C12.8106 2.79751 11.6667 2.54128 11.015 2.54128C11.0108 2.54128 11.0064 2.54128 11.0024 2.54128C9.60973 2.54849 8.29125 3.56084 7.65796 4.04732L7.56139 4.12127C6.42398 4.98773 5.25667 4.96593 4.48523 4.95101C3.6977 4.93608 3.14873 4.70366 3.14318 4.70131L2.55665 5.33955L9.30756 12.6761H9.28763C8.3836 12.6014 7.23297 12.4264 6.24041 12.0271L1.16286 4.79975C1.08123 4.69142 0.701643 4.13233 1.24506 3.76325C1.5823 3.53451 1.83274 3.5917 2.57428 3.80685C2.94811 3.91517 3.41316 4.05017 3.9857 4.14156C5.53527 4.38874 6.74416 3.45838 7.91338 2.55905C8.70896 1.94715 9.53175 1.31445 10.4674 1.02417C11.6268 0.664642 13.2117 0.909136 13.9634 1.06224L13.4738 2.96101Z" fill="#000000"/>
</svg>
