<svg width="15" height="16" viewBox="0 0 15 16" fill="none" xmlns="http://www.w3.org/2000/svg">
<path d="M13.5991 3.82363H10.2953L10.7941 1.45958C10.8621 1.14613 11.2159 0.910026 11.6186 0.910026H14.4274C14.7436 0.910026 15 0.706281 15 0.455013C15 0.203745 14.7436 0 14.4274 0H11.6186C10.6496 0 9.82895 0.549049 9.66608 1.3074L9.13485 3.82363H1.28475C0.762427 3.82363 0.310724 4.06074 0.105866 4.44244C-0.0989907 4.82415 -0.00228783 5.24731 0.359075 5.54711L6.86933 10.9476V14.156H5.51677C5.20057 14.156 4.94419 14.3597 4.94419 14.611C4.94419 14.8622 5.20057 15.066 5.51677 15.066H9.48413C9.80032 15.066 10.0567 14.8622 10.0567 14.611C10.0567 14.3597 9.80032 14.156 9.48413 14.156H8.0145V10.9476L14.5254 5.54711C14.8861 5.24731 14.9835 4.82415 14.778 4.44244C14.5725 4.06074 14.1214 3.82363 13.5991 3.82363ZM1.18614 4.91717C1.14478 4.8828 1.13524 4.84336 1.15942 4.79938C1.18296 4.75539 1.22558 4.73315 1.28539 4.73315H8.94272L8.60362 6.33985H2.9007L1.18614 4.91717ZM7.44192 10.1069L3.99752 7.24988H10.8857L7.44192 10.1069ZM13.6977 4.91717L11.9831 6.33985H9.76469L10.1038 4.73315H13.5991C13.6595 4.73315 13.7015 4.75539 13.725 4.79938C13.7486 4.84336 13.7397 4.8828 13.6977 4.91717Z" fill="#000000"/>
</svg>
