<svg width="15" height="16" viewBox="0 0 15 16" fill="none" xmlns="http://www.w3.org/2000/svg">
<path d="M3.5405 6.53574C3.99378 6.43584 4.37909 6.0125 4.59893 5.37354C4.68026 5.13564 4.59237 4.85996 4.40182 4.75771C4.21151 4.65518 3.99096 4.76504 3.90893 5.00352C3.84003 5.20537 3.68347 5.55225 3.41019 5.6123C3.1362 5.67559 2.89386 5.41279 2.77363 5.25342C2.6309 5.06475 2.39348 5.05654 2.24348 5.2332C2.09254 5.41074 2.08527 5.70752 2.2273 5.8959C2.34848 6.05703 2.84394 6.69102 3.5405 6.53574ZM12.0431 6.59785C11.5882 6.4959 11.118 6.72236 10.7299 7.23682C10.5879 7.42549 10.5951 7.72197 10.7461 7.89951C10.8963 8.07617 11.1335 8.06797 11.2762 7.8793C11.3962 7.71904 11.6367 7.45918 11.9128 7.52041C12.1861 7.58076 12.3426 7.92793 12.4115 8.1292C12.4945 8.36914 12.7167 8.47637 12.9044 8.375C13.0947 8.27305 13.1828 7.99736 13.1015 7.75918C12.8819 7.12109 12.4966 6.69775 12.0431 6.59785ZM12.1764 9.83838C11.5598 10.3054 10.6985 10.4604 9.81209 10.2655C8.92593 10.0701 8.15906 9.55566 7.70719 8.85342C7.49273 8.52119 7.06852 8.6917 7.04133 9.1083C6.91829 10.9563 7.94812 12.597 9.43639 12.9248C9.93092 13.0338 12.1326 13.1152 12.7321 10.3628C12.8205 9.95762 12.4687 9.62012 12.1764 9.83838ZM9.56694 12.0017C8.78905 11.83 8.17968 11.179 7.91976 10.3332C8.41992 10.746 9.02647 11.0442 9.68201 11.1884C10.339 11.3343 10.9886 11.3129 11.5725 11.138C11.0955 11.8215 10.3448 12.1722 9.56694 12.0017ZM7.95257 7.14717C8.07257 6.98779 8.31585 6.7209 8.58913 6.78828C8.86241 6.84834 9.01897 7.19521 9.08788 7.39707C9.17085 7.63701 9.39303 7.74424 9.58077 7.64287C9.77108 7.54092 9.8592 7.26523 9.77787 7.02705C9.55522 6.37842 9.17952 5.96563 8.71944 5.86426C8.26031 5.76582 7.79367 5.99053 7.40625 6.5041C7.26422 6.69277 7.27149 6.98926 7.42242 7.1668C7.57336 7.34404 7.80984 7.33584 7.95257 7.14717ZM14.2218 4.01299C13.2438 3.33272 11.4093 2.29766 8.89921 2.34512C8.76163 1.371 8.22914 0.78916 7.62117 0.667578C7.06102 0.555371 6.49782 0.5 5.9372 0.5C4.14049 0.5 2.36769 1.07041 0.778175 2.17607C0.211695 2.56982 -0.0918181 3.39219 0.0246654 4.21777L0.768332 9.49004C1.10184 11.8549 3.96354 13.6631 5.56009 13.6631C5.8847 13.6631 6.11931 13.608 6.58219 13.3215C6.64266 13.4088 8.05382 15.5 9.43991 15.5C11.0365 15.5 13.8982 13.6921 14.2317 11.327L14.9753 6.05469C15.0918 5.22939 14.7883 4.40703 14.2218 4.01299ZM5.56009 12.7253C4.21362 12.7253 1.76231 11.1371 1.50684 9.32715L0.76341 4.05488C0.702238 3.62158 0.854815 3.19561 1.14286 2.99521C1.73911 2.58066 4.17776 0.928027 7.50281 1.59336C7.81875 1.65664 8.06929 1.97598 8.13984 2.39082C7.88601 2.41836 7.63219 2.45381 7.37883 2.50449C6.73876 2.63252 6.22853 3.27559 6.11228 4.10088L5.55751 8.03223C3.98159 8.12188 3.20792 9.38076 3.17511 9.43203C3.0455 9.63389 3.07105 9.9292 3.2323 10.0912C3.41745 10.2764 3.64925 10.1911 3.75964 10.0197C3.78354 9.98252 4.28323 9.154 5.42252 8.99082L5.36861 9.37373C5.22213 10.4114 5.56619 11.554 6.12095 12.57C5.87439 12.7013 5.7429 12.7253 5.56009 12.7253ZM14.2368 5.8918L13.4929 11.1644C13.2377 12.9743 10.7861 14.5625 9.43991 14.5625C8.52468 14.5625 7.40414 13.088 7.10649 12.6491C6.36095 11.5493 5.98712 10.3856 6.10712 9.53633L6.85079 4.26406C6.91196 3.83076 7.17188 3.49561 7.49742 3.43057C10.8288 2.76436 13.2693 4.42344 13.8574 4.83242C14.1454 5.03252 14.2978 5.4585 14.2368 5.8918Z" fill="#000000"/>
</svg>
