<svg width="16" height="16" viewBox="0 0 16 16" fill="none" xmlns="http://www.w3.org/2000/svg">
<path d="M13.3243 1.50651C13.4358 1.39887 13.585 1.33931 13.74 1.34066C13.8949 1.342 14.0431 1.40415 14.1527 1.51371C14.2622 1.62327 14.3244 1.77148 14.3257 1.92641C14.3271 2.08134 14.2675 2.23061 14.1599 2.34206L2.34169 14.1602C2.23024 14.2679 2.08098 14.3274 1.92604 14.3261C1.77111 14.3247 1.6229 14.2626 1.51334 14.153C1.40378 14.0435 1.34164 13.8953 1.34029 13.7403C1.33895 13.5854 1.39851 13.4361 1.50614 13.3247L13.3243 1.50651ZM3.9921 6.65156C3.28686 6.65156 2.61051 6.3714 2.11184 5.87273C1.61316 5.37405 1.33301 4.6977 1.33301 3.99246C1.33301 3.28723 1.61316 2.61088 2.11184 2.1122C2.61051 1.61353 3.28686 1.33337 3.9921 1.33337C4.69733 1.33337 5.37368 1.61353 5.87236 2.1122C6.37104 2.61088 6.65119 3.28723 6.65119 3.99246C6.65119 4.6977 6.37104 5.37405 5.87236 5.87273C5.37368 6.3714 4.69733 6.65156 3.9921 6.65156ZM3.9921 5.46974C4.3839 5.46974 4.75965 5.3141 5.03669 5.03705C5.31373 4.76001 5.46937 4.38426 5.46937 3.99246C5.46937 3.60067 5.31373 3.22492 5.03669 2.94788C4.75965 2.67083 4.3839 2.51519 3.9921 2.51519C3.6003 2.51519 3.22455 2.67083 2.94751 2.94788C2.67047 3.22492 2.51483 3.60067 2.51483 3.99246C2.51483 4.38426 2.67047 4.76001 2.94751 5.03705C3.22455 5.3141 3.6003 5.46974 3.9921 5.46974ZM11.6739 14.3334C10.9687 14.3334 10.2923 14.0532 9.79366 13.5545C9.29498 13.0559 9.01483 12.3795 9.01483 11.6743C9.01483 10.969 9.29498 10.2927 9.79366 9.79402C10.2923 9.29535 10.9687 9.01519 11.6739 9.01519C12.3792 9.01519 13.0555 9.29535 13.5542 9.79402C14.0529 10.2927 14.333 10.969 14.333 11.6743C14.333 12.3795 14.0529 13.0559 13.5542 13.5545C13.0555 14.0532 12.3792 14.3334 11.6739 14.3334ZM11.6739 13.1516C12.0657 13.1516 12.4415 12.9959 12.7185 12.7189C12.9955 12.4418 13.1512 12.0661 13.1512 11.6743C13.1512 11.2825 12.9955 10.9067 12.7185 10.6297C12.4415 10.3527 12.0657 10.197 11.6739 10.197C11.2821 10.197 10.9064 10.3527 10.6293 10.6297C10.3523 10.9067 10.1966 11.2825 10.1966 11.6743C10.1966 12.0661 10.3523 12.4418 10.6293 12.7189C10.9064 12.9959 11.2821 13.1516 11.6739 13.1516Z" fill="#F66A13"/>
</svg>
