<svg width="143" height="32" viewBox="0 0 143 32" fill="none" xmlns="http://www.w3.org/2000/svg">
<mask id="mask0_0_29" style="mask-type:luminance" maskUnits="userSpaceOnUse" x="0" y="4" width="24" height="24">
<path d="M24 4H0V28H24V4Z" fill="white"/>
</mask>
<g mask="url(#mask0_0_29)">
<path d="M23.2844 15.1102C23.1764 14.2514 23.0008 13.3984 22.6997 12.586C22.7016 12.4856 23.2999 12.0456 22.912 11.3624C22.6167 10.8394 22.0107 10.9938 21.9548 10.9379C21.6885 10.4014 21.3488 9.9054 20.9976 9.42294C21.4607 8.62397 20.7042 7.69184 19.8686 8.13377C19.4916 7.7401 19.1153 7.34577 18.7396 6.95077C19.0484 6.01094 18.0101 5.30074 17.2903 5.98007C16.7461 5.7311 16.1806 5.52847 15.6287 5.30267C15.6152 4.3802 14.4225 4.08687 13.9671 4.89164C13.6043 4.8556 13.2408 4.8202 12.8767 4.78547C12.788 4.25477 12.3499 3.92284 11.8134 4.01547C11.4718 4.0753 11.2016 4.46514 11.1225 4.78547C10.7687 4.82924 10.4142 4.8736 10.0591 4.91864C9.59983 4.0637 8.42263 4.37827 8.38403 5.31814C7.86167 5.5304 7.3387 5.74334 6.81507 5.9569C6.78803 5.9659 6.76167 5.9749 6.73593 5.98394C6.3905 5.58637 5.6938 5.6462 5.39273 6.07657C5.08783 6.51077 5.32327 6.90447 5.2866 6.97974C4.91863 7.3567 4.5507 7.733 4.18273 8.1087C3.65587 7.80377 2.90902 8.24377 2.86656 8.8401C2.84148 9.18747 3.06534 9.36117 2.99973 9.4789C2.68966 9.9575 2.3796 10.4361 2.06953 10.9147L2.00392 10.9803C1.35549 10.8433 0.863373 11.4647 1.00811 12.0842C1.0718 12.3582 1.3304 12.5068 1.32654 12.6149C1.03127 13.4312 0.867233 14.2823 0.741793 15.1392C-0.242434 15.363 -0.252083 16.629 0.741793 16.8394C0.869163 17.7039 1.03513 18.5647 1.32654 19.3906C0.66267 20.1278 1.01004 21.1275 2.04445 21.0387C2.33585 21.5656 2.65428 22.0789 3.02867 22.5537C2.54235 23.3835 3.29113 24.2693 4.18467 23.8968L5.31363 25.0798C4.9624 26.0216 6.0238 26.6508 6.78803 26.0235C7.31037 26.2358 7.83337 26.4488 8.357 26.6623C8.43807 27.6195 9.5516 27.9438 10.0572 27.0869C10.2 27.1004 11.1553 27.1622 11.1862 27.2336C11.2016 27.9881 12.2283 28.2738 12.6741 27.6852C12.8632 27.4362 12.815 27.2432 12.9269 27.193C13.264 27.157 13.6004 27.1216 13.9362 27.0869C14.438 27.9283 15.5612 27.6388 15.6364 26.6874C16.1961 26.4713 16.7538 26.2436 17.3115 26.0235C18.0044 26.7086 19.0639 25.9367 18.7068 25.0528C19.0838 24.6669 19.4601 24.2815 19.8358 23.8968C20.7081 24.2674 21.4356 23.3854 20.9918 22.5807C21.3108 22.0841 21.6299 21.5881 21.949 21.0928L22.0146 21.0271C22.9757 21.1757 23.3346 20.0487 22.692 19.4196C22.9834 18.584 23.1783 17.7213 23.2767 16.8413C24.2571 16.6194 24.2552 15.39 23.2767 15.1141L23.2844 15.1102ZM22.0339 12.7442C21.8615 13.457 21.6885 14.1704 21.5148 14.8844L20.8644 14.8188C20.5273 14.1549 20.1909 13.4904 19.8551 12.8253C19.8551 12.7403 20.2546 12.557 20.2932 11.9607H21.3025C21.37 12.6689 22.0146 12.6902 22.0339 12.7442ZM16.2926 15.0021C15.7715 15.3457 15.7696 15.8455 15.7213 15.8667H13.1701C13.1276 15.5271 12.9308 15.2202 12.6509 15.0292C13.0987 14.1388 13.5464 13.2485 13.9941 12.3582C14.3415 12.5917 14.9185 12.3428 14.9648 12.3717C15.4074 13.2492 15.8506 14.1266 16.2945 15.0041L16.2926 15.0021ZM15.1771 12.2386C15.1771 12.1652 15.4859 12.0031 15.5882 11.5882C16.3987 11.7079 17.2093 11.8275 18.0198 11.9472C18.0198 12.5184 18.4502 12.7249 18.4444 12.8253C18.0674 13.5213 17.6911 14.2167 17.3154 14.9114C16.9005 14.7339 16.555 14.8999 16.5184 14.8844C16.0764 14.0005 15.6268 13.1205 15.1752 12.2405L15.1771 12.2386ZM14.9243 10.2856C14.6252 10.1408 14.2739 10.1408 13.9671 10.2586C13.5773 9.57924 13.199 8.89027 12.7841 8.22447C12.7783 8.15307 13.0967 7.86167 13.1952 7.5201C14.0057 7.62174 14.8162 7.72337 15.6268 7.825C15.6364 8.44834 16.0282 8.66257 16.0263 8.72817C15.6583 9.24667 15.2903 9.76517 14.9224 10.2836L14.9243 10.2856ZM12.4001 14.9095C12.0025 14.7262 11.659 14.9385 11.5895 14.896C11.1559 14.0186 10.7217 13.1411 10.2869 12.2637C10.2869 12.1749 10.6574 11.9877 10.752 11.4261H13.2762C13.3206 11.4454 13.2859 11.9356 13.7683 12.2367C13.3116 13.127 12.8555 14.0173 12.4001 14.9076V14.9095ZM10.0341 12.3582C10.0469 12.3711 10.0604 12.3846 10.0746 12.3988C10.5004 13.2582 10.9256 14.1176 11.3502 14.977C11.3541 15.0851 10.9199 15.3572 10.8311 15.8667H8.2798C8.2335 15.8436 8.26823 15.3688 7.7356 15.0021C8.19233 14.1208 8.6484 13.2395 9.10387 12.3582C9.403 12.4682 9.73687 12.5068 10.0341 12.3582ZM7.99997 8.7031C8.00383 8.65484 8.3879 8.3943 8.37243 7.85204C8.76613 7.7806 10.4934 7.51237 10.6979 7.5201C11.0125 7.53167 10.7867 7.84044 11.2692 8.19747C11.2602 8.21547 11.2511 8.2335 11.2421 8.2515C10.8485 8.9115 10.4541 9.57154 10.0591 10.2315C9.9974 10.2489 9.55353 10.0308 9.12897 10.2856C8.752 9.75807 8.37567 9.23124 7.99997 8.705V8.7031ZM7.52137 14.8709C7.4635 14.9095 7.1354 14.7377 6.71083 14.9114C6.33387 14.1987 5.95757 13.4853 5.58187 12.7712C5.88873 12.5146 5.94853 12.3061 6.04697 11.9337C6.4947 11.9221 8.21033 11.5805 8.33193 11.5882C8.57507 11.6017 8.42263 11.8681 8.87613 12.2386C8.42457 13.116 7.97297 13.9935 7.52137 14.8709ZM6.48503 15.0292C6.0759 15.3418 6.01223 15.8455 5.9659 15.8667H4.0515C3.9415 15.17 3.3992 15.0137 3.40113 14.896C3.7292 14.2579 4.0573 13.6197 4.38537 12.9816C4.4664 12.9198 5.1052 13.1244 5.30203 12.916C5.3696 12.9005 5.40627 12.9777 5.4487 13.0356C5.56643 13.1977 6.21873 14.622 6.48503 15.0292ZM4.05343 16.106H5.99293C6.04503 16.438 6.19557 16.7564 6.48503 16.9436C6.10807 17.6563 5.73177 18.3697 5.35607 19.0838C5.06273 18.9487 4.71537 18.9294 4.4259 19.0838C4.41303 19.0709 4.3995 19.0574 4.38537 19.0433C4.0573 18.3871 3.7292 17.7316 3.40113 17.0767C3.405 17.0015 3.9473 16.7853 4.0515 16.106H4.05343ZM6.71083 17.0902C6.75523 17.0767 7.17013 17.2311 7.48087 17.0902C7.9826 17.9452 8.3821 18.8599 8.84913 19.7341C8.85297 19.821 8.55577 19.9734 8.43807 20.3845C7.6404 20.2777 6.8427 20.1716 6.04503 20.0661C5.9659 20.0178 6.02767 19.5778 5.57993 19.2285C5.9569 18.5158 6.33323 17.8024 6.7089 17.0883L6.71083 17.0902ZM7.76067 17.0227C7.7549 16.8837 8.2007 16.7043 8.2798 16.106H10.8581C10.8581 16.465 11.0935 16.7409 11.3502 16.9706C10.9115 17.8609 10.4728 18.7512 10.0341 19.6415C9.83527 19.3945 9.13667 19.6917 9.03823 19.5759C8.9456 19.4659 8.00963 17.3604 7.7626 17.0246L7.76067 17.0227ZM9.10387 21.7142C9.3972 21.8512 9.73493 21.8608 10.0341 21.7412C10.4721 22.3935 10.8176 23.1095 11.2441 23.7753C11.2441 23.8312 10.9083 24.1014 10.8581 24.4526C10.1653 24.3562 9.44543 24.3349 8.7584 24.2133C8.0135 24.0802 8.71017 24.0705 7.99997 23.2696C8.36793 22.7512 8.7359 22.2327 9.10387 21.7142ZM11.6011 17.0902C11.823 17.1559 12.1665 17.1867 12.3711 17.0902C12.402 17.1031 12.4329 17.1166 12.4637 17.1308C12.8973 18.0082 13.3315 18.8857 13.7664 19.7631C13.3245 20.0834 13.3167 20.5022 13.2743 20.5215H10.723C10.6786 20.2147 10.5204 19.9349 10.2579 19.7631C10.7056 18.8728 11.1534 17.9825 11.6011 17.0922V17.0902ZM13.9806 19.628L12.6509 16.9706C12.9269 16.7178 13.1218 16.492 13.1701 16.106H15.7484C15.8005 16.7351 16.2887 16.9436 16.2926 16.9957C15.8358 17.877 15.3798 18.7583 14.9243 19.6396C14.4264 19.408 14.0289 19.655 13.9806 19.6261V19.628ZM16.0282 23.2696C16.0301 23.3295 15.6403 23.5861 15.6287 24.1207C15.5612 24.2249 13.4557 24.4044 13.1701 24.4526C13.0832 24.0146 12.7802 23.8505 12.7841 23.7482C13.2009 23.0882 13.5541 22.3838 13.9941 21.7412C14.2469 21.8628 14.6522 21.8551 14.8973 21.7142C15.2743 22.2327 15.6506 22.7512 16.0263 23.2696H16.0282ZM16.5454 17.0902C16.7905 17.1752 17.0626 17.1597 17.3154 17.0902C17.7072 17.785 18.068 18.5183 18.4444 19.2305C18.4347 19.2768 17.9986 19.5315 18.0198 20.0275C17.9979 20.0403 17.9761 20.0539 17.9542 20.068C17.1655 20.1838 16.3768 20.299 15.5882 20.4135C15.4782 19.9291 15.1733 19.8384 15.1771 19.7361L16.5454 17.0922V17.0902ZM17.5431 16.9706C17.5431 16.903 17.9638 16.6367 18.0082 16.106H19.9747C20.0867 16.8645 20.6077 16.9918 20.6251 17.0497C20.2932 17.7187 19.9612 18.3877 19.6293 19.0568C19.06 18.8426 18.7184 19.0992 18.6721 19.0838C18.2842 18.3871 17.9368 17.6653 17.5431 16.9706ZM19.9477 15.8667H18.0333C17.987 15.8474 17.9812 15.3669 17.5412 15.0292C17.9272 14.3254 18.3125 13.621 18.6972 12.916C18.9828 13.0511 19.3186 13.0684 19.6004 12.916C19.6132 12.9288 19.6267 12.9423 19.6409 12.9565C19.969 13.6036 20.297 14.2501 20.6251 14.896C20.6212 14.979 20.0905 15.199 19.9477 15.8667ZM20.7988 9.61977C20.8432 9.6217 21.2369 10.2122 21.2909 10.2971C22.0435 11.4763 21.5186 10.741 21.2774 11.7195H20.2932C20.2333 11.6944 20.2526 11.0363 19.5347 10.7487C19.6454 10.3988 19.756 10.0488 19.8667 9.6989C20.1677 9.861 20.5248 9.83977 20.7969 9.61977H20.7988ZM17.8615 7.4815C17.8886 7.44867 18.2649 7.54517 18.5659 7.17657C18.7145 7.2827 19.6274 8.20327 19.6158 8.28044C19.5322 8.4091 19.4479 8.53777 19.363 8.66644C18.8625 8.52877 18.362 8.39174 17.8615 8.25537C17.8365 8.2129 17.9966 7.8578 17.8615 7.48534V7.4815ZM17.7149 8.4773C18.2681 8.62397 18.822 8.77 19.3765 8.91537C19.3225 9.2994 19.6389 9.4673 19.6428 9.57924C19.5142 9.9562 19.3855 10.3325 19.2568 10.7082C19.0703 10.7262 18.8844 10.7442 18.6991 10.7622C18.261 10.1215 17.8538 9.44994 17.41 8.80924C17.5116 8.69857 17.6132 8.58794 17.7149 8.4773ZM18.4733 10.8838C18.4752 10.9649 18.0951 11.1405 18.0082 11.6944C17.1977 11.5747 16.3871 11.4551 15.5766 11.3354C15.5824 10.961 15.4396 10.6387 15.125 10.4322C15.493 9.91374 15.8609 9.39527 16.2289 8.87677C16.2771 8.8652 16.6515 9.118 17.1591 8.9038C17.5978 9.5638 18.0365 10.2238 18.4752 10.8838H18.4733ZM15.6152 5.58057C15.6866 5.55164 16.9912 6.09007 17.051 6.1383C17.078 6.16147 17.1205 6.1962 17.1166 6.23094C16.8908 7.08394 17.0201 6.45867 16.1999 6.8292C16.1227 6.6941 15.4994 5.9183 15.4955 5.85847C15.4955 5.84304 15.6017 5.58444 15.6152 5.57864V5.58057ZM14.1794 6.00514C14.5094 6.23094 14.9648 6.28304 15.2948 6.03217C15.538 6.32357 15.7368 6.65164 15.9722 6.94884C15.9819 7.04534 15.702 7.20167 15.6403 7.57414C14.8207 7.46347 14.0012 7.35284 13.1816 7.2422C13.1759 7.0685 13.1392 6.88904 13.0485 6.73657C13.4255 6.4934 13.8018 6.2496 14.1775 6.00514H14.1794ZM12.1472 5.80637C12.1801 5.72147 12.7609 5.6848 12.8787 5.02284C13.2157 5.0666 13.5522 5.11097 13.888 5.156C13.9092 5.1811 13.7915 5.5034 14.0076 5.78127C13.6487 6.03347 13.2897 6.28627 12.9308 6.53974C12.5274 6.1113 12.0044 6.1827 12.1472 5.8083V5.80637ZM12.5062 8.34414C12.5757 8.3287 12.595 8.39237 12.6529 8.4638C12.7687 8.60854 13.4595 9.98644 13.7432 10.3512C13.7432 10.4207 13.3225 10.7121 13.2916 11.1752C12.4451 11.1881 11.5992 11.2016 10.7539 11.2158C10.6748 10.6503 10.2869 10.4226 10.2888 10.3512C10.6606 9.71304 11.0324 9.0749 11.4043 8.43677C11.5258 8.2959 12.0508 8.61624 12.5081 8.34414H12.5062ZM10.1402 5.156C10.337 5.14444 10.9141 5.02094 11.0183 5.02284C11.3406 5.0325 11.0627 5.25057 11.4178 5.55357C11.686 5.7832 12.0276 5.61917 11.8423 6.1113C11.5606 6.14024 11.3116 6.3004 11.1244 6.51077C10.7475 6.2676 10.3711 6.0238 9.99547 5.77937C10.1749 5.61724 10.1749 5.3741 10.1421 5.15407L10.1402 5.156ZM8.7584 6.03217C9.0537 6.2599 9.50527 6.24444 9.79477 6.00514C10.1884 6.2483 10.5828 6.4921 10.9778 6.73657C10.934 6.9051 10.8896 7.07364 10.8446 7.2422C10.016 7.35284 9.1875 7.46347 8.35893 7.57414C8.33383 7.3329 8.1949 7.13797 8.027 6.97587C8.1235 6.86394 8.6986 6.03604 8.7584 6.03217ZM6.95013 6.16534C7.14507 6.1248 8.30877 5.569 8.38597 5.58057C8.42457 5.58637 8.5384 5.84497 8.53263 5.8855C8.5249 5.94534 7.88807 6.70377 7.8012 6.8292C7.5561 6.61114 7.0698 6.7385 7.04277 6.70954C6.99903 6.541 6.95463 6.37247 6.9096 6.20394L6.95013 6.1634V6.16534ZM6.87103 8.92887C7.17013 9.00607 7.51173 9.03504 7.7742 8.84977L8.87807 10.3782C8.88963 10.494 8.43033 10.7179 8.4535 11.3084C7.64297 11.4461 6.83243 11.5831 6.02187 11.7195C5.93117 11.3354 5.8617 11.1714 5.5568 10.9089C5.97557 10.2431 6.404 9.56767 6.87293 8.92887H6.87103ZM5.4352 7.17464C5.75943 7.5336 6.16083 7.43904 6.16663 7.47957C6.09137 7.71887 6.09137 7.9794 6.16663 8.22447C5.65713 8.38017 5.14767 8.5352 4.63817 8.68957C4.56227 8.5339 4.487 8.37887 4.41237 8.22447C4.75333 7.87454 5.09427 7.5246 5.4352 7.17464ZM4.65167 8.9424C5.17017 8.7867 5.68867 8.63167 6.20713 8.4773C6.3712 8.46764 6.47927 8.7243 6.6182 8.83624C6.20137 9.4744 5.78517 10.1125 5.3696 10.7507L4.77133 10.7101C4.72503 10.5557 4.37957 9.61397 4.38537 9.55417C4.38923 9.5194 4.66327 9.30907 4.65167 8.9424ZM3.22938 9.61977C3.51693 9.83784 3.83727 9.85327 4.15957 9.6989L4.4915 10.7217C4.47993 10.8259 3.8701 10.9166 3.73307 11.7175H2.74884C2.71025 11.7002 2.7006 11.2331 2.28375 11.0401C2.59767 10.5667 2.91224 10.0926 3.22745 9.61784L3.22938 9.61977ZM2.72376 11.9588H3.73307C3.7736 11.9877 3.6964 12.4644 4.19817 12.7963L3.16183 14.8169C2.9444 14.8387 2.72762 14.8606 2.51147 14.8825C2.33907 14.1697 2.16603 13.4563 1.99234 12.7423C2.37445 12.6535 2.69095 12.366 2.72376 11.9588ZM1.75497 19.2285C1.72409 19.2826 1.63918 19.3192 1.58128 19.2941C1.46356 19.244 1.01004 17.098 1.02355 16.822C2.03673 16.6058 1.9962 15.3534 1.01004 15.1334C1.03127 14.8632 1.45005 12.7925 1.55426 12.7288C1.61216 12.694 1.72023 12.7307 1.75304 12.7944C1.80321 12.8928 2.11778 14.6316 2.25866 14.9481C2.2548 15.1237 1.84567 15.1951 1.78006 15.7722C1.72602 16.2565 1.83216 16.7004 2.25866 16.9687C2.15638 17.2659 1.81286 19.1282 1.75304 19.2285H1.75497ZM2.01936 19.2826C2.18275 18.5608 2.34679 17.839 2.51147 17.1173C2.7289 17.1301 2.94569 17.1436 3.16183 17.1578C3.4989 17.8307 3.83537 18.5042 4.17113 19.1783C4.17113 19.2594 3.7678 19.4678 3.73307 20.0159H2.72376C2.67551 19.9927 2.6813 19.3829 2.01936 19.2845V19.2826ZM4.15957 22.2719C3.80253 22.1561 3.5401 22.1407 3.22938 22.378C2.88779 21.94 2.60024 21.4575 2.3127 20.9828C2.30498 20.8766 2.66393 20.7647 2.75077 20.2513H3.735C3.79483 20.2784 3.69833 20.8998 4.49343 21.2472L4.1615 22.27L4.15957 22.2719ZM6.16663 24.4662C6.14347 24.5009 5.7575 24.4295 5.4352 24.8251C5.09427 24.4662 4.75333 24.1072 4.41237 23.7482C4.4883 23.6106 4.56357 23.4736 4.63817 23.3372C5.1515 23.4697 5.6655 23.6029 6.18013 23.7367C6.23417 23.7965 6.0296 24.1902 6.16663 24.4681V24.4662ZM6.28627 23.5225L4.65167 23.0574C4.69027 22.7775 4.50887 22.6116 4.38537 22.3935C4.47607 22.2526 4.6922 21.3205 4.77133 21.2896C4.94503 21.3243 5.22483 21.2356 5.24993 21.2356C5.35223 21.2394 5.32907 21.2394 5.3966 21.3012C5.4796 21.3765 6.39627 22.93 6.62013 23.1886L6.2882 23.5205L6.28627 23.5225ZM5.55487 21.1159C5.55293 21.0368 5.95627 20.8284 6.01997 20.3054C6.8305 20.416 7.64103 20.5267 8.45157 20.6373C8.4149 21.0368 8.61367 21.3359 8.90317 21.5945C8.5352 22.104 8.16723 22.6135 7.79927 23.123C7.73947 23.1384 7.36507 22.8817 6.8691 23.096C6.43037 22.4359 5.99163 21.7759 5.55293 21.1159H5.55487ZM8.38597 26.4192C8.3107 26.4481 7.0891 25.8537 6.91153 25.7939C7.1084 24.912 7.02153 25.5256 7.8012 25.1686C7.89963 25.2767 8.52683 26.0525 8.53263 26.1123C8.53263 26.1297 8.4014 26.4114 8.38597 26.4172V26.4192ZM9.87387 25.9946C9.81403 25.9985 9.42423 25.5527 8.7314 25.9406C8.49723 25.6344 8.26243 25.3288 8.027 25.0239C8.02313 24.9814 8.29717 24.7904 8.38597 24.3986C9.20163 24.4964 10.0167 24.5942 10.8311 24.6919L10.9778 25.2362C10.6098 25.4883 10.2418 25.7411 9.87387 25.9946ZM11.8809 26.2204C11.8558 26.2686 11.3058 26.2648 11.1495 26.9518C9.69633 26.7955 10.3795 26.9904 10.0205 26.1934C10.3795 25.9502 10.7384 25.7064 11.0974 25.462C11.4602 25.8479 12.0778 25.8286 11.8809 26.2204ZM11.495 23.6556C11.4731 23.6427 11.4512 23.6292 11.4293 23.6151C11.0485 22.9589 10.6677 22.3034 10.2869 21.6486C10.2791 21.5617 10.6613 21.2896 10.752 20.7589C11.6075 20.7718 12.4625 20.7853 13.3167 20.7994C13.3052 21.1352 13.5271 21.4112 13.7683 21.6235L12.5583 23.6305C12.5062 23.646 11.9736 23.3507 11.495 23.6575V23.6556ZM13.8339 26.8437C13.5059 26.8798 13.1778 26.9151 12.8497 26.9499C12.786 26.3053 12.1415 26.2455 12.1183 26.1914C11.96 25.8132 12.4869 25.8942 12.9018 25.487C13.2788 25.7302 13.6551 25.974 14.0308 26.2185C13.7992 26.4134 13.9189 26.8051 13.832 26.8437H13.8339ZM15.2968 25.9406C14.6097 25.5488 14.2353 26.0042 14.1543 25.9946C13.7953 25.7514 13.4364 25.5076 13.0774 25.2632L13.2241 24.6919C13.9948 24.5942 14.7654 24.4964 15.5361 24.3986C15.6924 24.3484 15.6827 24.7498 16.0012 25.0239C15.767 25.3301 15.5322 25.6356 15.2968 25.9406ZM15.6422 26.4192C15.621 26.4153 15.4936 26.1335 15.4955 26.1143C15.5013 26.0564 16.1266 25.3056 16.1999 25.1706C16.445 25.2921 16.7056 25.3558 16.97 25.2497C17.0098 25.4311 17.0497 25.6125 17.0896 25.7939C16.6071 26.0023 16.124 26.2107 15.6403 26.4192H15.6422ZM17.1572 23.096C16.8812 22.9724 16.5087 22.9724 16.254 23.15C15.877 22.6315 15.5007 22.113 15.125 21.5945C15.1212 21.5328 15.5766 21.2954 15.5766 20.6643C16.0147 20.5756 17.5431 20.3112 17.823 20.3054C17.8673 20.3054 18.0005 20.2938 18.0217 20.3189C18.0603 20.8843 18.4675 21.0445 18.4733 21.0889C18.0372 21.7566 17.6049 22.4321 17.1572 23.096ZM18.593 24.8251C18.4038 24.5916 18.1298 24.5453 17.8615 24.4662C17.9484 24.2539 17.9233 24.0088 17.8345 23.8023C17.9947 23.7116 19.2067 23.3391 19.2839 23.3372C19.3263 23.3372 19.3784 23.3295 19.4035 23.3507C19.4743 23.4832 19.545 23.6164 19.6158 23.7502C19.2748 24.1091 18.9339 24.4681 18.593 24.827V24.8251ZM19.336 23.0709C18.8046 23.2304 18.2733 23.3899 17.7419 23.5495L17.41 23.1905C17.8397 22.5395 18.2694 21.8885 18.6991 21.2375L19.2974 21.3031C19.4132 21.693 19.5283 22.0828 19.6428 22.4726C19.363 22.6675 19.4035 23.011 19.3379 23.0709H19.336ZM20.8258 22.378C20.7776 22.3896 20.4418 22.0172 19.8686 22.2989C19.8281 22.1349 19.527 21.3012 19.5637 21.2221C20.2835 20.921 20.2372 20.2803 20.2951 20.2513H21.2793C21.3565 20.5929 21.4318 20.7685 21.7444 20.9557C21.4382 21.4292 21.1327 21.9033 20.8277 22.378H20.8258ZM21.2774 20.014H20.2932C20.2488 19.4505 19.857 19.2594 19.8551 19.1764C20.1922 18.5035 20.5286 17.83 20.8644 17.1559C21.0728 17.134 21.2813 17.1121 21.4897 17.0902C21.5116 17.1031 21.5334 17.1166 21.5553 17.1308C21.7148 17.8397 21.8744 18.5486 22.0339 19.2575C22.0146 19.3115 21.4241 19.3115 21.2755 20.0159L21.2774 20.014ZM22.4469 19.2961C22.3851 19.3231 22.3021 19.2613 22.2732 19.2034C22.225 19.1031 21.9162 17.3624 21.7676 17.0246C21.7753 16.8934 22.2481 16.7332 22.2327 16.1079C22.36 16.5248 22.58 16.7487 23.0162 16.8394C23.0143 17.1115 22.5607 19.2459 22.445 19.298L22.4469 19.2961ZM22.2346 15.8937C22.2346 15.2549 21.7734 15.0735 21.7695 14.95C21.9123 14.7069 22.2365 12.7539 22.3407 12.7037C22.3793 12.6844 22.4527 12.7037 22.4874 12.7442C22.5685 12.8368 23.0278 14.842 23.0181 15.1372C22.5936 15.2318 22.335 15.4807 22.2346 15.8957V15.8937Z" fill="#4257EE"/>
</g>
<path d="M33.5463 7.56267H39.1783C39.8327 7.56267 40.487 7.61243 41.141 7.712C41.8097 7.79733 42.407 7.98223 42.933 8.26667C43.4593 8.5369 43.886 8.9209 44.213 9.41867C44.5403 9.91643 44.7037 10.5778 44.7037 11.4027C44.7037 12.256 44.462 12.9671 43.9783 13.536C43.509 14.0907 42.8833 14.4889 42.101 14.7307V14.7733C42.599 14.8444 43.047 14.9867 43.445 15.2C43.8577 15.3991 44.206 15.6622 44.4903 15.9893C44.789 16.3022 45.0167 16.672 45.173 17.0987C45.3297 17.5253 45.4077 17.9804 45.4077 18.464C45.4077 19.2604 45.237 19.9289 44.8957 20.4693C44.5543 20.9956 44.1137 21.4222 43.573 21.7493C43.0327 22.0764 42.421 22.3111 41.7383 22.4533C41.07 22.5956 40.4017 22.6667 39.733 22.6667H33.5463V7.56267ZM36.8743 13.6H39.285C39.541 13.6 39.79 13.5716 40.0317 13.5147C40.2877 13.4578 40.5153 13.3653 40.7143 13.2373C40.9137 13.1093 41.07 12.9387 41.1837 12.7253C41.3117 12.512 41.3757 12.256 41.3757 11.9573C41.3757 11.6444 41.3047 11.3884 41.1623 11.1893C41.0343 10.976 40.8637 10.8124 40.6503 10.6987C40.437 10.5849 40.1953 10.5067 39.925 10.464C39.655 10.4071 39.3917 10.3787 39.1357 10.3787H36.8743V13.6ZM36.8743 19.8507H39.861C40.117 19.8507 40.373 19.8222 40.629 19.7653C40.8993 19.7084 41.141 19.6089 41.3543 19.4667C41.5677 19.3244 41.7383 19.1396 41.8663 18.912C42.0087 18.6844 42.0797 18.4071 42.0797 18.08C42.0797 17.7244 41.9873 17.44 41.8023 17.2267C41.6317 16.9991 41.4113 16.8284 41.141 16.7147C40.871 16.6009 40.5793 16.5227 40.2663 16.48C39.9537 16.4373 39.662 16.416 39.3917 16.416H36.8743V19.8507ZM56.7877 20.8747C56.2757 21.5289 55.6287 22.0338 54.8463 22.3893C54.0643 22.7449 53.2537 22.9227 52.4143 22.9227C51.618 22.9227 50.8643 22.7947 50.153 22.5387C49.4563 22.2827 48.8447 21.92 48.3183 21.4507C47.8063 20.9671 47.401 20.3911 47.1023 19.7227C46.8037 19.0542 46.6543 18.3076 46.6543 17.4827C46.6543 16.6578 46.8037 15.9111 47.1023 15.2427C47.401 14.5742 47.8063 14.0053 48.3183 13.536C48.8447 13.0524 49.4563 12.6827 50.153 12.4267C50.8643 12.1707 51.618 12.0427 52.4143 12.0427C53.154 12.0427 53.8223 12.1707 54.4197 12.4267C55.0313 12.6827 55.5433 13.0524 55.9557 13.536C56.3823 14.0053 56.7097 14.5742 56.937 15.2427C57.1647 15.9111 57.2783 16.6578 57.2783 17.4827V18.4853H49.8543C49.9823 19.0969 50.2597 19.5876 50.6863 19.9573C51.113 20.3129 51.6393 20.4907 52.265 20.4907C52.7913 20.4907 53.2323 20.3769 53.5877 20.1493C53.9577 19.9076 54.2777 19.6018 54.5477 19.232L56.7877 20.8747ZM54.0783 16.3093C54.0927 15.7689 53.915 15.3067 53.545 14.9227C53.1753 14.5387 52.699 14.3467 52.1157 14.3467C51.7603 14.3467 51.4473 14.4036 51.177 14.5173C50.907 14.6311 50.6723 14.7804 50.473 14.9653C50.2883 15.136 50.139 15.3422 50.025 15.584C49.9257 15.8116 49.8687 16.0533 49.8543 16.3093H54.0783ZM65.091 15.3493C64.6217 14.7662 64.003 14.4747 63.235 14.4747C62.965 14.4747 62.7017 14.5387 62.4457 14.6667C62.1897 14.7947 62.0617 15.0151 62.0617 15.328C62.0617 15.584 62.1897 15.776 62.4457 15.904C62.716 16.0178 63.0503 16.1244 63.4483 16.224C63.861 16.3093 64.2947 16.4089 64.7497 16.5227C65.219 16.6222 65.653 16.7858 66.051 17.0133C66.4637 17.2409 66.7977 17.5538 67.0537 17.952C67.324 18.336 67.459 18.8551 67.459 19.5093C67.459 20.1778 67.3097 20.7324 67.011 21.1733C66.7267 21.6 66.357 21.9484 65.9017 22.2187C65.4467 22.4747 64.9347 22.6524 64.3657 22.752C63.797 22.8658 63.235 22.9227 62.6803 22.9227C61.955 22.9227 61.2227 22.8231 60.483 22.624C59.7437 22.4107 59.1177 22.0409 58.6057 21.5147L60.547 19.36C60.8457 19.7298 61.173 20.0142 61.5283 20.2133C61.8983 20.3982 62.325 20.4907 62.8083 20.4907C63.1783 20.4907 63.5123 20.4409 63.811 20.3413C64.1097 20.2276 64.259 20.0284 64.259 19.744C64.259 19.4738 64.124 19.2747 63.8537 19.1467C63.5977 19.0044 63.2637 18.8907 62.851 18.8053C62.453 18.7058 62.019 18.6062 61.5497 18.5067C61.0947 18.3929 60.661 18.2293 60.2483 18.016C59.8503 17.8027 59.516 17.504 59.2457 17.12C58.9897 16.7218 58.8617 16.1956 58.8617 15.5413C58.8617 14.9298 58.9827 14.4036 59.2243 13.9627C59.4803 13.5218 59.8077 13.1591 60.2057 12.8747C60.6183 12.5902 61.0877 12.384 61.6137 12.256C62.14 12.1138 62.6733 12.0427 63.2137 12.0427C63.8963 12.0427 64.5863 12.1422 65.283 12.3413C65.98 12.5404 66.5703 12.896 67.0537 13.408L65.091 15.3493ZM76.1607 14.8587H73.3447V18.3147C73.3447 18.5991 73.359 18.8622 73.3873 19.104C73.416 19.3316 73.48 19.5307 73.5793 19.7013C73.679 19.872 73.8283 20.0071 74.0273 20.1067C74.2407 20.192 74.518 20.2347 74.8593 20.2347C75.03 20.2347 75.2507 20.2204 75.5207 20.192C75.8053 20.1493 76.0187 20.064 76.1607 19.936V22.6027C75.8053 22.7307 75.4353 22.816 75.0513 22.8587C74.6673 22.9013 74.2907 22.9227 73.9207 22.9227C73.3803 22.9227 72.8827 22.8658 72.4273 22.752C71.9723 22.6382 71.574 22.4604 71.2327 22.2187C70.8913 21.9627 70.6213 21.6356 70.422 21.2373C70.2373 20.8391 70.1447 20.3556 70.1447 19.7867V14.8587H68.0967V12.2987H70.1447V9.22667H73.3447V12.2987H76.1607V14.8587ZM77.8297 12.2987H81.0297V22.6667H77.8297V12.2987ZM77.5737 9.03467C77.5737 8.52267 77.7513 8.0889 78.107 7.73333C78.4767 7.36357 78.9177 7.17867 79.4297 7.17867C79.9417 7.17867 80.3753 7.36357 80.731 7.73333C81.1007 8.0889 81.2857 8.52267 81.2857 9.03467C81.2857 9.54667 81.1007 9.98757 80.731 10.3573C80.3753 10.7129 79.9417 10.8907 79.4297 10.8907C78.9177 10.8907 78.4767 10.7129 78.107 10.3573C77.7513 9.98757 77.5737 9.54667 77.5737 9.03467ZM83.3287 12.2987H86.4007V13.7067H86.4433C86.5427 13.5076 86.685 13.3084 86.87 13.1093C87.0547 12.9102 87.2753 12.7324 87.5313 12.576C87.7873 12.4196 88.0787 12.2916 88.406 12.192C88.733 12.0924 89.0887 12.0427 89.4727 12.0427C90.2833 12.0427 90.9373 12.1707 91.4353 12.4267C91.933 12.6684 92.317 13.0098 92.5873 13.4507C92.8717 13.8916 93.0637 14.4107 93.1633 15.008C93.2627 15.6053 93.3127 16.2524 93.3127 16.9493V22.6667H90.1127V17.5893C90.1127 17.2907 90.0983 16.9849 90.07 16.672C90.0557 16.3449 89.9917 16.0462 89.878 15.776C89.7783 15.5058 89.6147 15.2853 89.3873 15.1147C89.174 14.944 88.861 14.8587 88.4487 14.8587C88.036 14.8587 87.702 14.9369 87.446 15.0933C87.19 15.2356 86.9907 15.4347 86.8487 15.6907C86.7207 15.9324 86.6353 16.2098 86.5927 16.5227C86.55 16.8356 86.5287 17.1627 86.5287 17.504V22.6667H83.3287V12.2987ZM96.688 14.8587H94.576V12.2987H96.688V10.464C96.688 9.8951 96.7377 9.36177 96.8373 8.864C96.9367 8.352 97.1287 7.904 97.4133 7.52C97.6977 7.136 98.103 6.83733 98.6293 6.624C99.1697 6.39643 99.8737 6.28267 100.741 6.28267C101.068 6.28267 101.388 6.2969 101.701 6.32533C102.014 6.35377 102.32 6.40357 102.619 6.47467L102.469 9.184C102.284 9.1129 102.114 9.0631 101.957 9.03467C101.801 8.992 101.623 8.97067 101.424 8.97067C100.912 8.97067 100.528 9.08443 100.272 9.312C100.016 9.52533 99.888 9.97333 99.888 10.656V12.2987H102.256V14.8587H99.888V22.6667H96.688V14.8587ZM103.09 17.4827C103.09 16.6578 103.24 15.9111 103.538 15.2427C103.837 14.5742 104.242 14.0053 104.754 13.536C105.281 13.0524 105.892 12.6827 106.589 12.4267C107.3 12.1707 108.054 12.0427 108.85 12.0427C109.647 12.0427 110.394 12.1707 111.09 12.4267C111.802 12.6827 112.413 13.0524 112.925 13.536C113.451 14.0053 113.864 14.5742 114.162 15.2427C114.461 15.9111 114.61 16.6578 114.61 17.4827C114.61 18.3076 114.461 19.0542 114.162 19.7227C113.864 20.3911 113.451 20.9671 112.925 21.4507C112.413 21.92 111.802 22.2827 111.09 22.5387C110.394 22.7947 109.647 22.9227 108.85 22.9227C108.054 22.9227 107.3 22.7947 106.589 22.5387C105.892 22.2827 105.281 21.92 104.754 21.4507C104.242 20.9671 103.837 20.3911 103.538 19.7227C103.24 19.0542 103.09 18.3076 103.09 17.4827ZM106.29 17.4827C106.29 18.2649 106.511 18.8978 106.952 19.3813C107.407 19.8649 108.04 20.1067 108.85 20.1067C109.661 20.1067 110.287 19.8649 110.728 19.3813C111.183 18.8978 111.41 18.2649 111.41 17.4827C111.41 16.7004 111.183 16.0676 110.728 15.584C110.287 15.1004 109.661 14.8587 108.85 14.8587C108.04 14.8587 107.407 15.1004 106.952 15.584C106.511 16.0676 106.29 16.7004 106.29 17.4827ZM116.495 12.2987H119.695V13.9627H119.738C120.079 13.3227 120.485 12.8462 120.954 12.5333C121.423 12.2062 122.013 12.0427 122.725 12.0427C122.909 12.0427 123.094 12.0498 123.279 12.064C123.464 12.0782 123.635 12.1067 123.791 12.1493V15.072C123.564 15.0009 123.336 14.9511 123.109 14.9227C122.895 14.88 122.668 14.8587 122.426 14.8587C121.814 14.8587 121.331 14.944 120.975 15.1147C120.62 15.2853 120.342 15.5271 120.143 15.84C119.958 16.1387 119.837 16.5013 119.781 16.928C119.724 17.3547 119.695 17.824 119.695 18.336V22.6667H116.495V12.2987ZM125.558 12.2987H128.63V13.7067H128.672C128.772 13.5076 128.914 13.3084 129.099 13.1093C129.284 12.9102 129.504 12.7324 129.76 12.576C130.016 12.4196 130.308 12.2916 130.635 12.192C130.962 12.0924 131.318 12.0427 131.702 12.0427C132.427 12.0427 133.067 12.192 133.622 12.4907C134.191 12.7893 134.617 13.2587 134.902 13.8987C135.272 13.2302 135.72 12.7538 136.246 12.4693C136.772 12.1849 137.419 12.0427 138.187 12.0427C138.884 12.0427 139.467 12.1636 139.936 12.4053C140.42 12.6329 140.797 12.9529 141.067 13.3653C141.352 13.7636 141.551 14.24 141.664 14.7947C141.792 15.3351 141.856 15.9182 141.856 16.544V22.6667H138.656V16.6293C138.656 16.1458 138.55 15.7333 138.336 15.392C138.137 15.0364 137.775 14.8587 137.248 14.8587C136.879 14.8587 136.566 14.9227 136.31 15.0507C136.068 15.1644 135.869 15.328 135.712 15.5413C135.57 15.7547 135.464 16.0036 135.392 16.288C135.336 16.5724 135.307 16.8711 135.307 17.184V22.6667H132.107V17.184C132.107 16.9991 132.1 16.7716 132.086 16.5013C132.072 16.2311 132.022 15.9751 131.936 15.7333C131.851 15.4916 131.709 15.2853 131.51 15.1147C131.325 14.944 131.048 14.8587 130.678 14.8587C130.265 14.8587 129.931 14.9369 129.675 15.0933C129.419 15.2356 129.22 15.4347 129.078 15.6907C128.95 15.9324 128.864 16.2098 128.822 16.5227C128.779 16.8356 128.758 17.1627 128.758 17.504V22.6667H125.558V12.2987Z" fill="#4257EE"/>
</svg>
