<svg width="24" height="24" viewBox="0 0 24 24" fill="none" xmlns="http://www.w3.org/2000/svg">
<path d="M23.2844 11.1102C23.1764 10.2514 23.0008 9.39843 22.6997 8.58597C22.7016 8.4856 23.2999 8.0456 22.912 7.36243C22.6167 6.83943 22.0107 6.99383 21.9548 6.93786C21.6885 6.40136 21.3488 5.9054 20.9976 5.42293C21.4607 4.62397 20.7042 3.69183 19.8686 4.13377C19.4916 3.7401 19.1153 3.34577 18.7396 2.95077C19.0484 2.01093 18.0101 1.30073 17.2903 1.98007C16.7461 1.7311 16.1806 1.52847 15.6287 1.30267C15.6152 0.380198 14.4225 0.086865 13.9671 0.891632C13.6043 0.855598 13.2408 0.820198 12.8767 0.785465C12.788 0.254765 12.3499 -0.0771683 11.8134 0.015465C11.4718 0.0752983 11.2016 0.465132 11.1225 0.785465C10.7687 0.829232 10.4142 0.873598 10.0591 0.918632C9.59983 0.0636985 8.42263 0.378265 8.38403 1.31813C7.86167 1.5304 7.3387 1.74333 6.81507 1.9569C6.78803 1.9659 6.76167 1.9749 6.73593 1.98393C6.3905 1.58636 5.6938 1.6462 5.39273 2.07657C5.08783 2.51077 5.32327 2.90446 5.2866 2.97973C4.91863 3.3567 4.5507 3.733 4.18273 4.1087C3.65587 3.80376 2.90902 4.24377 2.86656 4.8401C2.84148 5.18747 3.06534 5.36117 2.99973 5.4789C2.68966 5.9575 2.3796 6.4361 2.06953 6.9147L2.00392 6.9803C1.35549 6.8433 0.863373 7.4647 1.00811 8.0842C1.0718 8.35823 1.3304 8.50683 1.32654 8.6149C1.03127 9.43123 0.867233 10.2823 0.741793 11.1392C-0.242434 11.363 -0.252083 12.629 0.741793 12.8394C0.869163 13.7039 1.03513 14.5647 1.32654 15.3906C0.66267 16.1278 1.01004 17.1275 2.04445 17.0387C2.33585 17.5656 2.65428 18.0789 3.02867 18.5537C2.54235 19.3835 3.29113 20.2693 4.18467 19.8968L5.31363 21.0798C4.9624 22.0216 6.0238 22.6508 6.78803 22.0235C7.31037 22.2358 7.83337 22.4488 8.357 22.6623C8.43807 23.6195 9.5516 23.9438 10.0572 23.0869C10.2 23.1004 11.1553 23.1622 11.1862 23.2336C11.2016 23.9881 12.2283 24.2738 12.6741 23.6852C12.8632 23.4362 12.815 23.2432 12.9269 23.193C13.264 23.157 13.6004 23.1216 13.9362 23.0869C14.438 23.9283 15.5612 23.6388 15.6364 22.6874C16.1961 22.4713 16.7538 22.2436 17.3115 22.0235C18.0044 22.7086 19.0639 21.9367 18.7068 21.0528C19.0838 20.6669 19.4601 20.2815 19.8358 19.8968C20.7081 20.2674 21.4356 19.3854 20.9918 18.5807C21.3108 18.0841 21.6299 17.5881 21.949 17.0928L22.0146 17.0271C22.9757 17.1757 23.3346 16.0487 22.692 15.4196C22.9834 14.584 23.1783 13.7213 23.2767 12.8413C24.2571 12.6194 24.2552 11.39 23.2767 11.1141L23.2844 11.1102ZM22.0339 8.7442C21.8615 9.45697 21.6885 10.1704 21.5148 10.8844L20.8644 10.8188C20.5273 10.1549 20.1909 9.49043 19.8551 8.82526C19.8551 8.74033 20.2546 8.557 20.2932 7.9607H21.3025C21.37 8.66893 22.0146 8.69017 22.0339 8.7442ZM16.2926 11.0021C15.7715 11.3457 15.7696 11.8455 15.7213 11.8667H13.1701C13.1276 11.5271 12.9308 11.2202 12.6509 11.0292C13.0987 10.1388 13.5464 9.24853 13.9941 8.35823C14.3415 8.59173 14.9185 8.3428 14.9648 8.37173C15.4074 9.2492 15.8506 10.1266 16.2945 11.0041L16.2926 11.0021ZM15.1771 8.2386C15.1771 8.16523 15.4859 8.00313 15.5882 7.58823C16.3987 7.70787 17.2093 7.82753 18.0198 7.94716C18.0198 8.5184 18.4502 8.7249 18.4444 8.82526C18.0674 9.5213 17.6911 10.2167 17.3154 10.9114C16.9005 10.7339 16.555 10.8999 16.5184 10.8844C16.0764 10.0005 15.6268 9.12053 15.1752 8.2405L15.1771 8.2386ZM14.9243 6.28557C14.6252 6.14083 14.2739 6.14083 13.9671 6.25856C13.5773 5.57923 13.199 4.89027 12.7841 4.22447C12.7783 4.15307 13.0967 3.86167 13.1952 3.5201C14.0057 3.62173 14.8162 3.72337 15.6268 3.825C15.6364 4.44833 16.0282 4.66257 16.0263 4.72817C15.6583 5.24667 15.2903 5.76517 14.9224 6.28363L14.9243 6.28557ZM12.4001 10.9095C12.0025 10.7262 11.659 10.9385 11.5895 10.896C11.1559 10.0186 10.7217 9.1411 10.2869 8.26367C10.2869 8.1749 10.6574 7.9877 10.752 7.4261H13.2762C13.3206 7.4454 13.2859 7.9356 13.7683 8.23666C13.3116 9.12696 12.8555 10.0173 12.4001 10.9076V10.9095ZM10.0341 8.35823C10.0469 8.3711 10.0604 8.3846 10.0746 8.39877C10.5004 9.2582 10.9256 10.1176 11.3502 10.977C11.3541 11.0851 10.9199 11.3572 10.8311 11.8667H8.2798C8.2335 11.8436 8.26823 11.3688 7.7356 11.0021C8.19233 10.1208 8.6484 9.23953 9.10387 8.35823C9.403 8.46823 9.73687 8.50683 10.0341 8.35823ZM7.99997 4.7031C8.00383 4.65483 8.3879 4.3943 8.37243 3.85203C8.76613 3.7806 10.4934 3.51237 10.6979 3.5201C11.0125 3.53167 10.7867 3.84043 11.2692 4.19747C11.2602 4.21547 11.2511 4.2335 11.2421 4.2515C10.8485 4.9115 10.4541 5.57153 10.0591 6.23153C9.9974 6.2489 9.55353 6.03083 9.12897 6.28557C8.752 5.75807 8.37567 5.23123 7.99997 4.705V4.7031ZM7.52137 10.8709C7.4635 10.9095 7.1354 10.7377 6.71083 10.9114C6.33387 10.1987 5.95757 9.48527 5.58187 8.77123C5.88873 8.51457 5.94853 8.30613 6.04697 7.93366C6.4947 7.9221 8.21033 7.5805 8.33193 7.58823C8.57507 7.60173 8.42263 7.86807 8.87613 8.2386C8.42457 9.11603 7.97297 9.99347 7.52137 10.8709ZM6.48503 11.0292C6.0759 11.3418 6.01223 11.8455 5.9659 11.8667H4.0515C3.9415 11.17 3.3992 11.0137 3.40113 10.896C3.7292 10.2579 4.0573 9.61973 4.38537 8.98156C4.4664 8.91983 5.1052 9.1244 5.30203 8.91596C5.3696 8.90053 5.40627 8.97773 5.4487 9.0356C5.56643 9.19773 6.21873 10.622 6.48503 11.0292ZM4.05343 12.106H5.99293C6.04503 12.438 6.19557 12.7564 6.48503 12.9436C6.10807 13.6563 5.73177 14.3697 5.35607 15.0838C5.06273 14.9487 4.71537 14.9294 4.4259 15.0838C4.41303 15.0709 4.3995 15.0574 4.38537 15.0433C4.0573 14.3871 3.7292 13.7316 3.40113 13.0767C3.405 13.0015 3.9473 12.7853 4.0515 12.106H4.05343ZM6.71083 13.0902C6.75523 13.0767 7.17013 13.2311 7.48087 13.0902C7.9826 13.9452 8.3821 14.8599 8.84913 15.7341C8.85297 15.821 8.55577 15.9734 8.43807 16.3845C7.6404 16.2777 6.8427 16.1716 6.04503 16.0661C5.9659 16.0178 6.02767 15.5778 5.57993 15.2285C5.9569 14.5158 6.33323 13.8024 6.7089 13.0883L6.71083 13.0902ZM7.76067 13.0227C7.7549 12.8837 8.2007 12.7043 8.2798 12.106H10.8581C10.8581 12.465 11.0935 12.7409 11.3502 12.9706C10.9115 13.8609 10.4728 14.7512 10.0341 15.6415C9.83527 15.3945 9.13667 15.6917 9.03823 15.5759C8.9456 15.4659 8.00963 13.3604 7.7626 13.0246L7.76067 13.0227ZM9.10387 17.7142C9.3972 17.8512 9.73493 17.8608 10.0341 17.7412C10.4721 18.3935 10.8176 19.1095 11.2441 19.7753C11.2441 19.8312 10.9083 20.1014 10.8581 20.4526C10.1653 20.3562 9.44543 20.3349 8.7584 20.2133C8.0135 20.0802 8.71017 20.0705 7.99997 19.2696C8.36793 18.7512 8.7359 18.2327 9.10387 17.7142ZM11.6011 13.0902C11.823 13.1559 12.1665 13.1867 12.3711 13.0902C12.402 13.1031 12.4329 13.1166 12.4637 13.1308C12.8973 14.0082 13.3315 14.8857 13.7664 15.7631C13.3245 16.0834 13.3167 16.5022 13.2743 16.5215H10.723C10.6786 16.2147 10.5204 15.9349 10.2579 15.7631C10.7056 14.8728 11.1534 13.9825 11.6011 13.0922V13.0902ZM13.9806 15.628L12.6509 12.9706C12.9269 12.7178 13.1218 12.492 13.1701 12.106H15.7484C15.8005 12.7351 16.2887 12.9436 16.2926 12.9957C15.8358 13.877 15.3798 14.7583 14.9243 15.6396C14.4264 15.408 14.0289 15.655 13.9806 15.6261V15.628ZM16.0282 19.2696C16.0301 19.3295 15.6403 19.5861 15.6287 20.1207C15.5612 20.2249 13.4557 20.4044 13.1701 20.4526C13.0832 20.0146 12.7802 19.8505 12.7841 19.7482C13.2009 19.0882 13.5541 18.3838 13.9941 17.7412C14.2469 17.8628 14.6522 17.8551 14.8973 17.7142C15.2743 18.2327 15.6506 18.7512 16.0263 19.2696H16.0282ZM16.5454 13.0902C16.7905 13.1752 17.0626 13.1597 17.3154 13.0902C17.7072 13.785 18.068 14.5183 18.4444 15.2305C18.4347 15.2768 17.9986 15.5315 18.0198 16.0275C17.9979 16.0403 17.9761 16.0539 17.9542 16.068C17.1655 16.1838 16.3768 16.299 15.5882 16.4135C15.4782 15.9291 15.1733 15.8384 15.1771 15.7361L16.5454 13.0922V13.0902ZM17.5431 12.9706C17.5431 12.903 17.9638 12.6367 18.0082 12.106H19.9747C20.0867 12.8645 20.6077 12.9918 20.6251 13.0497C20.2932 13.7187 19.9612 14.3877 19.6293 15.0568C19.06 14.8426 18.7184 15.0992 18.6721 15.0838C18.2842 14.3871 17.9368 13.6653 17.5431 12.9706ZM19.9477 11.8667H18.0333C17.987 11.8474 17.9812 11.3669 17.5412 11.0292C17.9272 10.3254 18.3125 9.621 18.6972 8.91596C18.9828 9.05106 19.3186 9.06843 19.6004 8.91596C19.6132 8.92883 19.6267 8.94233 19.6409 8.9565C19.969 9.60363 20.297 10.2501 20.6251 10.896C20.6212 10.979 20.0905 11.199 19.9477 11.8667ZM20.7988 5.61977C20.8432 5.6217 21.2369 6.21223 21.2909 6.29713C22.0435 7.4763 21.5186 6.741 21.2774 7.71947H20.2932C20.2333 7.69437 20.2526 7.03627 19.5347 6.74873C19.6454 6.3988 19.756 6.04883 19.8667 5.6989C20.1677 5.861 20.5248 5.83977 20.7969 5.61977H20.7988ZM17.8615 3.4815C17.8886 3.44867 18.2649 3.54516 18.5659 3.17656C18.7145 3.2827 19.6274 4.20326 19.6158 4.28043C19.5322 4.4091 19.4479 4.53777 19.363 4.66643C18.8625 4.52877 18.362 4.39173 17.8615 4.25537C17.8365 4.2129 17.9966 3.8578 17.8615 3.48533V3.4815ZM17.7149 4.4773C18.2681 4.62397 18.822 4.77 19.3765 4.91537C19.3225 5.2994 19.6389 5.4673 19.6428 5.57923C19.5142 5.9562 19.3855 6.33253 19.2568 6.7082C19.0703 6.72623 18.8844 6.74423 18.6991 6.76223C18.261 6.12153 17.8538 5.44993 17.41 4.80923C17.5116 4.69857 17.6132 4.58793 17.7149 4.4773ZM18.4733 6.88383C18.4752 6.96487 18.0951 7.1405 18.0082 7.69436C17.1977 7.5747 16.3871 7.45506 15.5766 7.3354C15.5824 6.96103 15.4396 6.63873 15.125 6.43223C15.493 5.91373 15.8609 5.39527 16.2289 4.87677C16.2771 4.8652 16.6515 5.118 17.1591 4.9038C17.5978 5.5638 18.0365 6.2238 18.4752 6.88383H18.4733ZM15.6152 1.58056C15.6866 1.55163 16.9912 2.09006 17.051 2.1383C17.078 2.16146 17.1205 2.1962 17.1166 2.23093C16.8908 3.08393 17.0201 2.45867 16.1999 2.8292C16.1227 2.6941 15.4994 1.9183 15.4955 1.85846C15.4955 1.84303 15.6017 1.58443 15.6152 1.57863V1.58056ZM14.1794 2.00513C14.5094 2.23093 14.9648 2.28303 15.2948 2.03217C15.538 2.32357 15.7368 2.65163 15.9722 2.94883C15.9819 3.04533 15.702 3.20167 15.6403 3.57413C14.8207 3.46347 14.0012 3.35283 13.1816 3.2422C13.1759 3.0685 13.1392 2.88903 13.0485 2.73657C13.4255 2.4934 13.8018 2.2496 14.1775 2.00513H14.1794ZM12.1472 1.80636C12.1801 1.72146 12.7609 1.6848 12.8787 1.02283C13.2157 1.0666 13.5522 1.11097 13.888 1.156C13.9092 1.1811 13.7915 1.5034 14.0076 1.78126C13.6487 2.03346 13.2897 2.28626 12.9308 2.53973C12.5274 2.1113 12.0044 2.1827 12.1472 1.8083V1.80636ZM12.5062 4.34413C12.5757 4.3287 12.595 4.39237 12.6529 4.4638C12.7687 4.60853 13.4595 5.98643 13.7432 6.3512C13.7432 6.42067 13.3225 6.71206 13.2916 7.17523C12.4451 7.1881 11.5992 7.2016 10.7539 7.21577C10.6748 6.6503 10.2869 6.4226 10.2888 6.3512C10.6606 5.71303 11.0324 5.0749 11.4043 4.43677C11.5258 4.2959 12.0508 4.61623 12.5081 4.34413H12.5062ZM10.1402 1.156C10.337 1.14443 10.9141 1.02093 11.0183 1.02283C11.3406 1.0325 11.0627 1.25056 11.4178 1.55356C11.686 1.7832 12.0276 1.61917 11.8423 2.1113C11.5606 2.14023 11.3116 2.3004 11.1244 2.51077C10.7475 2.2676 10.3711 2.0238 9.99547 1.77937C10.1749 1.61723 10.1749 1.3741 10.1421 1.15407L10.1402 1.156ZM8.7584 2.03217C9.0537 2.2599 9.50527 2.24443 9.79477 2.00513C10.1884 2.2483 10.5828 2.4921 10.9778 2.73657C10.934 2.9051 10.8896 3.07363 10.8446 3.2422C10.016 3.35283 9.1875 3.46347 8.35893 3.57413C8.33383 3.3329 8.1949 3.13797 8.027 2.97587C8.1235 2.86393 8.6986 2.03603 8.7584 2.03217ZM6.95013 2.16533C7.14507 2.1248 8.30877 1.569 8.38597 1.58056C8.42457 1.58636 8.5384 1.84496 8.53263 1.8855C8.5249 1.94533 7.88807 2.70377 7.8012 2.8292C7.5561 2.61113 7.0698 2.7385 7.04277 2.70953C6.99903 2.541 6.95463 2.37246 6.9096 2.20393L6.95013 2.1634V2.16533ZM6.87103 4.92887C7.17013 5.00607 7.51173 5.03503 7.7742 4.84976L8.87807 6.3782C8.88963 6.494 8.43033 6.71787 8.4535 7.3084C7.64297 7.44607 6.83243 7.58307 6.02187 7.71947C5.93117 7.3354 5.8617 7.17136 5.5568 6.9089C5.97557 6.2431 6.404 5.56767 6.87293 4.92887H6.87103ZM5.4352 3.17463C5.75943 3.5336 6.16083 3.43903 6.16663 3.47957C6.09137 3.71887 6.09137 3.9794 6.16663 4.22447C5.65713 4.38017 5.14767 4.5352 4.63817 4.68957C4.56227 4.5339 4.487 4.37887 4.41237 4.22447C4.75333 3.87453 5.09427 3.5246 5.4352 3.17463ZM4.65167 4.9424C5.17017 4.7867 5.68867 4.63167 6.20713 4.4773C6.3712 4.46763 6.47927 4.7243 6.6182 4.83623C6.20137 5.4744 5.78517 6.11253 5.3696 6.75066L4.77133 6.71013C4.72503 6.55573 4.37957 5.61397 4.38537 5.55417C4.38923 5.5194 4.66327 5.30907 4.65167 4.9424ZM3.22938 5.61977C3.51693 5.83783 3.83727 5.85327 4.15957 5.6989L4.4915 6.7217C4.47993 6.82593 3.8701 6.91663 3.73307 7.71753H2.74884C2.71025 7.70016 2.7006 7.23313 2.28375 7.04013C2.59767 6.5667 2.91224 6.09257 3.22745 5.61783L3.22938 5.61977ZM2.72376 7.95877H3.73307C3.7736 7.9877 3.6964 8.46437 4.19817 8.7963L3.16183 10.8169C2.9444 10.8387 2.72762 10.8606 2.51147 10.8825C2.33907 10.1697 2.16603 9.45633 1.99234 8.74226C2.37445 8.6535 2.69095 8.36597 2.72376 7.95877ZM1.75497 15.2285C1.72409 15.2826 1.63918 15.3192 1.58128 15.2941C1.46356 15.244 1.01004 13.098 1.02355 12.822C2.03673 12.6058 1.9962 11.3534 1.01004 11.1334C1.03127 10.8632 1.45005 8.79246 1.55426 8.72876C1.61216 8.69403 1.72023 8.7307 1.75304 8.79436C1.80321 8.8928 2.11778 10.6316 2.25866 10.9481C2.2548 11.1237 1.84567 11.1951 1.78006 11.7722C1.72602 12.2565 1.83216 12.7004 2.25866 12.9687C2.15638 13.2659 1.81286 15.1282 1.75304 15.2285H1.75497ZM2.01936 15.2826C2.18275 14.5608 2.34679 13.839 2.51147 13.1173C2.7289 13.1301 2.94569 13.1436 3.16183 13.1578C3.4989 13.8307 3.83537 14.5042 4.17113 15.1783C4.17113 15.2594 3.7678 15.4678 3.73307 16.0159H2.72376C2.67551 15.9927 2.6813 15.3829 2.01936 15.2845V15.2826ZM4.15957 18.2719C3.80253 18.1561 3.5401 18.1407 3.22938 18.378C2.88779 17.94 2.60024 17.4575 2.3127 16.9828C2.30498 16.8766 2.66393 16.7647 2.75077 16.2513H3.735C3.79483 16.2784 3.69833 16.8998 4.49343 17.2472L4.1615 18.27L4.15957 18.2719ZM6.16663 20.4662C6.14347 20.5009 5.7575 20.4295 5.4352 20.8251C5.09427 20.4662 4.75333 20.1072 4.41237 19.7482C4.4883 19.6106 4.56357 19.4736 4.63817 19.3372C5.1515 19.4697 5.6655 19.6029 6.18013 19.7367C6.23417 19.7965 6.0296 20.1902 6.16663 20.4681V20.4662ZM6.28627 19.5225L4.65167 19.0574C4.69027 18.7775 4.50887 18.6116 4.38537 18.3935C4.47607 18.2526 4.6922 17.3205 4.77133 17.2896C4.94503 17.3243 5.22483 17.2356 5.24993 17.2356C5.35223 17.2394 5.32907 17.2394 5.3966 17.3012C5.4796 17.3765 6.39627 18.93 6.62013 19.1886L6.2882 19.5205L6.28627 19.5225ZM5.55487 17.1159C5.55293 17.0368 5.95627 16.8284 6.01997 16.3054C6.8305 16.416 7.64103 16.5267 8.45157 16.6373C8.4149 17.0368 8.61367 17.3359 8.90317 17.5945C8.5352 18.104 8.16723 18.6135 7.79927 19.123C7.73947 19.1384 7.36507 18.8817 6.8691 19.096C6.43037 18.4359 5.99163 17.7759 5.55293 17.1159H5.55487ZM8.38597 22.4192C8.3107 22.4481 7.0891 21.8537 6.91153 21.7939C7.1084 20.912 7.02153 21.5256 7.8012 21.1686C7.89963 21.2767 8.52683 22.0525 8.53263 22.1123C8.53263 22.1297 8.4014 22.4114 8.38597 22.4172V22.4192ZM9.87387 21.9946C9.81403 21.9985 9.42423 21.5527 8.7314 21.9406C8.49723 21.6344 8.26243 21.3288 8.027 21.0239C8.02313 20.9814 8.29717 20.7904 8.38597 20.3986C9.20163 20.4964 10.0167 20.5942 10.8311 20.6919L10.9778 21.2362C10.6098 21.4883 10.2418 21.7411 9.87387 21.9946ZM11.8809 22.2204C11.8558 22.2686 11.3058 22.2648 11.1495 22.9518C9.69633 22.7955 10.3795 22.9904 10.0205 22.1934C10.3795 21.9502 10.7384 21.7064 11.0974 21.462C11.4602 21.8479 12.0778 21.8286 11.8809 22.2204ZM11.495 19.6556C11.4731 19.6427 11.4512 19.6292 11.4293 19.6151C11.0485 18.9589 10.6677 18.3034 10.2869 17.6486C10.2791 17.5617 10.6613 17.2896 10.752 16.7589C11.6075 16.7718 12.4625 16.7853 13.3167 16.7994C13.3052 17.1352 13.5271 17.4112 13.7683 17.6235L12.5583 19.6305C12.5062 19.646 11.9736 19.3507 11.495 19.6575V19.6556ZM13.8339 22.8437C13.5059 22.8798 13.1778 22.9151 12.8497 22.9499C12.786 22.3053 12.1415 22.2455 12.1183 22.1914C11.96 21.8132 12.4869 21.8942 12.9018 21.487C13.2788 21.7302 13.6551 21.974 14.0308 22.2185C13.7992 22.4134 13.9189 22.8051 13.832 22.8437H13.8339ZM15.2968 21.9406C14.6097 21.5488 14.2353 22.0042 14.1543 21.9946C13.7953 21.7514 13.4364 21.5076 13.0774 21.2632L13.2241 20.6919C13.9948 20.5942 14.7654 20.4964 15.5361 20.3986C15.6924 20.3484 15.6827 20.7498 16.0012 21.0239C15.767 21.3301 15.5322 21.6356 15.2968 21.9406ZM15.6422 22.4192C15.621 22.4153 15.4936 22.1335 15.4955 22.1143C15.5013 22.0564 16.1266 21.3056 16.1999 21.1706C16.445 21.2921 16.7056 21.3558 16.97 21.2497C17.0098 21.4311 17.0497 21.6125 17.0896 21.7939C16.6071 22.0023 16.124 22.2107 15.6403 22.4192H15.6422ZM17.1572 19.096C16.8812 18.9724 16.5087 18.9724 16.254 19.15C15.877 18.6315 15.5007 18.113 15.125 17.5945C15.1212 17.5328 15.5766 17.2954 15.5766 16.6643C16.0147 16.5756 17.5431 16.3112 17.823 16.3054C17.8673 16.3054 18.0005 16.2938 18.0217 16.3189C18.0603 16.8843 18.4675 17.0445 18.4733 17.0889C18.0372 17.7566 17.6049 18.4321 17.1572 19.096ZM18.593 20.8251C18.4038 20.5916 18.1298 20.5453 17.8615 20.4662C17.9484 20.2539 17.9233 20.0088 17.8345 19.8023C17.9947 19.7116 19.2067 19.3391 19.2839 19.3372C19.3263 19.3372 19.3784 19.3295 19.4035 19.3507C19.4743 19.4832 19.545 19.6164 19.6158 19.7502C19.2748 20.1091 18.9339 20.4681 18.593 20.827V20.8251ZM19.336 19.0709C18.8046 19.2304 18.2733 19.3899 17.7419 19.5495L17.41 19.1905C17.8397 18.5395 18.2694 17.8885 18.6991 17.2375L19.2974 17.3031C19.4132 17.693 19.5283 18.0828 19.6428 18.4726C19.363 18.6675 19.4035 19.011 19.3379 19.0709H19.336ZM20.8258 18.378C20.7776 18.3896 20.4418 18.0172 19.8686 18.2989C19.8281 18.1349 19.527 17.3012 19.5637 17.2221C20.2835 16.921 20.2372 16.2803 20.2951 16.2513H21.2793C21.3565 16.5929 21.4318 16.7685 21.7444 16.9557C21.4382 17.4292 21.1327 17.9033 20.8277 18.378H20.8258ZM21.2774 16.014H20.2932C20.2488 15.4505 19.857 15.2594 19.8551 15.1764C20.1922 14.5035 20.5286 13.83 20.8644 13.1559C21.0728 13.134 21.2813 13.1121 21.4897 13.0902C21.5116 13.1031 21.5334 13.1166 21.5553 13.1308C21.7148 13.8397 21.8744 14.5486 22.0339 15.2575C22.0146 15.3115 21.4241 15.3115 21.2755 16.0159L21.2774 16.014ZM22.4469 15.2961C22.3851 15.3231 22.3021 15.2613 22.2732 15.2034C22.225 15.1031 21.9162 13.3624 21.7676 13.0246C21.7753 12.8934 22.2481 12.7332 22.2327 12.1079C22.36 12.5248 22.58 12.7487 23.0162 12.8394C23.0143 13.1115 22.5607 15.2459 22.445 15.298L22.4469 15.2961ZM22.2346 11.8937C22.2346 11.2549 21.7734 11.0735 21.7695 10.95C21.9123 10.7069 22.2365 8.75387 22.3407 8.70367C22.3793 8.68437 22.4527 8.70367 22.4874 8.7442C22.5685 8.83683 23.0278 10.842 23.0181 11.1372C22.5936 11.2318 22.335 11.4807 22.2346 11.8957V11.8937Z" fill="#FCFCFD"/>
</svg>
