<svg width="143" height="32" viewBox="0 0 143 32" fill="none" xmlns="http://www.w3.org/2000/svg">
<mask id="mask0_3225_47772" style="mask-type:luminance" maskUnits="userSpaceOnUse" x="0" y="4" width="24" height="24">
<path d="M24 4H0V28H24V4Z" fill="white"/>
</mask>
<g mask="url(#mask0_3225_47772)">
<path d="M23.2844 15.1102C23.1764 14.2514 23.0008 13.3984 22.6997 12.586C22.7016 12.4856 23.2999 12.0456 22.912 11.3624C22.6167 10.8394 22.0107 10.9938 21.9548 10.9379C21.6885 10.4014 21.3488 9.9054 20.9976 9.42293C21.4607 8.62397 20.7042 7.69183 19.8686 8.13377C19.4916 7.7401 19.1153 7.34577 18.7396 6.95077C19.0484 6.01093 18.0101 5.30073 17.2903 5.98007C16.7461 5.7311 16.1806 5.52847 15.6287 5.30267C15.6152 4.3802 14.4225 4.08687 13.9671 4.89163C13.6043 4.8556 13.2408 4.8202 12.8767 4.78546C12.788 4.25476 12.3499 3.92283 11.8134 4.01546C11.4718 4.0753 11.2016 4.46513 11.1225 4.78546C10.7687 4.82923 10.4142 4.8736 10.0591 4.91863C9.59983 4.0637 8.42263 4.37826 8.38403 5.31813C7.86167 5.5304 7.3387 5.74333 6.81507 5.9569C6.78803 5.9659 6.76167 5.9749 6.73593 5.98393C6.3905 5.58636 5.6938 5.6462 5.39273 6.07657C5.08783 6.51077 5.32327 6.90446 5.2866 6.97973C4.91863 7.3567 4.5507 7.733 4.18273 8.1087C3.65587 7.80376 2.90902 8.24377 2.86656 8.8401C2.84148 9.18747 3.06534 9.36117 2.99973 9.4789C2.68966 9.9575 2.3796 10.4361 2.06953 10.9147L2.00392 10.9803C1.35549 10.8433 0.863373 11.4647 1.00811 12.0842C1.0718 12.3582 1.3304 12.5068 1.32654 12.6149C1.03127 13.4312 0.867233 14.2823 0.741793 15.1392C-0.242434 15.363 -0.252083 16.629 0.741793 16.8394C0.869163 17.7039 1.03513 18.5647 1.32654 19.3906C0.66267 20.1278 1.01004 21.1275 2.04445 21.0387C2.33585 21.5656 2.65428 22.0789 3.02867 22.5537C2.54235 23.3835 3.29113 24.2693 4.18467 23.8968L5.31363 25.0798C4.9624 26.0216 6.0238 26.6508 6.78803 26.0235C7.31037 26.2358 7.83337 26.4488 8.357 26.6623C8.43807 27.6195 9.5516 27.9438 10.0572 27.0869C10.2 27.1004 11.1553 27.1622 11.1862 27.2336C11.2016 27.9881 12.2283 28.2738 12.6741 27.6852C12.8632 27.4362 12.815 27.2432 12.9269 27.193C13.264 27.157 13.6004 27.1216 13.9362 27.0869C14.438 27.9283 15.5612 27.6388 15.6364 26.6874C16.1961 26.4713 16.7538 26.2436 17.3115 26.0235C18.0044 26.7086 19.0639 25.9367 18.7068 25.0528C19.0838 24.6669 19.4601 24.2815 19.8358 23.8968C20.7081 24.2674 21.4356 23.3854 20.9918 22.5807C21.3108 22.0841 21.6299 21.5881 21.949 21.0928L22.0146 21.0271C22.9757 21.1757 23.3346 20.0487 22.692 19.4196C22.9834 18.584 23.1783 17.7213 23.2767 16.8413C24.2571 16.6194 24.2552 15.39 23.2767 15.1141L23.2844 15.1102ZM22.0339 12.7442C21.8615 13.457 21.6885 14.1704 21.5148 14.8844L20.8644 14.8188C20.5273 14.1549 20.1909 13.4904 19.8551 12.8253C19.8551 12.7403 20.2546 12.557 20.2932 11.9607H21.3025C21.37 12.6689 22.0146 12.6902 22.0339 12.7442ZM16.2926 15.0021C15.7715 15.3457 15.7696 15.8455 15.7213 15.8667H13.1701C13.1276 15.5271 12.9308 15.2202 12.6509 15.0292C13.0987 14.1388 13.5464 13.2485 13.9941 12.3582C14.3415 12.5917 14.9185 12.3428 14.9648 12.3717C15.4074 13.2492 15.8506 14.1266 16.2945 15.0041L16.2926 15.0021ZM15.1771 12.2386C15.1771 12.1652 15.4859 12.0031 15.5882 11.5882C16.3987 11.7079 17.2093 11.8275 18.0198 11.9472C18.0198 12.5184 18.4502 12.7249 18.4444 12.8253C18.0674 13.5213 17.6911 14.2167 17.3154 14.9114C16.9005 14.7339 16.555 14.8999 16.5184 14.8844C16.0764 14.0005 15.6268 13.1205 15.1752 12.2405L15.1771 12.2386ZM14.9243 10.2856C14.6252 10.1408 14.2739 10.1408 13.9671 10.2586C13.5773 9.57923 13.199 8.89027 12.7841 8.22447C12.7783 8.15307 13.0967 7.86167 13.1952 7.5201C14.0057 7.62173 14.8162 7.72337 15.6268 7.825C15.6364 8.44833 16.0282 8.66257 16.0263 8.72817C15.6583 9.24667 15.2903 9.76517 14.9224 10.2836L14.9243 10.2856ZM12.4001 14.9095C12.0025 14.7262 11.659 14.9385 11.5895 14.896C11.1559 14.0186 10.7217 13.1411 10.2869 12.2637C10.2869 12.1749 10.6574 11.9877 10.752 11.4261H13.2762C13.3206 11.4454 13.2859 11.9356 13.7683 12.2367C13.3116 13.127 12.8555 14.0173 12.4001 14.9076V14.9095ZM10.0341 12.3582C10.0469 12.3711 10.0604 12.3846 10.0746 12.3988C10.5004 13.2582 10.9256 14.1176 11.3502 14.977C11.3541 15.0851 10.9199 15.3572 10.8311 15.8667H8.2798C8.2335 15.8436 8.26823 15.3688 7.7356 15.0021C8.19233 14.1208 8.6484 13.2395 9.10387 12.3582C9.403 12.4682 9.73687 12.5068 10.0341 12.3582ZM7.99997 8.7031C8.00383 8.65483 8.3879 8.3943 8.37243 7.85203C8.76613 7.7806 10.4934 7.51237 10.6979 7.5201C11.0125 7.53167 10.7867 7.84043 11.2692 8.19747C11.2602 8.21547 11.2511 8.2335 11.2421 8.2515C10.8485 8.9115 10.4541 9.57153 10.0591 10.2315C9.9974 10.2489 9.55353 10.0308 9.12897 10.2856C8.752 9.75807 8.37567 9.23123 7.99997 8.705V8.7031ZM7.52137 14.8709C7.4635 14.9095 7.1354 14.7377 6.71083 14.9114C6.33387 14.1987 5.95757 13.4853 5.58187 12.7712C5.88873 12.5146 5.94853 12.3061 6.04697 11.9337C6.4947 11.9221 8.21033 11.5805 8.33193 11.5882C8.57507 11.6017 8.42263 11.8681 8.87613 12.2386C8.42457 13.116 7.97297 13.9935 7.52137 14.8709ZM6.48503 15.0292C6.0759 15.3418 6.01223 15.8455 5.9659 15.8667H4.0515C3.9415 15.17 3.3992 15.0137 3.40113 14.896C3.7292 14.2579 4.0573 13.6197 4.38537 12.9816C4.4664 12.9198 5.1052 13.1244 5.30203 12.916C5.3696 12.9005 5.40627 12.9777 5.4487 13.0356C5.56643 13.1977 6.21873 14.622 6.48503 15.0292ZM4.05343 16.106H5.99293C6.04503 16.438 6.19557 16.7564 6.48503 16.9436C6.10807 17.6563 5.73177 18.3697 5.35607 19.0838C5.06273 18.9487 4.71537 18.9294 4.4259 19.0838C4.41303 19.0709 4.3995 19.0574 4.38537 19.0433C4.0573 18.3871 3.7292 17.7316 3.40113 17.0767C3.405 17.0015 3.9473 16.7853 4.0515 16.106H4.05343ZM6.71083 17.0902C6.75523 17.0767 7.17013 17.2311 7.48087 17.0902C7.9826 17.9452 8.3821 18.8599 8.84913 19.7341C8.85297 19.821 8.55577 19.9734 8.43807 20.3845C7.6404 20.2777 6.8427 20.1716 6.04503 20.0661C5.9659 20.0178 6.02767 19.5778 5.57993 19.2285C5.9569 18.5158 6.33323 17.8024 6.7089 17.0883L6.71083 17.0902ZM7.76067 17.0227C7.7549 16.8837 8.2007 16.7043 8.2798 16.106H10.8581C10.8581 16.465 11.0935 16.7409 11.3502 16.9706C10.9115 17.8609 10.4728 18.7512 10.0341 19.6415C9.83527 19.3945 9.13667 19.6917 9.03823 19.5759C8.9456 19.4659 8.00963 17.3604 7.7626 17.0246L7.76067 17.0227ZM9.10387 21.7142C9.3972 21.8512 9.73493 21.8608 10.0341 21.7412C10.4721 22.3935 10.8176 23.1095 11.2441 23.7753C11.2441 23.8312 10.9083 24.1014 10.8581 24.4526C10.1653 24.3562 9.44543 24.3349 8.7584 24.2133C8.0135 24.0802 8.71017 24.0705 7.99997 23.2696C8.36793 22.7512 8.7359 22.2327 9.10387 21.7142ZM11.6011 17.0902C11.823 17.1559 12.1665 17.1867 12.3711 17.0902C12.402 17.1031 12.4329 17.1166 12.4637 17.1308C12.8973 18.0082 13.3315 18.8857 13.7664 19.7631C13.3245 20.0834 13.3167 20.5022 13.2743 20.5215H10.723C10.6786 20.2147 10.5204 19.9349 10.2579 19.7631C10.7056 18.8728 11.1534 17.9825 11.6011 17.0922V17.0902ZM13.9806 19.628L12.6509 16.9706C12.9269 16.7178 13.1218 16.492 13.1701 16.106H15.7484C15.8005 16.7351 16.2887 16.9436 16.2926 16.9957C15.8358 17.877 15.3798 18.7583 14.9243 19.6396C14.4264 19.408 14.0289 19.655 13.9806 19.6261V19.628ZM16.0282 23.2696C16.0301 23.3295 15.6403 23.5861 15.6287 24.1207C15.5612 24.2249 13.4557 24.4044 13.1701 24.4526C13.0832 24.0146 12.7802 23.8505 12.7841 23.7482C13.2009 23.0882 13.5541 22.3838 13.9941 21.7412C14.2469 21.8628 14.6522 21.8551 14.8973 21.7142C15.2743 22.2327 15.6506 22.7512 16.0263 23.2696H16.0282ZM16.5454 17.0902C16.7905 17.1752 17.0626 17.1597 17.3154 17.0902C17.7072 17.785 18.068 18.5183 18.4444 19.2305C18.4347 19.2768 17.9986 19.5315 18.0198 20.0275C17.9979 20.0403 17.9761 20.0539 17.9542 20.068C17.1655 20.1838 16.3768 20.299 15.5882 20.4135C15.4782 19.9291 15.1733 19.8384 15.1771 19.7361L16.5454 17.0922V17.0902ZM17.5431 16.9706C17.5431 16.903 17.9638 16.6367 18.0082 16.106H19.9747C20.0867 16.8645 20.6077 16.9918 20.6251 17.0497C20.2932 17.7187 19.9612 18.3877 19.6293 19.0568C19.06 18.8426 18.7184 19.0992 18.6721 19.0838C18.2842 18.3871 17.9368 17.6653 17.5431 16.9706ZM19.9477 15.8667H18.0333C17.987 15.8474 17.9812 15.3669 17.5412 15.0292C17.9272 14.3254 18.3125 13.621 18.6972 12.916C18.9828 13.0511 19.3186 13.0684 19.6004 12.916C19.6132 12.9288 19.6267 12.9423 19.6409 12.9565C19.969 13.6036 20.297 14.2501 20.6251 14.896C20.6212 14.979 20.0905 15.199 19.9477 15.8667ZM20.7988 9.61977C20.8432 9.6217 21.2369 10.2122 21.2909 10.2971C22.0435 11.4763 21.5186 10.741 21.2774 11.7195H20.2932C20.2333 11.6944 20.2526 11.0363 19.5347 10.7487C19.6454 10.3988 19.756 10.0488 19.8667 9.6989C20.1677 9.861 20.5248 9.83977 20.7969 9.61977H20.7988ZM17.8615 7.4815C17.8886 7.44867 18.2649 7.54516 18.5659 7.17656C18.7145 7.2827 19.6274 8.20326 19.6158 8.28043C19.5322 8.4091 19.4479 8.53777 19.363 8.66643C18.8625 8.52877 18.362 8.39173 17.8615 8.25537C17.8365 8.2129 17.9966 7.8578 17.8615 7.48533V7.4815ZM17.7149 8.4773C18.2681 8.62397 18.822 8.77 19.3765 8.91537C19.3225 9.2994 19.6389 9.4673 19.6428 9.57923C19.5142 9.9562 19.3855 10.3325 19.2568 10.7082C19.0703 10.7262 18.8844 10.7442 18.6991 10.7622C18.261 10.1215 17.8538 9.44993 17.41 8.80923C17.5116 8.69857 17.6132 8.58793 17.7149 8.4773ZM18.4733 10.8838C18.4752 10.9649 18.0951 11.1405 18.0082 11.6944C17.1977 11.5747 16.3871 11.4551 15.5766 11.3354C15.5824 10.961 15.4396 10.6387 15.125 10.4322C15.493 9.91373 15.8609 9.39527 16.2289 8.87677C16.2771 8.8652 16.6515 9.118 17.1591 8.9038C17.5978 9.5638 18.0365 10.2238 18.4752 10.8838H18.4733ZM15.6152 5.58056C15.6866 5.55163 16.9912 6.09006 17.051 6.1383C17.078 6.16146 17.1205 6.1962 17.1166 6.23093C16.8908 7.08393 17.0201 6.45867 16.1999 6.8292C16.1227 6.6941 15.4994 5.9183 15.4955 5.85846C15.4955 5.84303 15.6017 5.58443 15.6152 5.57863V5.58056ZM14.1794 6.00513C14.5094 6.23093 14.9648 6.28303 15.2948 6.03217C15.538 6.32357 15.7368 6.65163 15.9722 6.94883C15.9819 7.04533 15.702 7.20167 15.6403 7.57413C14.8207 7.46347 14.0012 7.35283 13.1816 7.2422C13.1759 7.0685 13.1392 6.88903 13.0485 6.73657C13.4255 6.4934 13.8018 6.2496 14.1775 6.00513H14.1794ZM12.1472 5.80636C12.1801 5.72146 12.7609 5.6848 12.8787 5.02283C13.2157 5.0666 13.5522 5.11097 13.888 5.156C13.9092 5.1811 13.7915 5.5034 14.0076 5.78126C13.6487 6.03346 13.2897 6.28626 12.9308 6.53973C12.5274 6.1113 12.0044 6.1827 12.1472 5.8083V5.80636ZM12.5062 8.34413C12.5757 8.3287 12.595 8.39237 12.6529 8.4638C12.7687 8.60853 13.4595 9.98643 13.7432 10.3512C13.7432 10.4207 13.3225 10.7121 13.2916 11.1752C12.4451 11.1881 11.5992 11.2016 10.7539 11.2158C10.6748 10.6503 10.2869 10.4226 10.2888 10.3512C10.6606 9.71303 11.0324 9.0749 11.4043 8.43677C11.5258 8.2959 12.0508 8.61623 12.5081 8.34413H12.5062ZM10.1402 5.156C10.337 5.14443 10.9141 5.02093 11.0183 5.02283C11.3406 5.0325 11.0627 5.25056 11.4178 5.55356C11.686 5.7832 12.0276 5.61917 11.8423 6.1113C11.5606 6.14023 11.3116 6.3004 11.1244 6.51077C10.7475 6.2676 10.3711 6.0238 9.99547 5.77937C10.1749 5.61723 10.1749 5.3741 10.1421 5.15407L10.1402 5.156ZM8.7584 6.03217C9.0537 6.2599 9.50527 6.24443 9.79477 6.00513C10.1884 6.2483 10.5828 6.4921 10.9778 6.73657C10.934 6.9051 10.8896 7.07363 10.8446 7.2422C10.016 7.35283 9.1875 7.46347 8.35893 7.57413C8.33383 7.3329 8.1949 7.13797 8.027 6.97587C8.1235 6.86393 8.6986 6.03603 8.7584 6.03217ZM6.95013 6.16533C7.14507 6.1248 8.30877 5.569 8.38597 5.58056C8.42457 5.58636 8.5384 5.84496 8.53263 5.8855C8.5249 5.94533 7.88807 6.70377 7.8012 6.8292C7.5561 6.61113 7.0698 6.7385 7.04277 6.70953C6.99903 6.541 6.95463 6.37246 6.9096 6.20393L6.95013 6.1634V6.16533ZM6.87103 8.92887C7.17013 9.00607 7.51173 9.03503 7.7742 8.84976L8.87807 10.3782C8.88963 10.494 8.43033 10.7179 8.4535 11.3084C7.64297 11.4461 6.83243 11.5831 6.02187 11.7195C5.93117 11.3354 5.8617 11.1714 5.5568 10.9089C5.97557 10.2431 6.404 9.56767 6.87293 8.92887H6.87103ZM5.4352 7.17463C5.75943 7.5336 6.16083 7.43903 6.16663 7.47957C6.09137 7.71887 6.09137 7.9794 6.16663 8.22447C5.65713 8.38017 5.14767 8.5352 4.63817 8.68957C4.56227 8.5339 4.487 8.37887 4.41237 8.22447C4.75333 7.87453 5.09427 7.5246 5.4352 7.17463ZM4.65167 8.9424C5.17017 8.7867 5.68867 8.63167 6.20713 8.4773C6.3712 8.46763 6.47927 8.7243 6.6182 8.83623C6.20137 9.4744 5.78517 10.1125 5.3696 10.7507L4.77133 10.7101C4.72503 10.5557 4.37957 9.61397 4.38537 9.55417C4.38923 9.5194 4.66327 9.30907 4.65167 8.9424ZM3.22938 9.61977C3.51693 9.83783 3.83727 9.85327 4.15957 9.6989L4.4915 10.7217C4.47993 10.8259 3.8701 10.9166 3.73307 11.7175H2.74884C2.71025 11.7002 2.7006 11.2331 2.28375 11.0401C2.59767 10.5667 2.91224 10.0926 3.22745 9.61783L3.22938 9.61977ZM2.72376 11.9588H3.73307C3.7736 11.9877 3.6964 12.4644 4.19817 12.7963L3.16183 14.8169C2.9444 14.8387 2.72762 14.8606 2.51147 14.8825C2.33907 14.1697 2.16603 13.4563 1.99234 12.7423C2.37445 12.6535 2.69095 12.366 2.72376 11.9588ZM1.75497 19.2285C1.72409 19.2826 1.63918 19.3192 1.58128 19.2941C1.46356 19.244 1.01004 17.098 1.02355 16.822C2.03673 16.6058 1.9962 15.3534 1.01004 15.1334C1.03127 14.8632 1.45005 12.7925 1.55426 12.7288C1.61216 12.694 1.72023 12.7307 1.75304 12.7944C1.80321 12.8928 2.11778 14.6316 2.25866 14.9481C2.2548 15.1237 1.84567 15.1951 1.78006 15.7722C1.72602 16.2565 1.83216 16.7004 2.25866 16.9687C2.15638 17.2659 1.81286 19.1282 1.75304 19.2285H1.75497ZM2.01936 19.2826C2.18275 18.5608 2.34679 17.839 2.51147 17.1173C2.7289 17.1301 2.94569 17.1436 3.16183 17.1578C3.4989 17.8307 3.83537 18.5042 4.17113 19.1783C4.17113 19.2594 3.7678 19.4678 3.73307 20.0159H2.72376C2.67551 19.9927 2.6813 19.3829 2.01936 19.2845V19.2826ZM4.15957 22.2719C3.80253 22.1561 3.5401 22.1407 3.22938 22.378C2.88779 21.94 2.60024 21.4575 2.3127 20.9828C2.30498 20.8766 2.66393 20.7647 2.75077 20.2513H3.735C3.79483 20.2784 3.69833 20.8998 4.49343 21.2472L4.1615 22.27L4.15957 22.2719ZM6.16663 24.4662C6.14347 24.5009 5.7575 24.4295 5.4352 24.8251C5.09427 24.4662 4.75333 24.1072 4.41237 23.7482C4.4883 23.6106 4.56357 23.4736 4.63817 23.3372C5.1515 23.4697 5.6655 23.6029 6.18013 23.7367C6.23417 23.7965 6.0296 24.1902 6.16663 24.4681V24.4662ZM6.28627 23.5225L4.65167 23.0574C4.69027 22.7775 4.50887 22.6116 4.38537 22.3935C4.47607 22.2526 4.6922 21.3205 4.77133 21.2896C4.94503 21.3243 5.22483 21.2356 5.24993 21.2356C5.35223 21.2394 5.32907 21.2394 5.3966 21.3012C5.4796 21.3765 6.39627 22.93 6.62013 23.1886L6.2882 23.5205L6.28627 23.5225ZM5.55487 21.1159C5.55293 21.0368 5.95627 20.8284 6.01997 20.3054C6.8305 20.416 7.64103 20.5267 8.45157 20.6373C8.4149 21.0368 8.61367 21.3359 8.90317 21.5945C8.5352 22.104 8.16723 22.6135 7.79927 23.123C7.73947 23.1384 7.36507 22.8817 6.8691 23.096C6.43037 22.4359 5.99163 21.7759 5.55293 21.1159H5.55487ZM8.38597 26.4192C8.3107 26.4481 7.0891 25.8537 6.91153 25.7939C7.1084 24.912 7.02153 25.5256 7.8012 25.1686C7.89963 25.2767 8.52683 26.0525 8.53263 26.1123C8.53263 26.1297 8.4014 26.4114 8.38597 26.4172V26.4192ZM9.87387 25.9946C9.81403 25.9985 9.42423 25.5527 8.7314 25.9406C8.49723 25.6344 8.26243 25.3288 8.027 25.0239C8.02313 24.9814 8.29717 24.7904 8.38597 24.3986C9.20163 24.4964 10.0167 24.5942 10.8311 24.6919L10.9778 25.2362C10.6098 25.4883 10.2418 25.7411 9.87387 25.9946ZM11.8809 26.2204C11.8558 26.2686 11.3058 26.2648 11.1495 26.9518C9.69633 26.7955 10.3795 26.9904 10.0205 26.1934C10.3795 25.9502 10.7384 25.7064 11.0974 25.462C11.4602 25.8479 12.0778 25.8286 11.8809 26.2204ZM11.495 23.6556C11.4731 23.6427 11.4512 23.6292 11.4293 23.6151C11.0485 22.9589 10.6677 22.3034 10.2869 21.6486C10.2791 21.5617 10.6613 21.2896 10.752 20.7589C11.6075 20.7718 12.4625 20.7853 13.3167 20.7994C13.3052 21.1352 13.5271 21.4112 13.7683 21.6235L12.5583 23.6305C12.5062 23.646 11.9736 23.3507 11.495 23.6575V23.6556ZM13.8339 26.8437C13.5059 26.8798 13.1778 26.9151 12.8497 26.9499C12.786 26.3053 12.1415 26.2455 12.1183 26.1914C11.96 25.8132 12.4869 25.8942 12.9018 25.487C13.2788 25.7302 13.6551 25.974 14.0308 26.2185C13.7992 26.4134 13.9189 26.8051 13.832 26.8437H13.8339ZM15.2968 25.9406C14.6097 25.5488 14.2353 26.0042 14.1543 25.9946C13.7953 25.7514 13.4364 25.5076 13.0774 25.2632L13.2241 24.6919C13.9948 24.5942 14.7654 24.4964 15.5361 24.3986C15.6924 24.3484 15.6827 24.7498 16.0012 25.0239C15.767 25.3301 15.5322 25.6356 15.2968 25.9406ZM15.6422 26.4192C15.621 26.4153 15.4936 26.1335 15.4955 26.1143C15.5013 26.0564 16.1266 25.3056 16.1999 25.1706C16.445 25.2921 16.7056 25.3558 16.97 25.2497C17.0098 25.4311 17.0497 25.6125 17.0896 25.7939C16.6071 26.0023 16.124 26.2107 15.6403 26.4192H15.6422ZM17.1572 23.096C16.8812 22.9724 16.5087 22.9724 16.254 23.15C15.877 22.6315 15.5007 22.113 15.125 21.5945C15.1212 21.5328 15.5766 21.2954 15.5766 20.6643C16.0147 20.5756 17.5431 20.3112 17.823 20.3054C17.8673 20.3054 18.0005 20.2938 18.0217 20.3189C18.0603 20.8843 18.4675 21.0445 18.4733 21.0889C18.0372 21.7566 17.6049 22.4321 17.1572 23.096ZM18.593 24.8251C18.4038 24.5916 18.1298 24.5453 17.8615 24.4662C17.9484 24.2539 17.9233 24.0088 17.8345 23.8023C17.9947 23.7116 19.2067 23.3391 19.2839 23.3372C19.3263 23.3372 19.3784 23.3295 19.4035 23.3507C19.4743 23.4832 19.545 23.6164 19.6158 23.7502C19.2748 24.1091 18.9339 24.4681 18.593 24.827V24.8251ZM19.336 23.0709C18.8046 23.2304 18.2733 23.3899 17.7419 23.5495L17.41 23.1905C17.8397 22.5395 18.2694 21.8885 18.6991 21.2375L19.2974 21.3031C19.4132 21.693 19.5283 22.0828 19.6428 22.4726C19.363 22.6675 19.4035 23.011 19.3379 23.0709H19.336ZM20.8258 22.378C20.7776 22.3896 20.4418 22.0172 19.8686 22.2989C19.8281 22.1349 19.527 21.3012 19.5637 21.2221C20.2835 20.921 20.2372 20.2803 20.2951 20.2513H21.2793C21.3565 20.5929 21.4318 20.7685 21.7444 20.9557C21.4382 21.4292 21.1327 21.9033 20.8277 22.378H20.8258ZM21.2774 20.014H20.2932C20.2488 19.4505 19.857 19.2594 19.8551 19.1764C20.1922 18.5035 20.5286 17.83 20.8644 17.1559C21.0728 17.134 21.2813 17.1121 21.4897 17.0902C21.5116 17.1031 21.5334 17.1166 21.5553 17.1308C21.7148 17.8397 21.8744 18.5486 22.0339 19.2575C22.0146 19.3115 21.4241 19.3115 21.2755 20.0159L21.2774 20.014ZM22.4469 19.2961C22.3851 19.3231 22.3021 19.2613 22.2732 19.2034C22.225 19.1031 21.9162 17.3624 21.7676 17.0246C21.7753 16.8934 22.2481 16.7332 22.2327 16.1079C22.36 16.5248 22.58 16.7487 23.0162 16.8394C23.0143 17.1115 22.5607 19.2459 22.445 19.298L22.4469 19.2961ZM22.2346 15.8937C22.2346 15.2549 21.7734 15.0735 21.7695 14.95C21.9123 14.7069 22.2365 12.7539 22.3407 12.7037C22.3793 12.6844 22.4527 12.7037 22.4874 12.7442C22.5685 12.8368 23.0278 14.842 23.0181 15.1372C22.5936 15.2318 22.335 15.4807 22.2346 15.8957V15.8937Z" fill="#FCFCFD"/>
</g>
<path d="M33.5459 7.5632H39.1779C39.8322 7.5632 40.4866 7.61297 41.1406 7.71254C41.8092 7.79787 42.4066 7.98277 42.9326 8.2672C43.4589 8.53744 43.8856 8.92144 44.2126 9.4192C44.5399 9.91697 44.7032 10.5783 44.7032 11.4032C44.7032 12.2565 44.4616 12.9676 43.9779 13.5365C43.5086 14.0912 42.8829 14.4894 42.1006 14.7312V14.7739C42.5986 14.845 43.0466 14.9872 43.4446 15.2005C43.8572 15.3996 44.2056 15.6628 44.4899 15.9899C44.7886 16.3028 45.0162 16.6725 45.1726 17.0992C45.3292 17.5259 45.4072 17.981 45.4072 18.4645C45.4072 19.261 45.2366 19.9294 44.8952 20.4699C44.5539 20.9961 44.1132 21.4228 43.5726 21.7499C43.0322 22.077 42.4206 22.3116 41.7379 22.4539C41.0696 22.5961 40.4012 22.6672 39.7326 22.6672H33.5459V7.5632ZM36.8739 13.6005H39.2846C39.5406 13.6005 39.7896 13.5721 40.0312 13.5152C40.2872 13.4583 40.5149 13.3659 40.7139 13.2379C40.9132 13.1099 41.0696 12.9392 41.1832 12.7259C41.3112 12.5125 41.3752 12.2565 41.3752 11.9579C41.3752 11.645 41.3042 11.389 41.1619 11.1899C41.0339 10.9765 40.8632 10.813 40.6499 10.6992C40.4366 10.5854 40.1949 10.5072 39.9246 10.4645C39.6546 10.4076 39.3912 10.3792 39.1352 10.3792H36.8739V13.6005ZM36.8739 19.8512H39.8606C40.1166 19.8512 40.3726 19.8228 40.6286 19.7659C40.8989 19.709 41.1406 19.6094 41.3539 19.4672C41.5672 19.325 41.7379 19.1401 41.8659 18.9125C42.0082 18.685 42.0792 18.4076 42.0792 18.0805C42.0792 17.725 41.9869 17.4405 41.8019 17.2272C41.6312 16.9996 41.4109 16.829 41.1406 16.7152C40.8706 16.6014 40.5789 16.5232 40.2659 16.4805C39.9532 16.4379 39.6616 16.4165 39.3912 16.4165H36.8739V19.8512ZM56.7872 20.8752C56.2752 21.5294 55.6282 22.0343 54.8459 22.3899C54.0639 22.7454 53.2532 22.9232 52.4139 22.9232C51.6176 22.9232 50.8639 22.7952 50.1526 22.5392C49.4559 22.2832 48.8442 21.9205 48.3179 21.4512C47.8059 20.9676 47.4006 20.3916 47.1019 19.7232C46.8032 19.0548 46.6539 18.3081 46.6539 17.4832C46.6539 16.6583 46.8032 15.9116 47.1019 15.2432C47.4006 14.5748 47.8059 14.0059 48.3179 13.5365C48.8442 13.053 49.4559 12.6832 50.1526 12.4272C50.8639 12.1712 51.6176 12.0432 52.4139 12.0432C53.1536 12.0432 53.8219 12.1712 54.4192 12.4272C55.0309 12.6832 55.5429 13.053 55.9552 13.5365C56.3819 14.0059 56.7092 14.5748 56.9366 15.2432C57.1642 15.9116 57.2779 16.6583 57.2779 17.4832V18.4859H49.8539C49.9819 19.0974 50.2592 19.5881 50.6859 19.9579C51.1126 20.3134 51.6389 20.4912 52.2646 20.4912C52.7909 20.4912 53.2319 20.3774 53.5872 20.1499C53.9572 19.9081 54.2772 19.6023 54.5472 19.2325L56.7872 20.8752ZM54.0779 16.3099C54.0922 15.7694 53.9146 15.3072 53.5446 14.9232C53.1749 14.5392 52.6986 14.3472 52.1152 14.3472C51.7599 14.3472 51.4469 14.4041 51.1766 14.5179C50.9066 14.6316 50.6719 14.781 50.4726 14.9659C50.2879 15.1365 50.1386 15.3428 50.0246 15.5845C49.9252 15.8121 49.8682 16.0539 49.8539 16.3099H54.0779ZM65.0906 15.3499C64.6212 14.7668 64.0026 14.4752 63.2346 14.4752C62.9646 14.4752 62.7012 14.5392 62.4452 14.6672C62.1892 14.7952 62.0612 15.0156 62.0612 15.3285C62.0612 15.5845 62.1892 15.7765 62.4452 15.9045C62.7156 16.0183 63.0499 16.125 63.4479 16.2245C63.8606 16.3099 64.2942 16.4094 64.7492 16.5232C65.2186 16.6228 65.6526 16.7863 66.0506 17.0139C66.4632 17.2414 66.7972 17.5543 67.0532 17.9525C67.3236 18.3365 67.4586 18.8556 67.4586 19.5099C67.4586 20.1783 67.3092 20.733 67.0106 21.1739C66.7262 21.6005 66.3566 21.949 65.9012 22.2192C65.4462 22.4752 64.9342 22.653 64.3652 22.7525C63.7966 22.8663 63.2346 22.9232 62.6799 22.9232C61.9546 22.9232 61.2222 22.8236 60.4826 22.6245C59.7432 22.4112 59.1172 22.0414 58.6052 21.5152L60.5466 19.3605C60.8452 19.7303 61.1726 20.0148 61.5279 20.2139C61.8979 20.3988 62.3246 20.4912 62.8079 20.4912C63.1779 20.4912 63.5119 20.4414 63.8106 20.3419C64.1092 20.2281 64.2586 20.029 64.2586 19.7445C64.2586 19.4743 64.1236 19.2752 63.8532 19.1472C63.5972 19.005 63.2632 18.8912 62.8506 18.8059C62.4526 18.7063 62.0186 18.6068 61.5492 18.5072C61.0942 18.3934 60.6606 18.2299 60.2479 18.0165C59.8499 17.8032 59.5156 17.5045 59.2452 17.1205C58.9892 16.7223 58.8612 16.1961 58.8612 15.5419C58.8612 14.9303 58.9822 14.4041 59.2239 13.9632C59.4799 13.5223 59.8072 13.1596 60.2052 12.8752C60.6179 12.5908 61.0872 12.3845 61.6132 12.2565C62.1396 12.1143 62.6729 12.0432 63.2132 12.0432C63.8959 12.0432 64.5859 12.1428 65.2826 12.3419C65.9796 12.541 66.5699 12.8965 67.0532 13.4085L65.0906 15.3499ZM76.1602 14.8592H73.3442V18.3152C73.3442 18.5996 73.3586 18.8628 73.3869 19.1045C73.4156 19.3321 73.4796 19.5312 73.5789 19.7019C73.6786 19.8725 73.8279 20.0076 74.0269 20.1072C74.2402 20.1925 74.5176 20.2352 74.8589 20.2352C75.0296 20.2352 75.2502 20.221 75.5202 20.1925C75.8049 20.1499 76.0182 20.0645 76.1602 19.9365V22.6032C75.8049 22.7312 75.4349 22.8165 75.0509 22.8592C74.6669 22.9019 74.2902 22.9232 73.9202 22.9232C73.3799 22.9232 72.8822 22.8663 72.4269 22.7525C71.9719 22.6388 71.5736 22.461 71.2322 22.2192C70.8909 21.9632 70.6209 21.6361 70.4216 21.2379C70.2369 20.8396 70.1442 20.3561 70.1442 19.7872V14.8592H68.0962V12.2992H70.1442V9.2272H73.3442V12.2992H76.1602V14.8592ZM77.8292 12.2992H81.0292V22.6672H77.8292V12.2992ZM77.5732 9.0352C77.5732 8.5232 77.7509 8.08944 78.1066 7.73387C78.4762 7.3641 78.9172 7.1792 79.4292 7.1792C79.9412 7.1792 80.3749 7.3641 80.7306 7.73387C81.1002 8.08944 81.2852 8.5232 81.2852 9.0352C81.2852 9.5472 81.1002 9.9881 80.7306 10.3579C80.3749 10.7134 79.9412 10.8912 79.4292 10.8912C78.9172 10.8912 78.4762 10.7134 78.1066 10.3579C77.7509 9.9881 77.5732 9.5472 77.5732 9.0352ZM83.3282 12.2992H86.4002V13.7072H86.4429C86.5422 13.5081 86.6846 13.309 86.8696 13.1099C87.0542 12.9108 87.2749 12.733 87.5309 12.5765C87.7869 12.4201 88.0782 12.2921 88.4056 12.1925C88.7326 12.093 89.0882 12.0432 89.4722 12.0432C90.2829 12.0432 90.9369 12.1712 91.4349 12.4272C91.9326 12.669 92.3166 13.0103 92.5869 13.4512C92.8712 13.8921 93.0632 14.4112 93.1629 15.0085C93.2622 15.6059 93.3122 16.253 93.3122 16.9499V22.6672H90.1122V17.5899C90.1122 17.2912 90.0979 16.9854 90.0696 16.6725C90.0552 16.3454 89.9912 16.0468 89.8776 15.7765C89.7779 15.5063 89.6142 15.2859 89.3869 15.1152C89.1736 14.9445 88.8606 14.8592 88.4482 14.8592C88.0356 14.8592 87.7016 14.9374 87.4456 15.0939C87.1896 15.2361 86.9902 15.4352 86.8482 15.6912C86.7202 15.933 86.6349 16.2103 86.5922 16.5232C86.5496 16.8361 86.5282 17.1632 86.5282 17.5045V22.6672H83.3282V12.2992ZM96.6876 14.8592H94.5756V12.2992H96.6876V10.4645C96.6876 9.89564 96.7372 9.3623 96.8369 8.86454C96.9362 8.35254 97.1282 7.90454 97.4129 7.52054C97.6972 7.13654 98.1026 6.83787 98.6289 6.62454C99.1692 6.39697 99.8732 6.2832 100.741 6.2832C101.068 6.2832 101.388 6.29744 101.701 6.32587C102.014 6.3543 102.32 6.4041 102.618 6.4752L102.469 9.18454C102.284 9.11344 102.113 9.06364 101.957 9.0352C101.8 8.99254 101.623 8.9712 101.424 8.9712C100.912 8.9712 100.528 9.08497 100.272 9.31254C100.016 9.52587 99.8876 9.97387 99.8876 10.6565V12.2992H102.256V14.8592H99.8876V22.6672H96.6876V14.8592ZM103.09 17.4832C103.09 16.6583 103.239 15.9116 103.538 15.2432C103.837 14.5748 104.242 14.0059 104.754 13.5365C105.28 13.053 105.892 12.6832 106.589 12.4272C107.3 12.1712 108.054 12.0432 108.85 12.0432C109.647 12.0432 110.393 12.1712 111.09 12.4272C111.801 12.6832 112.413 13.053 112.925 13.5365C113.451 14.0059 113.863 14.5748 114.162 15.2432C114.461 15.9116 114.61 16.6583 114.61 17.4832C114.61 18.3081 114.461 19.0548 114.162 19.7232C113.863 20.3916 113.451 20.9676 112.925 21.4512C112.413 21.9205 111.801 22.2832 111.09 22.5392C110.393 22.7952 109.647 22.9232 108.85 22.9232C108.054 22.9232 107.3 22.7952 106.589 22.5392C105.892 22.2832 105.28 21.9205 104.754 21.4512C104.242 20.9676 103.837 20.3916 103.538 19.7232C103.239 19.0548 103.09 18.3081 103.09 17.4832ZM106.29 17.4832C106.29 18.2654 106.511 18.8983 106.951 19.3819C107.407 19.8654 108.039 20.1072 108.85 20.1072C109.661 20.1072 110.287 19.8654 110.727 19.3819C111.183 18.8983 111.41 18.2654 111.41 17.4832C111.41 16.701 111.183 16.0681 110.727 15.5845C110.287 15.101 109.661 14.8592 108.85 14.8592C108.039 14.8592 107.407 15.101 106.951 15.5845C106.511 16.0681 106.29 16.701 106.29 17.4832ZM116.495 12.2992H119.695V13.9632H119.738C120.079 13.3232 120.484 12.8468 120.954 12.5339C121.423 12.2068 122.013 12.0432 122.724 12.0432C122.909 12.0432 123.094 12.0503 123.279 12.0645C123.464 12.0788 123.634 12.1072 123.791 12.1499V15.0725C123.563 15.0014 123.336 14.9516 123.108 14.9232C122.895 14.8805 122.667 14.8592 122.426 14.8592C121.814 14.8592 121.33 14.9445 120.975 15.1152C120.619 15.2859 120.342 15.5276 120.143 15.8405C119.958 16.1392 119.837 16.5019 119.78 16.9285C119.723 17.3552 119.695 17.8245 119.695 18.3365V22.6672H116.495V12.2992ZM125.557 12.2992H128.629V13.7072H128.672C128.772 13.5081 128.914 13.309 129.099 13.1099C129.284 12.9108 129.504 12.733 129.76 12.5765C130.016 12.4201 130.308 12.2921 130.635 12.1925C130.962 12.093 131.317 12.0432 131.701 12.0432C132.427 12.0432 133.067 12.1925 133.621 12.4912C134.19 12.7899 134.617 13.2592 134.901 13.8992C135.271 13.2308 135.719 12.7543 136.245 12.4699C136.772 12.1854 137.419 12.0432 138.187 12.0432C138.884 12.0432 139.467 12.1641 139.936 12.4059C140.42 12.6334 140.797 12.9534 141.067 13.3659C141.351 13.7641 141.55 14.2405 141.664 14.7952C141.792 15.3356 141.856 15.9188 141.856 16.5445V22.6672H138.656V16.6299C138.656 16.1463 138.549 15.7339 138.336 15.3925C138.137 15.037 137.774 14.8592 137.248 14.8592C136.878 14.8592 136.565 14.9232 136.309 15.0512C136.068 15.165 135.869 15.3285 135.712 15.5419C135.57 15.7552 135.463 16.0041 135.392 16.2885C135.335 16.573 135.307 16.8716 135.307 17.1845V22.6672H132.107V17.1845C132.107 16.9996 132.1 16.7721 132.085 16.5019C132.071 16.2316 132.021 15.9756 131.936 15.7339C131.851 15.4921 131.709 15.2859 131.509 15.1152C131.325 14.9445 131.047 14.8592 130.677 14.8592C130.265 14.8592 129.931 14.9374 129.675 15.0939C129.419 15.2361 129.22 15.4352 129.077 15.6912C128.949 15.933 128.864 16.2103 128.821 16.5232C128.779 16.8361 128.757 17.1632 128.757 17.5045V22.6672H125.557V12.2992Z" fill="#FCFCFD"/>
</svg>
