<svg width="32" height="32" viewBox="0 0 32 32" fill="none" xmlns="http://www.w3.org/2000/svg">
<g clip-path="url(#clip0_28_46)">
<path d="M25.0825 28.9883C24.8001 28.9883 24.6119 29.1766 24.6119 29.4589V30.5883H1.41188V1.41188H17.1766V8.98835C17.1766 9.2707 17.3648 9.45894 17.6472 9.45894H24.6589V13.8825C24.6589 14.1648 24.8472 14.3531 25.1295 14.3531C25.4119 14.3531 25.6001 14.1648 25.6001 13.8825V8.98835C25.6001 8.89423 25.5531 8.75306 25.4589 8.65894L17.9766 0.61188C17.8825 0.517762 17.7413 0.470703 17.6001 0.470703H0.941291C0.658938 0.470703 0.470703 0.658938 0.470703 0.941291V31.0589C0.470703 31.3413 0.658938 31.5295 0.941291 31.5295H25.0825C25.3648 31.5295 25.5531 31.3413 25.5531 31.0589V29.4589C25.5531 29.2236 25.3648 28.9883 25.0825 28.9883ZM18.1178 8.51776V2.11776L24.0001 8.51776H18.1178Z" fill="#052BA6"/>
<path d="M3.38856 20.894H15.6239C15.9062 20.894 16.0944 20.7058 16.0944 20.4235C16.0944 20.1411 15.9062 19.9529 15.6239 19.9529H3.38856C3.1062 19.9529 2.91797 20.1411 2.91797 20.4235C2.91797 20.6587 3.1062 20.894 3.38856 20.894ZM3.38856 24.2823H16.0944C16.3768 24.2823 16.565 24.094 16.565 23.8117C16.565 23.5293 16.3768 23.3411 16.0944 23.3411H3.38856C3.1062 23.3411 2.91797 23.5293 2.91797 23.8117C2.91797 24.094 3.1062 24.2823 3.38856 24.2823ZM3.38856 27.6705H17.5062C17.7886 27.6705 17.9768 27.4823 17.9768 27.1999C17.9768 26.9176 17.7886 26.7293 17.5062 26.7293H3.38856C3.1062 26.7293 2.91797 26.9176 2.91797 27.1999C2.91797 27.4823 3.1062 27.6705 3.38856 27.6705ZM19.8591 13.3646C19.8591 13.0823 19.6709 12.894 19.3886 12.894H3.38856C3.1062 12.894 2.91797 13.0823 2.91797 13.3646C2.91797 13.647 3.1062 13.8352 3.38856 13.8352H19.3886C19.6709 13.8352 19.8591 13.5999 19.8591 13.3646ZM3.38856 17.2235H16.565C16.8474 17.2235 17.0356 17.0352 17.0356 16.7529C17.0356 16.4705 16.8474 16.2823 16.565 16.2823H3.38856C3.1062 16.2823 2.91797 16.4705 2.91797 16.7529C2.91797 17.0352 3.1062 17.2235 3.38856 17.2235ZM31.3886 21.2235L30.2121 20.094L30.6356 18.5411C30.6827 18.3058 30.5415 18.0235 30.3062 17.9764L28.8944 17.5999L28.565 16.1882C28.518 16.047 28.4709 15.9529 28.3768 15.9058C28.2827 15.8587 28.1415 15.8117 28.0003 15.8587L26.2121 16.2352L24.8944 14.9646C24.8003 14.8705 24.6591 14.8235 24.565 14.8235C24.4239 14.8235 24.3297 14.8705 24.2356 14.9646L23.0591 16.094L21.5062 15.6705C21.365 15.6235 21.2709 15.6705 21.1297 15.7176C21.0356 15.7646 20.9415 15.9058 20.8944 15.9999L20.518 17.4117L19.1062 17.7411C18.8709 17.7882 18.6827 18.0705 18.7297 18.3058L19.1062 20.1411L17.8827 21.4587C17.6944 21.647 17.6944 21.9293 17.8827 22.1176L19.0591 23.247L18.6356 24.7999C18.5886 25.0352 18.7297 25.3176 18.965 25.3646L20.3768 25.7411L20.7062 27.1529C20.7533 27.294 20.8003 27.3882 20.8944 27.4352C20.9886 27.4823 21.1297 27.5293 21.2709 27.4823L23.0591 27.1058L24.3768 28.3764C24.4709 28.4705 24.565 28.5176 24.7062 28.5176C24.8474 28.5176 24.9415 28.4705 25.0356 28.3764L26.165 27.1999L27.718 27.6235C27.8591 27.6705 27.9533 27.6235 28.0944 27.5764C28.1886 27.5293 28.2827 27.3882 28.3297 27.294L28.7062 25.8823L30.118 25.5529C30.3533 25.5058 30.5415 25.2235 30.4944 24.9882L30.118 23.1999L31.3886 21.8823C31.5768 21.694 31.5768 21.4117 31.3886 21.2235ZM29.2709 22.7293C29.1768 22.8235 29.1297 23.0117 29.1297 23.1529L29.4591 24.7529L28.2356 25.0352C28.0474 25.0823 27.9062 25.2235 27.8591 25.3646L27.5297 26.5882L26.165 26.2117C26.0238 26.1646 25.8356 26.2117 25.6944 26.3529L24.7062 27.3882L23.5297 26.2587C23.4356 26.1646 23.3415 26.1176 23.2003 26.1176H23.1062L21.5062 26.447L21.2239 25.1764C21.1768 24.9882 21.0356 24.847 20.8944 24.7999L19.6709 24.4705L20.0474 23.1058C20.0944 22.9646 20.0474 22.7764 19.9062 22.6352L18.8709 21.647L20.0003 20.4705C20.0944 20.3764 20.1415 20.1882 20.1415 20.047L19.765 18.5882L20.9886 18.3058C21.1768 18.2587 21.318 18.1176 21.365 17.9764L21.6944 16.7529L23.0591 17.1293C23.2003 17.1764 23.3886 17.1293 23.5297 16.9882L24.518 15.9529L25.6944 17.0823C25.7886 17.1764 25.9768 17.2235 26.118 17.2235L27.718 16.894L28.0003 18.1646C28.0474 18.3529 28.1886 18.494 28.3297 18.5411L29.5533 18.8705L29.1768 20.2352C29.1297 20.3764 29.1768 20.5646 29.318 20.7058L30.3533 21.694L29.2709 22.7293Z" fill="#052BA6"/>
<path d="M27.5768 19.5763L23.8592 23.1057L22.4004 21.3645C22.2592 21.1763 21.9298 21.1292 21.7416 21.3175C21.5533 21.5057 21.5063 21.7881 21.6945 21.9763L23.4827 24.141C23.5768 24.2351 23.671 24.2822 23.8121 24.3292H23.8592C24.0004 24.3292 24.0945 24.2822 24.1886 24.1881L28.2827 20.2822C28.471 20.0939 28.471 19.8116 28.2827 19.6233C28.0474 19.4351 27.7651 19.3881 27.5768 19.5763ZM14.4474 9.59982C14.7298 9.59982 14.918 9.41158 14.918 9.12923V4.51746C14.918 4.23511 14.7298 4.04688 14.4474 4.04688H3.62391C3.34156 4.04688 3.15332 4.23511 3.15332 4.51746V9.08217C3.15332 9.36452 3.34156 9.55276 3.62391 9.55276H14.4474V9.59982ZM4.0945 4.98805H13.9768V8.61158H4.0945V4.98805Z" fill="#052BA6"/>
</g>
<defs>
<clipPath id="clip0_28_46">
<rect width="32" height="32" fill="white"/>
</clipPath>
</defs>
</svg>
