<svg width="32" height="32" viewBox="0 0 32 32" fill="none" xmlns="http://www.w3.org/2000/svg">
<path d="M20.8706 20.3725C20.6123 20.3706 20.0892 20.3687 19.5573 20.3668C18.998 20.365 18.4287 20.3631 18.1478 20.3608H18.1452C17.9674 20.3608 17.8227 20.5041 17.8213 20.6822C17.8199 20.8609 17.9636 21.007 18.1425 21.0086C18.4241 21.0108 18.9945 21.0127 19.5551 21.0146C20.0859 21.0165 20.6079 21.0184 20.8655 21.0203H20.868C21.0458 21.0203 21.1905 20.877 21.1919 20.6989C21.1933 20.5199 21.0494 20.3738 20.8706 20.3725Z" fill="#052BA6"/>
<path d="M28.7557 17.3253C28.8638 17.1093 29.011 16.7798 29.0435 16.4148C29.0782 16.0264 28.9716 15.6526 28.751 15.3892C28.3329 14.8907 27.6273 14.8594 27.1145 15.0492C26.8526 15.1461 26.6243 15.2927 26.4168 15.4559C26.4164 15.1518 26.416 14.8364 26.4157 14.5135C27.4214 14.0005 28.2507 13.1712 28.7557 12.1604C28.8638 11.9444 29.011 11.6152 29.0435 11.2496C29.0782 10.8609 28.9716 10.4874 28.7512 10.2242C28.3332 9.72548 27.6283 9.69417 27.1145 9.88424C26.8515 9.98162 26.6225 10.129 26.4143 10.2932C26.4144 9.97493 26.4146 9.65962 26.4148 9.34869C27.4208 8.83606 28.2504 8.0065 28.7557 6.99516C28.8638 6.77915 29.011 6.4496 29.0435 6.08463C29.0782 5.69594 28.9716 5.32211 28.7512 5.0593C28.3332 4.56054 27.6283 4.52923 27.1145 4.71931C26.8552 4.81526 26.6284 4.95991 26.4224 5.12144C26.4251 4.37909 26.4284 3.85274 26.4325 3.66045C26.4533 2.78218 26.4317 1.93744 25.9453 1.2543C25.626 0.805838 25.106 0.469964 24.4816 0.308985C23.9559 0.172674 23.4213 0.166665 22.8795 0.160656C22.2282 0.155596 20.8956 0.151168 19.5526 0.14674C18.192 0.142313 16.8208 0.137885 16.1375 0.132509C15.582 0.127448 14.8883 0.122704 14.3269 0.494633C13.8909 0.779588 13.5712 1.27992 13.4262 1.90423C13.3052 2.43745 13.3193 2.98649 13.3318 3.47006C13.3413 3.89591 13.348 5.25807 13.3521 7.02062C12.935 6.31997 12.4273 6.14357 12.025 6.0062C11.9575 5.98311 11.8912 5.96065 11.827 5.93567C11.1641 5.67854 10.4634 6.00714 10.063 6.44707C9.65583 6.89427 9.46639 7.46861 9.3209 7.9721C8.67288 10.2132 8.44627 12.5659 8.22726 14.8408C8.16843 15.4508 8.10977 16.0606 8.04319 16.6685C7.90666 17.9154 7.72068 19.2507 7.41001 20.5791C7.11007 20.3953 6.74198 20.224 6.33994 20.2385C5.98636 20.2495 5.62328 20.4061 5.31809 20.6797C5.0695 20.9017 4.88876 21.1667 4.70406 21.4374C4.49026 21.7534 4.27315 22.0893 4.05413 22.428C3.83211 22.7718 3.6082 23.1184 3.38333 23.4501C3.20053 23.7209 2.95005 24.0912 2.94926 24.5248C2.94641 24.8651 3.09933 25.2165 3.38112 25.5157C3.61199 25.7583 3.89252 25.9354 4.13952 26.091C4.87595 26.5578 11.2108 30.7755 11.9296 31.2777C12.1684 31.446 12.4391 31.6364 12.7556 31.7569C12.9551 31.8318 13.1545 31.8691 13.3436 31.8691C13.5181 31.8691 13.6838 31.8372 13.8326 31.7736C14.2352 31.6041 14.4798 31.2303 14.6584 30.9573C14.8747 30.6272 15.0909 30.2824 15.3053 29.9406C15.5227 29.5939 15.7384 29.2498 15.9508 28.9269L15.9585 28.9149C16.1284 28.6537 16.3041 28.3839 16.4136 28.0676C16.5484 27.6805 16.5528 27.2852 16.4263 26.9541C16.2917 26.6031 16.0251 26.3429 15.7609 26.1435C17.0544 24.6024 18.7644 23.4137 20.6851 22.7787C20.6877 22.7778 20.6893 22.7758 20.6919 22.7749C21.6045 22.7717 22.4149 22.7688 22.8789 22.7661L22.9044 22.7657C23.4213 22.7601 23.9559 22.754 24.4811 22.6181C25.106 22.4568 25.626 22.1209 25.9454 21.6721C26.357 21.092 26.4348 20.3979 26.4367 19.6672C27.4327 19.1538 28.2541 18.3293 28.7557 17.3253ZM27.3394 10.4915C27.6398 10.3811 28.0498 10.396 28.2548 10.6404C28.3655 10.7726 28.4178 10.9735 28.3984 11.192C28.3808 11.3894 28.3123 11.5987 28.1763 11.8707C27.7829 12.6581 27.1656 13.3206 26.415 13.7749C26.4143 12.9262 26.414 12.0404 26.4141 11.1576C26.6979 10.887 26.9931 10.6199 27.3394 10.4915ZM27.3394 5.32654C27.6398 5.21616 28.0498 5.23103 28.2548 5.4755C28.3655 5.6077 28.4178 5.80853 28.3984 6.02707C28.3808 6.2241 28.3123 6.43347 28.1763 6.70578C27.783 7.49328 27.1659 8.15554 26.4154 8.60954C26.4164 7.64635 26.4178 6.74926 26.4197 5.98698C26.702 5.71831 26.9959 5.45376 27.3394 5.32654ZM13.7964 28.295C13.7684 28.5929 13.5397 28.8697 13.2526 28.9532C12.8696 29.0639 12.5576 28.8362 12.4078 28.6059C12.2538 28.3693 12.1793 28.0094 12.432 27.709C12.584 27.5287 12.7785 27.462 12.9654 27.462C13.0841 27.462 13.2001 27.4889 13.2997 27.5306C13.5519 27.6362 13.8334 27.9 13.7964 28.295ZM10.0765 27.1109C10.0132 27.1745 9.93003 27.2064 9.84685 27.2064C9.76431 27.2064 9.68161 27.1751 9.61851 27.1122L9.52553 27.0192C9.39934 26.8924 9.39997 26.6874 9.52679 26.5613C9.6533 26.4347 9.85856 26.4357 9.98475 26.5625L10.0752 26.653C10.202 26.7792 10.2027 26.9841 10.0765 27.1109ZM8.58195 25.3585C8.7249 25.466 8.75384 25.6691 8.64647 25.812C8.58274 25.8968 8.48565 25.9414 8.38713 25.9414C8.31945 25.9414 8.25129 25.9202 8.19294 25.8765L5.40506 23.7829C5.26211 23.6753 5.23317 23.4723 5.34054 23.3293C5.44807 23.1864 5.6508 23.1576 5.79407 23.2648L8.58195 25.3585ZM15.2216 25.7822C14.2199 25.1287 9.20454 21.7897 7.98476 20.9648C8.33738 19.5279 8.53993 18.0825 8.68711 16.7387C8.754 16.1283 8.81298 15.5157 8.87197 14.9027C9.08829 12.6573 9.31189 10.3352 9.943 8.15206C10.0684 7.71877 10.2284 7.22761 10.542 6.88288C10.7855 6.61564 11.2183 6.3952 11.5925 6.53942C11.6649 6.56757 11.7395 6.59318 11.8158 6.61943C12.3351 6.79654 12.8256 6.96416 13.1756 8.3279C13.2892 8.77048 13.3371 9.30817 13.3561 9.88211C13.3567 10.6288 13.3568 11.3928 13.3566 12.15C13.3566 12.1632 13.3563 12.1769 13.3563 12.1901L13.3566 12.1915C13.3555 15.5593 13.3473 18.7593 13.3318 19.4557C13.3193 19.9402 13.3052 20.4893 13.4265 21.0244C13.5714 21.6471 13.8911 22.1471 14.3253 22.4311C14.8279 22.7642 15.4346 22.7955 15.9555 22.7955C16.0175 22.7955 16.0784 22.7948 16.1375 22.7945C16.727 22.7899 17.8288 22.7853 18.9938 22.781C17.544 23.5053 16.2551 24.5364 15.2216 25.7822ZM25.4174 21.2967C25.1865 21.6212 24.7966 21.8676 24.319 21.9909C23.8698 22.1073 23.3974 22.1127 22.8972 22.118C22.8972 22.118 22.8784 22.1184 22.8742 22.1184C22.3316 22.1215 21.3172 22.125 20.218 22.1288C18.6586 22.1345 16.9287 22.1405 16.1326 22.1468C15.6383 22.1484 15.0807 22.1544 14.6814 21.89C14.3859 21.6968 14.1642 21.3372 14.0578 20.8795C13.9548 20.4251 13.9678 19.9187 13.9792 19.4712C13.9948 18.772 14.0031 15.5581 14.0041 12.1788C14.0042 11.9284 14.0069 11.673 14.0097 11.4166C14.0154 10.9004 14.0199 10.3775 14.0036 9.87468C14.0015 6.83078 13.9934 4.0935 13.9792 3.45456C13.9678 3.008 13.9548 2.50165 14.0575 2.04939C14.1642 1.58954 14.3857 1.22995 14.683 1.03576C15.0219 0.811214 15.4588 0.779588 15.9898 0.779588C16.0366 0.779588 16.0842 0.779904 16.1325 0.78022C16.8164 0.785597 18.1888 0.790025 19.5505 0.794452C20.8923 0.79888 22.2238 0.803308 22.8972 0.808684C23.3974 0.814061 23.8698 0.819437 24.3195 0.93614C24.7966 1.05917 25.1865 1.30554 25.4176 1.63003C25.7885 2.15092 25.8031 2.88054 25.7849 3.6459C25.7604 4.81514 25.7604 18.1116 25.7851 19.2814C25.8031 20.0452 25.7885 20.7739 25.4174 21.2967ZM26.4285 18.9313C26.4241 18.4247 26.4208 17.4879 26.4184 16.3185C26.7008 16.0494 26.9949 15.7841 27.3392 15.6564C27.6392 15.5457 28.0503 15.5612 28.2546 15.8051C28.3655 15.9376 28.4178 16.1387 28.3984 16.3573C28.3808 16.5543 28.3123 16.7637 28.1763 17.036C27.7853 17.8188 27.1729 18.4775 26.4285 18.9313Z" fill="#052BA6"/>
<path d="M17.9995 2.36353C18.272 2.36543 18.8153 2.36733 19.3582 2.36923C19.9074 2.37112 20.4559 2.3727 20.7222 2.37492H20.7248C20.9025 2.37492 21.0472 2.23165 21.0486 2.05359C21.05 1.87459 20.9061 1.72847 20.7273 1.72721C20.4604 1.72499 19.9107 1.72341 19.3604 1.72151C18.8186 1.71962 18.2764 1.71772 18.0042 1.71582H18.0019C17.8241 1.71582 17.6794 1.85909 17.678 2.03715C17.6768 2.21615 17.8207 2.36227 17.9995 2.36353ZM21.8026 2.37397H22.0895C22.2683 2.37397 22.4133 2.22912 22.4133 2.05011C22.4133 1.87111 22.2683 1.72626 22.0895 1.72626H21.8026C21.6237 1.72626 21.4787 1.87111 21.4787 2.05011C21.4787 2.22912 21.6237 2.37397 21.8026 2.37397ZM21.4017 6.98038C19.6431 6.24475 17.7601 6.65589 16.6048 8.02912C15.4332 9.42163 15.3569 11.3676 16.4104 12.9863C17.2493 14.2754 18.5621 14.9999 19.9449 14.9999C20.319 14.9999 20.6984 14.9468 21.0747 14.8374C22.6845 14.3702 23.9179 12.8784 24.0743 11.2092C24.2446 9.39127 23.1956 7.73119 21.4017 6.98038ZM19.2116 12.5125C19.2019 12.5134 19.1923 12.5138 19.1827 12.5138C19.1056 12.5138 19.0307 12.4862 18.9717 12.4356C18.8382 12.3212 18.6475 12.1406 18.4568 11.9597C18.2735 11.7857 18.0903 11.6118 17.9622 11.5017C17.8263 11.3853 17.8107 11.181 17.9271 11.0453C18.0436 10.9093 18.2484 10.8939 18.3838 11.0102C18.518 11.1254 18.7105 11.3075 18.9026 11.4897C18.9864 11.5691 19.0704 11.6488 19.1488 11.7222C19.4578 11.3531 19.7799 10.9897 20.0932 10.6358C20.4765 10.2028 20.8728 9.75529 21.2374 9.30651C21.3502 9.16799 21.5543 9.14712 21.693 9.25939C21.8317 9.3723 21.8529 9.57629 21.74 9.71513C21.3668 10.1743 20.9659 10.6272 20.5782 11.065C20.1949 11.4979 19.7986 11.9454 19.4339 12.3942C19.3789 12.4619 19.2987 12.5046 19.2116 12.5125ZM7.64101 7.93866C7.46754 7.89565 7.29185 8.00255 7.24932 8.17618C6.78093 10.0867 6.51305 12.053 6.45327 14.0201C6.4479 14.1988 6.58832 14.3481 6.76717 14.3538C6.77049 14.3538 6.77381 14.3538 6.77713 14.3538C6.95139 14.3538 7.09529 14.2153 7.10067 14.0397C7.15902 12.1178 7.42073 10.1968 7.87837 8.33052C7.92091 8.15689 7.81464 7.98136 7.64101 7.93866ZM7.99902 7.36464C8.04061 7.38267 8.08394 7.39089 8.12648 7.39089C8.25204 7.39089 8.37158 7.31752 8.42424 7.19481L8.5955 6.79536C8.66603 6.63091 8.58997 6.44051 8.42551 6.36999C8.26152 6.29914 8.07082 6.37568 8.00029 6.53982L7.82903 6.93927C7.7585 7.10372 7.83457 7.29412 7.99902 7.36464ZM21.3761 24.2814C21.3092 24.1153 21.1204 24.0353 20.9544 24.1027C19.8689 24.5423 18.9013 25.2523 18.1557 26.1556C18.0419 26.2935 18.0615 26.4978 18.1995 26.6116C18.2598 26.6613 18.3328 26.6856 18.4054 26.6856C18.4987 26.6856 18.5914 26.6455 18.6554 26.568C19.3326 25.7473 20.2116 25.1024 21.1976 24.703C21.3633 24.6359 21.4433 24.4471 21.3761 24.2814ZM22.431 24.1444L22.6592 24.0287C22.8186 23.9477 22.8822 23.7526 22.8012 23.5932C22.7202 23.4338 22.5256 23.3708 22.3657 23.4512L22.1388 23.5663C21.9792 23.6469 21.9152 23.8418 21.9958 24.0015C22.0529 24.1141 22.1668 24.1792 22.2852 24.1792C22.3342 24.1792 22.3841 24.1682 22.431 24.1444Z" fill="#052BA6"/>
</svg>
