<svg width="32" height="32" viewBox="0 0 32 32" fill="none" xmlns="http://www.w3.org/2000/svg">
<rect width="32" height="32" fill="#F5F5F5"/>
<g id="LP" clip-path="url(#clip0_0_1)">
<rect width="1440" height="5383" transform="translate(-553 -1882)" fill="#FBFFFE"/>
<g id="Features Section">
<rect width="1439" height="919" transform="translate(-552 -313)" fill="#FFFBEF"/>
<g id="Features">
<g id="Frame 11">
<g id="Frame 9">
<g id="Icon">
<rect id="Rectangle 16" x="-8" y="-8" width="48" height="48" rx="4" fill="#D7E0FE"/>
<g id="Pair" clip-path="url(#clip1_0_1)">
<path id="Vector" d="M29.7113 5.375C29.4969 5.66473 29.2447 5.92438 28.9613 6.147C29.5574 6.34863 30.075 6.73262 30.4409 7.24462C30.8067 7.75662 31.0023 8.37071 31 9V15.9482C31.0068 16.0838 30.9859 16.2193 30.9387 16.3465C30.8915 16.4737 30.819 16.59 30.7255 16.6883C30.6319 16.7867 30.5194 16.865 30.3947 16.9184C30.27 16.9719 30.1357 16.9995 30 16.9995C29.8643 16.9995 29.73 16.9719 29.6053 16.9184C29.4806 16.865 29.3681 16.7867 29.2745 16.6883C29.181 16.59 29.1085 16.4737 29.0613 16.3465C29.0141 16.2193 28.9932 16.0838 29 15.9482V12.8448C29 12.7121 28.9473 12.585 28.8536 12.4912C28.7598 12.3974 28.6326 12.3448 28.5 12.3448C28.3674 12.3448 28.2402 12.3974 28.1464 12.4912C28.0527 12.585 28 12.7121 28 12.8448V15.9482C27.9939 16.4853 28.201 17.0029 28.5759 17.3876C28.9508 17.7722 29.4629 17.9924 30 18C30.3523 17.9997 30.6979 17.9038 31 17.7225V19.5C31.0019 19.6305 30.9519 19.7564 30.8611 19.8501C30.7703 19.9439 30.646 19.9978 30.5155 20H22.6405C22.51 19.9977 22.3858 19.9438 22.2951 19.8501C22.2043 19.7563 22.1544 19.6305 22.1562 19.5V12.3713C22.154 12.2746 22.124 12.1805 22.0698 12.1004C22.0157 12.0202 21.9397 11.9573 21.8508 11.9191C21.762 11.8809 21.664 11.869 21.5686 11.8848C21.4732 11.9006 21.3843 11.9434 21.3125 12.0083L17.984 15.1622C17.937 14.7114 17.7402 14.2894 17.425 13.9637L16.9028 13.4478L19.5473 10.8728C20.7124 9.77707 21.7675 8.56989 22.6973 7.2685C23.0405 6.7741 23.5264 6.39613 24.09 6.185C23.8039 5.96797 23.5481 5.71373 23.3293 5.429C22.7471 5.7263 22.2476 6.16292 21.875 6.7C20.9817 7.94814 19.9686 9.10597 18.85 10.157L16.191 12.745L13.2797 9.87C12.5138 9.09105 11.8256 8.23927 11.225 7.32675C10.8549 6.78493 10.3551 6.34444 9.771 6.0455C9.56902 6.33374 9.33015 6.59429 9.0605 6.8205C9.6042 7.03527 10.0709 7.40838 10.4 7.8915C11.0367 8.85666 11.766 9.75735 12.5778 10.5808L16.7148 14.6678C16.8982 14.8596 17.0006 15.1148 17.0006 15.3802C17.0006 15.6457 16.8982 15.9009 16.7148 16.0928C16.6261 16.1833 16.52 16.255 16.4029 16.3035C16.2858 16.352 16.1601 16.3762 16.0334 16.3747C15.9067 16.3732 15.7815 16.3461 15.6656 16.2949C15.5496 16.2438 15.4453 16.1696 15.3588 16.077C13.918 14.72 12.3322 13.1715 12.0545 12.8173L12.0435 12.7922C12.0076 12.7118 11.951 12.6422 11.8795 12.5906C11.808 12.539 11.7242 12.5073 11.6365 12.4985C11.5487 12.4898 11.4603 12.5044 11.38 12.5409C11.2998 12.5774 11.2306 12.6344 11.1795 12.7063C11.1051 12.7865 11.0632 12.8916 11.0621 13.001C11.0609 13.1105 11.1006 13.2164 11.1733 13.2983C12.1462 15.6033 12.125 19.9388 12.089 21.375H1.00275C1.057 16.17 1.95 8.69475 4.1575 6.98525C3.88528 6.78903 3.63862 6.55959 3.42325 6.30225C0.1095 9.192 0 20.4272 0 21.875C0 22.0076 0.0526784 22.1348 0.146447 22.2286C0.240215 22.3223 0.367392 22.375 0.5 22.375H2V30C2 30.5304 2.21071 31.0391 2.58579 31.4142C2.96086 31.7893 3.46957 32 4 32C4.53043 32 5.03914 31.7893 5.41421 31.4142C5.78929 31.0391 6 30.5304 6 30V22.375H7V30C7 30.5304 7.21071 31.0391 7.58579 31.4142C7.96086 31.7893 8.46957 32 9 32C9.53043 32 10.0391 31.7893 10.4142 31.4142C10.7893 31.0391 11 30.5304 11 30V22.375H12.5725C12.7009 22.3752 12.8244 22.3259 12.9175 22.2375C13.0106 22.1491 13.0661 22.0282 13.0725 21.9C13.0825 21.7 13.261 17.9043 12.6637 14.8767C12.675 14.9342 14.055 16.2083 14.658 16.789C15.0253 17.1601 15.5236 17.3723 16.0457 17.38C16.305 17.3803 16.5616 17.328 16.8001 17.2265C17.0386 17.1249 17.2541 16.9761 17.4335 16.789C17.4692 16.7522 17.5015 16.714 17.5335 16.6747C17.8484 16.5831 18.1347 16.4125 18.365 16.179L21.157 13.5337V19.5C21.1567 19.8271 21.2633 20.1454 21.4606 20.4063C21.6579 20.6672 21.9351 20.8565 22.25 20.9452V30C22.25 30.5304 22.4607 31.0391 22.8358 31.4142C23.2109 31.7893 23.7196 32 24.25 32C24.7804 32 25.2891 31.7893 25.6642 31.4142C26.0393 31.0391 26.25 30.5304 26.25 30V21H27.25V30C27.25 30.5304 27.4607 31.0391 27.8358 31.4142C28.2109 31.7893 28.7196 32 29.25 32C29.7804 32 30.2891 31.7893 30.6642 31.4142C31.0393 31.0391 31.25 30.5304 31.25 30V20.802C31.4783 20.6699 31.6678 20.48 31.7994 20.2515C31.9311 20.0229 32.0003 19.7638 32 19.5V9C32.0011 8.24101 31.7866 7.49731 31.3814 6.85553C30.9762 6.21375 30.397 5.7003 29.7113 5.375ZM5 30C5 30.2652 4.89464 30.5196 4.70711 30.7071C4.51957 30.8946 4.26522 31 4 31C3.73478 31 3.48043 30.8946 3.29289 30.7071C3.10536 30.5196 3 30.2652 3 30V22.375H5V30ZM10 30C10 30.2652 9.89464 30.5196 9.70711 30.7071C9.51957 30.8946 9.26522 31 9 31C8.73478 31 8.48043 30.8946 8.29289 30.7071C8.10536 30.5196 8 30.2652 8 30V22.375H10V30ZM25.25 30C25.25 30.2652 25.1446 30.5196 24.9571 30.7071C24.7696 30.8946 24.5152 31 24.25 31C23.9848 31 23.7304 30.8946 23.5429 30.7071C23.3554 30.5196 23.25 30.2652 23.25 30V21H25.25V30ZM30.25 30C30.25 30.2652 30.1446 30.5196 29.9571 30.7071C29.7696 30.8946 29.5152 31 29.25 31C28.9848 31 28.7304 30.8946 28.5429 30.7071C28.3554 30.5196 28.25 30.2652 28.25 30V21H30.25V30Z" fill="#052BA6"/>
<path id="Vector_2" d="M6.5 6.75C7.09334 6.75 7.67336 6.57405 8.16671 6.24441C8.66006 5.91477 9.04458 5.44623 9.27164 4.89805C9.4987 4.34987 9.55811 3.74667 9.44236 3.16473C9.3266 2.58279 9.04088 2.04824 8.62132 1.62868C8.20176 1.20912 7.66721 0.923401 7.08527 0.807646C6.50333 0.69189 5.90013 0.7513 5.35195 0.978363C4.80377 1.20543 4.33524 1.58994 4.00559 2.08329C3.67595 2.57664 3.5 3.15666 3.5 3.75C3.50086 4.54539 3.81721 5.30795 4.37963 5.87037C4.94205 6.43279 5.70461 6.74914 6.5 6.75ZM6.5 1.75C6.89556 1.75 7.28224 1.8673 7.61114 2.08706C7.94004 2.30682 8.19638 2.61918 8.34776 2.98463C8.49913 3.35009 8.53874 3.75222 8.46157 4.14018C8.3844 4.52814 8.19392 4.88451 7.91421 5.16422C7.63451 5.44392 7.27814 5.6344 6.89018 5.71157C6.50222 5.78874 6.10009 5.74914 5.73463 5.59776C5.36918 5.44639 5.05682 5.19004 4.83706 4.86114C4.6173 4.53224 4.5 4.14556 4.5 3.75C4.5006 3.21975 4.7115 2.71139 5.08644 2.33645C5.46139 1.9615 5.96975 1.7506 6.5 1.75ZM26.5 6C27.0933 6 27.6734 5.82405 28.1667 5.49441C28.6601 5.16477 29.0446 4.69623 29.2716 4.14805C29.4987 3.59987 29.5581 2.99667 29.4424 2.41473C29.3266 1.83279 29.0409 1.29824 28.6213 0.878681C28.2018 0.459123 27.6672 0.173401 27.0853 0.0576455C26.5033 -0.0581102 25.9001 0.00129986 25.3519 0.228363C24.8038 0.455426 24.3352 0.839943 24.0056 1.33329C23.6759 1.82664 23.5 2.40666 23.5 3C23.5009 3.79539 23.8172 4.55795 24.3796 5.12037C24.9421 5.68279 25.7046 5.99914 26.5 6ZM26.5 1C26.8956 1 27.2822 1.1173 27.6111 1.33706C27.94 1.55682 28.1964 1.86918 28.3478 2.23463C28.4991 2.60009 28.5387 3.00222 28.4616 3.39018C28.3844 3.77814 28.1939 4.13451 27.9142 4.41422C27.6345 4.69392 27.2781 4.8844 26.8902 4.96157C26.5022 5.03874 26.1001 4.99914 25.7346 4.84776C25.3692 4.69639 25.0568 4.44004 24.8371 4.11114C24.6173 3.78224 24.5 3.39556 24.5 3C24.5006 2.46975 24.7115 1.96139 25.0864 1.58645C25.4614 1.2115 25.9697 1.0006 26.5 1Z" fill="#052BA6"/>
</g>
</g>
</g>
</g>
</g>
</g>
</g>
<defs>
<clipPath id="clip0_0_1">
<rect width="1440" height="5383" fill="white" transform="translate(-553 -1882)"/>
</clipPath>
<clipPath id="clip1_0_1">
<rect width="32" height="32" fill="white"/>
</clipPath>
</defs>
</svg>
