<svg width="32" height="32" viewBox="0 0 32 32" fill="none" xmlns="http://www.w3.org/2000/svg">
<g clip-path="url(#clip0_28_89)">
<path d="M6.00017 28.1719C5.99455 25.6739 6.72079 23.2289 8.08919 21.139C8.5126 21.1795 8.78719 21.5639 9.14371 22.1389C9.48087 22.6826 9.86271 23.2993 10.5724 23.2292C11.018 23.187 11.5739 23.2554 11.9215 24.1841C11.9266 24.3294 11.9007 24.4741 11.8454 24.6086L11.8337 24.647C11.7158 25.0247 11.7135 25.429 11.8272 25.8081C11.9408 26.1871 12.1651 26.5235 12.4713 26.7742C12.7392 26.9848 12.9845 27.3247 12.8695 27.6477C12.8182 27.7663 12.7532 27.8786 12.6759 27.9822C12.5681 28.1316 12.4755 28.2915 12.3996 28.4595C12.2094 28.9101 12.2934 29.5083 12.3747 30.0867C12.4213 30.4187 12.4989 30.9702 12.4245 31.1199C12.3248 31.205 12.2625 31.3258 12.251 31.4564C12.2395 31.5869 12.2798 31.7168 12.3631 31.818C12.4464 31.9192 12.5661 31.9836 12.6964 31.9974C12.8268 32.0112 12.9573 31.9733 13.06 31.8918C13.5802 31.479 13.4709 30.7004 13.3649 29.9475C13.3114 29.5664 13.238 29.0447 13.321 28.8484C13.3724 28.7413 13.4335 28.6391 13.5036 28.5432C13.6302 28.3706 13.7338 28.1823 13.8117 27.9829C14.0566 27.2949 13.7797 26.5305 13.0893 25.988C12.9405 25.8622 12.8326 25.6949 12.7795 25.5074C12.7264 25.32 12.7304 25.1209 12.7912 24.9358L12.8022 24.8991C12.8636 24.7161 12.9042 24.5267 12.9233 24.3346C12.2787 23.7448 11.7331 23.0552 11.3074 22.2923C11.0348 22.224 10.7524 22.2044 10.4731 22.2344C10.3647 22.2104 10.1232 21.821 9.99357 21.6118C9.70183 21.1413 9.32984 20.5418 8.71485 20.2729C9.17819 19.6792 9.69368 19.1281 10.2552 18.6261C10.2343 18.1803 10.25 17.7334 10.3023 17.2902C8.64554 18.578 7.30608 20.2285 6.38691 22.1149C5.46774 24.0014 4.99334 26.0734 5.00017 28.1719L4.99919 28.5564C4.99504 29.5183 4.99064 30.6084 5.21061 31.5381C5.23653 31.6475 5.29861 31.7451 5.38682 31.8149C5.47502 31.8847 5.5842 31.9227 5.6967 31.9228C5.73566 31.9228 5.77449 31.9183 5.81242 31.9094C5.94143 31.8788 6.05301 31.7982 6.12264 31.6853C6.19226 31.5725 6.21425 31.4366 6.18376 31.3076C5.99113 30.4936 5.99504 29.511 5.99919 28.5605L6.00017 28.1719ZM30.6025 25.012C30.55 24.9789 30.4972 24.9445 30.446 24.9109C30.0426 24.6457 29.4901 24.2824 28.8788 24.5827C28.635 24.7179 28.4321 24.916 28.2912 25.1565C28.2404 25.2374 28.1815 25.313 28.1154 25.3821C27.9425 25.539 27.5544 25.4648 27.3324 25.2317C27.036 24.9206 26.9235 24.4219 26.8524 23.9748C26.8073 23.5237 26.6541 23.0902 26.4057 22.7109C26.229 22.4874 25.9944 22.3165 25.7275 22.2168C25.7184 22.2348 25.7127 22.2537 25.7028 22.2715C25.6 22.4565 25.4884 22.6396 25.3715 22.8159C25.3095 22.9071 25.2375 22.9912 25.1569 23.0665C25.3202 23.1103 25.4713 23.1908 25.5988 23.3017C25.7489 23.5548 25.8398 23.8386 25.8647 24.1318C25.9599 24.7309 26.1227 25.4121 26.6086 25.9216C26.773 26.0907 26.9693 26.2257 27.186 26.3188C27.4027 26.4119 27.6356 26.4614 27.8715 26.4643C28.2087 26.4697 28.5355 26.3478 28.7868 26.123C28.9118 26.0033 29.022 25.869 29.1152 25.7231C29.1681 25.631 29.2368 25.5489 29.3183 25.4807C29.4186 25.4328 29.6838 25.6067 29.8971 25.7466C30.1778 25.958 30.5007 26.1064 30.8439 26.1817C30.9474 26.84 30.9996 27.5054 31.0002 28.1719C30.949 29.2574 30.7858 30.3347 30.5134 31.3867C30.4984 31.4506 30.4962 31.5169 30.5069 31.5817C30.5176 31.6464 30.5409 31.7085 30.5756 31.7642C30.6102 31.82 30.6556 31.8684 30.7089 31.9066C30.7623 31.9448 30.8227 31.9722 30.8866 31.987C30.924 31.9959 30.9623 32.0003 31.0007 32.0002C31.1134 32.0001 31.2228 31.9618 31.3111 31.8917C31.3994 31.8215 31.4614 31.7236 31.487 31.6138C31.7801 30.488 31.9522 29.3342 32.0002 28.1719C32.004 26.073 31.5272 24.0011 30.6065 22.1149C29.6857 20.2288 28.3454 18.5784 26.6882 17.2904C26.692 17.3144 26.6994 17.3369 26.7021 17.3613C26.725 17.572 26.7399 17.7861 26.7465 17.9971C26.7514 18.1874 26.7199 18.3769 26.6534 18.5553C28.5945 20.2569 29.9719 22.5089 30.6025 25.012ZM26.0045 30.9563C26.4804 30.6819 26.6881 30.0879 26.5746 29.3266C26.5413 28.9158 26.367 28.5292 26.0812 28.2322C25.927 28.0925 25.7402 27.994 25.5379 27.9456C25.3356 27.8972 25.1244 27.9006 24.9237 27.9553C24.8837 27.9118 24.8441 27.8677 24.8036 27.8225C24.7304 27.7412 24.6574 27.6599 24.579 27.5784C24.3787 27.3852 24.1317 27.2474 23.8621 27.1784C23.5925 27.1095 23.3096 27.1118 23.0412 27.185C22.6275 27.3112 22.193 27.3541 21.7626 27.3115C21.6845 27.3074 21.6105 27.3034 21.5404 27.3017C20.2868 27.2683 19.8976 26.8391 19.8586 26.7917C19.7995 26.667 19.7563 26.5353 19.7302 26.3998C19.6917 26.4081 19.6548 26.4201 19.6151 26.4255C19.4047 26.4541 19.1918 26.4751 18.9826 26.4873C18.9525 26.4892 18.9225 26.49 18.8927 26.49C18.8351 26.4896 18.7776 26.486 18.7204 26.479L18.7245 26.4958C18.7753 26.8286 18.8985 27.1462 19.0856 27.426C19.2909 27.6753 19.9386 28.2593 21.5138 28.3013C21.5754 28.303 21.6403 28.3066 21.7089 28.3103C22.2581 28.3596 22.8117 28.3016 23.3388 28.1396C23.4297 28.1218 23.5234 28.1243 23.6133 28.1471C23.7031 28.1699 23.7867 28.2124 23.8581 28.2715C23.9284 28.3447 23.9941 28.4177 24.0597 28.491C24.1845 28.6299 24.3136 28.7734 24.4753 28.9226C24.5616 29.0021 24.6732 29.0488 24.7905 29.0544C24.9078 29.06 25.0233 29.0243 25.1169 28.9533C25.1601 28.9254 25.211 28.9117 25.2624 28.9142C25.3139 28.9168 25.3632 28.9354 25.4035 28.9675C25.5115 29.1153 25.5747 29.2911 25.5854 29.4739C25.6361 29.8147 25.5819 30.0456 25.5046 30.0903L25.4621 30.113C25.3433 30.1621 25.2386 30.2398 25.1572 30.3392C25.0758 30.4387 25.0203 30.5567 24.9958 30.6828C24.8942 31.3923 25.0243 31.633 25.1647 31.7749C25.2492 31.8602 25.3616 31.9122 25.4813 31.9215C25.6011 31.9308 25.7201 31.8966 25.8168 31.8254C25.9134 31.7541 25.9812 31.6504 26.0077 31.5333C26.0342 31.4162 26.0176 31.2934 25.9611 31.1875C25.9588 31.1172 25.9611 31.0468 25.9679 30.9768C25.9804 30.97 25.9928 30.9631 26.0045 30.9563ZM16.9877 25.3425C17.0758 25.3613 17.1637 25.3786 17.2521 25.3938C17.2803 25.3987 17.3089 25.4012 17.3376 25.4011C17.4627 25.401 17.5833 25.3539 17.6754 25.2692C17.7676 25.1844 17.8246 25.0682 17.8352 24.9435C17.8458 24.8188 17.8093 24.6946 17.7328 24.5956C17.6563 24.4965 17.5454 24.4297 17.422 24.4084C17.3463 24.3952 17.2707 24.3804 17.1952 24.3642C17.0655 24.3367 16.9302 24.3619 16.819 24.4341C16.7078 24.5064 16.6298 24.6199 16.6023 24.7496C16.5748 24.8793 16.5999 25.0147 16.6722 25.1259C16.7445 25.2371 16.858 25.315 16.9877 25.3425ZM25.4718 20.2405C25.5229 20.0622 25.5675 19.8794 25.6049 19.6972C25.6315 19.5674 25.6054 19.4322 25.5324 19.3216C25.4594 19.2109 25.3454 19.1338 25.2155 19.1072C25.0856 19.0805 24.9505 19.1066 24.8398 19.1796C24.7291 19.2527 24.652 19.3667 24.6254 19.4966C24.5932 19.6538 24.5543 19.8115 24.5104 19.9651C24.4922 20.0282 24.4866 20.0944 24.494 20.1597C24.5014 20.225 24.5216 20.2882 24.5534 20.3457C24.5853 20.4032 24.6281 20.4539 24.6796 20.4948C24.731 20.5357 24.79 20.5661 24.8532 20.5842C24.9164 20.6023 24.9825 20.6078 25.0478 20.6003C25.1131 20.5928 25.1763 20.5725 25.2338 20.5406C25.2912 20.5087 25.3418 20.4657 25.3827 20.4142C25.4235 20.3627 25.4538 20.3037 25.4718 20.2405ZM22.7736 22.8127C22.6581 22.9211 22.5356 23.0271 22.4096 23.1282C22.3583 23.1692 22.3157 23.2199 22.2841 23.2774C22.2524 23.335 22.2325 23.3981 22.2252 23.4634C22.218 23.5286 22.2237 23.5947 22.2421 23.6577C22.2604 23.7207 22.2909 23.7796 22.3319 23.8308C22.373 23.882 22.4237 23.9247 22.4812 23.9563C22.5387 23.9879 22.6019 24.0079 22.6672 24.0151C22.7324 24.0223 22.7985 24.0166 22.8615 23.9983C22.9245 23.98 22.9833 23.9495 23.0346 23.9084C23.1808 23.7915 23.3229 23.6684 23.4572 23.5427C23.554 23.4521 23.6108 23.3267 23.6152 23.1941C23.6195 23.0616 23.571 22.9327 23.4804 22.8359C23.3897 22.7391 23.2643 22.6823 23.1318 22.6779C22.9992 22.6736 22.8704 22.7221 22.7736 22.8127ZM18.8937 25.49C18.9037 25.49 18.9137 25.4897 18.9237 25.489C19.1073 25.4782 19.2946 25.4599 19.4799 25.4346C19.5828 25.421 19.6789 25.3756 19.7547 25.3048C19.8305 25.2339 19.8823 25.1411 19.9027 25.0394C19.9232 24.9376 19.9114 24.832 19.8689 24.7374C19.8264 24.6427 19.7553 24.5637 19.6657 24.5114V23.5835C19.6657 23.4509 19.613 23.3237 19.5192 23.2299C19.4255 23.1362 19.2983 23.0835 19.1657 23.0835C19.0331 23.0835 18.9059 23.1362 18.8121 23.2299C18.7184 23.3237 18.6657 23.4509 18.6657 23.5835V24.5459C18.566 24.5971 18.4864 24.6804 18.4397 24.7822C18.3931 24.8841 18.382 24.9987 18.4083 25.1077C18.4346 25.2166 18.4968 25.3135 18.5848 25.3829C18.6729 25.4522 18.7816 25.4899 18.8937 25.49ZM21.1859 23.8935C21.0424 23.9616 20.8935 24.0256 20.7428 24.0837C20.6814 24.1072 20.6252 24.1425 20.5775 24.1877C20.5298 24.2329 20.4914 24.2871 20.4647 24.3471C20.4379 24.4072 20.4233 24.4719 20.4215 24.5376C20.4198 24.6033 20.4311 24.6688 20.4547 24.7301C20.4783 24.7915 20.5138 24.8476 20.5591 24.8952C20.6044 24.9428 20.6586 24.981 20.7187 25.0077C20.7788 25.0343 20.8436 25.0488 20.9093 25.0504C20.975 25.052 21.0404 25.0406 21.1017 25.0168C21.276 24.9499 21.4486 24.876 21.6151 24.7969C21.6745 24.7687 21.7277 24.7291 21.7718 24.6804C21.8158 24.6317 21.8498 24.5747 21.8719 24.5128C21.8939 24.4509 21.9035 24.3853 21.9002 24.3197C21.8969 24.2541 21.8807 24.1898 21.8525 24.1305C21.8243 24.0711 21.7847 24.0179 21.7359 23.9739C21.6872 23.9299 21.6302 23.8959 21.5683 23.8739C21.5064 23.8519 21.4408 23.8423 21.3752 23.8457C21.3096 23.849 21.2453 23.8653 21.1859 23.8935ZM25.13 15.3183C25.076 15.1978 24.9765 15.1035 24.8533 15.056C24.73 15.0086 24.5929 15.0119 24.472 15.0652C24.3512 15.1184 24.2563 15.2174 24.2081 15.3404C24.16 15.4634 24.1624 15.6005 24.215 15.7217C24.2794 15.8681 24.3395 16.0193 24.393 16.1706C24.4374 16.2954 24.5295 16.3975 24.6491 16.4544C24.7687 16.5114 24.906 16.5186 25.0308 16.4744C25.1557 16.4302 25.2579 16.3383 25.3151 16.2188C25.3723 16.0994 25.3798 15.9621 25.3358 15.8371C25.2738 15.6621 25.2047 15.4875 25.13 15.3183ZM25.7079 17.4699C25.6933 17.3384 25.627 17.218 25.5237 17.1352C25.4203 17.0523 25.2884 17.0139 25.1568 17.0283C25.0252 17.0426 24.9046 17.1086 24.8215 17.2117C24.7385 17.3148 24.6997 17.4467 24.7138 17.5783C24.7185 17.6215 24.7191 17.6651 24.7229 17.7085H23.8742C23.7416 17.7085 23.6144 17.7612 23.5206 17.8549C23.4268 17.9487 23.3742 18.0759 23.3742 18.2085C23.3742 18.3411 23.4268 18.4683 23.5206 18.562C23.6144 18.6558 23.7416 18.7085 23.8742 18.7085H25.1242C25.2834 18.6689 25.4275 18.5833 25.5383 18.4623C25.649 18.3412 25.7217 18.1902 25.747 18.0281C25.7414 17.8428 25.7282 17.655 25.7079 17.4699ZM24.6354 21.1052C24.5781 21.0733 24.515 21.0529 24.4498 21.0454C24.3845 21.0378 24.3185 21.0432 24.2553 21.0611C24.1922 21.0791 24.1332 21.1094 24.0818 21.1501C24.0303 21.1909 23.9874 21.2414 23.9555 21.2988C23.8776 21.4387 23.7931 21.5771 23.7048 21.7104C23.6315 21.821 23.6051 21.9561 23.6314 22.0861C23.6577 22.216 23.7346 22.3302 23.8451 22.4035C23.9557 22.4768 24.0908 22.5032 24.2208 22.4769C24.3507 22.4506 24.465 22.3737 24.5383 22.2632C24.6408 22.1084 24.7387 21.9475 24.829 21.7851C24.861 21.7278 24.8813 21.6647 24.8889 21.5995C24.8965 21.5343 24.8911 21.4682 24.8731 21.405C24.8551 21.3419 24.8249 21.2829 24.7841 21.2315C24.7433 21.18 24.6928 21.1371 24.6354 21.1052ZM24.1127 13.6596C24.0287 13.5574 23.9077 13.4927 23.7761 13.4795C23.6445 13.4664 23.513 13.5059 23.4105 13.5895C23.308 13.6731 23.2428 13.7939 23.2291 13.9255C23.2155 14.057 23.2546 14.1887 23.3378 14.2915C23.3864 14.3513 23.434 14.4116 23.4801 14.4731C23.56 14.5789 23.6786 14.6487 23.8099 14.6671C23.9412 14.6855 24.0745 14.651 24.1804 14.5712C24.2862 14.4914 24.3561 14.3728 24.3746 14.2416C24.3931 14.1103 24.3587 13.977 24.279 13.8711C24.225 13.7998 24.1696 13.7293 24.1127 13.6596Z" fill="#052BA6"/>
<path d="M16.1267 11.3989C14.7717 11.8681 13.5862 12.7285 12.7202 13.8715C11.8543 15.0144 11.3466 16.3884 11.2616 17.8198C11.1765 19.2512 11.5178 20.6757 12.2424 21.9132C12.9669 23.1506 14.0421 24.1454 15.332 24.7717C15.3911 24.8006 15.4553 24.8175 15.5209 24.8215C15.5865 24.8255 15.6523 24.8165 15.7144 24.7951C15.7766 24.7737 15.8339 24.7402 15.8831 24.6966C15.9323 24.6529 15.9724 24.6001 16.0011 24.5409C16.0298 24.4818 16.0466 24.4176 16.0505 24.352C16.0544 24.2863 16.0453 24.2206 16.0237 24.1585C16.0022 24.0964 15.9686 24.0391 15.9249 23.99C15.8812 23.9409 15.8282 23.9009 15.769 23.8723C15.0294 23.5157 14.3678 23.0159 13.8227 22.4019C13.2775 21.7879 12.8596 21.0718 12.593 20.2952C12.4892 19.995 12.408 19.6874 12.3503 19.375H13.2905C13.4231 19.375 13.5503 19.3223 13.6441 19.2286C13.7379 19.1348 13.7905 19.0076 13.7905 18.875C13.7905 18.7424 13.7379 18.6152 13.6441 18.5214C13.5503 18.4277 13.4231 18.375 13.2905 18.375H12.2489C12.2232 17.0545 12.6163 15.7598 13.3717 14.6764C14.127 13.593 15.206 12.7766 16.4539 12.344C16.9532 12.171 17.4723 12.0616 17.999 12.0184V13C17.999 13.1326 18.0517 13.2598 18.1455 13.3536C18.2392 13.4473 18.3664 13.5 18.499 13.5C18.6316 13.5 18.7588 13.4473 18.8526 13.3536C18.9463 13.2598 18.999 13.1326 18.999 13V12.0185C19.6983 12.0752 20.383 12.2496 21.0242 12.5343L20.5925 12.6045C20.4686 12.6247 20.3568 12.6908 20.2794 12.7896C20.2019 12.8885 20.1645 13.0128 20.1746 13.138C20.1846 13.2632 20.2414 13.3799 20.3336 13.4652C20.4259 13.5504 20.5468 13.5978 20.6723 13.5979C20.6994 13.598 20.7265 13.5958 20.7532 13.5913L22.6074 13.2898C22.6157 13.2885 22.623 13.2852 22.6311 13.2834C22.6371 13.2822 22.6429 13.2827 22.6489 13.2812C22.6585 13.2788 22.667 13.2743 22.6763 13.2714C22.6928 13.2664 22.709 13.2605 22.7249 13.2539C22.7398 13.2474 22.754 13.2401 22.7681 13.2323C22.7825 13.2245 22.7965 13.216 22.8101 13.2068C22.8235 13.1975 22.8361 13.1875 22.8485 13.177C22.8606 13.1668 22.8723 13.1563 22.8834 13.145C22.8948 13.1333 22.9053 13.1211 22.9155 13.1084C22.9254 13.0961 22.9347 13.0836 22.9434 13.0705C22.9523 13.057 22.9601 13.0431 22.9677 13.0289C22.9751 13.0148 22.982 13.0007 22.9881 12.9859C22.9943 12.9709 22.9994 12.9557 23.0041 12.9402C23.0087 12.925 23.0128 12.9098 23.0159 12.8941C23.0191 12.8776 23.0214 12.8609 23.0229 12.8442C23.0244 12.8286 23.0254 12.8131 23.0255 12.7972C23.0253 12.7796 23.0242 12.762 23.0222 12.7445C23.0212 12.735 23.0221 12.7257 23.0205 12.716C23.0193 12.7089 23.0165 12.7025 23.015 12.6955C23.0136 12.6885 23.0137 12.6816 23.0119 12.6745L22.5764 10.9407C22.5439 10.8122 22.4618 10.702 22.3481 10.634C22.2344 10.5661 22.0984 10.5461 21.9699 10.5783C21.8414 10.6106 21.731 10.6926 21.6629 10.8062C21.5948 10.9198 21.5746 11.0558 21.6067 11.1843L21.7581 11.7869C21.7296 11.7641 21.6987 11.7444 21.666 11.7283C20.8104 11.3098 19.8802 11.0652 18.9294 11.0087C17.9785 10.9522 17.0259 11.0848 16.1267 11.3989ZM21.9096 12.3903L21.8988 12.3921C21.9017 12.3861 21.9029 12.3799 21.9055 12.3739L21.9096 12.3903ZM3.28759 15.8535C3.33401 15.9 3.38912 15.9368 3.44978 15.9619C3.51044 15.9871 3.57545 16 3.64111 16C3.70677 16 3.77178 15.9871 3.83244 15.9619C3.8931 15.9368 3.94821 15.9 3.99463 15.8535L5.89077 13.9574C5.96287 13.9337 6.02839 13.8935 6.08203 13.8398C6.13567 13.7862 6.17593 13.7207 6.19955 13.6486L7.85254 11.9956C7.89898 11.9492 7.93581 11.8941 7.96095 11.8334C7.98608 11.7728 7.99902 11.7077 7.99902 11.6421C7.99902 11.5764 7.98608 11.5114 7.96095 11.4508C7.93581 11.3901 7.89898 11.335 7.85254 11.2886L6.65197 10.088L7.49633 9.24365L8.4774 10.2247C8.38256 10.6722 8.40091 11.1363 8.53079 11.5748C8.66068 12.0134 8.89798 12.4127 9.22119 12.7363C9.2676 12.7828 9.32272 12.8196 9.38337 12.8447C9.44403 12.8699 9.50905 12.8828 9.57471 12.8828C9.64036 12.8828 9.70538 12.8699 9.76604 12.8447C9.82669 12.8196 9.88181 12.7828 9.92822 12.7363L13.1103 9.55444C13.1568 9.50803 13.1936 9.45292 13.2188 9.39226C13.2439 9.3316 13.2568 9.26659 13.2568 9.20093C13.2568 9.13527 13.2439 9.07025 13.2188 9.0096C13.1936 8.94894 13.1568 8.89383 13.1103 8.84741C12.7867 8.52424 12.3875 8.28695 11.9489 8.15706C11.5104 8.02716 11.0464 8.00877 10.5989 8.10355L9.61765 7.12235L10.2695 6.47054L11.6524 7.85352C11.6988 7.89996 11.7539 7.9368 11.8145 7.96193C11.8752 7.98706 11.9402 8 12.0059 8C12.0715 8 12.1365 7.98706 12.1972 7.96193C12.2579 7.9368 12.313 7.89996 12.3594 7.85352L16.1025 4.11059C16.149 4.06418 16.1858 4.00907 16.2109 3.94841C16.2361 3.88775 16.249 3.82274 16.249 3.75708C16.249 3.69142 16.2361 3.6264 16.2109 3.56575C16.1858 3.50509 16.149 3.44998 16.1025 3.40356L12.8455 0.146484C12.799 0.100044 12.7439 0.0632051 12.6833 0.0380709C12.6226 0.0129367 12.5576 0 12.4919 0C12.4263 0 12.3613 0.0129367 12.3006 0.0380709C12.24 0.0632051 12.1848 0.100044 12.1384 0.146484L8.39551 3.8894C8.34907 3.93582 8.31223 3.99093 8.2871 4.05159C8.26196 4.11225 8.24903 4.17726 8.24903 4.24292C8.24903 4.30858 8.26196 4.37359 8.2871 4.43425C8.31223 4.49491 8.34907 4.55002 8.39551 4.59643L9.56246 5.76347L8.91059 6.41534L6.74634 4.25122C6.6535 4.15834 6.54328 4.08466 6.42197 4.03439C6.30065 3.98412 6.17062 3.95825 6.0393 3.95825C5.90799 3.95825 5.77796 3.98412 5.65664 4.03439C5.53533 4.08466 5.42511 4.15834 5.33227 4.25122L4.62476 4.9585C4.4377 5.14622 4.33269 5.40045 4.33274 5.66546C4.33279 5.93047 4.43789 6.18466 4.62501 6.37232L6.78932 8.53662L5.94496 9.38098L4.71046 8.14648C4.66404 8.10005 4.60893 8.0632 4.54827 8.03807C4.48761 8.01294 4.4226 8 4.35694 8C4.29128 8 4.22627 8.01294 4.16561 8.03807C4.10495 8.0632 4.04984 8.10005 4.00343 8.14648L2.22513 9.92477C2.21457 9.93372 2.20308 9.94096 2.19311 9.95093C2.18315 9.96089 2.1759 9.97238 2.16696 9.98294L0.145509 12.0044C0.0990686 12.0508 0.0622291 12.1059 0.0370947 12.1666C0.0119602 12.2272 -0.000976562 12.2923 -0.000976562 12.3579C-0.000976563 12.4236 0.0119602 12.4886 0.0370947 12.5492C0.0622291 12.6099 0.0990686 12.665 0.145509 12.7114L3.28759 15.8535ZM12.0058 6.79297L10.9765 5.7635L12.0925 4.64746L13.122 5.67692L12.0058 6.79297ZM13.829 4.96992L12.7995 3.94042L14.0124 2.72753L15.042 3.75707L13.829 4.96992ZM12.4919 1.20703L13.3054 2.0205L12.0925 3.23339L11.279 2.41992L12.4919 1.20703ZM10.572 3.12695L11.3855 3.94043L10.2695 5.05644L9.45605 4.24292L10.572 3.12695ZM11.9983 9.25245L9.62621 11.6243C9.44748 11.2927 9.38046 10.9123 9.43509 10.5396C9.48971 10.1669 9.66308 9.82181 9.92944 9.55547C10.1958 9.28914 10.541 9.1158 10.9137 9.06122C11.2864 9.00663 11.6667 9.07369 11.9983 9.25245ZM6.0393 4.95825L9.57495 8.49365L8.86767 9.20092L5.33203 5.66528L6.0393 4.95825ZM3.64111 14.793L2.79407 13.9459L4.13757 12.6024L4.98461 13.4495L3.64111 14.793ZM5.69165 12.7424L4.8446 11.8954L5.94495 10.795L6.79199 11.6421L5.69165 12.7424ZM4.35693 9.20703L5.23791 10.088L4.13757 11.1884L3.25659 10.3074L4.35693 9.20703ZM2.54956 11.0144L3.43054 11.8954L2.08704 13.2389L1.20605 12.3579L2.54956 11.0144Z" fill="#052BA6"/>
<path d="M19.4799 18.6639L21.8771 16.2666C21.9704 16.1727 22.0227 16.0457 22.0226 15.9133C22.0224 15.781 21.9697 15.6541 21.8761 15.5605C21.7825 15.4669 21.6557 15.4142 21.5233 15.4141C21.3909 15.4139 21.2639 15.4662 21.1701 15.5595L18.9492 17.7806C18.8842 17.7614 18.8169 17.7512 18.7491 17.7502C18.7357 17.7502 18.7233 17.7535 18.7101 17.7542L17.6027 16.6467C17.5088 16.5535 17.3818 16.5012 17.2495 16.5014C17.1172 16.5016 16.9904 16.5543 16.8968 16.6479C16.8032 16.7414 16.7506 16.8682 16.7504 17.0006C16.7501 17.1329 16.8024 17.2599 16.8956 17.3537L18.003 18.4611C18.0023 18.4743 17.9991 18.4868 17.9991 18.5002C17.999 18.6848 18.0669 18.863 18.19 19.0005C18.3131 19.1381 18.4827 19.2254 18.6662 19.2457C18.8496 19.266 19.0342 19.2178 19.1843 19.1105C19.3345 19.0031 19.4398 18.8441 19.4799 18.6639ZM17.6124 31.9038C17.6756 31.9217 17.7417 31.9271 17.8069 31.9195C17.8721 31.9119 17.9352 31.8916 17.9926 31.8596C18.0499 31.8276 18.1004 31.7847 18.1412 31.7332C18.1819 31.6817 18.2122 31.6227 18.2301 31.5595C18.2481 31.4964 18.2534 31.4303 18.2458 31.3651C18.2382 31.2999 18.2179 31.2368 18.1859 31.1794C18.1539 31.1221 18.111 31.0716 18.0595 31.0308C18.008 30.99 17.949 30.9598 17.8859 30.9419C17.6979 30.8884 17.3031 30.519 17.014 29.865C16.6798 29.1084 16.6442 28.3269 16.9186 27.7746C17.1062 27.398 17.0104 26.9781 16.8963 26.5932C16.8577 26.5855 16.819 26.579 16.7804 26.5708C16.5609 26.5244 16.3546 26.4293 16.1769 26.2924C15.9991 26.1555 15.8544 25.9804 15.7535 25.78C15.7285 26.1095 15.7781 26.4404 15.8986 26.748C15.9691 26.9344 16.0112 27.1304 16.0233 27.3293C15.6117 28.1569 15.6395 29.2285 16.0995 30.2693C16.3939 30.935 16.9459 31.7143 17.6124 31.9038Z" fill="#052BA6"/>
</g>
<defs>
<clipPath id="clip0_28_89">
<rect width="32" height="32" fill="white"/>
</clipPath>
</defs>
</svg>
