<svg width="32" height="32" viewBox="0 0 32 32" fill="none" xmlns="http://www.w3.org/2000/svg">
<g clip-path="url(#clip0_28_99)">
<path d="M4.66667 22.6667H0.666667C0.266667 22.6667 0 22.9333 0 23.3333V31.3333C0 31.7333 0.266667 32 0.666667 32H4.66667C5.06667 32 5.33333 31.7333 5.33333 31.3333V23.3333C5.33333 22.9333 5.06667 22.6667 4.66667 22.6667ZM4 30.6667H1.33333V24H4V30.6667ZM22.4667 19.3333H18.4667C18.0667 19.3333 17.8 19.6 17.8 20V31.3333C17.8 31.7333 18.0667 32 18.4667 32H22.4667C22.8667 32 23.1333 31.7333 23.1333 31.3333V20C23.1333 19.6 22.8 19.3333 22.4667 19.3333ZM21.8 30.6667H19.1333V20.6667H21.8V30.6667ZM13.5333 15.4H9.53333C9.13333 15.4 8.86667 15.6667 8.86667 16.0667V31.3333C8.86667 31.7333 9.13333 32 9.53333 32H13.5333C13.9333 32 14.2 31.7333 14.2 31.3333V16.0667C14.2 15.6667 13.9333 15.4 13.5333 15.4ZM12.8667 30.6667H10.2V16.7333H12.8667V30.6667ZM31.3333 10.4H27.3333C26.9333 10.4 26.6667 10.6667 26.6667 11.0667V31.3333C26.6667 31.7333 26.9333 32 27.3333 32H31.3333C31.7333 32 32 31.7333 32 31.3333V11.0667C32 10.6667 31.7333 10.4 31.3333 10.4ZM30.6667 30.6667H28V11.7333H30.6667V30.6667ZM27.4 5.26667C27.8667 5.6 28.4667 5.8 29.1333 5.8C30.7333 5.8 32.0667 4.46667 32.0667 2.86667C32 1.33333 30.6667 0 29.0667 0C27.4667 0 26.1333 1.33333 26.1333 2.93333C26.1333 3.4 26.2667 3.86667 26.4667 4.26667L22.1333 8C21.6667 7.66667 21.0667 7.46667 20.4667 7.46667C19.6667 7.46667 19 7.8 18.4667 8.26667L13.1333 5C13.2 4.73333 13.2667 4.46667 13.2667 4.13333C13.2667 2.53333 11.9333 1.2 10.3333 1.2C8.73333 1.2 7.4 2.53333 7.4 4.13333C7.4 4.66667 7.53333 5.2 7.8 5.6L4.33333 8.86667C3.86667 8.6 3.4 8.4 2.8 8.4C1.33333 8.4 0 9.73333 0 11.3333C0 12.9333 1.33333 14.2667 2.93333 14.2667C4.53333 14.2667 5.86667 12.9333 5.86667 11.3333C5.86667 10.8 5.73333 10.2667 5.4 9.8L8.8 6.53333C9.26667 6.8 9.8 7 10.4 7C11.2 7 11.9333 6.66667 12.4667 6.13333L17.8 9.33333C17.6667 9.66667 17.6 10 17.6 10.3333C17.6 11.9333 18.9333 13.2667 20.5333 13.2667C22.1333 13.2667 23.4667 11.9333 23.4667 10.3333C23.4667 9.86667 23.3333 9.4 23.1333 8.93333L27.4 5.26667ZM2.93333 12.9333C2.06667 12.9333 1.33333 12.2 1.33333 11.3333C1.33333 10.4667 2.06667 9.73333 2.93333 9.73333C3.33333 9.73333 3.73333 9.86667 4 10.1333H4.06667C4.33333 10.4 4.53333 10.8 4.53333 11.2667C4.46667 12.2 3.8 12.9333 2.93333 12.9333ZM10.4 5.73333C9.53333 5.73333 8.8 5 8.8 4.13333C8.8 3.26667 9.53333 2.53333 10.4 2.53333C11.2667 2.53333 12 3.26667 12 4.13333C11.9333 5 11.2667 5.73333 10.4 5.73333ZM29.0667 1.33333C29.9333 1.33333 30.6667 2.06667 30.6667 2.93333C30.6667 3.8 29.9333 4.53333 29.0667 4.53333C28.2 4.53333 27.4667 3.8 27.4667 2.93333C27.5333 2.06667 28.2 1.33333 29.0667 1.33333ZM20.4667 11.9333C19.6 11.9333 18.8667 11.2 18.8667 10.3333C18.8667 9.46667 19.6 8.73333 20.4667 8.73333C21.3333 8.73333 22.0667 9.46667 22.0667 10.3333C22.0667 11.2 21.3333 11.9333 20.4667 11.9333Z" fill="#052BA6"/>
</g>
<defs>
<clipPath id="clip0_28_99">
<rect width="32" height="32" fill="white"/>
</clipPath>
</defs>
</svg>
