<svg width="32" height="32" viewBox="0 0 32 32" fill="none" xmlns="http://www.w3.org/2000/svg">
<path d="M10.533 29.6213H2.03028C1.85077 29.6213 1.70508 29.4756 1.70508 29.2961C1.70508 26.0935 4.31061 23.4873 7.51386 23.4873C9.2667 23.4873 10.9083 24.2671 12.0173 25.6278C12.1311 25.767 12.1096 25.9719 11.9704 26.0857C11.8313 26.1995 11.6264 26.178 11.5132 26.0395C10.5278 24.8317 9.07028 24.1384 7.51386 24.1384C4.7789 24.1384 2.53435 26.2782 2.36589 28.9715H10.5337C10.7132 28.9715 10.8589 29.1172 10.8589 29.2967C10.8589 29.4762 10.7132 29.6213 10.533 29.6213Z" fill="#052BA6"/>
<path d="M7.51432 24.138C5.85578 24.138 4.50684 22.7891 4.50684 21.1305C4.50684 19.472 5.85578 18.123 7.51432 18.123C9.1722 18.123 10.5218 19.472 10.5218 21.1305C10.5218 22.7891 9.1722 24.138 7.51432 24.138ZM7.51432 18.7741C6.2148 18.7741 5.15724 19.8317 5.15724 21.1312C5.15724 22.4307 6.2148 23.4882 7.51432 23.4882C8.81383 23.4882 9.87139 22.4307 9.87139 21.1312C9.87139 19.8317 8.81383 18.7741 7.51432 18.7741ZM21.5007 29.6216H10.5335C10.354 29.6216 10.2083 29.4759 10.2083 29.2964C10.2083 26.0938 12.8138 23.4876 16.0171 23.4876C19.2197 23.4876 21.8259 26.0931 21.8259 29.2964C21.8259 29.4759 21.6802 29.6216 21.5007 29.6216ZM10.8691 28.9712H21.165C20.9966 26.2778 18.752 24.138 16.0171 24.138C13.2821 24.138 11.0376 26.2778 10.8691 28.9712Z" fill="#052BA6"/>
<path d="M16.0172 24.138C14.3594 24.138 13.0098 22.7891 13.0098 21.1305C13.0098 19.472 14.3587 18.123 16.0172 18.123C17.6758 18.123 19.0247 19.472 19.0247 21.1305C19.0247 22.7891 17.6751 24.138 16.0172 24.138ZM16.0172 18.7741C14.7177 18.7741 13.6602 19.8317 13.6602 21.1312C13.6602 22.4307 14.7177 23.4882 16.0172 23.4882C17.3168 23.4882 18.3743 22.4307 18.3743 21.1312C18.3743 19.8317 17.3168 18.7741 16.0172 18.7741ZM30.0036 29.6216H21.5008C21.3213 29.6216 21.1756 29.4759 21.1756 29.2964C21.1756 29.1169 21.3213 28.9712 21.5008 28.9712H29.6686C29.5002 26.2778 27.2556 24.138 24.5207 24.138C22.9642 24.138 21.506 24.8307 20.5213 26.0391C20.4075 26.1783 20.2033 26.1991 20.0634 26.0853C19.9242 25.9715 19.9034 25.7673 20.0172 25.6274C21.1262 24.2674 22.7678 23.4869 24.5207 23.4869C27.7233 23.4869 30.3294 26.0925 30.3294 29.2957C30.3288 29.4759 30.1831 29.6216 30.0036 29.6216Z" fill="#052BA6"/>
<path d="M24.5196 24.138C22.8611 24.138 21.5122 22.7891 21.5122 21.1305C21.5122 19.472 22.8611 18.1231 24.5196 18.1231C26.1782 18.1231 27.5271 19.472 27.5271 21.1305C27.5271 22.7891 26.1782 24.138 24.5196 24.138ZM24.5196 18.7741C23.2201 18.7741 22.1626 19.8317 22.1626 21.1312C22.1626 22.4307 23.2201 23.4883 24.5196 23.4883C25.8192 23.4883 26.8767 22.4307 26.8767 21.1312C26.8767 19.8317 25.8198 18.7741 24.5196 18.7741ZM16.0169 17.2359C15.3567 17.2359 14.8449 16.7344 14.3935 16.2928C14.1079 16.0131 13.8387 15.7497 13.5746 15.6379C13.3021 15.5227 12.9001 15.5195 12.5112 15.5162C11.8809 15.511 11.2299 15.5058 10.798 15.0746C10.3662 14.6427 10.3609 13.9917 10.3564 13.3614C10.3531 12.9725 10.3499 12.5705 10.2348 12.298C10.1229 12.034 9.85948 11.7647 9.57981 11.4792C9.13753 11.0278 8.63672 10.5159 8.63672 9.85575C8.63672 9.19559 9.13818 8.68372 9.57981 8.23233C9.85948 7.94681 10.1229 7.67754 10.2348 7.41347C10.3499 7.14095 10.3531 6.739 10.3564 6.35006C10.3616 5.71981 10.3668 5.06876 10.798 4.63689C11.2299 4.20502 11.8809 4.19981 12.5112 4.19526C12.9001 4.19201 13.3021 4.18876 13.5746 4.07363C13.8387 3.96176 14.1079 3.69835 14.3935 3.41868C14.8449 2.9764 15.3567 2.47559 16.0169 2.47559C16.677 2.47559 17.1889 2.97705 17.6403 3.41868C17.9258 3.69835 18.1951 3.96176 18.4592 4.07363C18.7317 4.18876 19.1336 4.19201 19.5226 4.19526C20.1528 4.20046 20.8039 4.20567 21.2357 4.63689C21.6676 5.06876 21.6728 5.71981 21.6774 6.35006C21.6806 6.739 21.6839 7.14095 21.799 7.41282C21.9109 7.67689 22.1743 7.94616 22.454 8.23168C22.8962 8.68307 23.397 9.19494 23.397 9.8551C23.397 10.5153 22.8956 11.0271 22.454 11.4785C22.1743 11.764 21.9102 12.0333 21.799 12.2974C21.6839 12.5699 21.6806 12.9718 21.6774 13.3608C21.6722 13.991 21.667 14.6421 21.2357 15.074C20.8045 15.5058 20.1528 15.511 19.5226 15.5156C19.1336 15.5188 18.7317 15.5221 18.4598 15.6372C18.1957 15.7491 17.9265 16.0125 17.6409 16.2922C17.1889 16.7351 16.677 17.2359 16.0169 17.2359ZM16.0169 3.12534C15.6221 3.12534 15.2462 3.49347 14.8481 3.88307C14.532 4.19266 14.2049 4.51266 13.8276 4.67266C13.4361 4.83786 12.9684 4.84176 12.5164 4.84567C11.9941 4.84957 11.5011 4.85347 11.2579 5.09672C11.0146 5.33998 11.0107 5.83298 11.0068 6.35526C11.0029 6.80729 10.9996 7.27559 10.8338 7.66648C10.6738 8.04437 10.3538 8.37087 10.0442 8.68697C9.65461 9.08502 9.28648 9.46095 9.28648 9.85575C9.28648 10.2505 9.65461 10.6265 10.0442 11.0245C10.3538 11.3406 10.6738 11.6678 10.8338 12.045C10.999 12.4366 11.0029 12.9042 11.0068 13.3562C11.0107 13.8785 11.0146 14.3715 11.2579 14.6148C11.5011 14.858 11.9941 14.8619 12.5164 14.8658C12.9684 14.8697 13.4367 14.873 13.8276 15.0388C14.2055 15.1982 14.532 15.5188 14.8481 15.8284C15.2462 16.218 15.6214 16.5862 16.0169 16.5862C16.4123 16.5862 16.7876 16.218 17.1857 15.8284C17.5018 15.5188 17.8289 15.1988 18.2062 15.0388C18.5977 14.8736 19.0653 14.8697 19.5174 14.8658C20.0396 14.8619 20.5327 14.858 20.7759 14.6148C21.0192 14.3715 21.0231 13.8785 21.0276 13.3562C21.0309 12.9042 21.0348 12.4359 21.2006 12.045C21.3606 11.6671 21.6806 11.3406 21.9902 11.0245C22.3798 10.6265 22.7479 10.2505 22.7479 9.85575C22.7479 9.46095 22.3798 9.08502 21.9902 8.68697C21.6806 8.37087 21.3606 8.04372 21.2006 7.66648C21.0354 7.27494 21.0315 6.80729 21.0276 6.35526C21.0237 5.83298 21.0198 5.33998 20.7766 5.09672C20.5333 4.85347 20.0403 4.84957 19.518 4.84567C19.066 4.84176 18.5977 4.83851 18.2068 4.67266C17.8296 4.51331 17.5024 4.19266 17.1863 3.88307C16.7876 3.49347 16.4117 3.12534 16.0169 3.12534Z" fill="#052BA6"/>
<path d="M16.0173 14.1211C13.6654 14.1211 11.752 12.2076 11.752 9.8557C11.752 7.50383 13.6654 5.59033 16.0173 5.59033C18.3692 5.59033 20.2827 7.50383 20.2827 9.8557C20.2827 12.2076 18.3692 14.1211 16.0173 14.1211ZM16.0173 6.24074C14.0238 6.24074 12.4024 7.8622 12.4024 9.8557C12.4024 11.8492 14.0238 13.4707 16.0173 13.4707C18.0108 13.4707 19.6323 11.8492 19.6323 9.8557C19.6323 7.8622 18.0108 6.24074 16.0173 6.24074Z" fill="#052BA6"/>
<path d="M14.9465 11.7377C14.8632 11.7377 14.78 11.7058 14.7162 11.6427L13.7426 10.6691C13.6158 10.5423 13.6158 10.3361 13.7426 10.2092C13.8694 10.0824 14.0756 10.0824 14.2024 10.2092L14.9465 10.9533L17.831 8.06875C17.9579 7.94193 18.164 7.94193 18.2909 8.06875C18.4177 8.19558 18.4177 8.40176 18.2909 8.52859L15.1761 11.6434C15.113 11.7058 15.0297 11.7377 14.9465 11.7377Z" fill="#052BA6"/>
</svg>
